<?xml version="1.0" standalone="no"?>
<!DOCTYPE svg PUBLIC "-//W3C//DTD SVG 20010904//EN"
 "http://www.w3.org/TR/2001/REC-SVG-20010904/DTD/svg10.dtd">
<svg version="1.0" xmlns="http://www.w3.org/2000/svg"
 width="1280.000000pt" height="936.000000pt" viewBox="0 0 1280.000000 936.000000"
 preserveAspectRatio="xMidYMid meet">
<metadata>
Created by potrace 1.15, written by Peter Selinger 2001-2017
</metadata>
<g transform="translate(0.000000,936.000000) scale(0.100000,-0.100000)"
fill="#000000" stroke="none">
<path d="M6821 9290 c67 -237 72 -250 85 -237 7 7 -53 260 -68 290 -5 9 -15
17 -23 17 -11 0 -10 -13 6 -70z"/>
<path d="M8998 9301 c-40 -40 -49 -55 -46 -78 2 -24 9 -29 38 -33 33 -5 35 -7
33 -43 -2 -25 2 -37 11 -37 28 0 133 135 154 198 9 27 9 34 -4 39 -8 3 -20 1
-27 -6 -14 -14 -54 -15 -62 -1 -14 22 -50 8 -97 -39z"/>
<path d="M6900 9280 c0 -27 4 -50 9 -50 10 0 24 77 16 91 -14 22 -25 5 -25
-41z"/>
<path d="M11445 9271 c-44 -18 -96 -50 -107 -66 -30 -42 32 -31 103 18 90 61
92 85 4 48z"/>
<path d="M9320 9259 c-17 -31 -7 -33 20 -4 19 20 20 25 7 25 -9 0 -21 -9 -27
-21z"/>
<path d="M11640 9241 c-13 -26 -13 -31 5 -31 12 0 35 28 35 44 0 14 -30 4 -40
-13z"/>
<path d="M10424 9195 c-32 -68 -27 -91 7 -39 68 103 64 94 40 94 -17 0 -28
-13 -47 -55z"/>
<path d="M9917 9233 c-4 -3 -7 -11 -7 -17 0 -6 5 -5 12 2 6 6 9 14 7 17 -3 3
-9 2 -12 -2z"/>
<path d="M4605 9200 c-8 -13 3 -50 16 -50 12 0 12 47 0 55 -5 3 -12 1 -16 -5z"/>
<path d="M8084 9199 c-9 -15 -11 -166 -1 -175 15 -15 29 15 34 74 8 86 -9 139
-33 101z"/>
<path d="M5200 9170 c0 -5 5 -10 10 -10 6 0 10 5 10 10 0 6 -4 10 -10 10 -5 0
-10 -4 -10 -10z"/>
<path d="M11985 9140 c-3 -5 -1 -10 4 -10 6 0 11 5 11 10 0 6 -2 10 -4 10 -3
0 -8 -4 -11 -10z"/>
<path d="M4797 9113 c-11 -10 -8 -53 3 -53 6 0 10 14 10 30 0 31 -2 35 -13 23z"/>
<path d="M10353 9076 c-29 -25 -26 -50 2 -26 17 14 39 50 31 50 -3 0 -18 -11
-33 -24z"/>
<path d="M8147 9083 c-10 -10 -8 -81 2 -87 12 -8 21 18 21 60 0 32 -8 42 -23
27z"/>
<path d="M11783 9068 c-26 -28 -29 -38 -9 -38 19 0 38 26 34 45 -2 14 -7 13
-25 -7z"/>
<path d="M4370 9046 c0 -36 23 -66 35 -46 4 6 4 27 1 46 -9 46 -36 46 -36 0z"/>
<path d="M12075 9069 c-10 -15 3 -25 16 -12 7 7 7 13 1 17 -6 3 -14 1 -17 -5z"/>
<path d="M6877 9034 c-4 -4 -7 -21 -7 -38 l1 -31 15 29 c15 26 8 56 -9 40z"/>
<path d="M8327 9033 c-10 -9 -9 -23 2 -23 5 0 11 7 15 15 5 15 -5 20 -17 8z"/>
<path d="M7190 9011 c0 -11 5 -23 10 -26 6 -3 10 3 10 14 0 11 -4 23 -10 26
-5 3 -10 -3 -10 -14z"/>
<path d="M10390 8974 c-12 -19 -20 -37 -17 -40 6 -6 57 54 57 67 0 20 -19 7
-40 -27z"/>
<path d="M7594 8986 c-4 -10 -2 -22 4 -28 8 -8 13 -7 18 6 4 10 2 22 -4 28 -8
8 -13 7 -18 -6z"/>
<path d="M10269 8946 c-25 -31 -50 -53 -57 -51 -8 3 -34 -9 -60 -27 -55 -38
-38 -51 18 -14 22 15 40 25 40 22 0 -2 -30 -44 -67 -94 -66 -87 -257 -290
-398 -422 -108 -101 -264 -278 -291 -331 -13 -26 -39 -59 -57 -73 -38 -29 -47
-32 -47 -13 0 7 -9 23 -20 35 -16 17 -20 31 -15 60 l5 37 -15 -30 c-8 -16 -14
-40 -15 -53 0 -12 -7 -39 -16 -60 -9 -20 -16 -46 -16 -57 2 -24 -15 -47 -48
-65 -21 -11 -25 -11 -35 5 -5 10 -20 30 -32 45 -31 37 -29 46 10 59 49 16 102
64 94 84 -14 37 -142 14 -194 -35 -28 -26 -29 -46 -5 -64 16 -12 16 -13 -4
-14 -12 0 -33 -9 -46 -20 l-25 -19 -12 26 c-20 43 1 87 52 107 41 16 109 70
252 200 39 35 89 81 113 101 38 34 55 65 34 65 -11 0 -52 -28 -84 -58 l-27
-25 -11 29 c-6 16 -22 39 -36 52 -13 13 -24 28 -24 35 1 37 20 86 44 110 28
28 35 57 13 57 -20 0 -41 -27 -76 -98 -58 -115 -126 -169 -161 -127 -16 19 -9
45 16 61 18 13 24 12 47 -6 40 -32 45 -4 6 36 -18 19 -36 34 -40 34 -5 0 -14
-12 -21 -27 -11 -23 -20 -28 -44 -26 -23 2 -38 -5 -59 -27 -16 -17 -34 -30
-39 -30 -15 -1 -65 -48 -100 -94 -15 -20 -39 -42 -52 -48 -34 -16 -74 -89 -78
-143 -2 -26 -6 -48 -8 -51 -3 -2 -21 11 -40 30 -25 25 -37 46 -41 75 -7 52
-24 76 -43 60 -24 -20 -16 -58 20 -92 18 -18 45 -55 60 -83 23 -42 25 -55 17
-78 -19 -49 -13 -85 18 -117 37 -36 97 -40 142 -8 27 19 29 19 30 2 1 -10 1
-21 0 -25 0 -4 15 -10 35 -14 25 -5 40 -2 53 10 18 16 19 15 23 -14 5 -33 0
-37 -22 -17 -7 6 -3 -1 9 -17 l22 -30 -26 -20 c-14 -12 -40 -50 -58 -86 -30
-61 -35 -66 -82 -81 -27 -9 -63 -24 -80 -33 -16 -9 -34 -16 -39 -16 -5 0 -17
-7 -26 -15 -9 -8 -41 -20 -71 -26 -48 -9 -61 -8 -115 13 -65 25 -79 40 -43 48
12 3 24 11 26 17 3 7 -4 9 -16 6 -12 -3 -21 -1 -21 6 0 6 9 11 19 11 30 0 63
48 56 81 -8 33 15 80 48 102 34 22 46 100 21 128 -22 24 -46 24 -67 1 -22 -24
-21 -55 2 -76 45 -41 1 -108 -80 -121 -61 -10 -74 7 -49 64 11 24 20 49 20 55
0 15 -91 76 -112 76 -8 0 -23 9 -33 20 -10 11 -22 20 -27 20 -12 0 -36 -57
-43 -103 -4 -27 -13 -41 -30 -49 -14 -6 -27 -23 -30 -39 -8 -35 -21 -36 -58
-6 l-27 22 39 56 c47 67 59 99 37 99 -17 0 -80 -64 -75 -76 2 -5 13 -7 24 -6
19 3 19 2 4 -13 -13 -13 -21 -15 -37 -6 -35 18 -51 13 -93 -31 -23 -24 -38
-38 -35 -31 4 6 2 14 -3 17 -11 7 -111 -100 -111 -120 0 -18 26 -6 54 25 28
31 35 26 20 -16 -14 -40 -18 -113 -8 -150 3 -11 14 -23 25 -26 11 -3 19 -14
19 -26 0 -17 -5 -21 -26 -19 -36 4 -55 -25 -32 -48 14 -14 20 -15 32 -4 14 11
16 9 16 -9 0 -12 -4 -19 -10 -16 -6 4 -10 -9 -10 -33 0 -46 -11 -58 -62 -67
-31 -6 -38 -4 -38 9 0 22 -32 86 -43 86 -5 0 -14 -13 -20 -30 -6 -16 -17 -30
-25 -30 -7 0 -26 -14 -42 -32 -29 -31 -30 -31 -50 -13 -26 23 -25 47 2 95 19
33 26 38 49 33 34 -6 69 26 69 63 0 31 17 49 49 51 42 3 55 54 18 77 -14 9
-23 5 -47 -19 -45 -45 -62 -59 -92 -78 -14 -9 -29 -26 -33 -37 -4 -14 -15 -20
-36 -20 -37 0 -76 -20 -107 -53 -13 -14 -36 -31 -52 -37 -15 -6 -32 -21 -38
-33 -8 -16 -11 -18 -11 -6 -1 22 23 90 59 166 24 51 28 67 19 82 -9 14 -7 31
10 81 11 35 21 71 20 79 0 9 -16 -31 -35 -88 -18 -57 -41 -115 -49 -128 -9
-12 -13 -33 -10 -45 4 -17 -3 -33 -25 -57 -24 -25 -30 -40 -25 -58 3 -13 2
-29 -2 -36 -4 -6 -8 -29 -8 -49 -2 -56 -15 -65 -72 -46 -43 13 -49 20 -41 46
2 4 -2 8 -7 9 -6 2 -10 -5 -10 -14 0 -10 -16 -20 -45 -29 -68 -21 -77 -18 -49
13 18 21 18 23 3 10 -15 -12 -30 -15 -53 -11 -45 9 -47 20 -11 54 36 34 34 59
-7 100 -21 21 -23 21 -12 4 7 -12 9 -29 5 -40 -6 -16 -10 -12 -23 21 -8 22
-17 50 -20 63 -7 30 -29 28 -47 -5 -32 -63 -121 -123 -180 -123 -19 0 -23 -4
-19 -20 3 -13 -1 -22 -12 -26 -22 -9 -43 12 -30 30 6 7 32 42 59 77 45 59 48
67 42 107 -5 34 0 56 23 107 33 73 57 213 64 375 6 146 -10 65 -22 -113 -8
-110 -14 -144 -30 -171 -12 -18 -21 -42 -21 -52 0 -11 -10 -35 -21 -54 -14
-23 -21 -52 -22 -85 0 -42 -6 -57 -35 -94 -44 -55 -132 -99 -166 -83 -13 5
-34 34 -49 64 -37 75 -137 225 -186 278 -37 40 -36 37 10 -23 54 -72 179 -282
179 -303 0 -6 -14 -17 -31 -25 -17 -7 -53 -33 -78 -59 -26 -26 -59 -55 -74
-65 -37 -24 -36 -69 3 -115 17 -19 30 -40 30 -47 0 -18 -32 -83 -41 -83 -27 0
-171 54 -176 66 -3 9 14 31 46 60 28 25 51 54 51 64 0 11 5 22 10 25 34 21 -6
115 -106 250 -48 66 -112 133 -74 79 8 -12 25 -36 38 -53 21 -28 22 -31 5 -31
-10 0 -33 9 -50 20 -28 17 -32 23 -27 50 8 37 -17 51 -46 25 -11 -10 -20 -14
-21 -9 -3 29 4 79 12 82 5 2 9 9 9 16 0 7 12 23 26 37 88 81 99 246 20 318
-18 17 -26 35 -26 58 0 41 -29 171 -39 177 -4 3 -13 1 -19 -3 -10 -6 -11 -22
-3 -72 16 -97 18 -92 -41 -85 -38 4 -68 1 -106 -13 -37 -13 -54 -15 -60 -7
-13 17 -70 158 -76 189 -9 37 -18 34 -50 -15 -26 -40 -27 -44 -15 -88 19 -66
17 -187 -3 -236 -9 -23 -14 -44 -11 -47 3 -3 0 -38 -7 -77 -13 -77 -28 -94
-60 -65 -17 16 -18 20 -5 38 8 12 15 26 15 31 0 6 -7 0 -16 -12 -8 -12 -21
-22 -28 -22 -19 0 -46 34 -46 57 0 11 -7 26 -15 33 -12 10 -23 7 -60 -14 -46
-27 -75 -68 -75 -106 0 -29 -23 -70 -58 -104 -17 -15 -36 -41 -42 -56 -11 -26
-133 -110 -160 -110 -5 0 -10 -4 -10 -10 0 -21 -26 -9 -48 23 -12 17 -54 66
-92 107 l-71 75 86 -104 c47 -57 88 -115 91 -128 6 -22 3 -63 -12 -200 -8 -69
-55 -123 -108 -123 -35 0 -36 1 -36 36 0 19 5 45 12 57 18 32 45 144 52 212
l6 60 -14 -65 c-20 -93 -41 -140 -83 -178 -30 -28 -34 -38 -29 -63 8 -44 -15
-91 -79 -158 -30 -32 -55 -64 -55 -72 0 -28 -41 -80 -87 -109 -26 -17 -52 -30
-57 -30 -6 1 -22 23 -34 51 l-24 49 21 41 c18 33 19 41 6 45 -18 7 -52 -17
-76 -52 -18 -27 -17 -28 17 -68 40 -47 51 -78 36 -110 -6 -15 -7 -28 0 -40 7
-12 7 -21 -1 -29 -8 -8 -11 -6 -11 6 0 35 -28 17 -35 -22 -6 -39 -41 -91 -61
-91 -5 0 -22 -6 -36 -12 -24 -12 -26 -17 -21 -54 6 -45 -13 -74 -47 -74 -11 0
-24 -9 -30 -20 -11 -21 -40 -28 -40 -10 0 30 -63 -20 -104 -83 -20 -30 -47
-35 -66 -12 -18 22 -30 18 -30 -8 0 -13 -13 -34 -31 -50 l-31 -27 -26 25 c-13
14 -31 25 -38 25 -22 0 -16 -8 16 -25 32 -17 50 -59 31 -78 -6 -6 -11 -30 -11
-53 0 -43 -25 -69 -41 -42 -7 10 -11 10 -21 0 -9 -9 -9 -15 -1 -23 9 -9 -2
-27 -39 -73 -58 -69 -175 -180 -228 -216 -19 -13 -48 -35 -63 -49 -15 -14 -35
-26 -44 -26 -11 0 -21 -16 -29 -49 -8 -31 -25 -62 -49 -86 -19 -20 -33 -39
-29 -43 3 -3 -3 -19 -15 -35 -12 -17 -21 -34 -21 -39 0 -4 -9 -19 -19 -32 -16
-21 -19 -22 -25 -5 -5 13 5 29 34 59 38 38 56 71 26 46 -7 -6 -21 -8 -31 -5
-13 5 -16 2 -13 -13 4 -25 -19 -53 -44 -53 -36 0 -58 -19 -58 -51 0 -23 -10
-40 -36 -64 -19 -19 -41 -39 -47 -45 -7 -6 -22 -21 -34 -32 -25 -24 -30 -54
-10 -61 16 -6 47 11 47 26 0 7 9 18 20 25 11 7 20 19 20 27 0 21 59 85 78 85
11 0 2 -14 -26 -43 -24 -24 -47 -59 -52 -78 -6 -21 -40 -69 -84 -118 -41 -45
-78 -91 -81 -102 -4 -10 -10 -19 -15 -19 -20 0 -69 53 -80 85 -6 19 -18 35
-26 35 -11 0 -6 -16 17 -62 29 -58 31 -67 23 -118 -8 -48 -13 -57 -40 -71 -18
-8 -46 -27 -64 -42 -17 -15 -43 -27 -56 -27 -14 0 -36 -7 -49 -16 -16 -10 -34
-14 -53 -9 -16 3 -40 1 -55 -4 -18 -7 -27 -7 -30 2 -3 8 -11 6 -25 -7 -20 -18
-22 -18 -49 2 -16 11 -44 24 -63 30 -32 8 -35 12 -32 43 1 19 21 71 44 117 36
72 45 82 63 78 32 -8 65 20 65 54 0 16 -5 32 -11 35 -15 10 22 33 79 50 129
39 172 191 77 274 -72 63 -161 62 -232 -2 -30 -28 -35 -40 -40 -94 -5 -51 -2
-69 16 -103 31 -61 28 -94 -18 -149 -47 -57 -61 -83 -61 -114 0 -30 -19 -87
-30 -87 -4 0 -17 21 -29 47 -19 45 -20 45 -15 13 4 -19 9 -39 12 -45 26 -43
-13 -150 -77 -213 -23 -22 -41 -44 -41 -49 0 -11 -32 -43 -43 -43 -3 0 1 12 9
27 48 94 -36 195 -124 149 -39 -20 -52 -44 -52 -94 0 -58 43 -102 99 -102 l40
0 -21 -37 c-12 -21 -23 -40 -25 -42 -1 -2 -11 3 -21 12 -28 25 -60 21 -99 -13
-18 -16 -38 -30 -43 -30 -6 0 -29 -9 -53 -19 -63 -28 -74 -30 -86 -18 -8 8
-14 9 -19 1 -4 -5 -23 -16 -42 -24 -19 -7 -39 -18 -45 -24 -14 -15 -105 -46
-136 -46 -14 0 -31 6 -38 13 -10 10 -15 8 -26 -6 -14 -19 -74 -39 -190 -63
-88 -18 -82 -19 -90 13 -5 22 -1 32 25 56 30 28 32 33 26 79 -7 47 -6 49 42
101 26 28 58 65 71 82 12 16 46 41 74 55 36 17 57 36 69 58 15 31 66 88 152
172 19 19 62 61 94 93 42 40 67 58 88 59 27 2 43 2 122 6 21 1 45 13 69 35 32
30 37 41 41 91 5 63 18 78 117 130 28 15 69 42 92 60 23 19 63 42 90 51 83 31
176 79 185 98 4 9 12 25 17 35 5 11 21 17 42 18 19 1 42 2 51 3 10 0 24 14 32
29 11 22 34 36 95 60 91 36 104 38 121 17 7 -8 37 -22 66 -31 l54 -15 45 44
c37 37 45 51 45 80 0 75 -51 126 -127 129 -72 2 -113 -46 -113 -133 0 -36 -3
-39 -47 -59 -97 -43 -134 -53 -158 -40 -32 17 -65 4 -71 -30 -8 -36 -43 -53
-69 -34 -32 24 -53 16 -129 -51 -41 -35 -76 -61 -79 -57 -2 4 -2 1 -1 -5 4
-17 -27 -45 -89 -79 -29 -15 -76 -47 -105 -71 -64 -52 -86 -59 -134 -38 -21 8
-55 15 -77 15 -34 0 -44 -5 -70 -39 -17 -21 -31 -43 -31 -47 0 -5 -10 -40 -21
-79 -21 -68 -56 -115 -87 -115 -7 0 -34 -21 -59 -46 -26 -25 -63 -54 -82 -64
-20 -10 -52 -35 -71 -55 -19 -20 -54 -45 -77 -55 -42 -19 -56 -37 -68 -93 -3
-16 -25 -50 -49 -75 -24 -26 -51 -63 -61 -82 -26 -53 -45 -70 -77 -70 -52 0
-101 -82 -69 -115 5 -6 6 -39 2 -75 -6 -65 -6 -65 -41 -71 -19 -3 -69 -26
-110 -51 -41 -25 -86 -49 -100 -53 -14 -4 -45 -19 -70 -34 -24 -14 -63 -35
-86 -46 -62 -30 -298 -290 -331 -363 -13 -32 -43 -93 -65 -137 -23 -44 -44
-96 -47 -115 -8 -48 -44 -61 -100 -36 -21 10 -44 15 -50 12 -19 -12 -12 -43
15 -61 22 -14 25 -21 19 -51 -3 -19 -14 -54 -24 -78 -15 -33 -18 -62 -16 -132
2 -49 3 -92 4 -95 1 -4 22 -23 48 -43 40 -31 54 -36 99 -36 74 0 180 40 222
84 20 22 49 40 75 46 23 6 56 16 73 21 42 13 60 11 73 -5 7 -8 27 -18 44 -21
18 -4 40 -15 50 -23 17 -16 20 -15 32 1 15 21 29 22 21 2 -11 -28 23 -28 47 0
l23 28 22 -37 c22 -38 51 -47 71 -22 16 20 3 45 -28 52 -53 12 -61 16 -61 29
0 17 -34 28 -60 20 -13 -4 -34 2 -56 15 -27 17 -44 21 -74 16 -22 -3 -41 -2
-45 4 -3 5 -26 18 -50 29 -25 11 -45 24 -45 29 0 5 -11 21 -25 36 -14 15 -25
39 -25 54 0 15 -9 51 -19 79 -16 43 -17 60 -9 93 8 30 8 56 -1 93 -10 45 -8
63 10 137 12 47 27 97 35 111 21 43 104 120 149 139 22 9 47 25 55 34 24 31
170 97 244 112 39 8 90 22 113 30 41 16 42 16 77 -11 29 -22 42 -26 70 -21 25
5 35 3 39 -8 3 -8 17 -22 30 -31 21 -14 28 -14 60 0 34 14 35 16 26 47 -11 41
-36 60 -71 55 -25 -3 -38 8 -38 32 0 4 35 18 78 30 42 13 111 36 152 52 109
41 172 57 177 42 3 -8 11 -7 31 3 15 8 39 14 55 14 17 0 27 5 27 14 0 8 17 20
37 27 21 6 59 22 85 35 60 30 76 30 90 -1 6 -14 15 -25 20 -25 9 0 67 -61 68
-71 0 -3 -40 -37 -89 -77 -61 -48 -108 -97 -146 -150 -64 -89 -120 -126 -156
-104 -51 32 -129 -13 -169 -97 l-24 -53 23 -18 c35 -26 26 -41 -144 -234 -71
-81 -139 -162 -150 -179 -11 -18 -25 -38 -32 -45 -7 -7 -20 -26 -30 -43 -13
-22 -30 -34 -61 -42 -29 -8 -56 -25 -79 -51 -30 -33 -34 -43 -29 -74 10 -64
18 -67 202 -69 165 -1 165 -2 185 -27 33 -42 51 -47 100 -29 56 21 89 50 89
79 0 13 4 26 10 29 5 3 -6 22 -25 40 -29 29 -42 35 -78 35 -30 0 -55 -8 -78
-23 -31 -21 -38 -22 -64 -11 -17 7 -52 14 -80 14 -43 1 -47 3 -30 13 45 27
139 137 190 222 72 120 146 226 167 239 28 17 47 -8 25 -32 -27 -29 -22 -88 8
-108 34 -22 86 -33 114 -22 28 10 50 -13 51 -50 0 -13 7 -37 16 -53 13 -25 13
-33 2 -46 -7 -9 -13 -36 -14 -60 -1 -36 -7 -51 -35 -79 -19 -20 -44 -40 -56
-44 -12 -5 -24 -21 -28 -39 -4 -17 -13 -31 -21 -31 -8 0 -14 -7 -14 -15 0 -9
9 -15 24 -15 31 0 40 -14 26 -37 -5 -10 -14 -30 -20 -45 -22 -62 -240 -178
-280 -149 -26 19 -40 23 -56 17 -13 -5 -14 -9 -5 -20 10 -11 2 -24 -39 -62
-28 -26 -65 -58 -83 -71 -31 -23 -32 -23 -39 -3 -15 40 -88 10 -88 -36 0 -35
26 -41 56 -14 26 26 32 16 10 -16 -11 -15 -23 -20 -44 -16 -21 3 -36 -2 -51
-17 -12 -12 -26 -19 -32 -16 -23 15 -88 -7 -123 -42 -34 -34 -38 -35 -85 -29
-53 7 -86 -10 -75 -39 9 -23 55 -19 61 5 4 14 14 20 33 20 l28 0 -19 -37 c-10
-21 -17 -45 -14 -54 6 -17 -13 -43 -37 -52 -9 -3 -7 -10 8 -20 11 -9 26 -34
34 -57 12 -37 41 -70 62 -70 4 0 19 11 33 24 14 14 45 27 68 31 51 8 99 38
179 111 42 39 64 54 76 49 9 -4 45 -9 79 -12 58 -5 63 -4 88 23 l27 29 -8 -30
c-4 -17 -18 -54 -30 -84 -13 -29 -24 -65 -24 -80 0 -14 -7 -47 -17 -73 -20
-56 -8 -96 42 -134 29 -22 43 -24 149 -28 l117 -3 19 -30 c26 -43 58 -63 101
-63 39 0 89 31 89 55 0 23 19 27 42 11 28 -20 62 -20 78 -1 9 11 16 12 26 4
15 -12 91 -3 111 13 7 6 14 4 20 -6 9 -16 86 -46 118 -46 28 0 45 19 45 50 0
20 -9 31 -37 45 -21 11 -42 19 -48 20 -5 0 -19 11 -31 24 -29 34 -72 23 -81
-20 -6 -29 -8 -31 -40 -26 -20 4 -43 1 -54 -6 -14 -9 -21 -9 -31 1 -15 15 -49
15 -82 1 -23 -11 -28 -8 -55 20 -38 40 -98 45 -154 13 -27 -16 -29 -16 -45 5
-9 12 -36 29 -60 38 -23 10 -42 18 -42 19 0 1 19 23 43 48 54 58 76 113 54
135 -14 14 -18 13 -40 -11 -13 -14 -27 -26 -30 -26 -7 0 40 149 52 164 8 10
25 10 71 3 52 -8 67 -7 118 12 71 27 89 54 101 148 7 56 6 71 -7 86 -15 16
-15 21 1 50 9 18 21 45 27 60 6 16 19 31 30 34 11 3 20 13 20 23 0 21 24 43
67 59 18 7 38 20 44 28 11 13 59 46 142 97 27 17 30 17 49 0 16 -15 19 -28 15
-74 -5 -62 -27 -128 -49 -144 -30 -22 -55 -89 -46 -123 11 -41 61 -83 99 -83
61 0 119 53 119 109 0 30 16 34 34 6 39 -59 96 -95 160 -100 58 -4 124 -37
169 -83 31 -32 37 -44 31 -66 -16 -63 28 -106 110 -106 21 0 36 -6 40 -15 6
-17 51 -20 61 -5 3 6 15 10 26 10 10 0 19 5 19 10 0 6 5 10 10 10 6 0 10 -11
10 -25 0 -30 41 -75 68 -75 11 0 31 9 44 20 25 19 25 19 99 -5 80 -27 105 -55
92 -104 -9 -36 24 -53 51 -25 12 12 16 12 18 2 0 -7 2 -17 3 -23 2 -5 3 -16 4
-22 2 -19 55 -43 72 -32 8 4 22 6 32 3 24 -8 35 25 14 41 -10 7 -17 16 -17 20
0 15 -35 34 -62 35 -31 0 -36 11 -14 29 19 16 110 -10 144 -42 17 -15 26 -18
29 -9 3 6 15 12 29 12 17 0 29 -10 43 -39 30 -57 84 -62 111 -11 11 21 -1 57
-24 72 -16 11 -54 10 -74 -3 -14 -9 -37 -6 -104 15 -47 14 -94 26 -103 26 -10
0 -32 17 -51 37 -28 30 -41 37 -79 39 -24 2 -47 -2 -51 -7 -5 -9 -57 -4 -76 8
-4 2 2 13 12 23 26 26 25 65 -1 91 -17 17 -28 19 -64 14 -40 -6 -44 -5 -47 15
-2 13 -10 26 -18 30 -52 24 -55 28 -58 70 -3 42 -34 103 -67 130 -27 22 -79
17 -125 -14 -49 -32 -64 -28 -126 32 -40 39 -54 69 -54 115 0 40 -6 47 -53 76
-21 13 -43 35 -48 50 -19 50 10 271 41 304 4 4 13 1 20 -8 18 -22 61 -19 67 5
3 11 10 20 15 20 21 0 49 -23 58 -46 6 -15 26 -32 55 -44 31 -13 46 -27 51
-44 6 -25 64 -85 64 -66 0 5 8 10 19 10 10 0 21 9 24 20 3 11 12 20 21 20 12
0 16 -10 16 -38 0 -28 9 -50 32 -80 28 -36 38 -42 70 -42 54 0 84 17 104 61
23 51 38 64 54 44 16 -20 45 -19 77 2 24 16 26 16 39 -2 8 -10 14 -25 14 -32
0 -8 9 -31 20 -53 19 -38 28 -120 13 -120 -4 0 -31 10 -60 22 -46 19 -57 20
-93 9 -71 -21 -100 -96 -61 -155 40 -60 93 -70 185 -35 l56 22 59 -27 c70 -31
104 -33 153 -7 52 28 128 33 128 8 0 -7 13 -26 30 -42 28 -27 30 -27 30 -8 0
11 -7 26 -15 33 -9 7 -13 15 -11 18 3 2 48 4 100 3 52 -1 96 2 99 6 14 22 -17
31 -138 41 -72 6 -144 16 -160 22 -62 26 -155 73 -163 84 -5 6 -17 48 -27 92
-18 81 -17 82 4 145 21 63 54 109 77 109 16 0 34 31 34 57 0 10 24 44 53 76
l54 57 47 -26 c43 -24 52 -26 86 -15 51 15 50 15 50 -22 0 -58 58 -88 93 -49
10 10 17 32 17 48 0 35 -34 94 -55 94 -11 0 -15 11 -15 36 0 41 -26 91 -52
100 -25 7 -23 15 17 92 56 107 71 131 115 183 34 40 47 49 74 49 41 0 56 15
56 57 0 33 3 37 52 74 20 15 28 29 28 52 1 77 24 71 118 -27 34 -36 69 -66 77
-66 21 0 19 17 -3 24 -22 8 -102 103 -102 123 0 7 10 17 23 22 13 5 56 30 96
56 49 32 77 44 91 40 32 -10 23 11 -10 25 -35 14 -36 18 -14 49 11 15 23 21
36 18 13 -4 28 3 44 20 22 24 54 26 54 3 0 -5 7 -10 15 -10 17 0 20 25 5 35
-5 3 -10 9 -10 13 0 9 102 72 117 72 6 0 36 -18 68 -39 57 -39 75 -43 75 -17
0 17 90 62 113 58 9 -2 17 -7 17 -10 0 -12 -202 -238 -240 -268 -47 -39 -57
-52 -70 -99 -7 -23 -39 -72 -76 -115 -42 -50 -86 -119 -130 -205 -77 -152 -79
-155 -110 -155 -37 0 -93 -56 -105 -105 -14 -57 -62 -102 -124 -118 -67 -17
-85 -44 -90 -138 -3 -40 0 -88 5 -105 12 -35 64 -89 96 -98 21 -6 156 36 182
57 38 31 48 113 27 228 -7 34 -4 38 38 73 55 45 82 104 66 140 -11 22 -6 31
42 87 30 34 73 79 96 101 25 24 67 86 103 152 36 67 71 119 88 130 36 24 72
76 72 103 0 21 12 40 106 174 62 89 154 177 192 185 15 3 34 9 42 13 25 14 80
0 95 -23 7 -11 18 -53 25 -91 11 -60 10 -75 -4 -108 -14 -34 -18 -37 -36 -27
-30 16 -40 5 -29 -32 16 -56 54 -56 61 -1 4 37 28 42 28 6 0 -15 5 -35 10 -43
13 -20 13 20 -1 79 -12 56 3 109 36 121 17 6 37 35 64 94 26 53 54 95 76 113
44 36 173 70 301 79 95 7 116 2 158 -37 14 -13 35 -19 71 -19 96 0 120 48 65
129 -17 24 -30 51 -30 60 0 9 -12 54 -25 100 -14 47 -25 91 -25 97 0 15 56 59
88 69 19 5 22 3 22 -19 0 -34 13 -40 68 -26 42 11 57 10 147 -15 186 -50 180
-48 177 -71 -1 -12 4 -27 13 -34 14 -11 23 -10 61 8 36 18 45 27 42 45 -3 20
-9 22 -63 23 -33 1 -80 6 -105 13 -118 32 -190 55 -190 61 0 4 9 15 20 25 30
27 26 71 -7 92 -16 9 -30 18 -32 20 -2 1 -5 20 -7 42 -3 32 2 47 23 72 20 23
23 33 13 39 -7 4 -9 13 -5 20 10 17 154 3 178 -18 9 -8 17 -10 17 -5 0 21 -31
36 -88 42 l-57 7 75 18 c41 9 95 26 118 37 31 13 49 16 62 9 20 -11 30 -4 30
21 0 26 26 36 97 38 68 1 84 -10 57 -40 -22 -25 -11 -36 20 -20 20 11 30 9 80
-19 37 -21 78 -35 114 -39 l57 -6 3 -42 c2 -33 10 -48 38 -72 19 -17 39 -31
45 -31 6 0 9 -6 6 -12 -2 -9 -20 -12 -55 -10 -46 3 -54 1 -89 -31 -34 -32 -38
-40 -38 -86 0 -41 5 -55 29 -80 16 -17 44 -33 62 -37 39 -7 99 19 121 53 l16
23 33 -32 c43 -42 43 -58 0 -58 -41 0 -65 -23 -46 -45 7 -8 23 -15 36 -15 27
0 40 -15 22 -26 -7 -5 -46 -11 -87 -14 -48 -3 -76 -10 -79 -18 -3 -10 16 -11
90 -6 l94 7 31 -36 c18 -20 40 -56 51 -79 17 -40 23 -45 89 -65 74 -25 206
-32 218 -12 5 7 14 4 26 -7 15 -13 18 -25 13 -47 -5 -23 1 -38 25 -72 36 -50
40 -84 11 -92 -24 -6 -26 -19 -4 -27 13 -5 14 -16 9 -61 -10 -74 12 -131 71
-184 55 -51 83 -62 159 -63 79 -1 125 20 200 90 33 31 69 62 80 68 18 10 18
13 5 29 -10 12 -15 41 -15 92 l0 74 37 10 c20 5 51 21 68 35 27 23 30 24 30 7
0 -119 125 -223 267 -223 62 0 173 38 210 72 27 25 83 17 83 -12 0 -11 25 -45
56 -77 46 -48 52 -53 40 -26 -20 41 -20 52 3 106 17 40 25 47 71 62 82 27 197
140 244 240 25 51 53 180 61 272 l6 82 -40 25 c-46 29 -46 48 0 66 31 13 39
30 13 30 -9 0 -38 -8 -64 -17 -37 -13 -54 -14 -81 -6 -29 9 -31 11 -14 17 59
20 169 82 211 119 79 69 104 112 104 174 0 54 30 124 65 153 25 21 17 30 -27
30 -55 1 -85 24 -118 91 -23 48 -33 57 -105 96 -100 54 -94 52 -130 55 -27 3
-30 7 -33 39 l-3 37 39 -11 c57 -15 146 6 205 49 55 40 76 69 89 126 5 23 14
46 21 50 7 4 7 8 2 8 -6 0 -11 18 -12 40 -1 22 -7 45 -13 52 -6 7 -19 29 -28
48 -14 28 -24 36 -55 41 -46 7 -60 19 -55 50 3 22 8 24 65 24 69 0 103 18 138
73 15 23 29 31 55 34 23 2 35 8 35 18 0 8 -16 20 -35 26 -44 15 -48 33 -14 73
15 18 30 47 33 64 6 29 11 32 55 39 54 7 88 27 112 63 9 14 25 25 36 25 10 0
17 4 13 9 -3 5 0 29 6 53 10 38 9 49 -11 96 -40 92 -72 103 -192 66 -82 -26
-148 -123 -134 -198 l6 -33 -80 -7 c-44 -4 -84 -5 -88 -2 -5 3 -2 44 5 92 10
65 19 91 33 101 26 18 25 33 0 33 -15 0 -22 9 -27 31 -14 71 -69 32 -135 -97
-30 -59 -46 -80 -58 -77 -12 4 -12 3 -1 -5 11 -8 11 -16 1 -46 -16 -48 -47
-68 -103 -65 -25 2 -51 -2 -59 -8 -14 -12 -152 -37 -305 -57 -106 -14 -132 -6
-159 45 -17 33 -12 45 21 51 12 2 28 20 40 45 18 39 25 45 83 64 53 18 66 19
73 8 5 -8 9 -17 9 -21 0 -13 41 -20 54 -9 8 6 21 9 30 5 20 -8 21 3 1 22 -22
23 -18 37 17 59 18 11 48 40 66 65 26 33 42 45 61 45 34 0 106 67 97 90 -4 12
-17 16 -48 13 -47 -3 -56 9 -40 53 9 23 12 24 103 21 65 -2 110 2 144 12 28 9
69 16 92 16 54 0 73 25 73 98 0 46 4 57 30 81 21 19 29 33 24 45 -9 24 34 67
97 97 l51 23 57 -64 c42 -46 62 -62 74 -57 9 3 17 16 17 27 0 34 34 58 95 65
78 10 156 75 90 75 -32 0 -32 14 1 29 22 10 28 9 39 -5 9 -13 14 -14 20 -5 4
7 2 18 -4 24 -8 8 6 21 51 50 65 41 71 40 85 -12 5 -19 0 -29 -20 -46 -22 -17
-27 -29 -27 -68 0 -67 44 -115 114 -125 l49 -7 -34 -26 c-62 -47 -75 -51 -109
-34 -26 13 -29 19 -23 46 7 34 -6 49 -45 49 -30 0 -99 -44 -106 -68 -4 -11
-24 -37 -45 -59 -24 -26 -42 -58 -50 -88 -6 -26 -22 -60 -34 -77 -16 -21 -22
-44 -22 -80 0 -43 4 -53 33 -79 27 -24 41 -29 86 -29 45 0 58 4 77 26 41 45
53 55 101 85 35 22 54 45 74 85 27 54 27 63 8 145 -5 22 -2 27 18 32 12 4 64
46 113 94 63 62 104 94 138 107 54 20 86 58 68 79 -7 9 -8 24 -1 48 6 18 10
50 10 70 0 30 7 43 40 73 39 35 80 48 80 25 0 -7 11 -9 27 -6 15 3 35 1 45 -4
14 -8 15 -14 6 -40 -6 -16 -8 -32 -5 -35 8 -8 55 18 61 33 6 15 -29 56 -55 65
-11 4 -12 8 -1 19 21 23 13 28 -35 23 -58 -6 -83 7 -67 33 9 16 92 79 134 103
24 14 5 21 -25 10 -24 -9 -26 -8 -21 6 5 14 4 15 -9 4 -12 -10 -15 -10 -15 3
0 24 -36 40 -60 27 -15 -8 -20 -8 -20 1 0 6 9 13 20 16 24 6 26 30 5 53 -20
22 -11 29 77 64 73 29 82 31 73 16 -8 -13 48 11 57 24 4 6 23 11 43 13 50 3
128 48 182 107 37 39 53 49 75 48 16 -1 28 2 28 8 0 5 -7 10 -15 10 -9 0 -14
8 -12 23 9 84 -257 -58 -299 -160 -14 -33 -49 -51 -79 -39 -8 3 -23 -3 -32
-13 -20 -20 -56 -41 -72 -41 -6 0 2 20 17 44 18 29 36 46 53 50 20 4 34 19 53
57 29 60 33 91 12 108 -33 28 -76 -26 -117 -148 -23 -65 -44 -91 -74 -91 -12
0 -34 -9 -48 -20 -14 -11 -32 -20 -41 -20 -9 0 -34 -9 -56 -20 -53 -27 -67
-19 -75 46 -8 62 -20 75 -72 78 -51 4 -96 17 -105 30 -12 17 -9 71 4 84 16 16
52 15 113 -4 l52 -17 43 32 c54 39 70 39 70 3 0 -37 -23 -68 -68 -92 -35 -19
-36 -20 -7 -14 17 4 39 10 50 15 24 9 95 77 95 91 0 5 -12 20 -26 35 -27 27
-37 27 -109 -1 -43 -16 -88 -19 -120 -7 -14 6 -23 23 -30 62 -10 51 -12 54
-40 54 l-30 0 0 -62 c0 -53 -4 -66 -25 -87 -39 -38 -75 -43 -94 -13 -19 28 -7
77 18 77 22 0 30 19 18 43 -6 12 -13 30 -16 40 -7 22 -54 23 -63 1 -3 -9 3
-23 16 -35 11 -11 21 -24 21 -29 0 -25 -26 -60 -56 -76 -37 -20 -83 -82 -140
-191 -30 -56 -41 -70 -51 -61 -7 6 -13 16 -13 22 0 25 -49 58 -93 63 -40 5
-48 2 -81 -28 -28 -26 -39 -44 -43 -76 -5 -38 -2 -45 26 -74 29 -29 36 -31 85
-27 48 4 53 3 48 -14 -3 -13 -13 -18 -33 -16 -18 1 -37 -6 -53 -21 -37 -34
-57 -24 -93 49 -45 88 -43 138 7 195 32 36 34 62 6 89 -14 13 -26 28 -26 35 0
6 -6 11 -12 11 -7 1 16 13 50 27 35 14 66 32 69 40 3 8 -4 24 -16 37 l-21 22
48 46 c26 25 57 51 68 56 12 6 24 24 27 40 3 17 21 40 41 56 20 15 36 32 36
38 0 6 12 27 28 47 44 58 70 93 98 136 15 22 54 73 87 113 32 40 57 75 54 78
-2 2 -24 -20 -48 -50z m-1054 -612 c22 -9 46 -59 39 -81 -12 -36 -28 -63 -38
-63 -22 0 -76 47 -86 74 -12 34 -8 43 33 60 18 8 33 15 34 15 1 1 9 -2 18 -5z
m484 -118 c-9 -18 -9 -33 0 -56 8 -23 8 -38 0 -52 -6 -12 -9 -36 -6 -56 7 -42
-15 -102 -38 -102 -17 0 -35 -38 -35 -75 0 -12 -9 -33 -19 -46 l-19 -24 -31
22 c-27 21 -31 21 -45 7 -19 -18 -21 -55 -4 -72 9 -9 5 -12 -20 -12 -18 0 -32
5 -32 10 0 30 84 162 119 186 27 19 47 72 32 87 -16 16 -36 -6 -58 -67 -11
-31 -32 -60 -56 -79 -35 -29 -38 -30 -55 -14 -15 16 -15 20 -2 44 8 15 40 47
70 72 42 34 55 51 55 71 0 15 11 43 25 64 20 29 30 35 47 31 18 -4 24 0 29 22
4 16 16 36 28 45 27 23 28 22 15 -6z m1091 -241 c0 -7 -5 -17 -11 -21 -13 -8
-29 13 -29 39 0 15 3 16 20 7 11 -6 20 -17 20 -25z m-1076 -137 c-15 -51 -24
-68 -34 -68 -14 0 -13 7 8 51 18 42 38 53 26 17z m487 -155 c10 -10 10 -13 1
-13 -7 0 -45 -15 -85 -34 -79 -37 -124 -51 -207 -61 -50 -7 -53 -6 -41 9 7 9
24 16 36 16 24 0 49 22 38 33 -3 4 -25 8 -47 8 -23 1 -33 3 -24 6 9 2 23 14
31 26 14 21 21 22 150 22 95 0 140 -4 148 -12z m-2023 -35 c10 -25 9 -27 -20
-37 -44 -16 -53 -1 -27 43 23 39 28 38 47 -6z m874 0 c-6 -6 -15 -8 -19 -4 -4
4 -1 11 7 16 19 12 27 3 12 -12z m1243 12 c3 -5 -2 -10 -12 -11 -12 -1 -10 -3
7 -8 24 -7 23 -8 -25 -44 -67 -51 -177 -105 -183 -89 -5 17 -22 15 -22 -3 0
-8 -5 -15 -11 -15 -5 0 -7 5 -4 10 3 6 2 10 -4 10 -5 0 -14 -6 -18 -14 -4 -7
-24 -17 -43 -21 -45 -9 -35 1 54 54 41 24 83 41 100 41 37 0 49 7 65 38 6 12
19 22 27 22 11 0 13 6 9 20 -5 17 -2 20 24 20 16 0 33 -4 36 -10z m-1287 -37
c-2 -10 -12 -19 -23 -21 -12 -2 -30 -21 -45 -49 -13 -25 -26 -41 -27 -36 -5
15 25 81 47 103 25 25 53 26 48 3z m805 -7 c-15 -14 -30 -20 -31 -15 -6 15 19
39 40 39 16 0 15 -3 -9 -24z m550 -44 c-5 -12 -7 -12 -15 2 -11 20 1 44 12 25
5 -6 6 -19 3 -27z m-1329 -17 c-1 -32 -9 -45 -42 -74 -22 -20 -45 -45 -51 -56
-16 -30 -13 2 5 54 18 53 65 122 79 117 6 -2 9 -20 9 -41z m1016 16 c0 -8
-110 -71 -124 -71 -4 0 -2 9 4 21 14 25 3 40 -13 18 -7 -9 -34 -26 -61 -38
-51 -22 -71 -18 -64 15 3 19 29 28 143 49 87 16 115 17 115 6z m-60 -141 c0
-23 -12 -25 -43 -8 -21 11 -21 11 -2 19 33 13 45 10 45 -11z m-4231 -35 c7 -7
-19 -33 -56 -56 -33 -20 -35 -20 -53 -4 -26 24 -25 40 3 60 16 12 33 14 62 10
21 -3 41 -8 44 -10z m2227 -45 c48 0 53 -27 10 -65 -19 -16 -40 -41 -46 -54
-10 -19 -14 -21 -25 -10 -18 20 -35 76 -35 115 0 32 1 32 32 23 18 -5 47 -9
64 -9z m-1791 -186 c39 -68 48 -106 12 -53 -12 19 -37 43 -54 54 -28 18 -32
25 -32 65 l-1 45 20 -25 c11 -14 36 -52 55 -86z m2825 66 c0 -5 -4 -10 -10
-10 -5 0 -10 5 -10 10 0 6 5 10 10 10 6 0 10 -4 10 -10z m-2056 -56 c-9 -13
-19 -23 -21 -21 -7 8 20 56 28 51 5 -3 1 -16 -7 -30z m-111 11 c-3 -9 -8 -14
-10 -11 -3 3 -2 9 2 15 9 16 15 13 8 -4z m-743 -285 c0 -5 -4 -10 -9 -10 -6 0
-13 5 -16 10 -3 6 1 10 9 10 9 0 16 -4 16 -10z m0 -139 c0 -121 0 -121 -68
-121 -43 0 -51 5 -75 43 -18 27 -19 28 -42 13 -33 -22 -35 -21 -35 14 0 27 3
30 30 30 44 0 87 -25 94 -55 4 -14 13 -25 21 -25 33 0 8 53 -35 75 -36 19 -40
53 -10 80 12 10 30 34 41 52 20 32 21 32 50 18 l29 -16 0 -108z m43 95 c8 -8
23 -14 33 -14 23 2 122 -30 129 -42 2 -4 -14 -20 -38 -35 -23 -16 -59 -48 -80
-72 -21 -23 -47 -43 -58 -43 -18 0 -19 8 -19 110 0 61 4 110 9 110 5 0 16 -7
24 -14z m3397 -32 c0 -8 -5 -25 -11 -36 -8 -15 -8 -22 1 -28 9 -5 9 -26 -1
-88 -7 -45 -15 -85 -18 -90 -3 -5 -39 -12 -80 -16 l-74 -7 7 25 c13 53 98 212
124 233 32 26 52 29 52 7z m-3780 -48 c37 -14 70 -23 73 -20 3 3 8 1 12 -5 3
-6 1 -11 -6 -11 -10 0 -10 -3 -1 -12 7 -7 12 -26 12 -44 0 -27 -7 -36 -48 -63
-55 -35 -77 -38 -125 -15 -33 16 -33 16 -36 94 -2 66 1 80 16 89 25 14 27 14
103 -13z m-130 -66 c0 -49 -13 -70 -42 -70 -21 0 -21 -4 -7 62 20 94 49 99 49
8z m-58 48 c-7 -7 -12 -29 -12 -50 0 -47 -23 -51 -48 -8 -9 16 -24 30 -33 30
-9 0 -42 -21 -73 -47 -52 -42 -58 -45 -73 -31 -13 14 -13 20 -1 44 12 26 22
30 83 41 39 7 84 17 100 22 45 14 72 14 57 -1z m-277 -198 c-5 -8 -11 -8 -17
-2 -6 6 -7 16 -3 22 5 8 11 8 17 2 6 -6 7 -16 3 -22z m4365 11 c0 -5 -7 -14
-15 -21 -8 -7 -19 -26 -23 -43 -7 -25 -15 -33 -42 -38 -47 -10 -60 3 -50 47
10 45 12 46 63 55 62 10 67 10 67 0z m-164 -61 c-7 -33 -23 -61 -46 -85 -39
-40 -40 -41 -92 -18 -44 19 -48 41 -21 98 13 28 24 36 52 41 20 3 43 7 51 9 8
1 27 3 41 4 l26 1 -11 -50z m-4262 15 c15 -23 15 -28 -5 -77 -26 -66 -31 -72
-63 -64 -18 4 -26 13 -27 29 l0 22 -9 -23 c-13 -31 -31 -36 -66 -17 -16 8 -41
15 -55 15 -15 0 -41 3 -58 6 -25 5 -29 9 -20 20 8 10 15 11 24 4 9 -7 26 -6
56 4 75 25 116 29 125 14 8 -12 12 -11 27 5 18 18 17 19 -12 30 -38 14 -40 32
-3 45 45 17 69 14 86 -13z m69 -82 c24 -108 23 -111 -19 -119 -28 -5 -40 -2
-56 14 l-20 20 32 81 c18 44 35 81 39 81 3 0 14 -35 24 -77z m3977 55 c-1 -53
-43 -78 -158 -93 -53 -7 -107 -16 -119 -20 -36 -11 -27 11 10 26 17 7 60 32
93 55 62 43 82 50 142 53 27 1 32 -2 32 -21z m-3090 -3 c14 -8 35 -14 48 -15
13 0 36 -7 53 -15 27 -15 29 -19 24 -53 -10 -55 -26 -92 -41 -92 -7 0 -21 -11
-30 -25 -19 -29 -81 -45 -94 -25 -5 8 -17 10 -35 6 l-28 -7 5 95 c5 89 7 96
34 120 34 30 32 29 64 11z m2925 -11 c-43 -35 -138 -73 -165 -68 -17 4 -42 -2
-68 -15 -23 -12 -48 -21 -57 -21 -9 0 -34 -9 -57 -21 -28 -14 -44 -17 -51 -10
-17 17 18 47 71 62 26 7 67 21 92 32 44 18 195 54 235 56 l20 0 -20 -15z
m-2601 -3 c3 -4 16 -7 28 -4 13 2 29 -1 37 -6 36 -24 -37 -51 -141 -51 -62 0
-68 -2 -93 -32 l-27 -31 8 39 c8 49 11 54 32 54 10 0 27 6 38 14 11 8 36 16
55 19 19 2 39 5 46 5 6 1 14 -2 17 -7z m-434 -72 c0 -11 -4 -18 -10 -14 -5 3
-7 12 -3 20 7 21 13 19 13 -6z m519 -29 c10 0 24 7 31 15 14 17 25 11 44 -27
7 -12 19 -21 27 -19 8 2 21 5 29 8 12 3 20 -12 33 -61 9 -35 17 -67 17 -71 0
-11 -84 -45 -112 -45 -33 0 -58 -24 -58 -56 0 -14 -6 -24 -14 -24 -7 0 -19 -6
-25 -14 -6 -8 -21 -16 -31 -19 -25 -6 -40 19 -43 71 -2 28 -7 38 -22 40 -11 2
-34 15 -52 28 -17 13 -41 24 -53 24 -23 0 -35 22 -26 46 5 13 11 12 37 -10 35
-30 55 -32 103 -12 45 19 100 100 86 126 -13 24 -12 40 1 18 5 -10 18 -18 28
-18z m-1549 -8 c19 -15 21 -22 11 -40 -6 -11 -11 -41 -11 -66 0 -32 -4 -46
-14 -46 -7 0 -34 -18 -60 -41 -25 -22 -46 -36 -46 -30 0 6 -11 11 -25 11 -15
0 -25 6 -25 14 0 20 -32 28 -64 16 -15 -5 -38 -10 -52 -10 -38 0 -104 -37
-104 -59 0 -18 -37 -34 -108 -45 -19 -3 -47 -17 -64 -31 -16 -14 -35 -25 -42
-25 -14 0 -50 -37 -58 -61 -6 -15 -69 -39 -106 -39 -11 0 -23 8 -27 18 -8 21
60 86 114 108 19 8 40 23 48 33 7 11 30 25 51 31 20 7 42 17 47 24 6 6 46 40
90 75 44 35 101 84 126 109 42 39 50 43 78 37 18 -4 37 -2 44 3 17 14 70 27
126 30 35 2 55 -3 71 -16z m4142 -17 c3 -14 -1 -30 -8 -36 -21 -17 -17 -39 7
-39 29 0 59 18 59 36 0 17 39 34 81 34 22 0 32 -6 39 -25 5 -14 17 -25 28 -25
16 0 15 -7 -14 -67 -18 -38 -36 -79 -39 -93 -3 -14 16 21 43 76 27 56 54 104
59 107 6 4 16 -6 23 -21 6 -15 19 -41 27 -59 18 -37 12 -50 -34 -69 -19 -8
-38 -25 -43 -39 -6 -17 -17 -25 -33 -25 -13 0 -37 -15 -58 -36 -33 -35 -35
-36 -92 -30 -37 4 -56 2 -52 -4 3 -6 23 -10 44 -10 21 0 40 -2 43 -5 3 -3 -6
-26 -18 -52 -26 -51 -30 -105 -13 -164 10 -33 9 -42 -10 -73 -23 -36 -76 -86
-92 -86 -5 0 7 32 26 70 43 85 39 92 -5 13 -42 -75 -87 -118 -131 -127 -36 -6
-70 -36 -103 -90 -18 -28 -18 -28 -38 -9 -10 11 -25 45 -32 76 -12 50 -11 60
4 94 9 21 27 47 39 57 11 11 21 23 21 28 0 4 16 30 35 57 27 37 40 48 55 44
25 -7 50 13 50 38 0 11 -2 19 -5 19 -21 0 -66 -36 -100 -79 -36 -47 -40 -49
-56 -35 -19 17 -39 11 -39 -11 0 -7 -6 -16 -12 -18 -7 -3 -1 -6 14 -6 l27 -1
-32 -70 c-25 -54 -37 -69 -54 -70 -41 0 -73 -20 -95 -56 -20 -34 -22 -35 -29
-15 -10 27 -45 27 -59 1 -12 -22 -40 -27 -40 -7 0 7 11 28 25 47 13 18 30 49
36 68 12 37 41 72 62 73 6 0 -3 5 -22 12 -19 7 -36 17 -38 24 -5 15 48 43 83
43 45 0 90 36 120 96 28 56 52 75 109 88 37 9 232 92 263 112 24 16 30 44 8
44 -8 0 -33 -9 -57 -20 -79 -36 -269 -22 -269 19 0 18 37 41 65 41 8 0 33 7
55 16 48 19 68 48 49 71 -11 12 -25 14 -72 8 -57 -6 -58 -6 -55 17 3 20 12 25
68 34 36 7 83 16 105 22 63 16 72 14 77 -13z m-3122 -45 c0 -16 -4 -30 -10
-30 -11 0 -14 43 -3 53 11 12 13 8 13 -23z m-740 -24 c0 -17 -35 -30 -51 -20
-9 5 -6 11 6 21 24 17 45 17 45 -1z m1650 -121 c0 -18 -7 -28 -26 -35 -33 -13
-32 -13 -44 11 -15 27 3 49 41 49 24 0 29 -4 29 -25z m-1560 -51 c0 -5 -6 -18
-13 -29 -13 -17 -15 -17 -48 6 -19 13 -36 25 -38 27 -3 1 8 16 24 32 l29 30
23 -27 c12 -16 22 -33 23 -39z m1585 -4 c3 -5 -3 -10 -14 -10 -12 0 -21 5 -21
10 0 6 6 10 14 10 8 0 18 -4 21 -10z m-1470 -31 c28 -6 53 -15 57 -18 5 -4
-16 -31 -46 -60 l-53 -53 -37 32 c-41 37 -44 52 -16 98 15 25 24 31 33 24 7
-6 35 -16 62 -23z m-183 -45 c6 -13 8 -27 4 -32 -10 -9 -68 56 -61 69 9 14 44
-8 57 -37z m360 -46 c-1 -16 2 -37 8 -48 10 -19 8 -20 -37 -19 -26 0 -66 3
-88 7 l-39 7 44 36 c51 41 66 49 95 46 15 -2 19 -8 17 -29z m-292 -33 c7 -8
18 -15 26 -15 32 0 25 -26 -16 -61 -52 -44 -63 -38 -54 31 9 65 19 75 44 45z
m-1005 -45 c9 -14 68 -13 83 2 7 7 12 8 12 2 0 -15 -23 -34 -126 -102 -52 -34
-111 -84 -139 -116 -46 -55 -154 -135 -209 -156 -15 -5 -44 -10 -65 -10 -34 0
-43 -6 -74 -46 -19 -25 -38 -62 -42 -82 -3 -20 -14 -48 -24 -61 l-18 -23 -37
38 c-24 25 -38 50 -42 76 -8 45 -24 61 -24 23 0 -35 25 -87 56 -116 14 -13 24
-34 24 -51 0 -25 -7 -31 -57 -54 -32 -14 -71 -28 -88 -31 -16 -3 -46 -17 -65
-32 -63 -49 -107 -71 -138 -71 -41 0 -78 -16 -129 -57 -25 -20 -53 -33 -71
-33 -17 0 -40 -10 -56 -25 -32 -30 -36 -31 -36 -7 0 10 12 29 26 43 14 13 41
47 59 75 18 28 52 66 76 86 24 19 87 69 140 111 53 42 112 93 130 113 59 65
81 84 98 84 10 0 21 13 26 32 8 25 31 46 106 98 53 36 111 77 128 92 26 22 36
26 51 18 21 -11 73 -13 119 -4 23 5 36 16 47 40 28 59 59 85 94 78 29 -6 31
-5 25 18 -6 23 -2 26 47 40 65 19 85 21 93 8z m1335 -51 c0 -28 6 -41 24 -52
28 -19 69 -98 61 -118 -9 -22 -135 -78 -185 -82 -25 -2 -54 -7 -65 -12 -18 -8
-18 -7 -7 8 8 9 11 24 8 34 -11 35 -80 102 -111 108 -28 5 -28 5 -7 -6 32 -17
27 -38 -14 -55 -66 -28 -89 -28 -100 -3 -17 37 4 77 74 147 62 61 96 78 90 45
-2 -10 4 -19 15 -21 10 -2 17 3 17 12 0 11 9 16 29 16 17 0 32 4 35 9 3 5 35
8 71 8 l65 -1 0 -37z m3482 -236 c-5 -17 -24 -16 -48 1 -18 14 -18 15 11 46
l30 32 5 -34 c4 -18 4 -39 2 -45z m-3792 19 c0 -5 -11 -19 -25 -32 l-25 -23 0
25 c0 15 6 29 13 31 19 8 37 8 37 -1z m13 -62 c22 -26 21 -30 -2 -30 -38 0
-51 10 -40 31 12 24 20 24 42 -1z m-89 -25 c9 -13 16 -29 16 -36 0 -10 -57
-69 -67 -69 -5 0 7 111 14 123 8 13 21 7 37 -18z m3244 -41 c20 -6 33 -34 15
-34 -25 1 -53 14 -53 26 0 16 5 16 38 8z m-470 -10 c16 -5 21 -11 17 -23 -4
-9 -9 -44 -12 -78 -6 -61 -17 -80 -30 -47 -3 8 -1 26 6 40 6 14 8 36 5 49 -6
23 -7 22 -49 -18 -23 -23 -45 -51 -47 -62 -2 -11 -11 -20 -21 -19 -9 0 -35 1
-56 2 -21 1 -49 10 -62 21 -20 16 -22 22 -12 44 7 15 30 34 58 46 25 11 48 27
51 35 5 12 21 16 68 16 33 0 71 -3 84 -6z m-1306 -64 c5 0 8 -10 6 -22 -4 -33
-53 -38 -63 -7 -8 24 11 42 33 34 8 -3 18 -5 24 -5z m1781 -42 c3 -18 8 -41
12 -50 5 -12 -7 -25 -47 -52 -48 -33 -98 -47 -98 -28 0 4 18 31 40 60 22 29
40 56 40 61 0 12 29 41 39 41 5 0 11 -15 14 -32z m-4075 -12 c2 -16 -2 -32 -9
-37 -11 -6 -10 -9 3 -14 25 -10 3 -42 -47 -67 -49 -26 -155 -34 -155 -13 0 19
55 80 114 127 58 46 89 47 94 4z m-103 16 c-6 -5 -34 -31 -64 -58 l-54 -49 8
35 c9 42 17 52 58 67 39 14 65 16 52 5z m155 -21 c0 -11 3 -28 6 -38 5 -16 4
-16 -10 1 -18 22 -21 56 -6 56 6 0 10 -9 10 -19z m1900 -11 c-20 -13 -33 -13
-25 0 3 6 14 10 23 10 15 0 15 -2 2 -10z m150 -15 c0 -9 -9 -15 -22 -15 -22 1
-23 1 -4 15 25 19 26 19 26 0z m1397 -33 c9 -6 3 -24 -21 -67 -30 -55 -36 -60
-76 -67 -56 -10 -77 3 -83 49 -3 21 -7 47 -9 58 -3 21 -9 20 157 33 11 1 25
-2 32 -6z m64 -57 c3 -28 9 -58 13 -67 6 -14 3 -18 -11 -18 -25 0 -83 20 -83
28 0 4 10 31 22 60 29 67 51 66 59 -3z m64 36 c8 -27 41 -54 88 -72 57 -22 54
-42 -8 -52 -89 -15 -107 -1 -119 91 -6 47 -5 52 13 52 11 0 22 -8 26 -19z
m-3610 -31 c-3 -5 -10 -10 -16 -10 -5 0 -9 5 -9 10 0 6 7 10 16 10 8 0 12 -4
9 -10z m4142 -30 c8 -21 16 -28 27 -24 22 8 20 -8 -3 -37 -13 -16 -17 -34 -14
-52 6 -33 -4 -34 -58 -6 -90 46 -282 32 -371 -26 -40 -26 -43 -25 -72 32 l-16
31 68 7 c37 3 88 13 114 21 26 8 64 14 86 14 42 0 198 45 207 61 11 16 20 10
32 -21z m-2067 10 c-8 -5 -19 -10 -25 -10 -5 0 -3 5 5 10 8 5 20 10 25 10 6 0
3 -5 -5 -10z m-2812 -42 c-3 -7 -15 -14 -29 -16 -24 -4 -24 -3 -4 12 24 19 38
20 33 4z m3694 -133 c3 -43 -2 -46 -44 -26 l-26 13 20 40 c17 32 23 37 34 26
7 -7 14 -31 16 -53z m-3262 51 c0 -1 -11 -15 -25 -30 -14 -15 -25 -35 -25 -44
0 -16 -88 -82 -109 -82 -15 0 -224 -112 -284 -152 -56 -38 -87 -43 -87 -15 0
7 -12 24 -26 38 -24 23 -26 23 -39 6 -7 -10 -16 -38 -20 -62 l-6 -45 -74 0
c-60 0 -86 -5 -130 -26 -31 -15 -60 -35 -66 -45 -5 -10 -24 -26 -42 -35 -18
-9 -65 -41 -105 -70 -45 -32 -88 -56 -110 -59 -21 -3 -50 -10 -67 -15 -19 -6
-33 -6 -39 0 -13 13 -67 13 -101 0 -15 -6 -32 -24 -40 -43 -16 -40 -31 -53
-68 -62 -24 -6 -27 -5 -27 19 0 38 22 85 63 131 34 39 35 40 96 37 l62 -3 -7
26 c-6 23 -4 26 12 23 13 -2 20 -13 22 -36 3 -34 32 -47 33 -14 0 9 25 37 55
61 31 23 60 54 66 67 8 17 19 24 38 24 15 0 39 9 53 20 14 11 36 20 50 20 18
0 32 10 46 34 23 37 39 46 77 46 44 0 67 18 59 47 -4 19 0 32 16 49 25 26 58
30 109 13 43 -15 84 -2 172 58 62 42 69 45 98 34 21 -7 38 -7 50 -1 10 5 30 9
46 9 16 -1 48 5 71 12 38 12 44 11 62 -5 19 -18 21 -18 27 -2 9 24 114 90 114
72z m624 -82 c-2 -35 -10 -54 -30 -75 -43 -45 -174 -142 -181 -135 -19 19 -8
37 33 56 25 10 57 29 72 40 36 28 72 89 72 121 0 28 7 39 25 39 7 0 11 -16 9
-46z m354 -96 c13 -24 30 -55 39 -69 24 -39 12 -59 -37 -59 -22 0 -57 -7 -77
-15 -20 -8 -38 -13 -41 -11 -2 3 11 24 31 46 37 43 51 76 37 85 -5 3 -15 -1
-22 -8 -10 -12 -15 -10 -25 11 -19 35 -16 50 10 55 55 11 63 8 85 -35z m3501
-38 c11 -21 17 -41 12 -44 -10 -6 -59 -1 -67 7 -12 12 -13 62 -1 69 23 15 35
8 56 -32z m141 -30 c0 -5 -5 -10 -11 -10 -5 0 -7 5 -4 10 3 6 8 10 11 10 2 0
4 -4 4 -10z m-4508 -30 c12 -17 20 -50 24 -106 6 -76 5 -81 -14 -86 -24 -7
-28 0 -37 75 -8 63 -17 71 -34 30 -6 -16 -21 -45 -32 -66 -23 -41 -20 -58 7
-37 13 12 17 11 25 -1 5 -8 8 -23 7 -34 -3 -17 -11 -20 -50 -21 -43 0 -80 -17
-75 -32 1 -4 -7 -16 -18 -28 -11 -11 -25 -29 -31 -40 -20 -33 -28 -7 -32 111
l-5 115 48 55 c25 30 53 55 61 55 7 0 28 9 46 20 42 26 86 22 110 -10z m248 5
c0 -8 10 -19 21 -26 31 -16 8 -27 -55 -27 -54 -1 -86 -24 -86 -62 0 -20 -26
-45 -56 -54 -19 -6 -22 -2 -28 55 -10 103 -9 111 13 99 30 -15 72 -12 111 9
44 23 80 26 80 6z m-920 -96 c0 -11 -7 -19 -15 -19 -10 0 -15 10 -15 31 0 27
2 30 15 19 8 -7 15 -21 15 -31z m398 24 c-2 -9 -43 -52 -91 -95 -64 -56 -98
-79 -125 -84 -52 -9 -90 -33 -114 -74 -18 -29 -22 -32 -26 -16 -3 15 -8 11
-26 -20 -25 -44 -71 -68 -86 -44 -5 8 -7 42 -4 75 6 63 23 86 83 116 14 8 53
31 87 51 34 21 72 38 85 39 13 0 62 15 109 34 98 39 113 41 108 18z m2078 -70
c15 -27 34 -73 41 -103 11 -51 11 -56 -9 -77 -27 -29 -29 -30 -188 -48 -208
-24 -333 -45 -357 -61 -13 -8 -32 -34 -43 -58 -25 -55 -35 -62 -66 -45 -38 20
-48 1 -47 -88 l1 -78 -12 63 c-7 40 -20 73 -34 89 -26 30 -23 35 35 51 32 10
43 19 52 43 6 16 20 43 31 59 20 28 25 30 90 30 64 0 71 2 118 40 63 49 68 57
47 80 -15 17 -15 21 9 59 40 62 105 88 228 90 l76 1 28 -47z m-886 3 c0 -7
-10 -24 -22 -38 -39 -42 -68 -86 -68 -102 0 -25 -15 -27 -144 -20 l-125 7 15
28 c17 33 34 44 89 54 21 3 52 13 68 22 16 8 46 16 67 17 21 2 53 12 72 24 40
25 48 26 48 8z m3440 -46 c-6 -12 -9 -34 -5 -49 5 -25 1 -32 -44 -65 -49 -35
-51 -35 -51 -13 0 13 7 32 15 43 8 10 15 28 15 39 0 11 17 34 37 52 39 32 53
30 33 -7z m-4636 -112 l6 -128 -38 -2 c-20 0 -45 -1 -54 0 -10 1 -18 -3 -18
-8 0 -17 -23 -11 -47 12 -13 12 -26 19 -29 15 -10 -10 16 -37 49 -51 l30 -12
-70 -28 -70 -28 -27 23 c-31 27 -32 34 -8 43 71 26 126 86 136 146 5 33 19 55
63 101 31 33 60 56 63 52 4 -5 10 -65 14 -135z m-404 107 c-13 -14 -26 -22
-29 -19 -3 3 5 14 18 25 33 27 39 24 11 -6z m2080 -69 c0 -2 -7 -7 -16 -10 -8
-3 -12 -2 -9 4 6 10 25 14 25 6z m-2158 -62 c-4 -23 -6 -24 -20 -10 -13 12
-13 18 -3 30 18 22 29 12 23 -20z m1459 -5 l51 -11 -21 -21 c-16 -17 -34 -21
-86 -22 -43 0 -65 4 -65 11 0 6 -7 17 -15 24 -8 7 -12 16 -9 21 7 12 83 11
145 -2z m-1597 -30 c-10 -12 -64 -63 -120 -113 -98 -89 -102 -92 -143 -88 -34
3 -47 0 -67 -19 -17 -16 -24 -31 -21 -47 5 -26 -43 -73 -97 -96 -41 -17 -103
-71 -111 -97 -9 -26 -42 -24 -81 6 -18 14 -47 28 -64 31 -29 6 -30 8 -30 64 0
31 -5 71 -11 88 -15 44 10 88 66 113 36 16 56 18 110 13 57 -6 68 -4 85 12 32
31 42 38 115 71 39 18 108 38 155 47 47 8 96 19 110 25 14 5 47 10 74 10 l49
1 -19 -21z m88 9 c3 -7 -8 -45 -23 -84 -15 -39 -32 -89 -38 -111 -6 -22 -22
-50 -36 -63 -25 -24 -27 -24 -68 -9 -23 9 -51 19 -62 23 -12 5 -4 -7 20 -29
l40 -37 -33 7 c-26 5 -33 3 -39 -12 -3 -10 -17 -29 -30 -42 -13 -13 -23 -32
-23 -42 0 -19 -61 -89 -78 -89 -6 0 -20 -12 -32 -27 -11 -14 -30 -31 -43 -37
-12 -6 -26 -20 -32 -31 -26 -49 -66 -105 -76 -105 -6 0 -32 -18 -59 -41 -49
-41 -70 -44 -70 -9 0 27 70 127 130 185 28 28 63 71 76 97 31 61 83 120 100
114 24 -9 66 37 73 79 6 35 17 49 101 118 52 42 115 95 140 117 49 43 56 46
62 28z m1358 -31 c0 -20 -37 -50 -50 -42 -8 5 -4 15 11 31 25 27 39 31 39 11z
m-227 -79 c3 -10 7 -10 18 -1 18 15 125 11 141 -5 20 -20 0 -26 -26 -8 -14 9
-31 16 -38 16 -7 0 8 -14 35 -30 26 -17 47 -34 47 -39 0 -21 -30 -32 -72 -26
-43 6 -157 -14 -181 -33 -7 -5 -20 -12 -29 -15 -15 -5 -15 -3 -1 31 19 46 22
50 32 33 7 -10 13 -11 27 -2 11 6 13 11 6 11 -24 0 -25 31 -2 56 26 27 36 30
43 12z m-192 -99 l-9 -34 -1 31 c-1 17 2 34 6 37 12 13 14 -1 4 -34z m-594
-24 c-5 -30 -3 -35 14 -35 31 0 22 -30 -14 -45 -50 -21 -77 -10 -77 30 0 36
38 85 66 85 13 0 16 -7 11 -35z m-1604 -5 c5 0 1 -7 -7 -16 -9 -8 -16 -20 -16
-27 0 -6 -13 2 -30 18 -39 38 -38 45 8 34 20 -5 41 -9 45 -9z m-57 -79 c-9
-10 -26 -21 -36 -24 -17 -4 -18 -2 -9 15 6 12 9 37 5 56 l-5 36 31 -32 c31
-30 31 -32 14 -51z m241 12 c-3 -3 -11 -2 -17 2 -9 6 -9 10 1 16 14 8 27 -7
16 -18z m-433 -8 c17 -18 21 -33 18 -55 l-4 -31 -30 28 c-36 34 -51 60 -43 73
11 17 35 11 59 -15z m402 -10 c8 -13 12 -29 8 -36 -4 -7 -6 -48 -5 -92 0 -49
-5 -104 -15 -139 -9 -32 -14 -73 -11 -91 4 -26 1 -36 -14 -45 -10 -7 -19 -18
-19 -26 0 -8 -16 -33 -35 -56 -19 -23 -35 -50 -35 -60 0 -10 -9 -28 -20 -41
l-19 -24 -1 23 c0 13 5 32 11 43 7 15 7 24 -1 35 -10 11 -9 23 4 54 21 54 21
55 -18 78 -21 12 -36 30 -38 44 -2 16 -18 30 -53 48 -40 20 -51 31 -53 54 -2
16 0 32 5 37 9 9 75 -54 161 -156 23 -27 42 -47 42 -43 0 8 -78 102 -143 173
-33 36 -35 41 -20 57 19 21 146 109 190 132 17 8 34 25 38 36 8 27 21 25 41
-5z m1169 -57 l58 -11 -28 -23 -28 -22 -36 26 c-67 49 -66 50 34 30z m590 -13
c-20 -15 -39 -24 -42 -22 -7 7 48 47 65 47 8 0 -2 -11 -23 -25z m-526 -101
c-17 -21 -27 -17 -44 17 -18 34 -18 35 22 59 l28 17 3 -39 c2 -22 -2 -46 -9
-54z m466 66 c9 -29 -24 -80 -53 -80 -12 0 -39 -8 -60 -19 -20 -10 -47 -22
-60 -26 -21 -6 -23 -4 -20 17 2 17 14 27 47 38 27 9 55 29 74 53 33 41 62 48
72 17z m-845 -120 c0 -36 -151 -180 -189 -180 -11 0 -27 -14 -39 -34 -19 -32
-78 -74 -88 -63 -3 2 11 16 31 31 23 18 35 35 35 51 0 26 36 65 124 135 72 57
126 83 126 60z m465 0 c3 -5 2 -10 -2 -10 -5 0 -17 -16 -28 -36 -17 -32 -22
-35 -49 -30 -16 4 -32 8 -34 11 -12 12 67 75 95 75 6 0 15 -4 18 -10z m295
-20 c0 -5 -4 -10 -9 -10 -5 0 -26 -42 -48 -93 -45 -106 -162 -288 -205 -318
-15 -11 -28 -29 -28 -39 0 -10 -10 -31 -23 -47 -13 -15 -44 -57 -69 -93 -67
-95 -88 -112 -134 -108 -35 3 -39 6 -42 34 -3 28 0 32 27 37 16 4 32 14 35 25
4 10 21 25 39 33 41 18 49 60 17 94 l-22 23 21 11 c12 7 21 20 21 30 0 10 11
43 24 74 19 42 32 57 56 66 17 6 29 14 26 19 -3 5 -2 29 2 52 6 35 11 44 30
45 22 2 42 17 138 108 47 45 84 64 127 66 9 1 17 -3 17 -9z m-382 -68 c21 -14
3 -39 -39 -56 -52 -21 -84 -20 -41 2 18 9 35 26 38 39 6 24 20 29 42 15z
m-388 -91 c-19 -17 -61 -44 -92 -61 -55 -29 -58 -30 -58 -11 0 24 31 44 55 35
11 -5 18 0 22 16 6 23 52 49 88 50 16 0 13 -6 -15 -29z m-1421 -68 c-1 -47 -1
-48 -11 -16 -6 18 -8 39 -5 47 11 29 17 17 16 -31z m1741 28 c0 -14 -20 -29
-73 -55 -40 -20 -80 -36 -89 -36 -9 0 -20 -9 -23 -20 -3 -11 -12 -20 -20 -20
-7 0 -21 -8 -31 -17 -10 -11 -29 -16 -46 -14 -33 3 -38 -16 -6 -28 18 -6 14
-9 -26 -21 -44 -12 -48 -11 -67 8 -10 12 -26 19 -34 16 -9 -4 -15 0 -15 9 0
21 7 24 93 46 43 11 126 47 198 85 68 36 127 66 132 66 4 0 7 -9 7 -19z
m-1750 -134 c0 -29 -18 -53 -48 -62 -22 -6 -23 -5 -11 17 11 20 50 67 57 68 1
0 2 -10 2 -23z m596 -40 c13 -50 -7 -107 -37 -107 -10 0 -22 -6 -26 -14 -14
-23 -51 -38 -71 -27 -16 8 -17 18 -12 66 7 62 29 90 83 102 16 3 31 12 34 20
8 20 16 8 29 -40z m-676 -77 c0 -24 21 -40 51 -40 27 0 59 22 59 41 0 17 47 9
71 -11 24 -20 24 -21 4 -33 -11 -7 -31 -24 -45 -38 -36 -37 -70 -54 -70 -36 0
8 -7 20 -16 27 -12 11 -18 10 -32 -4 -16 -16 -16 -18 3 -32 20 -15 20 -15 1
-30 -32 -23 -56 -18 -56 12 0 14 4 23 9 19 5 -3 12 -1 16 5 3 5 -3 10 -14 10
-24 0 -28 25 -5 34 10 4 14 16 12 38 -2 28 -7 33 -28 33 -16 0 -28 -8 -35 -22
-5 -13 -13 -23 -17 -23 -14 0 -8 33 8 52 21 22 84 21 84 -2z m1674 -106 c12
-32 6 -53 -16 -56 -12 -2 -28 -13 -34 -25 -6 -13 -18 -31 -27 -41 -10 -10 -17
-24 -17 -30 0 -6 -7 -15 -17 -20 -24 -14 -9 -38 28 -46 42 -8 59 -23 59 -51 0
-12 9 -30 20 -40 26 -24 25 -37 -5 -73 -14 -17 -25 -38 -25 -47 0 -14 -6 -16
-29 -12 -17 4 -36 0 -47 -8 -25 -19 -59 -19 -75 1 -19 23 -64 44 -95 44 -15 0
-42 -12 -61 -26 -41 -31 -64 -26 -86 22 -16 32 -19 34 -33 20 -8 -9 -23 -16
-32 -16 -22 0 -62 40 -62 62 0 20 16 25 22 6 3 -7 33 -15 69 -19 112 -12 161
29 157 131 -3 55 -3 55 -50 77 -27 13 -48 24 -48 26 0 2 20 -1 45 -7 25 -6 45
-16 45 -23 0 -21 16 -15 34 12 18 28 36 25 36 -6 0 -30 28 -23 32 9 3 24 7 27
39 27 31 0 44 9 95 62 32 34 62 63 65 63 4 0 10 -7 13 -16z m-1030 -55 c-27
-27 -52 -49 -56 -49 -4 0 -8 16 -8 35 0 27 4 35 18 35 11 0 27 9 36 19 11 12
25 17 37 14 18 -5 15 -11 -27 -54z m67 -27 c-20 -37 -53 -64 -64 -53 -8 8 -1
21 23 46 33 34 58 39 41 7z m64 -322 c-10 -22 -20 -38 -23 -35 -3 3 3 23 13
45 10 22 20 38 23 35 3 -3 -3 -23 -13 -45z m-161 -82 c10 -38 7 -58 -9 -58
-18 0 -37 43 -29 65 9 22 31 18 38 -7z m-580 -230 c9 -15 5 -24 -20 -48 -52
-52 -91 -11 -42 45 24 28 45 29 62 3z m969 -202 c57 -19 73 -39 59 -70 l-11
-26 -46 31 c-40 27 -65 55 -65 73 0 9 22 7 63 -8z m306 -249 c6 -8 8 -17 5
-20 -9 -8 -44 11 -44 23 0 15 26 12 39 -3z"/>
<path d="M6160 6460 c0 -5 5 -10 10 -10 6 0 10 5 10 10 0 6 -4 10 -10 10 -5 0
-10 -4 -10 -10z"/>
<path d="M4310 5966 c0 -2 7 -9 15 -16 12 -10 15 -10 15 4 0 9 -7 16 -15 16
-8 0 -15 -2 -15 -4z"/>
<path d="M8803 5763 c9 -2 23 -2 30 0 6 3 -1 5 -18 5 -16 0 -22 -2 -12 -5z"/>
<path d="M8734 5752 c3 -5 -1 -15 -9 -22 -23 -19 -18 -57 10 -76 23 -15 27
-15 50 0 29 19 33 56 8 78 -22 19 -68 35 -59 20z"/>
<path d="M5456 5791 c-4 -5 -2 -12 3 -15 5 -4 12 -2 15 3 4 5 2 12 -3 15 -5 4
-12 2 -15 -3z"/>
<path d="M3574 4809 c-10 -17 13 -36 27 -22 12 12 4 33 -11 33 -5 0 -12 -5
-16 -11z"/>
<path d="M3731 4584 c0 -11 3 -14 6 -6 3 7 2 16 -1 19 -3 4 -6 -2 -5 -13z"/>
<path d="M3121 4401 c-12 -8 -9 -11 11 -16 28 -7 48 -1 48 16 0 12 -40 12 -59
0z"/>
<path d="M2360 3766 c0 -2 8 -10 18 -17 15 -13 16 -12 3 4 -13 16 -21 21 -21
13z"/>
<path d="M3860 3785 c-10 -12 -10 -18 0 -30 20 -25 55 -15 55 15 0 30 -35 40
-55 15z"/>
<path d="M1856 3421 c-4 -5 -2 -12 3 -15 5 -4 12 -2 15 3 4 5 2 12 -3 15 -5 4
-12 2 -15 -3z"/>
<path d="M3346 3101 c-7 -11 18 -33 27 -24 4 3 7 12 7 20 0 15 -26 18 -34 4z"/>
<path d="M7923 8924 c4 -22 7 -51 7 -66 0 -16 5 -28 10 -28 17 0 8 122 -9 128
-11 4 -13 -3 -8 -34z"/>
<path d="M11839 8921 c-34 -34 -39 -44 -29 -56 9 -10 17 -12 30 -5 25 14 71
71 67 83 -8 24 -30 17 -68 -22z"/>
<path d="M4155 8932 c-7 -23 4 -54 16 -46 12 7 12 51 0 59 -5 3 -12 -3 -16
-13z"/>
<path d="M1730 8926 c0 -9 5 -16 10 -16 6 0 10 4 10 9 0 6 -4 13 -10 16 -5 3
-10 -1 -10 -9z"/>
<path d="M11576 8909 c-28 -33 -31 -44 -16 -54 12 -8 70 51 70 71 0 24 -27 15
-54 -17z"/>
<path d="M5580 8919 c0 -5 5 -7 10 -4 6 3 10 8 10 11 0 2 -4 4 -10 4 -5 0 -10
-5 -10 -11z"/>
<path d="M9057 8923 c-4 -3 -7 -11 -7 -17 0 -6 5 -5 12 2 6 6 9 14 7 17 -3 3
-9 2 -12 -2z"/>
<path d="M9946 8921 c-4 -7 -5 -15 -2 -18 9 -9 19 4 14 18 -4 11 -6 11 -12 0z"/>
<path d="M8897 8913 c-4 -3 -7 -15 -7 -25 0 -26 24 -17 28 10 3 21 -8 29 -21
15z"/>
<path d="M12424 8906 c-18 -14 -18 -15 -1 -21 9 -4 24 -2 32 5 33 28 5 42 -31
16z"/>
<path d="M4893 8895 c-3 -9 -3 -18 0 -21 9 -9 27 6 27 22 0 19 -19 18 -27 -1z"/>
<path d="M9099 8847 c-42 -37 -77 -93 -65 -104 10 -10 116 101 116 121 0 23
-10 19 -51 -17z"/>
<path d="M9946 8829 c-10 -17 -15 -33 -12 -37 10 -10 59 45 52 57 -11 18 -20
13 -40 -20z"/>
<path d="M6036 8818 c-8 -18 -16 -46 -19 -63 -5 -30 -11 -48 -54 -164 -13 -35
-22 -65 -20 -67 5 -5 80 176 102 246 10 30 20 61 23 68 10 28 -18 10 -32 -20z"/>
<path d="M10220 8825 c-7 -9 -11 -18 -8 -20 3 -3 11 1 18 10 7 9 11 18 8 20
-3 3 -11 -1 -18 -10z"/>
<path d="M12430 8825 c-7 -9 -10 -19 -6 -22 8 -9 38 9 44 25 5 17 -23 15 -38
-3z"/>
<path d="M6150 8822 c0 -13 39 -46 46 -39 9 9 -16 47 -31 47 -8 0 -15 -4 -15
-8z"/>
<path d="M11460 8794 c-40 -37 -52 -64 -26 -64 19 0 107 80 100 91 -10 17 -34
9 -74 -27z"/>
<path d="M11576 8814 c-19 -18 -21 -47 -4 -42 6 2 18 14 25 25 18 26 1 40 -21
17z"/>
<path d="M10552 8797 c-20 -22 -30 -57 -16 -57 14 0 72 41 77 54 13 33 -31 35
-61 3z"/>
<path d="M11136 8780 c-26 -32 -43 -76 -33 -86 10 -10 26 6 53 52 34 57 20 81
-20 34z"/>
<path d="M9380 8690 c-95 -89 -108 -123 -21 -53 60 48 141 125 141 135 0 22
-34 -1 -120 -82z"/>
<path d="M6505 8723 c7 -29 32 -63 46 -63 10 0 -7 58 -22 76 -19 23 -32 16
-24 -13z"/>
<path d="M11591 8634 c-39 -45 -49 -64 -33 -64 15 0 92 78 92 94 0 27 -16 18
-59 -30z"/>
<path d="M11449 8618 c-30 -26 -70 -88 -56 -88 19 0 87 65 87 84 0 19 -11 20
-31 4z"/>
<path d="M5180 8599 c0 -5 5 -7 10 -4 6 3 10 8 10 11 0 2 -4 4 -10 4 -5 0 -10
-5 -10 -11z"/>
<path d="M5670 8590 c0 -5 5 -10 11 -10 5 0 7 5 4 10 -3 6 -8 10 -11 10 -2 0
-4 -4 -4 -10z"/>
<path d="M8940 8585 c-7 -8 -8 -15 -2 -15 5 0 15 7 22 15 7 8 8 15 2 15 -5 0
-15 -7 -22 -15z"/>
<path d="M10159 8559 c-57 -62 -79 -132 -31 -103 26 16 102 113 102 129 0 27
-33 15 -71 -26z"/>
<path d="M11219 8574 c-23 -25 -23 -26 -2 -15 23 12 38 29 31 37 -3 2 -15 -8
-29 -22z"/>
<path d="M12562 8578 c-16 -16 -15 -38 2 -38 18 0 39 27 31 40 -8 13 -18 13
-33 -2z"/>
<path d="M8280 8545 c-7 -20 -9 -44 -5 -53 5 -14 11 -9 27 21 19 38 19 67 -1
67 -5 0 -15 -16 -21 -35z"/>
<path d="M8540 8570 c0 -5 5 -10 10 -10 6 0 10 5 10 10 0 6 -4 10 -10 10 -5 0
-10 -4 -10 -10z"/>
<path d="M6043 8553 c-13 -32 -9 -166 4 -170 16 -6 22 24 26 111 1 48 -2 70
-10 73 -7 3 -16 -4 -20 -14z"/>
<path d="M8051 8542 c-7 -13 -11 -26 -8 -28 8 -8 29 25 25 38 -3 8 -9 4 -17
-10z"/>
<path d="M9385 8523 c-21 -15 -34 -28 -28 -30 17 -6 103 34 103 46 0 19 -34
12 -75 -16z"/>
<path d="M11044 8525 c-10 -25 10 -39 36 -25 26 14 22 34 -8 38 -13 2 -25 -3
-28 -13z"/>
<path d="M7995 8520 c-3 -5 1 -10 9 -10 9 0 16 5 16 10 0 6 -4 10 -9 10 -6 0
-13 -4 -16 -10z"/>
<path d="M7690 8493 c0 -10 5 -25 10 -33 7 -11 10 -7 10 18 0 17 -4 32 -10 32
-5 0 -10 -8 -10 -17z"/>
<path d="M8806 8467 c-48 -62 -55 -125 -9 -74 23 24 53 80 53 97 0 19 -19 10
-44 -23z"/>
<path d="M8348 8473 c-21 -11 -28 -21 -28 -43 0 -22 -11 -37 -46 -67 -54 -44
-134 -139 -134 -159 0 -27 77 20 167 101 29 25 57 44 63 40 5 -3 13 -20 18
-37 4 -18 13 -33 20 -36 22 -7 25 29 8 82 -9 29 -16 69 -16 88 0 42 -14 50
-52 31z"/>
<path d="M8880 8465 c-7 -9 -10 -19 -6 -22 8 -9 38 9 44 25 5 17 -23 15 -38
-3z"/>
<path d="M10946 8434 c-4 -11 -1 -14 11 -12 9 2 18 9 21 16 6 18 -25 15 -32
-4z"/>
<path d="M10764 8415 c-3 -8 -3 -19 1 -25 9 -14 45 6 45 25 0 19 -39 19 -46 0z"/>
<path d="M8581 8325 c-51 -52 -89 -100 -86 -105 9 -15 48 16 133 104 64 66 81
96 53 96 -4 0 -49 -43 -100 -95z"/>
<path d="M11555 8400 c-3 -5 -1 -10 4 -10 6 0 11 5 11 10 0 6 -2 10 -4 10 -3
0 -8 -4 -11 -10z"/>
<path d="M10162 8387 c-14 -17 2 -42 22 -34 20 8 21 47 2 47 -7 0 -18 -6 -24
-13z"/>
<path d="M11590 8330 c0 -5 5 -10 10 -10 6 0 10 5 10 10 0 6 -4 10 -10 10 -5
0 -10 -4 -10 -10z"/>
<path d="M12204 8326 c-10 -8 -16 -18 -12 -22 10 -9 58 12 58 26 0 14 -23 12
-46 -4z"/>
<path d="M11960 8300 c-52 -29 -80 -54 -80 -72 0 -12 52 -9 77 5 37 21 94 78
88 87 -10 16 -26 12 -85 -20z"/>
<path d="M4630 8294 c0 -8 5 -12 10 -9 6 3 10 10 10 16 0 5 -4 9 -10 9 -5 0
-10 -7 -10 -16z"/>
<path d="M11450 8270 c-13 -8 -13 -10 2 -10 9 0 20 5 23 10 8 13 -5 13 -25 0z"/>
<path d="M5813 8219 c-13 -16 -28 -69 -19 -69 3 0 13 14 21 31 18 34 16 60 -2
38z"/>
<path d="M10690 8180 c0 -5 5 -10 10 -10 6 0 10 5 10 10 0 6 -4 10 -10 10 -5
0 -10 -4 -10 -10z"/>
<path d="M7720 8166 c0 -8 5 -18 10 -21 6 -3 10 3 10 14 0 12 -4 21 -10 21 -5
0 -10 -6 -10 -14z"/>
<path d="M9494 8169 c-3 -6 -2 -15 4 -21 13 -13 32 -2 32 18 0 16 -26 19 -36
3z"/>
<path d="M10628 8173 c7 -3 16 -2 19 1 4 3 -2 6 -13 5 -11 0 -14 -3 -6 -6z"/>
<path d="M11536 8149 c-56 -21 -92 -49 -64 -49 25 0 131 40 148 56 12 12 11
14 -10 13 -14 0 -47 -9 -74 -20z"/>
<path d="M8147 8149 c-10 -6 -24 -8 -32 -6 -7 3 -29 -13 -50 -36 l-37 -41 -24
27 c-26 30 -34 33 -34 13 0 -8 -27 -47 -60 -88 -33 -40 -74 -100 -90 -132 -69
-137 -6 -124 91 19 59 87 59 88 81 68 33 -30 68 -7 104 66 24 47 40 67 63 77
17 7 31 20 31 29 0 17 -17 19 -43 4z"/>
<path d="M5030 8108 c0 -19 2 -20 10 -8 13 19 13 30 0 30 -5 0 -10 -10 -10
-22z"/>
<path d="M5776 8114 c-9 -24 -7 -28 9 -14 17 14 20 30 6 30 -5 0 -12 -7 -15
-16z"/>
<path d="M6895 8111 c-6 -20 3 -51 15 -51 11 0 17 30 12 53 -6 22 -19 22 -27
-2z"/>
<path d="M8325 8120 c-3 -5 -1 -10 4 -10 6 0 11 5 11 10 0 6 -2 10 -4 10 -3 0
-8 -4 -11 -10z"/>
<path d="M5052 8093 c-20 -50 -19 -83 3 -83 20 0 35 32 35 74 0 44 -23 49 -38
9z"/>
<path d="M12286 8104 c-19 -18 -20 -30 -4 -40 13 -8 51 33 42 47 -8 13 -21 11
-38 -7z"/>
<path d="M11520 8090 c-8 -5 -11 -12 -8 -16 10 -9 58 4 58 16 0 13 -30 13 -50
0z"/>
<path d="M7493 8065 c-78 -34 -109 -104 -57 -127 43 -20 124 31 146 93 14 37
-38 57 -89 34z"/>
<path d="M8397 8055 c-9 -21 2 -45 20 -45 10 0 13 9 11 27 -3 30 -23 41 -31
18z"/>
<path d="M5133 8026 c-20 -43 -12 -72 17 -56 22 12 36 51 26 75 -9 24 -25 17
-43 -19z"/>
<path d="M6850 8025 c0 -8 5 -15 10 -15 6 0 10 7 10 15 0 8 -4 15 -10 15 -5 0
-10 -7 -10 -15z"/>
<path d="M4045 8019 c-11 -17 5 -102 22 -121 32 -36 92 -12 78 31 -3 10 -19
37 -35 60 -30 41 -53 51 -65 30z"/>
<path d="M6530 8023 c0 -5 6 -18 14 -29 17 -22 35 -11 20 13 -12 19 -34 29
-34 16z"/>
<path d="M8092 7987 c-26 -28 -27 -33 -6 -41 28 -11 84 29 84 60 0 15 -60 0
-78 -19z"/>
<path d="M11025 8003 c-53 -13 -62 -53 -12 -53 36 0 74 30 62 49 -6 11 -16 12
-50 4z"/>
<path d="M12133 7983 c-14 -5 -18 -23 -5 -23 5 0 17 7 28 15 14 11 15 14 4 14
-8 0 -21 -3 -27 -6z"/>
<path d="M5465 7951 c-3 -5 -1 -12 5 -16 5 -3 10 1 10 9 0 18 -6 21 -15 7z"/>
<path d="M8163 7935 c-3 -9 -3 -18 0 -21 9 -9 27 6 27 22 0 19 -19 18 -27 -1z"/>
<path d="M4320 7892 c0 -14 59 -66 67 -59 3 4 -6 21 -22 37 -28 30 -45 38 -45
22z"/>
<path d="M6428 7883 c-29 -34 -41 -64 -29 -76 15 -15 59 29 63 62 4 30 -14 37
-34 14z"/>
<path d="M4570 7879 c0 -5 5 -7 10 -4 6 3 10 8 10 11 0 2 -4 4 -10 4 -5 0 -10
-5 -10 -11z"/>
<path d="M7964 7866 c-8 -35 4 -66 26 -66 24 0 36 40 20 69 -15 28 -38 27 -46
-3z"/>
<path d="M4972 7855 c-16 -35 -15 -75 2 -75 20 0 36 24 43 64 5 31 3 36 -14
36 -11 0 -25 -11 -31 -25z"/>
<path d="M4067 7853 c-9 -8 -9 -46 -1 -67 10 -27 24 -18 24 17 0 35 -12 61
-23 50z"/>
<path d="M6070 7826 c0 -29 17 -43 33 -27 8 8 9 16 1 28 -17 27 -34 27 -34 -1z"/>
<path d="M12280 7833 c-20 -9 -29 -17 -22 -20 16 -6 72 16 72 28 0 12 -9 11
-50 -8z"/>
<path d="M6618 7813 c-19 -5 -34 -45 -23 -62 17 -28 75 10 75 49 0 20 -14 23
-52 13z"/>
<path d="M12253 7790 c-13 -5 -23 -18 -23 -29 0 -18 5 -20 33 -14 44 8 69 22
64 36 -5 15 -45 19 -74 7z"/>
<path d="M7330 7770 c0 -5 4 -10 9 -10 6 0 13 5 16 10 3 6 -1 10 -9 10 -9 0
-16 -4 -16 -10z"/>
<path d="M8402 7758 c-26 -26 1 -65 38 -53 16 5 20 14 18 33 -3 30 -35 41 -56
20z"/>
<path d="M11075 7740 c-3 -5 -1 -10 4 -10 6 0 11 5 11 10 0 6 -2 10 -4 10 -3
0 -8 -4 -11 -10z"/>
<path d="M11694 7726 c-10 -8 -16 -17 -13 -20 9 -9 59 11 59 24 0 14 -23 12
-46 -4z"/>
<path d="M7462 7710 c0 -14 2 -19 5 -12 2 6 2 18 0 25 -3 6 -5 1 -5 -13z"/>
<path d="M8370 7674 c-11 -29 -6 -44 15 -44 16 0 31 43 20 59 -11 18 -25 12
-35 -15z"/>
<path d="M7452 7660 c0 -14 2 -19 5 -12 2 6 2 18 0 25 -3 6 -5 1 -5 -13z"/>
<path d="M1240 7635 c0 -8 7 -15 15 -15 8 0 15 7 15 15 0 8 -7 15 -15 15 -8 0
-15 -7 -15 -15z"/>
<path d="M6230 7633 c0 -6 8 -17 18 -24 16 -13 16 -13 2 6 -8 11 -16 22 -17
24 -2 2 -3 0 -3 -6z"/>
<path d="M7712 7580 c-18 -29 -15 -32 13 -14 27 18 33 34 12 34 -7 0 -18 -9
-25 -20z"/>
<path d="M3425 7560 c-4 -6 13 -19 37 -30 52 -23 62 -24 77 -6 10 11 7 17 -11
30 -25 18 -93 22 -103 6z"/>
<path d="M7217 7564 c-12 -12 -8 -46 11 -98 25 -70 42 -71 42 -2 0 43 -5 61
-23 81 -12 15 -26 23 -30 19z"/>
<path d="M10900 7549 c-7 -11 -9 -23 -7 -26 9 -9 47 17 47 32 0 22 -28 18 -40
-6z"/>
<path d="M12533 7533 c-21 -8 -14 -33 12 -45 21 -9 29 -9 42 4 31 32 -7 60
-54 41z"/>
<path d="M11620 7479 c0 -5 5 -7 10 -4 6 3 10 8 10 11 0 2 -4 4 -10 4 -5 0
-10 -5 -10 -11z"/>
<path d="M7470 7469 c0 -5 5 -7 10 -4 6 3 10 8 10 11 0 2 -4 4 -10 4 -5 0 -10
-5 -10 -11z"/>
<path d="M11795 7450 c-3 -6 5 -10 19 -10 14 0 28 5 31 10 3 6 -5 10 -19 10
-14 0 -28 -4 -31 -10z"/>
<path d="M5090 7435 c0 -8 5 -15 10 -15 6 0 10 7 10 15 0 8 -4 15 -10 15 -5 0
-10 -7 -10 -15z"/>
<path d="M12405 7441 c-3 -5 0 -13 5 -16 15 -9 60 3 60 15 0 13 -57 13 -65 1z"/>
<path d="M4300 7425 c0 -8 5 -15 10 -15 6 0 10 7 10 15 0 8 -4 15 -10 15 -5 0
-10 -7 -10 -15z"/>
<path d="M11043 7429 c-47 -14 -41 -29 11 -29 54 0 76 8 76 26 0 16 -38 17
-87 3z"/>
<path d="M11681 7431 c-10 -6 -10 -10 -1 -16 14 -9 60 2 60 15 0 12 -40 13
-59 1z"/>
<path d="M4010 7386 c0 -35 10 -56 26 -56 16 0 18 33 4 61 -15 26 -30 24 -30
-5z"/>
<path d="M11864 7399 c-60 -17 -70 -59 -15 -59 31 0 113 40 119 58 4 14 -57
15 -104 1z"/>
<path d="M6674 7385 c-29 -20 -50 -73 -36 -87 8 -8 21 -1 47 25 49 49 40 98
-11 62z"/>
<path d="M1639 7364 c-16 -20 -1 -48 29 -52 25 -4 39 32 22 53 -16 19 -34 19
-51 -1z"/>
<path d="M11465 7370 c-4 -7 -3 -16 3 -22 14 -14 65 -1 59 15 -5 16 -53 21
-62 7z"/>
<path d="M11360 7340 c0 -5 4 -10 9 -10 6 0 13 5 16 10 3 6 -1 10 -9 10 -9 0
-16 -4 -16 -10z"/>
<path d="M12063 7290 c-89 -10 -142 -50 -113 -85 23 -28 99 -11 181 40 40 26
42 28 24 41 -10 8 -21 13 -24 13 -3 -1 -34 -5 -68 -9z"/>
<path d="M11381 7265 c9 -9 23 -13 32 -9 28 10 19 24 -15 24 -29 0 -31 -2 -17
-15z"/>
<path d="M9825 7211 c-35 -4 -50 -11 -50 -21 0 -20 219 -38 241 -19 12 10 13
15 2 25 -16 16 -124 24 -193 15z"/>
<path d="M11090 7191 c-22 -4 -36 -12 -38 -23 -3 -15 4 -18 40 -18 44 0 68 13
68 37 0 14 -12 14 -70 4z"/>
<path d="M12264 7115 c-16 -13 -17 -16 -4 -24 17 -11 89 -4 105 11 28 25 -68
38 -101 13z"/>
<path d="M3620 7075 c-11 -13 -9 -20 10 -40 28 -30 60 -33 60 -7 0 18 -19 40
-46 55 -7 4 -17 0 -24 -8z"/>
<path d="M4052 7043 c4 -21 33 -25 33 -3 0 8 -8 16 -18 18 -14 3 -18 -1 -15
-15z"/>
<path d="M4606 7011 c-5 -7 -3 -18 3 -24 14 -14 20 -6 11 17 -5 15 -9 16 -14
7z"/>
<path d="M11383 7003 c-18 -6 -16 -23 1 -23 17 0 30 16 19 23 -5 2 -14 2 -20
0z"/>
<path d="M11095 6991 c-3 -6 5 -13 18 -16 34 -9 102 -2 100 10 -4 13 -110 19
-118 6z"/>
<path d="M12470 6960 c0 -5 7 -10 16 -10 8 0 12 5 9 10 -3 6 -10 10 -16 10 -5
0 -9 -4 -9 -10z"/>
<path d="M10409 6936 c16 -19 44 -21 39 -3 -3 6 -15 14 -28 15 -21 3 -22 2
-11 -12z"/>
<path d="M11513 6933 c-22 -8 -14 -24 19 -35 l31 -11 -33 -11 c-32 -11 -43
-22 -54 -57 -2 -10 -25 -21 -55 -29 -52 -12 -88 -39 -63 -47 27 -10 10 -21
-41 -26 -99 -12 -185 -53 -161 -77 15 -15 155 -12 234 5 183 40 243 69 219
106 -21 34 -10 56 41 77 28 12 50 25 50 31 0 14 -34 31 -60 31 -12 0 -19 4
-16 9 3 5 0 13 -7 19 -14 11 -87 22 -104 15z"/>
<path d="M9610 6920 c0 -5 9 -10 19 -10 11 0 23 5 26 10 4 6 -5 10 -19 10 -14
0 -26 -4 -26 -10z"/>
<path d="M9741 6906 c-17 -21 4 -30 23 -10 9 8 16 17 16 20 0 10 -29 3 -39
-10z"/>
<path d="M1084 6887 c-22 -19 -27 -32 -27 -68 0 -57 14 -82 58 -103 30 -14 42
-15 71 -6 49 16 68 49 61 107 -4 35 -12 53 -32 70 -36 31 -95 31 -131 0z"/>
<path d="M10365 6871 c-9 -15 29 -31 74 -31 42 0 58 21 25 34 -25 9 -92 7 -99
-3z"/>
<path d="M11855 6841 c-75 -22 -110 -40 -98 -52 17 -17 200 41 188 61 -8 13
-18 12 -90 -9z"/>
<path d="M3893 6774 c-7 -19 15 -90 33 -105 33 -27 44 21 18 76 -18 38 -42 52
-51 29z"/>
<path d="M10257 6784 c-9 -9 4 -34 18 -34 8 0 11 8 8 20 -5 20 -15 25 -26 14z"/>
<path d="M1400 6730 c0 -5 5 -10 10 -10 6 0 10 5 10 10 0 6 -4 10 -10 10 -5 0
-10 -4 -10 -10z"/>
<path d="M10680 6700 c-12 -8 -11 -10 8 -10 12 0 22 5 22 10 0 13 -11 13 -30
0z"/>
<path d="M226 6692 c-3 -6 -1 -14 5 -17 15 -10 25 3 12 16 -7 7 -13 7 -17 1z"/>
<path d="M11774 6679 c-9 -16 15 -29 54 -29 38 0 42 17 6 30 -33 13 -51 13
-60 -1z"/>
<path d="M11105 6660 c-3 -5 1 -10 9 -10 9 0 16 5 16 10 0 6 -4 10 -9 10 -6 0
-13 -4 -16 -10z"/>
<path d="M11888 6643 c-10 -2 -18 -9 -18 -15 0 -5 7 -7 16 -4 9 3 20 6 25 6 5
0 9 5 9 10 0 10 -3 11 -32 3z"/>
<path d="M9042 6624 c-30 -21 -26 -58 6 -62 25 -4 62 23 62 44 0 7 -9 18 -19
24 -25 13 -22 13 -49 -6z"/>
<path d="M10356 6631 c-14 -5 -16 -10 -7 -15 16 -10 81 2 81 14 0 12 -46 12
-74 1z"/>
<path d="M10075 6610 c-3 -5 -1 -10 4 -10 6 0 11 5 11 10 0 6 -2 10 -4 10 -3
0 -8 -4 -11 -10z"/>
<path d="M11080 6580 c0 -5 7 -10 15 -10 8 0 15 5 15 10 0 6 -7 10 -15 10 -8
0 -15 -4 -15 -10z"/>
<path d="M10145 6551 c-10 -17 11 -21 31 -6 18 14 18 14 -3 15 -12 0 -24 -4
-28 -9z"/>
<path d="M3210 6521 c0 -11 26 -22 34 -14 3 3 3 10 0 14 -7 12 -34 11 -34 0z"/>
<path d="M11323 6495 c0 -22 2 -30 4 -17 2 12 2 30 0 40 -3 9 -5 -1 -4 -23z"/>
<path d="M4202 6466 c7 -86 48 -116 48 -36 0 51 -16 90 -36 90 -14 0 -16 -9
-12 -54z"/>
<path d="M11691 6459 c-18 -7 -21 -13 -13 -21 14 -14 85 -1 79 15 -5 16 -36
19 -66 6z"/>
<path d="M4100 6425 c0 -11 7 -15 23 -13 12 2 22 8 22 13 0 6 -10 11 -22 13
-16 2 -23 -2 -23 -13z"/>
<path d="M11242 6399 c-124 -30 -205 -67 -211 -94 -3 -16 3 -17 53 -11 63 7
239 60 274 82 24 16 29 39 10 47 -7 2 -64 -8 -126 -24z"/>
<path d="M3167 6383 c-9 -9 12 -33 29 -33 17 0 18 12 2 28 -14 14 -22 15 -31
5z"/>
<path d="M3720 6307 c0 -14 31 -47 43 -47 14 0 7 27 -11 43 -22 21 -32 21 -32
4z"/>
<path d="M3970 6240 c0 -5 5 -10 10 -10 6 0 10 5 10 10 0 6 -4 10 -10 10 -5 0
-10 -4 -10 -10z"/>
<path d="M3397 6194 c-8 -8 3 -34 14 -34 11 0 12 27 0 34 -4 3 -11 3 -14 0z"/>
<path d="M3970 6150 c0 -5 5 -10 10 -10 6 0 10 5 10 10 0 6 -4 10 -10 10 -5 0
-10 -4 -10 -10z"/>
<path d="M3877 6123 c-13 -12 -7 -23 13 -23 11 0 20 7 20 15 0 15 -21 21 -33
8z"/>
<path d="M10655 6120 c-3 -6 5 -10 19 -10 14 0 28 5 31 10 3 6 -5 10 -19 10
-14 0 -28 -4 -31 -10z"/>
<path d="M326 6113 c-11 -11 -6 -23 9 -23 8 0 15 4 15 9 0 13 -16 22 -24 14z"/>
<path d="M472 6108 c3 -7 17 -14 32 -16 20 -3 27 0 24 10 -3 7 -17 14 -32 16
-20 3 -27 0 -24 -10z"/>
<path d="M9898 6083 c12 -2 30 -2 40 0 9 3 -1 5 -23 4 -22 0 -30 -2 -17 -4z"/>
<path d="M3092 6058 c5 -15 28 -18 29 -3 0 6 -7 12 -17 13 -10 3 -15 -1 -12
-10z"/>
<path d="M11045 6050 c3 -5 35 -10 71 -10 36 0 64 4 64 10 0 6 -30 10 -71 10
-44 0 -68 -4 -64 -10z"/>
<path d="M12160 6041 c0 -9 32 -14 173 -26 54 -4 68 -3 65 7 -3 7 -22 16 -44
20 -58 10 -194 9 -194 -1z"/>
<path d="M10605 6030 c-3 -5 1 -10 9 -10 8 0 18 5 21 10 3 6 -1 10 -9 10 -8 0
-18 -4 -21 -10z"/>
<path d="M11445 6000 c28 -12 67 -12 60 0 -3 6 -23 10 -43 9 -30 0 -33 -2 -17
-9z"/>
<path d="M12070 5999 c0 -8 53 -19 93 -19 19 0 27 4 22 9 -11 10 -115 19 -115
10z"/>
<path d="M1422 5988 c-18 -18 -15 -43 9 -64 15 -14 24 -16 37 -8 25 16 26 40
3 63 -24 24 -32 26 -49 9z"/>
<path d="M9725 5980 c-17 -6 -15 -9 19 -24 21 -9 45 -16 52 -16 19 0 18 19 -1
26 -8 4 -13 9 -11 13 6 9 -35 10 -59 1z"/>
<path d="M10040 5970 c0 -12 16 -21 56 -30 37 -9 55 4 27 18 -28 14 -83 22
-83 12z"/>
<path d="M12085 5960 c85 -14 145 -18 145 -10 0 12 -30 17 -115 18 -74 0 -76
0 -30 -8z"/>
<path d="M10580 5930 c0 -5 12 -10 26 -10 14 0 23 4 19 10 -3 6 -15 10 -26 10
-10 0 -19 -4 -19 -10z"/>
<path d="M2145 5921 c-3 -5 -1 -12 5 -16 5 -3 10 1 10 9 0 18 -6 21 -15 7z"/>
<path d="M10118 5913 c7 -3 16 -2 19 1 4 3 -2 6 -13 5 -11 0 -14 -3 -6 -6z"/>
<path d="M10695 5890 c3 -5 13 -10 21 -10 8 0 12 5 9 10 -3 6 -13 10 -21 10
-8 0 -12 -4 -9 -10z"/>
<path d="M11120 5890 c0 -5 5 -10 11 -10 5 0 7 5 4 10 -3 6 -8 10 -11 10 -2 0
-4 -4 -4 -10z"/>
<path d="M3555 5860 c-3 -6 1 -13 10 -16 19 -8 30 0 20 15 -8 14 -22 14 -30 1z"/>
<path d="M9967 5842 c-23 -25 -21 -59 3 -67 47 -15 91 27 68 65 -16 25 -50 26
-71 2z"/>
<path d="M11245 5851 c-26 -6 -27 -8 -10 -14 43 -13 91 -17 105 -8 8 6 12 13
8 16 -10 10 -72 14 -103 6z"/>
<path d="M3422 5809 c2 -6 8 -10 13 -10 5 0 11 4 13 10 2 6 -4 11 -13 11 -9 0
-15 -5 -13 -11z"/>
<path d="M11932 5779 c8 -24 168 -51 168 -29 0 15 -36 26 -109 35 -50 6 -63 5
-59 -6z"/>
<path d="M10138 5764 c-3 -5 -5 -20 -4 -34 1 -19 7 -26 28 -28 15 -2 37 3 50
11 17 10 43 12 98 8 98 -8 230 -2 230 10 0 5 -11 14 -25 19 -34 13 -371 25
-377 14z"/>
<path d="M11300 5760 c0 -5 9 -10 20 -10 11 0 20 5 20 10 0 6 -9 10 -20 10
-11 0 -20 -4 -20 -10z"/>
<path d="M3324 5729 c-3 -6 -2 -15 2 -19 12 -12 38 5 30 19 -9 14 -23 14 -32
0z"/>
<path d="M3430 5729 c0 -5 5 -7 10 -4 6 3 10 8 10 11 0 2 -4 4 -10 4 -5 0 -10
-5 -10 -11z"/>
<path d="M12370 5730 c0 -6 27 -10 63 -10 44 0 58 3 47 10 -20 13 -110 13
-110 0z"/>
<path d="M10930 5690 c20 -13 63 -13 55 0 -3 6 -21 10 -38 10 -24 0 -28 -3
-17 -10z"/>
<path d="M9870 5640 c0 -5 5 -10 10 -10 6 0 10 5 10 10 0 6 -4 10 -10 10 -5 0
-10 -4 -10 -10z"/>
<path d="M1210 5500 c0 -5 5 -10 10 -10 6 0 10 5 10 10 0 6 -4 10 -10 10 -5 0
-10 -4 -10 -10z"/>
<path d="M10195 5500 c-37 -8 -73 -30 -80 -49 -3 -8 3 -24 14 -35 42 -41 215
-13 234 39 13 33 -92 61 -168 45z"/>
<path d="M10090 5380 c0 -13 7 -20 20 -20 24 0 27 25 4 34 -23 9 -24 8 -24
-14z"/>
<path d="M11520 5280 c0 -5 5 -10 11 -10 5 0 7 5 4 10 -3 6 -8 10 -11 10 -2 0
-4 -4 -4 -10z"/>
<path d="M10760 5231 c0 -5 27 -16 60 -23 l61 -12 -34 -17 c-77 -40 -72 -74 9
-67 87 7 189 82 138 102 -9 4 -32 2 -50 -4 -26 -9 -38 -8 -56 3 -29 19 -128
33 -128 18z"/>
<path d="M1240 5220 c0 -5 5 -10 10 -10 6 0 10 5 10 10 0 6 -4 10 -10 10 -5 0
-10 -4 -10 -10z"/>
<path d="M3006 5165 c-9 -24 4 -45 29 -45 24 0 42 30 30 50 -10 15 -52 12 -59
-5z"/>
<path d="M1352 5159 c2 -6 8 -10 13 -10 5 0 11 4 13 10 2 6 -4 11 -13 11 -9 0
-15 -5 -13 -11z"/>
<path d="M6810 5012 c0 -5 11 -19 24 -31 17 -16 26 -19 31 -10 5 7 -2 19 -16
30 -26 20 -39 24 -39 11z"/>
<path d="M10260 4991 c0 -10 119 -35 128 -27 9 10 -4 17 -45 27 -49 11 -83 11
-83 0z"/>
<path d="M10004 4970 c-33 -13 -38 -29 -12 -40 29 -14 103 8 103 30 0 18 -58
24 -91 10z"/>
<path d="M7060 4960 c0 -5 9 -10 21 -10 11 0 17 5 14 10 -3 6 -13 10 -21 10
-8 0 -14 -4 -14 -10z"/>
<path d="M11432 4958 c7 -19 38 -22 38 -4 0 10 -9 16 -21 16 -12 0 -19 -5 -17
-12z"/>
<path d="M10490 4938 c-50 -27 -53 -43 -7 -42 38 1 87 30 87 50 0 20 -30 17
-80 -8z"/>
<path d="M11262 4929 c-45 -11 -65 -35 -41 -50 19 -12 108 -11 168 2 46 10 71
31 51 44 -18 11 -136 14 -178 4z"/>
<path d="M682 4878 c6 -18 28 -21 28 -4 0 9 -7 16 -16 16 -9 0 -14 -5 -12 -12z"/>
<path d="M2871 4876 c-8 -10 -9 -16 -1 -21 13 -8 30 3 30 21 0 18 -14 18 -29
0z"/>
<path d="M6713 4853 c-19 -7 -16 -21 8 -33 15 -9 24 -8 36 1 13 12 13 14 -3
26 -19 14 -22 14 -41 6z"/>
<path d="M6642 4838 c6 -16 36 -34 44 -26 3 4 4 14 1 23 -7 17 -51 21 -45 3z"/>
<path d="M1880 4826 c0 -9 7 -16 16 -16 9 0 14 5 12 12 -6 18 -28 21 -28 4z"/>
<path d="M631 4816 c-8 -10 -7 -17 3 -26 17 -13 36 -6 36 15 0 19 -27 26 -39
11z"/>
<path d="M2152 4803 c4 -21 33 -25 33 -3 0 8 -8 16 -18 18 -14 3 -18 -1 -15
-15z"/>
<path d="M6946 4811 c-7 -11 18 -33 27 -24 4 3 7 12 7 20 0 15 -26 18 -34 4z"/>
<path d="M12026 4813 c-19 -19 23 -34 144 -53 145 -22 189 -2 69 32 -66 19
-201 32 -213 21z"/>
<path d="M6250 4781 c0 -12 47 -41 54 -34 12 12 5 21 -24 32 -16 5 -30 6 -30
2z"/>
<path d="M10012 4763 c2 -11 14 -19 31 -21 29 -4 35 6 15 26 -19 19 -50 15
-46 -5z"/>
<path d="M2484 4749 c-10 -17 13 -36 27 -22 12 12 4 33 -11 33 -5 0 -12 -5
-16 -11z"/>
<path d="M7134 4746 c-10 -8 -16 -17 -13 -20 11 -12 70 -25 64 -15 -4 5 -1 9
4 9 17 0 13 27 -5 34 -22 9 -28 8 -50 -8z"/>
<path d="M11960 4721 c0 -12 37 -21 90 -21 42 1 44 2 26 15 -21 16 -116 21
-116 6z"/>
<path d="M307 4684 c-8 -8 1 -24 14 -24 5 0 9 7 9 15 0 15 -12 20 -23 9z"/>
<path d="M7013 4660 c-39 -23 -42 -40 -9 -40 30 0 72 33 62 48 -10 16 -16 15
-53 -8z"/>
<path d="M2564 4655 c-10 -25 4 -45 30 -45 23 0 36 16 36 46 0 19 -59 19 -66
-1z"/>
<path d="M6590 4645 c0 -8 7 -15 15 -15 8 0 15 7 15 15 0 8 -7 15 -15 15 -8 0
-15 -7 -15 -15z"/>
<path d="M640 4585 c0 -8 5 -15 10 -15 6 0 10 7 10 15 0 8 -4 15 -10 15 -5 0
-10 -7 -10 -15z"/>
<path d="M6725 4540 c-3 -5 3 -10 14 -10 11 0 23 5 26 10 3 6 -3 10 -14 10
-11 0 -23 -4 -26 -10z"/>
<path d="M6910 4515 c0 -15 26 -32 36 -23 2 3 2 13 -2 22 -8 20 -34 21 -34 1z"/>
<path d="M1760 4504 c0 -18 69 -114 82 -114 14 0 9 14 -24 70 -34 56 -58 74
-58 44z"/>
<path d="M868 4399 c-26 -15 -23 -63 5 -81 60 -39 127 -25 127 27 0 53 -79 85
-132 54z"/>
<path d="M5760 4387 c0 -19 16 -31 24 -18 3 5 -1 14 -9 21 -12 10 -15 10 -15
-3z"/>
<path d="M9550 4316 c0 -2 7 -6 15 -10 8 -3 15 -1 15 4 0 6 -7 10 -15 10 -8 0
-15 -2 -15 -4z"/>
<path d="M7620 4226 c0 -9 111 -66 127 -66 16 0 16 1 0 17 -22 22 -127 63
-127 49z"/>
<path d="M9990 4206 c0 -9 73 -46 91 -46 28 0 23 29 -7 40 -25 10 -84 14 -84
6z"/>
<path d="M5220 4161 c0 -5 7 -11 15 -15 9 -3 15 0 15 9 0 8 -7 15 -15 15 -8 0
-15 -4 -15 -9z"/>
<path d="M7318 4130 c-73 -13 -148 -99 -148 -170 0 -31 31 -100 53 -119 11 -9
17 -29 17 -56 0 -29 8 -52 25 -76 14 -19 28 -42 31 -51 7 -20 20 -23 29 -8 3
6 18 10 33 10 44 0 104 43 127 91 15 33 28 45 52 51 40 10 49 24 30 46 -30 36
-28 51 9 67 43 18 41 41 -3 37 -28 -3 -31 0 -37 39 -9 54 -19 73 -60 104 -38
29 -105 44 -158 35z"/>
<path d="M1996 4082 c-3 -6 -1 -14 5 -17 15 -10 25 3 12 16 -7 7 -13 7 -17 1z"/>
<path d="M6860 4082 c0 -13 25 -22 62 -22 19 0 28 4 26 13 -5 14 -88 23 -88 9z"/>
<path d="M1706 4024 c-22 -22 -20 -70 4 -94 11 -11 25 -20 30 -20 6 0 9 -14 8
-31 -4 -38 22 -60 46 -40 22 19 20 48 -5 62 l-21 11 21 14 c27 19 28 74 3 97
-23 21 -66 22 -86 1z"/>
<path d="M5880 4027 c0 -8 7 -20 15 -27 12 -10 15 -10 15 3 0 8 -7 20 -15 27
-12 10 -15 10 -15 -3z"/>
<path d="M6765 3970 c-3 -5 1 -10 10 -10 9 0 13 5 10 10 -3 6 -8 10 -10 10 -2
0 -7 -4 -10 -10z"/>
<path d="M1570 3960 c0 -5 5 -10 10 -10 6 0 10 5 10 10 0 6 -4 10 -10 10 -5 0
-10 -4 -10 -10z"/>
<path d="M9279 3937 c24 -27 41 -34 41 -19 0 4 -15 16 -32 26 l-33 19 24 -26z"/>
<path d="M1592 3912 c-29 -24 -32 -30 -19 -40 8 -7 21 -10 28 -8 8 2 26 7 42
10 29 7 36 33 15 54 -18 18 -29 15 -66 -16z"/>
<path d="M1574 3825 c-8 -21 6 -37 27 -32 10 3 22 1 25 -4 3 -5 18 -9 35 -9
34 0 38 19 9 45 -17 15 -22 16 -36 4 -14 -11 -18 -11 -21 -1 -6 17 -32 15 -39
-3z"/>
<path d="M1400 3806 c0 -7 7 -19 15 -26 19 -16 41 1 32 24 -8 20 -47 21 -47 2z"/>
<path d="M8042 3800 c-18 -11 -38 -20 -45 -20 -23 0 -87 -51 -103 -82 -20 -38
-20 -107 0 -145 37 -72 121 -107 203 -84 66 17 107 51 139 116 33 69 29 123
-12 166 -15 16 -33 29 -39 29 -5 0 -27 9 -48 20 -46 25 -54 25 -95 0z"/>
<path d="M6930 3750 c0 -5 5 -10 10 -10 6 0 10 5 10 10 0 6 -4 10 -10 10 -5 0
-10 -4 -10 -10z"/>
<path d="M1400 3715 c0 -8 9 -15 20 -15 11 0 20 7 20 15 0 8 -9 15 -20 15 -11
0 -20 -7 -20 -15z"/>
<path d="M1350 3680 c0 -5 5 -10 10 -10 6 0 10 5 10 10 0 6 -4 10 -10 10 -5 0
-10 -4 -10 -10z"/>
<path d="M340 3630 c0 -5 7 -10 16 -10 8 0 12 5 9 10 -3 6 -10 10 -16 10 -5 0
-9 -4 -9 -10z"/>
<path d="M1380 3625 c-18 -21 -5 -47 22 -43 26 3 37 36 16 49 -18 12 -24 11
-38 -6z"/>
<path d="M8650 3601 c0 -13 26 -32 33 -24 8 7 -11 33 -24 33 -5 0 -9 -4 -9 -9z"/>
<path d="M10365 3490 c3 -5 10 -10 16 -10 5 0 9 5 9 10 0 6 -7 10 -16 10 -8 0
-12 -4 -9 -10z"/>
<path d="M36 3459 c-62 -49 3 -128 77 -92 52 26 26 113 -34 113 -9 0 -28 -9
-43 -21z"/>
<path d="M7405 3381 c-107 -26 -192 -89 -234 -173 -83 -166 7 -340 202 -388
27 -7 47 -18 47 -26 0 -8 9 -14 20 -14 11 0 20 6 20 14 0 8 16 16 43 20 23 4
69 20 101 36 55 26 61 27 72 12 11 -14 9 -17 -9 -20 -40 -5 -66 -25 -80 -61
-8 -20 -27 -47 -41 -61 -23 -21 -30 -22 -46 -12 -11 7 -24 12 -29 12 -5 0 -17
-32 -26 -71 -22 -89 -12 -132 44 -182 70 -63 141 -61 203 4 47 49 54 77 35
135 -15 46 -15 47 9 68 35 29 50 100 29 132 -8 13 -27 27 -41 30 -22 6 -24 8
-10 16 20 11 21 37 1 44 -21 9 -19 15 19 65 35 47 63 149 51 192 -40 141 -94
189 -247 221 -84 17 -88 18 -133 7z"/>
<path d="M6730 3311 c0 -5 5 -13 10 -16 6 -3 10 -2 10 4 0 5 -4 13 -10 16 -5
3 -10 2 -10 -4z"/>
<path d="M6150 3250 c0 -5 7 -10 15 -10 8 0 15 5 15 10 0 6 -7 10 -15 10 -8 0
-15 -4 -15 -10z"/>
<path d="M8325 3110 c18 -20 45 -27 45 -12 0 8 -43 32 -57 32 -3 0 2 -9 12
-20z"/>
<path d="M1563 3063 c-18 -7 -16 -58 2 -73 32 -27 78 22 61 65 -5 14 -38 19
-63 8z"/>
<path d="M8906 3051 c-4 -6 7 -25 23 -43 26 -28 30 -30 31 -13 0 32 -42 75
-54 56z"/>
<path d="M2705 3010 c-4 -7 -3 -16 3 -22 14 -14 45 -2 40 15 -6 16 -34 21 -43
7z"/>
<path d="M2770 3000 c0 -5 5 -10 10 -10 6 0 10 5 10 10 0 6 -4 10 -10 10 -5 0
-10 -4 -10 -10z"/>
<path d="M4046 3003 c-11 -11 -6 -23 9 -23 8 0 15 4 15 9 0 13 -16 22 -24 14z"/>
<path d="M1592 2919 c2 -6 8 -10 13 -10 5 0 11 4 13 10 2 6 -4 11 -13 11 -9 0
-15 -5 -13 -11z"/>
<path d="M2665 2909 c-6 -19 7 -38 26 -39 14 0 31 31 25 45 -8 23 -44 18 -51
-6z"/>
<path d="M6766 2921 c-4 -7 -5 -15 -2 -18 9 -9 19 4 14 18 -4 11 -6 11 -12 0z"/>
<path d="M2855 2880 c-4 -7 -3 -16 3 -22 14 -14 47 -6 47 12 0 18 -40 26 -50
10z"/>
<path d="M1012 2803 c2 -12 14 -19 38 -21 19 -2 39 -8 45 -13 18 -17 55 -10
55 11 0 27 -29 40 -90 40 -44 0 -51 -3 -48 -17z"/>
<path d="M1193 2804 c-8 -22 9 -48 36 -52 16 -3 21 2 21 20 0 42 -44 66 -57
32z"/>
<path d="M1287 2804 c-14 -15 -6 -43 14 -49 25 -8 42 6 37 31 -3 19 -38 31
-51 18z"/>
<path d="M2902 2787 c-16 -19 -6 -44 20 -53 14 -4 28 2 46 20 30 30 29 32 -19
41 -25 5 -39 2 -47 -8z"/>
<path d="M6630 2784 c0 -8 5 -12 10 -9 6 3 10 10 10 16 0 5 -4 9 -10 9 -5 0
-10 -7 -10 -16z"/>
<path d="M1493 2755 c-7 -21 25 -55 52 -55 13 0 29 7 36 16 11 14 10 19 -10
35 -28 23 -69 25 -78 4z"/>
<path d="M2824 2734 c-12 -17 -14 -28 -7 -35 15 -15 54 -7 67 14 9 15 7 21 -8
33 -27 19 -33 18 -52 -12z"/>
<path d="M7940 2752 c0 -14 46 -53 53 -45 4 3 -3 17 -15 30 -22 23 -38 30 -38
15z"/>
<path d="M7170 2737 c0 -13 60 -77 73 -77 17 0 4 39 -21 63 -30 29 -52 35 -52
14z"/>
<path d="M11013 2727 c-8 -14 25 -36 106 -69 123 -51 140 -25 22 34 -82 40
-118 50 -128 35z"/>
<path d="M2185 2691 c-9 -16 3 -31 26 -31 14 0 19 6 17 17 -4 20 -33 29 -43
14z"/>
<path d="M1455 2680 c-7 -12 2 -30 16 -30 12 0 12 27 0 35 -5 3 -12 1 -16 -5z"/>
<path d="M5970 2671 c0 -11 5 -23 10 -26 6 -3 10 3 10 14 0 11 -4 23 -10 26
-5 3 -10 -3 -10 -14z"/>
<path d="M1213 2653 c-18 -6 -16 -50 2 -57 14 -5 45 18 45 34 0 13 -32 28 -47
23z"/>
<path d="M1084 2595 c-8 -19 12 -36 33 -28 19 7 12 37 -10 41 -9 2 -20 -4 -23
-13z"/>
<path d="M6618 2594 c-5 -4 -8 -16 -8 -28 0 -14 3 -17 11 -9 6 6 9 19 7 28 -1
9 -6 13 -10 9z"/>
<path d="M7140 2572 c0 -5 11 -19 25 -32 19 -18 25 -20 25 -8 0 8 -8 22 -18
31 -20 19 -32 22 -32 9z"/>
<path d="M1141 2554 c-27 -19 -27 -40 0 -54 26 -14 49 3 49 35 0 29 -22 38
-49 19z"/>
<path d="M1024 2525 c-7 -18 3 -35 21 -35 21 0 28 19 15 35 -16 19 -29 19 -36
0z"/>
<path d="M12175 2521 c-4 -7 15 -21 47 -36 59 -27 82 -31 76 -13 -10 29 -110
69 -123 49z"/>
<path d="M7296 2475 c-8 -22 11 -65 29 -65 17 0 20 32 5 61 -13 23 -26 25 -34
4z"/>
<path d="M3204 2439 c-3 -6 1 -18 9 -27 13 -12 19 -13 31 -3 8 7 12 19 9 27
-6 17 -39 19 -49 3z"/>
<path d="M736 2424 c-22 -22 -20 -41 9 -69 13 -14 31 -25 39 -25 22 0 46 28
46 54 0 47 -62 73 -94 40z"/>
<path d="M3430 2400 c0 -5 5 -10 10 -10 6 0 10 5 10 10 0 6 -4 10 -10 10 -5 0
-10 -4 -10 -10z"/>
<path d="M3397 2340 c3 -10 11 -25 19 -31 11 -9 14 -8 14 8 0 19 -17 43 -31
43 -4 0 -5 -9 -2 -20z"/>
<path d="M8430 2331 c0 -11 89 -91 101 -91 23 0 5 30 -33 57 -59 41 -68 46
-68 34z"/>
<path d="M12580 2311 c0 -15 54 -41 87 -41 l28 0 -30 19 c-38 25 -85 37 -85
22z"/>
<path d="M3952 2298 c5 -15 28 -23 28 -10 0 5 -7 13 -16 16 -10 4 -14 1 -12
-6z"/>
<path d="M6606 2275 c4 -8 10 -15 15 -15 4 0 6 7 3 15 -4 8 -10 15 -15 15 -4
0 -6 -7 -3 -15z"/>
<path d="M4392 2227 c-29 -30 -28 -69 2 -104 20 -23 32 -28 71 -28 61 0 79 22
71 85 -7 54 -26 70 -81 70 -30 0 -47 -6 -63 -23z"/>
<path d="M3882 2219 c2 -7 10 -15 17 -17 8 -3 12 1 9 9 -2 7 -10 15 -17 17 -8
3 -12 -1 -9 -9z"/>
<path d="M8732 2188 c5 -15 109 -87 126 -88 25 0 6 25 -49 62 -54 38 -84 48
-77 26z"/>
<path d="M4243 2134 c-7 -19 11 -39 26 -30 16 10 13 33 -4 40 -9 3 -18 -1 -22
-10z"/>
<path d="M7170 2124 c0 -18 -12 -39 -35 -61 -42 -41 -48 -94 -15 -136 11 -14
20 -29 20 -35 0 -5 -9 -17 -20 -27 -28 -26 -27 -85 3 -113 36 -34 80 -38 121
-12 42 25 52 55 36 104 -11 34 -10 38 18 66 41 41 47 72 23 125 -20 46 -48 65
-96 65 -16 0 -25 7 -29 25 -8 33 -26 32 -26 -1z"/>
<path d="M4200 2110 c0 -5 5 -10 10 -10 6 0 10 5 10 10 0 6 -4 10 -10 10 -5 0
-10 -4 -10 -10z"/>
<path d="M4305 2070 c-3 -5 1 -10 10 -10 9 0 13 5 10 10 -3 6 -8 10 -10 10 -2
0 -7 -4 -10 -10z"/>
<path d="M6946 1971 c-4 -5 -2 -12 3 -15 5 -4 12 -2 15 3 4 5 2 12 -3 15 -5 4
-12 2 -15 -3z"/>
<path d="M4176 1938 c-23 -32 -20 -74 6 -98 44 -40 90 -40 121 2 38 51 -3 118
-72 118 -30 0 -44 -6 -55 -22z"/>
<path d="M6340 1948 c0 -9 5 -20 11 -23 17 -11 20 0 4 21 -13 17 -14 17 -15 2z"/>
<path d="M3944 1939 c-3 -6 1 -18 9 -27 12 -12 19 -13 30 -4 8 7 17 9 20 5 4
-3 7 -2 7 4 0 5 -11 15 -25 21 -32 15 -32 15 -41 1z"/>
<path d="M9845 1920 c3 -5 11 -10 16 -10 6 0 7 5 4 10 -3 6 -11 10 -16 10 -6
0 -7 -4 -4 -10z"/>
<path d="M6687 1852 c-8 -12 39 -112 53 -112 12 0 12 6 0 51 -11 38 -44 77
-53 61z"/>
<path d="M9050 1772 c0 -10 22 -32 32 -32 15 0 8 28 -8 34 -21 8 -24 8 -24 -2z"/>
<path d="M3600 1697 c0 -29 50 -96 73 -97 19 0 3 35 -33 73 -30 32 -40 38 -40
24z"/>
<path d="M5021 1564 c0 -11 3 -14 6 -6 3 7 2 16 -1 19 -3 4 -6 -2 -5 -13z"/>
<path d="M7440 1551 c0 -12 29 -35 36 -28 11 10 -5 37 -21 37 -8 0 -15 -4 -15
-9z"/>
<path d="M9330 1472 c0 -14 39 -46 47 -39 3 4 -2 16 -12 27 -19 21 -35 26 -35
12z"/>
<path d="M7055 1451 c-6 -11 9 -23 19 -14 9 9 7 23 -3 23 -6 0 -12 -4 -16 -9z"/>
<path d="M7592 1378 c6 -18 28 -21 28 -4 0 9 -7 16 -16 16 -9 0 -14 -5 -12
-12z"/>
<path d="M6620 1306 c0 -8 5 -18 10 -21 6 -3 10 1 10 9 0 8 -4 18 -10 21 -5 3
-10 -1 -10 -9z"/>
<path d="M3775 1279 c13 -43 56 -109 70 -109 23 0 18 21 -17 74 -37 56 -65 74
-53 35z"/>
<path d="M8935 1290 c-9 -14 11 -46 44 -69 59 -42 72 -10 17 45 -35 35 -50 41
-61 24z"/>
<path d="M10310 1240 c0 -5 5 -10 10 -10 6 0 10 5 10 10 0 6 -4 10 -10 10 -5
0 -10 -4 -10 -10z"/>
<path d="M8620 1185 c0 -16 27 -32 37 -21 7 7 -16 36 -28 36 -5 0 -9 -7 -9
-15z"/>
<path d="M2280 1096 c0 -9 5 -16 10 -16 6 0 10 4 10 9 0 6 -4 13 -10 16 -5 3
-10 -1 -10 -9z"/>
<path d="M7029 1021 c-34 -33 -39 -45 -39 -83 0 -24 -5 -49 -11 -55 -20 -20
-2 -45 28 -42 16 2 47 -3 71 -10 87 -29 162 24 162 114 0 70 -51 115 -131 115
-35 0 -48 -6 -80 -39z"/>
<path d="M4975 950 c-19 -36 -19 -40 0 -40 14 0 35 37 35 61 0 19 -20 8 -35
-21z"/>
<path d="M8182 728 c2 -6 10 -14 16 -16 7 -2 10 2 6 12 -7 18 -28 22 -22 4z"/>
<path d="M9630 697 c0 -16 42 -57 58 -57 18 0 15 14 -9 44 -22 28 -49 35 -49
13z"/>
<path d="M8430 616 c0 -9 5 -16 10 -16 6 0 10 4 10 9 0 6 -4 13 -10 16 -5 3
-10 -1 -10 -9z"/>
<path d="M6800 572 l-23 -19 28 -46 c32 -55 59 -77 96 -77 41 0 58 10 74 41
38 72 0 119 -95 119 -41 0 -64 -5 -80 -18z"/>
<path d="M7001 524 c0 -11 3 -14 6 -6 3 7 2 16 -1 19 -3 4 -6 -2 -5 -13z"/>
<path d="M2182 248 c-14 -14 -16 -42 -2 -33 14 9 32 45 22 45 -4 0 -13 -5 -20
-12z"/>
<path d="M5703 119 c-6 -8 -14 -24 -17 -36 -10 -33 12 -29 25 4 12 32 7 50 -8
32z"/>
<path d="M6980 60 c0 -5 5 -10 11 -10 5 0 7 5 4 10 -3 6 -8 10 -11 10 -2 0 -4
-4 -4 -10z"/>
<path d="M6050 31 c0 -11 5 -23 10 -26 6 -4 10 5 10 19 0 14 -4 26 -10 26 -5
0 -10 -9 -10 -19z"/>
</g>
</svg>
