<?xml version="1.0" encoding="UTF-8" standalone="no"?>
<svg
   viewBox="0 0 450 450"
   version="1.1"
   id="svg6"
   sodipodi:docname="font-awesome-color.svg"
   width="450"
   height="450"
   inkscape:version="1.1.1 (3bf5ae0d25, 2021-09-20)"
   xmlns:inkscape="http://www.inkscape.org/namespaces/inkscape"
   xmlns:sodipodi="http://sodipodi.sourceforge.net/DTD/sodipodi-0.dtd"
   xmlns="http://www.w3.org/2000/svg"
   xmlns:svg="http://www.w3.org/2000/svg">
  <defs
     id="defs10" />
  <sodipodi:namedview
     id="namedview8"
     pagecolor="#333333"
     bordercolor="#666666"
     borderopacity="1.0"
     inkscape:pageshadow="2"
     inkscape:pageopacity="0"
     inkscape:pagecheckerboard="true"
     showgrid="false"
     fit-margin-left="1"
     fit-margin-top="1"
     fit-margin-right="1"
     fit-margin-bottom="1"
     inkscape:zoom="1.4042969"
     inkscape:cx="224.66759"
     inkscape:cy="224.66759"
     inkscape:window-width="1920"
     inkscape:window-height="1177"
     inkscape:window-x="1912"
     inkscape:window-y="-8"
     inkscape:window-maximized="1"
     inkscape:current-layer="svg6" />
  <!-- Font Awesome Pro 5.15.4 by @fontawesome - https://fontawesome.com License - https://fontawesome.com/license (Commercial License) -->
  <path
     d="M 401,1 H 49 A 48,48 0 0 0 1,49 v 352 a 48,48 0 0 0 48,48 h 352 a 48,48 0 0 0 48,-48 V 49 A 48,48 0 0 0 401,1 Z"
     style="fill:#4488ee"
     id="path2" />
  <path
     d="m 337,281 c -31.6,11.2 -41.2,16 -59.8,16 -31.4,0 -43.2,-16 -74.6,-16 a 80,80 0 0 0 -25.6,4 v -32 a 85.9,85.9 0 0 1 25.6,-4 c 31.2,0 43.2,16 74.6,16 10.2,0 17.8,-1.4 27.8,-4.6 v -96 c -10,3.2 -17.6,4.6 -27.8,4.6 -31.4,0 -43.2,-16 -74.6,-16 -25.4,0 -37.4,10.4 -57.6,14.4 V 321 a 16,16 0 0 1 -32,0 V 129 a 16,16 0 0 1 32,0 v 6.4 c 20.2,-4 32.2,-14.4 57.6,-14.4 31.2,0 43.2,16 74.6,16 18.6,0 28.2,-4.8 59.8,-16 z"
     style="fill:#ffffff"
     id="path4" />
</svg>
