<?xml version="1.0" encoding="UTF-8" standalone="no"?>
<svg
   xmlns:dc="http://purl.org/dc/elements/1.1/"
   xmlns:cc="http://creativecommons.org/ns#"
   xmlns:rdf="http://www.w3.org/1999/02/22-rdf-syntax-ns#"
   xmlns:svg="http://www.w3.org/2000/svg"
   xmlns="http://www.w3.org/2000/svg"
   xmlns:sodipodi="http://sodipodi.sourceforge.net/DTD/sodipodi-0.dtd"
   xmlns:inkscape="http://www.inkscape.org/namespaces/inkscape"
   stroke-miterlimit="1.414"
   aria-label="Logo"
   viewBox="0 0 344.58899 386.91299"
   version="1.1"
   id="svg8"
   sodipodi:docname="image.svg"
   width="344.58899"
   height="386.91299"
   style="clip-rule:evenodd;fill-rule:evenodd;stroke-linejoin:round;stroke-miterlimit:1.41400003"
   inkscape:version="0.92.2 2405546, 2018-03-11">
  <metadata
     id="metadata14">
    <rdf:RDF>
      <cc:Work
         rdf:about="">
        <dc:format>image/svg+xml</dc:format>
        <dc:type
           rdf:resource="http://purl.org/dc/dcmitype/StillImage" />
        <dc:title></dc:title>
      </cc:Work>
    </rdf:RDF>
  </metadata>
  <defs
     id="defs12" />
  <sodipodi:namedview
     pagecolor="#ffffff"
     bordercolor="#666666"
     borderopacity="1"
     objecttolerance="10"
     gridtolerance="10"
     guidetolerance="10"
     inkscape:pageopacity="0"
     inkscape:pageshadow="2"
     inkscape:window-width="1920"
     inkscape:window-height="1051"
     id="namedview10"
     showgrid="false"
     fit-margin-top="0"
     fit-margin-left="0"
     fit-margin-right="0"
     fit-margin-bottom="0"
     inkscape:zoom="0.18933333"
     inkscape:cx="207.46761"
     inkscape:cy="195.589"
     inkscape:window-x="0"
     inkscape:window-y="128"
     inkscape:window-maximized="1"
     inkscape:current-layer="svg8" />
  <path
     d="M 331.3,248.184 V 125.93 A 44.842,44.842 0 0 0 309.174,87.27 C 279.757,69.987 227.787,39.452 195.959,20.75 a 52.628,52.628 0 0 0 -54.28,0.58 C 113.509,38.7 69.559,65.8 41.189,83.297 a 57.93,57.93 0 0 0 -27.53,49.31 v 125.172 a 56.106,56.106 0 0 0 27.79,48.437 l 104.72,61.212 a 45.598,45.598 0 0 0 45.2,0.47 c 30.58,-17.036 84.74,-47.196 115.94,-64.575 a 46.708,46.708 0 0 0 23.97,-40.8 v -14.34 z"
     id="path2"
     inkscape:connector-curvature="0"
     style="fill:#ff4088" />
  <path
     d="m 169.44,0 h 0.277 l 0.247,0.003 h 1.414 l 0.247,0.01 h 0.03 l 0.247,0.01 h 0.027 l 0.25,0.01 h 0.02 l 0.25,0.01 h 0.03 l 0.24,0.01 h 0.03 l 0.24,0.01 h 0.02 l 0.25,0.01 h 0.03 l 0.25,0.02 h 0.03 l 0.24,0.02 h 0.02 l 0.24,0.02 h 0.03 l 0.25,0.02 h 0.02 l 0.24,0.02 h 0.03 l 0.25,0.02 h 0.03 l 0.25,0.02 h 0.03 l 0.25,0.02 h 0.03 l 0.24,0.02 h 0.03 l 0.24,0.02 h 0.03 l 0.25,0.02 h 0.03 l 0.25,0.03 h 0.03 l 0.25,0.03 h 0.02 l 0.24,0.03 h 0.03 l 0.24,0.03 h 0.03 l 0.25,0.03 h 0.03 l 0.25,0.03 h 0.02 l 0.24,0.03 h 0.03 l 0.25,0.03 h 0.03 l 0.24,0.04 0.03,0.01 0.25,0.04 h 0.03 l 0.24,0.04 h 0.02 l 0.25,0.04 h 0.03 l 0.24,0.04 h 0.03 l 0.24,0.04 h 0.02 l 0.25,0.04 h 0.03 l 0.24,0.04 0.03,0.01 0.24,0.04 0.03,0.01 0.24,0.05 h 0.03 l 0.24,0.04 h 0.03 l 0.24,0.05 h 0.03 l 0.25,0.05 h 0.02 l 0.24,0.05 h 0.03 l 0.24,0.05 h 0.02 l 0.25,0.05 0.03,0.01 0.25,0.05 h 0.02 l 0.24,0.06 0.03,0.01 0.24,0.06 h 0.03 l 0.25,0.06 0.02,0.01 0.24,0.05 0.03,0.01 0.24,0.05 0.02,0.01 0.24,0.06 h 0.03 l 0.24,0.06 0.03,0.01 0.24,0.06 0.02,0.01 0.25,0.06 0.02,0.01 0.24,0.06 0.03,0.01 0.24,0.06 h 0.02 l 0.24,0.07 h 0.03 l 0.25,0.06 0.03,0.01 0.24,0.06 h 0.03 l 0.24,0.07 0.03,0.01 0.24,0.07 0.03,0.01 0.24,0.07 0.03,0.01 0.24,0.07 0.02,0.01 0.24,0.07 0.03,0.01 0.24,0.07 0.03,0.01 0.24,0.07 0.03,0.01 0.24,0.08 0.02,0.01 0.24,0.08 h 0.03 l 0.24,0.08 h 0.03 l 0.24,0.08 0.03,0.01 0.24,0.08 0.03,0.01 0.24,0.08 0.02,0.01 0.24,0.08 0.03,0.01 0.24,0.08 0.02,0.01 0.24,0.08 0.02,0.01 0.23,0.08 0.03,0.01 0.23,0.08 0.03,0.01 0.23,0.09 0.03,0.01 0.24,0.09 0.03,0.01 0.23,0.09 0.02,0.01 0.24,0.08 0.02,0.01 0.24,0.09 0.03,0.01 0.24,0.09 0.03,0.01 0.23,0.09 0.03,0.01 0.23,0.1 0.02,0.01 0.24,0.09 0.03,0.01 0.23,0.1 0.03,0.01 0.24,0.1 0.03,0.01 0.24,0.1 0.02,0.01 0.24,0.1 0.02,0.01 0.23,0.1 0.02,0.01 0.23,0.1 0.02,0.01 0.24,0.1 0.02,0.01 0.23,0.1 0.03,0.01 0.23,0.1 0.03,0.01 0.23,0.1 0.02,0.01 0.23,0.11 0.03,0.01 0.23,0.11 0.03,0.01 0.23,0.11 0.02,0.01 0.23,0.11 0.02,0.01 0.23,0.11 0.03,0.01 0.23,0.11 0.03,0.01 0.23,0.11 0.03,0.01 0.23,0.11 0.02,0.01 0.23,0.12 0.02,0.02 0.23,0.11 0.02,0.01 0.22,0.12 0.03,0.01 0.23,0.11 0.02,0.01 0.23,0.12 0.03,0.01 0.22,0.12 0.03,0.02 0.23,0.12 0.03,0.01 0.23,0.12 0.02,0.01 0.22,0.12 0.03,0.02 0.23,0.12 0.02,0.02 0.22,0.13 0.02,0.02 0.22,0.13 0.03,0.01 0.22,0.13 0.02,0.01 0.22,0.13 0.02,0.02 0.22,0.13 0.03,0.02 0.21,0.13 h 0.02 l 113.3,66.57 0.19,0.11 0.02,0.02 0.19,0.11 0.03,0.01 0.18,0.12 0.02,0.02 0.18,0.11 0.02,0.02 0.18,0.11 0.02,0.01 0.18,0.11 0.02,0.01 0.18,0.11 0.02,0.01 0.18,0.11 0.03,0.01 0.18,0.12 0.02,0.01 0.18,0.12 0.03,0.01 0.18,0.11 0.02,0.01 0.18,0.12 0.02,0.02 0.18,0.12 0.02,0.02 0.17,0.11 0.03,0.01 0.18,0.12 0.02,0.01 0.18,0.12 0.02,0.01 0.17,0.12 0.02,0.01 0.17,0.12 0.02,0.01 0.17,0.12 0.02,0.02 0.17,0.12 0.02,0.01 0.17,0.13 0.03,0.02 0.17,0.12 0.02,0.01 0.17,0.12 0.02,0.01 0.17,0.12 0.02,0.02 0.17,0.12 0.02,0.01 0.17,0.12 0.02,0.02 0.17,0.12 0.02,0.02 0.17,0.13 0.03,0.02 0.16,0.13 0.03,0.02 0.17,0.13 0.03,0.01 0.17,0.13 0.02,0.02 0.17,0.13 0.02,0.02 0.16,0.13 0.03,0.02 0.17,0.14 0.03,0.03 0.32,0.26 0.04,0.03 0.32,0.27 0.04,0.03 0.33,0.27 0.04,0.03 0.33,0.27 0.04,0.03 0.32,0.27 0.04,0.04 0.32,0.27 0.04,0.03 0.31,0.28 0.04,0.03 0.31,0.28 0.04,0.03 0.31,0.29 0.04,0.03 0.3,0.28 0.04,0.03 0.31,0.29 0.04,0.04 0.3,0.29 0.04,0.04 0.3,0.29 0.04,0.04 0.29,0.29 0.04,0.04 0.29,0.3 0.04,0.04 0.29,0.3 0.03,0.04 0.29,0.3 0.04,0.04 0.28,0.3 0.04,0.04 0.28,0.3 0.04,0.04 0.28,0.3 0.04,0.04 0.28,0.31 0.04,0.04 0.27,0.32 0.03,0.04 0.28,0.31 0.04,0.04 0.27,0.32 0.04,0.04 0.27,0.32 0.03,0.04 0.27,0.32 0.04,0.04 0.26,0.32 0.03,0.04 0.26,0.32 0.04,0.04 0.26,0.33 0.03,0.04 0.25,0.33 0.03,0.04 0.25,0.33 0.03,0.04 0.25,0.33 0.03,0.05 0.25,0.34 0.03,0.04 0.25,0.33 0.03,0.05 0.24,0.34 0.03,0.04 0.24,0.34 0.03,0.04 0.24,0.34 0.03,0.05 0.23,0.34 0.03,0.05 0.23,0.35 0.03,0.05 0.22,0.34 0.03,0.04 0.22,0.34 0.03,0.04 0.23,0.35 0.03,0.04 0.22,0.35 0.03,0.05 0.21,0.35 0.03,0.05 0.22,0.35 0.03,0.05 0.21,0.35 0.03,0.05 0.21,0.36 0.03,0.04 0.2,0.36 0.03,0.05 0.2,0.36 0.03,0.05 0.2,0.36 0.03,0.05 0.2,0.36 0.02,0.05 0.2,0.37 0.02,0.05 0.19,0.37 0.02,0.05 0.19,0.37 0.03,0.04 0.18,0.38 0.02,0.05 0.19,0.37 0.02,0.05 0.18,0.37 0.03,0.05 0.17,0.38 0.02,0.05 0.17,0.38 0.02,0.05 0.17,0.38 0.02,0.05 0.17,0.38 0.02,0.05 0.16,0.38 0.02,0.05 0.16,0.38 0.02,0.05 0.15,0.39 0.02,0.05 0.15,0.38 0.02,0.05 0.15,0.39 0.02,0.05 0.15,0.39 0.02,0.05 0.15,0.39 0.02,0.05 0.14,0.39 0.02,0.05 0.13,0.39 0.02,0.05 0.13,0.39 0.02,0.05 0.13,0.39 0.02,0.05 0.13,0.4 0.01,0.05 0.12,0.39 0.02,0.05 0.12,0.4 0.01,0.05 0.12,0.4 0.02,0.05 0.12,0.4 0.02,0.05 0.11,0.4 0.02,0.05 0.11,0.4 0.01,0.05 0.1,0.4 0.02,0.06 0.11,0.41 0.01,0.05 0.1,0.41 0.02,0.05 0.09,0.41 0.02,0.05 0.1,0.41 0.01,0.06 0.09,0.41 0.01,0.05 0.09,0.41 0.01,0.05 0.08,0.41 0.01,0.05 0.08,0.41 0.01,0.05 0.08,0.41 0.01,0.05 0.07,0.42 0.01,0.05 0.07,0.41 0.01,0.06 0.07,0.42 0.01,0.06 0.06,0.42 0.01,0.06 0.06,0.41 v 0.04 l 0.03,0.22 v 0.02 l 0.02,0.21 v 0.03 l 0.03,0.21 v 0.02 l 0.03,0.21 v 0.03 l 0.03,0.21 0.01,0.03 0.03,0.21 v 0.03 l 0.02,0.21 0.01,0.02 0.02,0.21 0.01,0.03 0.02,0.21 v 0.03 l 0.02,0.21 0.01,0.03 0.02,0.21 0.01,0.03 0.02,0.21 v 0.03 l 0.02,0.21 v 0.03 l 0.02,0.21 v 0.03 l 0.02,0.21 v 0.03 l 0.02,0.21 v 0.03 l 0.01,0.21 v 0.03 l 0.01,0.22 v 0.03 l 0.02,0.22 v 0.02 l 0.01,0.21 v 0.03 l 0.01,0.21 v 0.03 l 0.01,0.21 v 0.03 l 0.01,0.21 v 0.03 l 0.01,0.22 v 0.03 l 0.01,0.21 v 0.03 l 0.01,0.21 v 0.02 l 0.01,0.21 v 139.6 l -0.01,0.23 v 0.29 l -0.01,0.23 v 0.03 l -0.01,0.22 v 0.02 l -0.01,0.23 v 0.03 l -0.01,0.22 v 0.02 l -0.01,0.22 v 0.03 l -0.01,0.22 -0.01,0.03 -0.01,0.22 v 0.03 l -0.01,0.22 v 0.02 l -0.01,0.23 v 0.03 l -0.02,0.23 v 0.02 l -0.02,0.23 v 0.03 l -0.02,0.22 v 0.03 l -0.01,0.22 v 0.03 l -0.02,0.22 v 0.03 l -0.02,0.22 v 0.03 l -0.02,0.22 v 0.03 l -0.02,0.22 -0.01,0.02 -0.02,0.23 -0.01,0.03 -0.02,0.22 v 0.03 l -0.02,0.22 -0.01,0.03 -0.03,0.22 v 0.03 l -0.03,0.22 v 0.02 l -0.03,0.22 v 0.03 l -0.03,0.22 -0.01,0.03 -0.03,0.23 -0.01,0.03 -0.03,0.22 -0.01,0.03 -0.03,0.22 v 0.03 l -0.03,0.22 v 0.03 l -0.03,0.22 -0.01,0.03 -0.03,0.22 -0.01,0.03 -0.04,0.22 v 0.02 l -0.03,0.22 v 0.02 l -0.04,0.22 -0.01,0.03 -0.03,0.22 -0.01,0.03 -0.03,0.22 v 0.02 l -0.04,0.22 v 0.02 l -0.04,0.22 v 0.02 l -0.04,0.22 v 0.03 l -0.04,0.21 -0.01,0.03 -0.04,0.21 -0.01,0.03 -0.04,0.22 -0.01,0.03 -0.05,0.22 v 0.02 l -0.05,0.22 v 0.02 l -0.04,0.21 v 0.03 l -0.05,0.22 v 0.02 l -0.04,0.22 -0.01,0.02 -0.05,0.21 v 0.02 l -0.05,0.21 v 0.03 l -0.05,0.21 -0.01,0.03 -0.05,0.21 -0.01,0.03 -0.05,0.21 -0.01,0.02 -0.05,0.21 -0.01,0.02 -0.05,0.21 -0.01,0.03 -0.06,0.21 -0.01,0.03 -0.05,0.21 -0.01,0.03 -0.06,0.21 v 0.03 l -0.06,0.22 -0.01,0.03 -0.06,0.21 v 0.03 l -0.06,0.21 -0.01,0.03 -0.06,0.21 -0.01,0.03 -0.06,0.22 -0.01,0.02 -0.06,0.21 -0.01,0.02 -0.06,0.21 -0.01,0.03 -0.07,0.21 -0.01,0.03 -0.06,0.21 -0.01,0.02 -0.06,0.21 -0.01,0.03 -0.06,0.21 -0.01,0.02 -0.07,0.21 -0.01,0.03 -0.07,0.21 -0.01,0.03 -0.07,0.21 -0.01,0.03 -0.07,0.21 -0.01,0.03 -0.07,0.21 -0.01,0.02 -0.07,0.21 -0.01,0.03 -0.07,0.21 -0.01,0.03 -0.07,0.21 -0.01,0.02 -0.07,0.21 -0.01,0.03 -0.07,0.21 -0.01,0.03 -0.08,0.2 -0.01,0.03 -0.07,0.2 -0.01,0.03 -0.07,0.2 -0.01,0.03 -0.07,0.21 -0.01,0.03 -0.08,0.21 -0.01,0.03 -0.08,0.2 -0.01,0.03 -0.08,0.2 -0.01,0.03 -0.08,0.2 -0.01,0.03 -0.08,0.2 -0.01,0.03 -0.08,0.2 -0.01,0.03 -0.08,0.2 -0.01,0.02 -0.09,0.2 -0.01,0.03 -0.09,0.21 -0.01,0.03 -0.08,0.2 -0.01,0.03 -0.09,0.2 -0.01,0.03 -0.09,0.2 -0.01,0.03 -0.09,0.2 -0.01,0.02 -0.09,0.2 -0.01,0.03 -0.09,0.2 -0.01,0.02 -0.09,0.2 -0.01,0.02 -0.09,0.2 -0.01,0.02 -0.09,0.2 -0.01,0.02 -0.1,0.2 -0.01,0.02 -0.1,0.19 -0.01,0.03 -0.09,0.2 -0.01,0.02 -0.1,0.19 -0.01,0.03 -0.09,0.2 -0.01,0.02 -0.1,0.2 -0.01,0.03 -0.1,0.2 -0.01,0.02 -0.1,0.19 -0.01,0.02 -0.1,0.2 -0.01,0.03 -0.1,0.2 -0.01,0.03 -0.1,0.2 -0.02,0.03 -0.1,0.19 -0.01,0.02 -0.1,0.2 -0.01,0.03 -0.1,0.2 -0.01,0.03 -0.11,0.19 -0.02,0.02 -0.11,0.19 -0.01,0.02 -0.11,0.19 -0.01,0.02 -0.11,0.19 -0.01,0.02 -0.11,0.19 -0.01,0.02 -0.11,0.19 -0.01,0.03 -0.11,0.19 -0.01,0.02 -0.11,0.19 -0.01,0.03 -0.11,0.19 -0.02,0.02 -0.11,0.19 -0.02,0.02 -0.11,0.19 -0.01,0.02 -0.11,0.19 -0.01,0.03 -0.12,0.19 -0.01,0.02 -0.11,0.18 -0.01,0.03 -0.11,0.18 -0.02,0.02 -0.12,0.19 -0.01,0.03 -0.12,0.18 -0.02,0.02 -0.12,0.18 -0.01,0.02 -0.12,0.19 -0.02,0.03 -0.12,0.18 -0.02,0.02 -0.12,0.18 -0.01,0.02 -0.12,0.19 -0.01,0.02 -0.12,0.18 -0.02,0.02 -0.13,0.18 -0.01,0.02 -0.12,0.18 -0.01,0.02 -0.13,0.18 -0.01,0.02 -0.12,0.18 -0.02,0.02 -0.12,0.18 -0.02,0.02 -0.13,0.18 -0.02,0.02 -0.12,0.18 -0.01,0.02 -0.13,0.18 -0.02,0.03 -0.12,0.18 -0.02,0.02 -0.13,0.18 -0.02,0.02 -0.13,0.18 -0.02,0.02 -0.13,0.18 -0.02,0.02 -0.13,0.18 -0.01,0.02 -0.13,0.17 -0.02,0.02 -0.13,0.17 -0.01,0.02 -0.14,0.17 -0.02,0.02 -0.13,0.17 -0.01,0.02 -0.13,0.18 -0.02,0.02 -0.14,0.18 -0.02,0.02 -0.14,0.17 -0.02,0.02 -0.14,0.17 -0.01,0.02 -0.14,0.17 -0.02,0.02 -0.14,0.17 -0.02,0.02 -0.14,0.17 -0.02,0.02 -0.14,0.17 -0.02,0.02 -0.14,0.17 -0.01,0.02 -0.14,0.17 -0.02,0.02 -0.15,0.17 -0.02,0.02 -0.14,0.17 -0.02,0.02 -0.14,0.17 -0.02,0.02 -0.14,0.17 -0.02,0.02 -0.14,0.17 -0.02,0.02 -0.14,0.16 -0.02,0.02 -0.15,0.17 -0.02,0.02 -0.14,0.17 -0.02,0.02 -0.15,0.17 -0.02,0.02 -0.14,0.17 -0.02,0.02 -0.15,0.16 -0.02,0.02 -0.15,0.16 -0.02,0.02 -0.15,0.16 -0.02,0.02 -0.15,0.16 -0.02,0.02 -0.15,0.16 -0.02,0.02 -0.15,0.16 -0.02,0.02 -0.15,0.16 -0.02,0.02 -0.15,0.16 -0.02,0.02 -0.16,0.16 -0.02,0.02 -0.15,0.16 -0.02,0.02 -0.15,0.15 -0.02,0.02 -0.16,0.16 -0.03,0.02 -0.16,0.16 -0.02,0.02 -0.16,0.15 -0.02,0.02 -0.16,0.16 -0.02,0.02 -0.16,0.15 -0.02,0.02 -0.16,0.15 -0.02,0.02 -0.16,0.15 -0.02,0.02 -0.16,0.15 -0.02,0.02 -0.16,0.15 -0.02,0.02 -0.16,0.15 -0.02,0.02 -0.17,0.15 -0.02,0.01 -0.16,0.15 -0.02,0.02 -0.17,0.15 -0.02,0.02 -0.17,0.15 -0.02,0.01 -0.17,0.15 -0.02,0.02 -0.17,0.14 -0.03,0.02 -0.17,0.14 -0.02,0.02 -0.17,0.15 -0.02,0.02 -0.17,0.15 -0.02,0.02 -0.17,0.15 -0.02,0.02 -0.17,0.14 -0.02,0.02 -0.18,0.14 -0.02,0.01 -0.17,0.14 -0.02,0.02 -0.17,0.14 -0.03,0.02 -0.17,0.14 -0.02,0.02 -0.17,0.14 -0.02,0.02 -0.17,0.14 -0.02,0.02 -0.18,0.14 -0.02,0.02 -0.17,0.13 -0.02,0.02 -0.18,0.14 -0.02,0.02 -0.18,0.14 -0.02,0.02 -0.18,0.14 -0.02,0.02 -0.18,0.14 -0.02,0.01 -0.18,0.13 -0.02,0.01 -0.18,0.13 -0.02,0.01 -0.18,0.13 -0.03,0.01 -0.18,0.13 -0.02,0.02 -0.18,0.13 -0.02,0.02 -0.18,0.13 -0.02,0.02 -0.18,0.13 -0.03,0.02 -0.18,0.13 -0.02,0.01 -0.19,0.13 -0.03,0.01 -0.19,0.13 -0.02,0.02 -0.19,0.13 -0.02,0.02 -0.19,0.12 -0.02,0.02 -0.19,0.13 -0.02,0.02 -0.18,0.13 -0.03,0.02 -0.19,0.12 -0.02,0.01 -0.19,0.12 -0.03,0.01 -0.19,0.12 -0.02,0.02 -0.19,0.12 -0.02,0.02 -0.19,0.12 -0.02,0.01 -0.19,0.12 -0.03,0.01 -0.19,0.12 -0.02,0.02 -0.19,0.12 -0.03,0.01 -0.19,0.12 -0.03,0.02 -0.19,0.12 -0.03,0.02 -0.2,0.12 -0.02,0.02 -0.19,0.11 -0.03,0.01 -0.19,0.11 -0.02,0.02 -0.2,0.12 -0.03,0.02 -0.2,0.11 -0.02,0.02 -0.19,0.11 -0.03,0.01 -0.2,0.11 -0.03,0.01 -0.2,0.11 -0.02,0.01 -0.19,0.11 -0.01,0.01 -115.93,64.6 h -0.01 l -0.18,0.11 -0.03,0.01 -0.19,0.11 -0.03,0.02 -0.19,0.1 -0.03,0.01 -0.19,0.1 -0.02,0.01 -0.19,0.1 -0.03,0.01 -0.19,0.1 -0.03,0.01 -0.19,0.1 -0.03,0.01 -0.19,0.1 -0.02,0.01 -0.19,0.1 -0.02,0.01 -0.19,0.09 -0.02,0.01 -0.2,0.1 -0.02,0.02 -0.19,0.1 -0.02,0.01 -0.19,0.09 -0.02,0.01 -0.19,0.09 -0.02,0.01 -0.19,0.1 -0.02,0.01 -0.2,0.09 -0.02,0.01 -0.19,0.09 -0.02,0.01 -0.2,0.09 -0.02,0.01 -0.19,0.09 -0.02,0.01 -0.19,0.09 -0.03,0.02 -0.2,0.09 -0.02,0.01 -0.2,0.08 -0.02,0.01 -0.2,0.09 -0.02,0.02 -0.2,0.09 -0.03,0.01 -0.19,0.08 -0.02,0.01 -0.2,0.09 -0.02,0.01 -0.2,0.08 -0.02,0.01 -0.2,0.08 -0.02,0.01 -0.2,0.08 -0.03,0.01 -0.2,0.08 -0.03,0.01 -0.2,0.08 -0.03,0.01 -0.19,0.08 -0.02,0.01 -0.2,0.07 -0.02,0.01 -0.2,0.08 -0.03,0.01 -0.2,0.08 -0.03,0.01 -0.2,0.08 -0.03,0.01 -0.2,0.07 -0.03,0.01 -0.2,0.08 -0.03,0.01 -0.2,0.07 -0.02,0.01 -0.2,0.07 -0.03,0.01 -0.2,0.07 -0.03,0.01 -0.2,0.07 -0.03,0.01 -0.2,0.07 -0.02,0.01 -0.2,0.07 -0.2,0.07 -0.03,0.01 -0.21,0.06 -0.03,0.01 -0.2,0.06 -0.02,0.01 -0.2,0.07 -0.02,0.01 -0.21,0.06 -0.03,0.01 -0.2,0.06 -0.03,0.01 -0.2,0.06 -0.03,0.01 -0.21,0.07 -0.04,0.01 -0.4,0.12 -0.05,0.02 -0.41,0.12 -0.05,0.01 -0.41,0.12 -0.05,0.01 -0.41,0.11 -0.05,0.02 -0.41,0.11 -0.05,0.01 -0.41,0.11 -0.06,0.01 -0.41,0.1 -0.05,0.01 -0.41,0.1 -0.06,0.01 -0.41,0.1 -0.05,0.01 -0.41,0.09 -0.05,0.01 -0.42,0.09 -0.06,0.01 -0.42,0.09 -0.05,0.01 -0.42,0.08 -0.05,0.01 -0.41,0.07 -0.05,0.01 -0.41,0.08 -0.05,0.01 -0.42,0.07 -0.05,0.01 -0.42,0.07 -0.05,0.01 -0.42,0.06 -0.05,0.01 -0.42,0.06 -0.05,0.01 -0.42,0.06 -0.05,0.01 -0.42,0.06 -0.06,0.01 -0.42,0.05 -0.05,0.01 -0.42,0.05 -0.05,0.01 -0.42,0.05 -0.42,0.04 h -0.05 l -0.42,0.03 -0.05,0.01 -0.42,0.03 h -0.05 l -0.42,0.03 h -0.05 l -0.42,0.03 -0.06,0.01 -0.42,0.03 h -0.05 l -0.42,0.02 h -0.05 l -0.42,0.02 h -0.06 l -0.42,0.01 h -0.05 l -0.42,0.01 h -0.05 l -0.42,0.01 h -1.48 l -0.42,-0.01 -0.42,-0.01 h -0.06 l -0.42,-0.01 H 167.2 l -0.42,-0.02 -0.05,-0.01 -0.42,-0.02 h -0.05 l -0.42,-0.02 -0.05,-0.01 -0.42,-0.02 h -0.05 l -0.42,-0.03 -0.05,-0.01 -0.42,-0.04 -0.06,-0.01 -0.42,-0.04 -0.06,-0.01 -0.42,-0.04 -0.05,-0.01 -0.42,-0.04 h -0.05 l -0.42,-0.04 -0.05,-0.01 -0.42,-0.05 H 162 l -0.42,-0.05 -0.06,-0.01 -0.42,-0.06 -0.05,-0.01 -0.42,-0.06 -0.05,-0.01 -0.42,-0.06 -0.05,-0.01 -0.42,-0.06 -0.05,-0.01 -0.41,-0.07 h -0.03 l -0.42,-0.08 -0.054,-0.01 -0.41,-0.08 -0.05,-0.01 -0.41,-0.08 -0.05,-0.01 -0.41,-0.08 -0.06,-0.01 -0.416,-0.08 -0.05,-0.01 -0.41,-0.09 -0.06,-0.02 -0.41,-0.09 -0.05,-0.01 -0.41,-0.1 -0.056,-0.02 -0.41,-0.1 -0.05,-0.02 -0.41,-0.11 -0.05,-0.01 -0.41,-0.11 -0.05,-0.02 -0.41,-0.11 -0.05,-0.02 -0.41,-0.11 -0.05,-0.02 -0.41,-0.12 -0.06,-0.02 -0.41,-0.12 -0.05,-0.02 -0.41,-0.12 -0.05,-0.02 -0.41,-0.12 -0.05,-0.01 -0.398,-0.13 -0.04,-0.01 -0.21,-0.07 h -0.027 l -0.2,-0.06 -0.03,-0.01 -0.2,-0.07 -0.03,-0.01 -0.2,-0.07 -0.03,-0.01 -0.2,-0.07 -0.03,-0.01 -0.2,-0.07 -0.03,-0.01 -0.2,-0.07 -0.02,-0.01 -0.2,-0.07 -0.02,-0.01 -0.2,-0.07 -0.02,-0.01 -0.2,-0.08 -0.03,-0.01 -0.2,-0.08 -0.03,-0.01 -0.2,-0.08 -0.02,-0.01 -0.2,-0.08 -0.03,-0.01 -0.2,-0.08 -0.02,-0.01 -0.2,-0.08 -0.03,-0.01 -0.2,-0.08 -0.02,-0.01 -0.2,-0.08 -0.02,-0.01 -0.2,-0.08 -0.03,-0.01 -0.2,-0.08 -0.03,-0.01 -0.2,-0.08 -0.03,-0.01 -0.2,-0.08 -0.03,-0.01 -0.2,-0.08 -0.02,-0.01 -0.2,-0.09 -0.03,-0.01 -0.19,-0.09 -0.02,-0.01 -0.2,-0.09 -0.02,-0.01 -0.2,-0.09 -0.02,-0.01 -0.2,-0.08 -0.03,-0.01 -0.19,-0.09 -0.03,-0.01 -0.2,-0.09 -0.03,-0.01 -0.19,-0.09 -0.02,-0.02 -0.19,-0.09 -0.02,-0.01 -0.19,-0.09 -0.02,-0.01 -0.2,-0.09 -0.02,-0.02 -0.2,-0.1 -0.02,-0.02 -0.19,-0.09 -0.03,-0.01 -0.2,-0.09 -0.02,-0.02 -0.19,-0.1 -0.03,-0.01 -0.2,-0.1 -0.02,-0.01 -0.19,-0.1 -0.03,-0.01 -0.19,-0.1 -0.02,-0.01 -0.19,-0.1 -0.03,-0.02 -0.19,-0.1 -0.02,-0.01 -0.19,-0.1 -0.02,-0.01 -0.19,-0.1 -0.03,-0.02 -0.19,-0.1 -0.02,-0.01 -0.19,-0.11 -0.03,-0.02 -0.19,-0.1 -0.03,-0.01 -0.19,-0.1 -0.03,-0.01 -0.19,-0.1 -0.03,-0.01 -0.19,-0.11 -0.03,-0.01 -0.18,-0.11 -0.03,-0.01 -0.18,-0.11 -0.01,-0.01 -104.8,-61.17 -0.01,-0.01 -0.22,-0.13 -0.02,-0.01 -0.22,-0.13 -0.03,-0.01 -0.23,-0.13 -0.03,-0.01 -0.22,-0.14 -0.02,-0.01 -0.22,-0.14 -0.02,-0.02 -0.22,-0.14 -0.02,-0.02 -0.22,-0.14 -0.03,-0.01 -0.22,-0.13 -0.03,-0.02 -0.22,-0.14 -0.02,-0.02 -0.22,-0.14 H 32.2 l -0.22,-0.14 -0.03,-0.02 -0.22,-0.14 -0.02,-0.02 -0.22,-0.14 -0.028,-0.02 -0.22,-0.15 -0.03,-0.02 -0.22,-0.15 -0.02,-0.02 -0.22,-0.14 -0.02,-0.02 -0.22,-0.15 -0.02,-0.02 -0.22,-0.15 -0.02,-0.02 -0.21,-0.15 -0.03,-0.02 -0.215,-0.15 -0.02,-0.02 -0.21,-0.15 -0.025,-0.02 -0.21,-0.15 -0.027,-0.02 -0.21,-0.15 -0.02,-0.01 -0.21,-0.15 -0.02,-0.02 -0.207,-0.15 -0.02,-0.02 -0.206,-0.15 -0.03,-0.01 -0.21,-0.15 -0.02,-0.02 -0.21,-0.16 -0.02,-0.02 -0.21,-0.15 -0.026,-0.02 -0.21,-0.16 -0.026,-0.02 -0.2,-0.16 -0.02,-0.02 -0.2,-0.16 -0.02,-0.01 -0.2,-0.16 -0.02,-0.02 -0.2,-0.16 -0.02,-0.02 -0.2,-0.16 -0.02,-0.02 -0.2,-0.16 -0.02,-0.02 -0.2,-0.16 -0.02,-0.02 -0.2,-0.16 -0.02,-0.02 -0.2,-0.17 -0.02,-0.01 -0.2,-0.16 -0.02,-0.02 -0.194,-0.16 -0.02,-0.02 -0.2,-0.17 -0.02,-0.02 -0.2,-0.16 -0.02,-0.02 -0.2,-0.17 -0.02,-0.01 -0.196,-0.16 -0.02,-0.02 -0.19,-0.16 -0.02,-0.02 -0.19,-0.17 -0.02,-0.02 -0.19,-0.17 -0.02,-0.02 -0.19,-0.17 -0.02,-0.02 -0.19,-0.17 -0.02,-0.02 -0.19,-0.17 -0.02,-0.02 -0.19,-0.18 -0.02,-0.01 -0.19,-0.17 -0.03,-0.02 -0.185,-0.18 -0.02,-0.02 -0.19,-0.17 -0.02,-0.02 -0.186,-0.18 -0.02,-0.02 -0.18,-0.18 -0.02,-0.02 -0.18,-0.18 -0.02,-0.02 -0.19,-0.18 -0.02,-0.02 -0.19,-0.18 -0.02,-0.01 -0.18,-0.18 -0.02,-0.02 -0.18,-0.18 -0.02,-0.02 -0.18,-0.18 -0.02,-0.02 -0.18,-0.18 -0.02,-0.02 -0.18,-0.18 -0.02,-0.02 -0.18,-0.18 -0.02,-0.02 -0.17,-0.18 -0.02,-0.02 -0.18,-0.18 -0.02,-0.02 -0.18,-0.19 -0.02,-0.02 -0.17,-0.19 -0.02,-0.02 -0.17,-0.19 -0.02,-0.02 -0.18,-0.19 -0.02,-0.02 -0.17,-0.19 -0.02,-0.02 -0.17,-0.19 -0.02,-0.02 -0.17,-0.19 -0.02,-0.02 -0.17,-0.19 -0.02,-0.02 -0.17,-0.19 -0.01,-0.02 -0.16,-0.19 -0.02,-0.02 -0.17,-0.19 -0.02,-0.02 -0.18,-0.2 -0.02,-0.02 -0.17,-0.19 -0.02,-0.02 -0.17,-0.2 -0.02,-0.02 -0.16,-0.19 -0.01,-0.02 -0.16,-0.19 -0.02,-0.02 -0.16,-0.2 -0.02,-0.02 -0.17,-0.2 -0.02,-0.02 -0.16,-0.19 -0.02,-0.02 -0.17,-0.19 -0.02,-0.02 -0.16,-0.19 -0.02,-0.02 -0.16,-0.2 -0.02,-0.02 -0.16,-0.2 -0.02,-0.02 -0.16,-0.2 -0.02,-0.02 -0.16,-0.2 -0.02,-0.02 -0.16,-0.2 -0.01,-0.02 -0.15,-0.2 -0.02,-0.02 -0.15,-0.2 -0.01,-0.02 -0.15,-0.2 -0.02,-0.02 -0.15,-0.21 -0.02,-0.02 -0.15,-0.2 -0.02,-0.02 -0.15,-0.2 -0.01,-0.02 -0.15,-0.21 -0.01,-0.02 -0.15,-0.21 -0.01,-0.02 -0.15,-0.2 -0.01,-0.02 -0.15,-0.2 -0.02,-0.02 -0.15,-0.21 -0.02,-0.02 -0.15,-0.21 -0.02,-0.03 -0.14,-0.21 -0.02,-0.02 -0.14,-0.21 -0.02,-0.02 -0.14,-0.21 -0.02,-0.02 -0.14,-0.21 -0.01,-0.02 -0.14,-0.21 -0.02,-0.03 -0.14,-0.21 -0.02,-0.02 -0.14,-0.21 -0.02,-0.02 -0.14,-0.21 -0.02,-0.02 -0.14,-0.21 -0.02,-0.02 -0.13,-0.21 -0.01,-0.02 -0.13,-0.21 -0.02,-0.03 -0.14,-0.21 -0.02,-0.03 -0.14,-0.21 -0.01,-0.02 -0.14,-0.22 -0.01,-0.03 -0.13,-0.21 -0.02,-0.02 -0.13,-0.21 -0.02,-0.02 -0.13,-0.22 -0.02,-0.03 -0.13,-0.21 -0.01,-0.02 -0.13,-0.22 -0.01,-0.02 -0.13,-0.21 -0.02,-0.03 -0.13,-0.22 -0.02,-0.03 -0.13,-0.22 -0.02,-0.03 -0.12,-0.22 -0.02,-0.02 -0.13,-0.22 -0.01,-0.02 -0.12,-0.22 -0.01,-0.02 -0.12,-0.22 -0.01,-0.03 -0.12,-0.22 -0.02,-0.03 -0.12,-0.22 -0.01,-0.03 -0.12,-0.23 -0.01,-0.02 -0.12,-0.22 -0.01,-0.03 -0.12,-0.22 -0.01,-0.03 -0.12,-0.22 -0.01,-0.03 -0.11,-0.23 -0.01,-0.02 -0.12,-0.23 -0.01,-0.03 -0.12,-0.23 -0.02,-0.02 -0.11,-0.23 -0.01,-0.02 -0.11,-0.22 -0.01,-0.03 -0.11,-0.23 v 0.01 l -0.11,-0.23 -0.02,-0.03 -0.11,-0.23 -0.01,-0.03 -0.11,-0.22 -0.01,-0.03 -0.11,-0.23 -0.01,-0.02 -0.11,-0.23 -0.01,-0.02 -0.1,-0.23 -0.01,-0.02 -0.11,-0.23 -0.01,-0.02 -0.11,-0.23 -0.01,-0.02 -0.11,-0.23 -0.01,-0.03 -0.1,-0.23 -0.01,-0.02 -0.11,-0.23 -0.01,-0.03 -0.11,-0.23 -0.01,-0.02 -0.1,-0.23 -0.01,-0.02 -0.1,-0.23 -0.01,-0.03 -0.1,-0.23 -0.01,-0.02 -0.09,-0.23 -0.01,-0.02 -0.1,-0.23 -0.01,-0.03 -0.09,-0.24 -0.01,-0.02 -0.1,-0.23 -0.01,-0.03 -0.09,-0.22 -0.01,-0.03 -0.1,-0.24 -0.01,-0.02 -0.09,-0.24 -0.01,-0.03 -0.09,-0.24 -0.01,-0.02 -0.09,-0.24 -0.01,-0.03 -0.09,-0.24 -0.01,-0.02 -0.09,-0.24 -0.01,-0.02 -0.08,-0.24 -0.01,-0.03 -0.09,-0.24 -0.01,-0.02 -0.08,-0.24 -0.01,-0.03 -0.08,-0.24 -0.01,-0.03 -0.09,-0.24 -0.01,-0.03 -0.08,-0.24 -0.01,-0.02 -0.08,-0.24 -0.01,-0.02 -0.08,-0.24 -0.01,-0.03 -0.08,-0.24 -0.01,-0.03 -0.08,-0.24 -0.01,-0.03 -0.08,-0.24 -0.01,-0.03 -0.08,-0.24 -0.009,-0.029 -0.07,-0.24 -0.01,-0.02 -0.08,-0.25 -0.01,-0.03 -0.07,-0.25 -0.01,-0.03 -0.07,-0.24 -0.01,-0.03 -0.07,-0.24 -0.01,-0.03 -0.07,-0.25 -0.01,-0.03 -0.07,-0.25 -0.01,-0.02 -0.07,-0.25 -0.01,-0.01 -0.07,-0.25 -0.01,-0.02 -0.06,-0.24 -0.01,-0.02 -0.06,-0.24 v -0.02 l -0.07,-0.25 v -0.03 l -0.06,-0.24 -0.01,-0.03 -0.06,-0.24 -0.01,-0.03 -0.06,-0.25 h 0.01 l -0.06,-0.25 -0.01,-0.02 -0.06,-0.25 -0.01,-0.02 -0.06,-0.25 -0.01,-0.02 -0.06,-0.25 0.01,-0.01 -0.06,-0.25 -0.01,-0.03 -0.06,-0.25 -0.01,-0.03 -0.05,-0.25 -0.01,-0.03 -0.06,-0.25 -0.01,-0.02 -0.05,-0.25 -0.01,-0.03 -0.05,-0.25 -0.01,-0.03 -0.05,-0.25 -0.05,-0.25 v -0.03 l -0.05,-0.26 v -0.03 l -0.05,-0.25 -0.01,-0.03 -0.06,-0.24 v -0.03 l -0.05,-0.27 -0.01,-0.03 -0.05,-0.26 -0.01,-0.03 -0.04,-0.25 -0.01,-0.03 -0.04,-0.25 v -0.03 l -0.04,-0.25 v -0.03 l -0.04,-0.25 -0.01,-0.03 -0.04,-0.25 v 0.01 l -0.04,-0.25 v -0.02 l -0.04,-0.25 v -0.03 l -0.04,-0.25 v -0.03 l -0.04,-0.25 v -0.02 l -0.03,-0.26 v -0.03 l -0.03,-0.25 v -0.02 l -0.04,-0.26 -0.01,-0.03 -0.03,-0.25 v -0.03 l -0.03,-0.26 -0.01,-0.03 -0.03,-0.26 v -0.03 l -0.03,-0.26 -0.01,-0.03 -0.03,-0.26 v -0.03 l -0.03,-0.26 -0.01,-0.02 -0.03,-0.26 -0.02,-0.26 v -0.03 l -0.03,-0.26 -0.01,-0.03 -0.03,-0.26 v -0.03 l -0.02,-0.26 -0.01,-0.03 -0.02,-0.26 v -0.03 l -0.02,-0.26 v -0.03 l -0.02,-0.26 -0.02,-0.26 v -0.03 l -0.02,-0.26 v -0.03 l -0.02,-0.26 v -0.323 l -0.01,-0.26 v -0.03 l -0.01,-0.26 v -0.03 l -0.01,-0.26 -0.01,-0.03 -0.01,-0.26 v -0.28 l -0.01,-0.26 v -0.03 L 0,259.181 v -126.6 l 0.01,-0.25 v -0.32 l 0.01,-0.26 v -0.92 l 0.01,-0.26 v -0.02 l 0.01,-0.26 v -0.03 l 0.01,-0.26 v -0.03 l 0.01,-0.26 v -0.02 l 0.01,-0.26 v -0.03 l 0.01,-0.26 v -0.03 l 0.02,-0.27 v -0.03 l 0.02,-0.26 v -0.02 l 0.01,-0.26 v -0.03 l 0.02,-0.26 v -0.03 l 0.01,-0.26 v -0.03 l 0.01,-0.26 v -0.03 l 0.02,-0.26 v -0.03 l 0.02,-0.26 v -0.03 l 0.03,-0.26 v -0.03 l 0.02,-0.26 0.01,-0.02 0.02,-0.26 v -0.02 l 0.03,-0.26 v -0.02 l 0.03,-0.26 0.01,-0.03 0.03,-0.26 v -0.03 l 0.03,-0.26 v -0.02 l 0.03,-0.26 v -0.02 l 0.03,-0.26 0.01,-0.03 0.03,-0.26 v -0.03 l 0.03,-0.25 v -0.03 l 0.03,-0.26 v -0.03 l 0.03,-0.26 0.01,-0.03 0.03,-0.25 v -0.03 l 0.04,-0.26 v -0.03 l 0.03,-0.26 0.01,-0.03 0.03,-0.25 0.01,-0.03 0.04,-0.26 0.01,-0.02 0.04,-0.26 v -0.02 l 0.04,-0.26 v -0.02 l 0.04,-0.25 0.01,-0.03 0.04,-0.25 v -0.03 l 0.07,-0.26 0.01,-0.03 0.04,-0.25 v -0.03 l 0.05,-0.25 v -0.02 l 0.05,-0.25 v -0.02 l 0.05,-0.26 0.01,-0.02 0.05,-0.25 0.01,-0.02 0.05,-0.25 0.01,-0.03 0.05,-0.25 0.01,-0.03 0.05,-0.25 v -0.03 l 0.05,-0.25 v -0.02 l 0.05,-0.25 0.01,-0.02 0.05,-0.25 0.01,-0.02 0.06,-0.25 v -0.03 l 0.06,-0.25 0.01,-0.03 0.05,-0.25 0.01,-0.03 0.06,-0.25 v -0.03 l 0.06,-0.25 0.01,-0.03 0.06,-0.25 v -0.03 l 0.06,-0.25 0.01,-0.02 0.06,-0.25 v -0.02 l 0.06,-0.25 0.01,-0.03 0.07,-0.25 v -0.02 l 0.07,-0.25 v -0.02 l 0.07,-0.25 0.01,-0.03 0.07,-0.25 v -0.03 l 0.07,-0.25 0.01,-0.03 0.07,-0.24 0.01,-0.02 0.07,-0.25 0.01,-0.025 0.07,-0.25 0.01,-0.03 0.07,-0.244 0.01,-0.02 0.08,-0.25 0.01,-0.02 0.07,-0.24 0.01,-0.02 0.07,-0.243 0.01,-0.02 0.07,-0.248 0.01,-0.03 0.08,-0.244 0.01,-0.03 0.08,-0.24 v -0.02 l 0.08,-0.24 v -0.03 l 0.08,-0.24 0.01,-0.02 0.08,-0.24 0.01,-0.03 0.08,-0.24 0.01,-0.03 0.08,-0.24 0.01,-0.03 0.08,-0.24 0.01,-0.02 0.09,-0.24 0.01,-0.02 0.08,-0.24 0.01,-0.025 0.08,-0.24 0.01,-0.02 0.09,-0.24 0.01,-0.02 0.09,-0.24 v -0.02 l 0.09,-0.24 0.01,-0.02 0.09,-0.24 0.01,-0.03 0.09,-0.24 0.01,-0.02 0.09,-0.24 0.01,-0.03 0.1,-0.23 0.01,-0.02 0.1,-0.24 0.01,-0.02 0.1,-0.24 0.01,-0.03 0.1,-0.24 0.01,-0.03 0.1,-0.24 0.01,-0.03 0.1,-0.24 0.01,-0.03 0.1,-0.24 0.01,-0.03 0.1,-0.24 0.01,-0.025 0.1,-0.23 0.01,-0.03 0.1,-0.23 0.01,-0.03 0.1,-0.24 0.01,-0.02 0.11,-0.24 0.01,-0.02 0.11,-0.23 0.01,-0.02 0.1,-0.23 0.01,-0.03 0.11,-0.23 0.01,-0.02 0.11,-0.23 0.01,-0.02 0.11,-0.23 0.01,-0.02 0.11,-0.23 0.01,-0.03 0.11,-0.23 0.01,-0.02 0.11,-0.23 0.01,-0.03 0.11,-0.23 0.01,-0.02 0.11,-0.23 0.01,-0.02 0.11,-0.23 0.01,-0.02 0.11,-0.23 0.01,-0.02 0.12,-0.22 0.01,-0.02 0.12,-0.23 0.02,-0.03 0.12,-0.23 0.01,-0.02 0.12,-0.23 0.01,-0.03 0.12,-0.22 0.01,-0.02 0.12,-0.22 0.01,-0.02 0.12,-0.22 0.01,-0.03 0.12,-0.22 0.02,-0.02 0.12,-0.22 0.01,-0.03 0.12,-0.22 0.02,-0.02 0.12,-0.22 0.01,-0.02 0.12,-0.22 0.02,-0.03 0.13,-0.22 0.01,-0.02 0.12,-0.22 0.01,-0.02 0.13,-0.22 0.01,-0.02 0.13,-0.22 0.01,-0.02 0.13,-0.22 0.02,-0.02 0.13,-0.22 0.01,-0.02 0.13,-0.22 0.02,-0.02 0.13,-0.22 0.01,-0.02 0.13,-0.22 0.02,-0.02 0.13,-0.22 0.01,-0.02 0.14,-0.22 0.02,-0.03 0.14,-0.22 0.01,-0.02 0.13,-0.21 0.02,-0.02 0.14,-0.21 0.02,-0.02 0.13,-0.22 0.01,-0.02 0.14,-0.21 0.01,-0.02 0.14,-0.21 0.02,-0.02 0.14,-0.22 0.02,-0.02 0.14,-0.21 0.01,-0.03 0.14,-0.21 0.01,-0.02 0.14,-0.21 0.01,-0.02 0.15,-0.21 0.02,-0.02 0.14,-0.21 0.02,-0.02 0.15,-0.21 0.01,-0.02 0.15,-0.21 0.01,-0.02 0.15,-0.21 0.01,-0.02 0.15,-0.21 0.02,-0.02 0.15,-0.21 0.01,-0.02 0.15,-0.21 0.02,-0.02 0.15,-0.2 0.01,-0.02 0.15,-0.21 0.02,-0.02 0.15,-0.2 0.02,-0.02 0.15,-0.2 0.02,-0.02 0.15,-0.2 0.02,-0.02 0.15,-0.2 0.01,-0.02 0.15,-0.2 0.02,-0.02 0.16,-0.2 0.02,-0.02 0.16,-0.2 0.02,-0.02 0.16,-0.2 0.02,-0.02 0.16,-0.2 0.02,-0.02 0.16,-0.2 0.02,-0.03 0.16,-0.2 0.01,-0.02 0.16,-0.2 0.02,-0.02 0.16,-0.2 0.02,-0.02 0.16,-0.19 0.02,-0.02 0.16,-0.2 0.02,-0.02 0.16,-0.2 0.02,-0.02 0.17,-0.19 0.02,-0.02 0.16,-0.2 0.02,-0.02 0.16,-0.19 0.02,-0.02 0.16,-0.2 0.02,-0.02 0.17,-0.2 0.01,-0.02 0.17,-0.19 0.02,-0.02 0.17,-0.19 0.02,-0.02 0.17,-0.19 0.02,-0.02 0.17,-0.19 0.01,-0.02 0.17,-0.19 0.02,-0.02 0.17,-0.19 0.02,-0.02 0.17,-0.19 0.01,-0.02 0.17,-0.19 0.02,-0.02 0.18,-0.19 0.01,-0.02 0.18,-0.19 0.02,-0.02 0.19,-0.18 0.02,-0.02 0.18,-0.19 0.02,-0.02 0.18,-0.19 0.02,-0.02 0.18,-0.18 0.02,-0.02 0.18,-0.18 0.02,-0.02 0.18,-0.18 0.02,-0.02 0.19,-0.18 0.02,-0.02 0.18,-0.18 0.02,-0.02 0.18,-0.18 0.02,-0.02 0.18,-0.18 0.02,-0.02 0.18,-0.18 0.02,-0.02 0.18,-0.18 0.02,-0.02 0.18,-0.18 0.02,-0.02 0.18,-0.18 0.02,-0.02 0.19,-0.17 0.02,-0.02 0.19,-0.17 0.02,-0.02 0.19,-0.18 0.02,-0.02 0.19,-0.18 0.02,-0.01 0.19,-0.17 0.02,-0.01 0.19,-0.17 0.02,-0.02 0.19,-0.17 0.02,-0.02 0.19,-0.17 0.02,-0.02 0.19,-0.17 0.02,-0.01 0.2,-0.17 0.02,-0.02 0.2,-0.17 0.02,-0.02 0.2,-0.17 0.02,-0.02 0.2,-0.16 0.02,-0.02 0.2,-0.16 0.02,-0.02 0.19,-0.16 0.02,-0.02 0.2,-0.16 0.02,-0.02 0.2,-0.16 0.02,-0.01 0.2,-0.16 0.02,-0.02 0.2,-0.16 0.02,-0.02 0.2,-0.16 0.02,-0.02 0.21,-0.16 0.02,-0.02 0.2,-0.16 0.02,-0.02 0.21,-0.16 0.02,-0.02 0.21,-0.16 0.02,-0.02 0.2,-0.16 0.02,-0.01 0.21,-0.16 0.02,-0.02 0.2,-0.16 0.02,-0.02 0.21,-0.15 0.02,-0.02 0.21,-0.16 0.02,-0.02 0.21,-0.15 0.02,-0.01 0.21,-0.15 0.03,-0.02 0.21,-0.15 0.02,-0.01 0.21,-0.15 0.02,-0.02 0.21,-0.16 0.02,-0.01 0.22,-0.15 0.02,-0.02 0.21,-0.15 0.03,-0.01 0.21,-0.15 0.02,-0.01 0.21,-0.15 0.02,-0.01 0.22,-0.15 0.02,-0.02 0.21,-0.15 0.02,-0.01 0.22,-0.14 0.02,-0.01 0.21,-0.15 0.03,-0.02 0.22,-0.14 0.02,-0.02 0.22,-0.15 0.02,-0.02 0.22,-0.14 0.03,-0.01 0.22,-0.14 0.02,-0.02 0.22,-0.14 0.02,-0.01 0.22,-0.14 0.02,-0.01 0.22,-0.14 0.02,-0.01 0.22,-0.14 0.03,-0.01 0.22,-0.13 h 0.01 l 100.51,-62 0.01,-0.01 0.21,-0.13 0.02,-0.01 0.22,-0.14 0.03,-0.02 0.22,-0.13 0.03,-0.02 0.22,-0.13 0.03,-0.02 0.22,-0.13 0.03,-0.01 0.23,-0.13 0.02,-0.02 0.22,-0.13 0.03,-0.01 0.22,-0.13 0.02,-0.01 0.23,-0.12 0.02,-0.02 0.23,-0.12 0.02,-0.02 0.22,-0.12 0.03,-0.01 0.23,-0.12 0.02,-0.02 0.22,-0.12 0.03,-0.02 0.22,-0.12 0.03,-0.02 0.22,-0.12 0.02,-0.02 0.23,-0.12 0.02,-0.01 0.22,-0.12 0.03,-0.01 0.22,-0.12 0.03,-0.01 0.23,-0.12 0.03,-0.01 0.23,-0.12 0.02,-0.01 0.23,-0.11 0.03,-0.01 0.23,-0.11 0.03,-0.01 0.22,-0.11 0.03,-0.01 0.23,-0.11 0.02,-0.01 0.23,-0.11 0.03,-0.01 0.23,-0.11 0.03,-0.02 0.23,-0.11 0.03,-0.01 0.23,-0.11 0.03,-0.01 0.23,-0.1 0.03,-0.01 0.23,-0.1 0.02,-0.02 0.23,-0.1 0.02,-0.01 0.23,-0.1 0.03,-0.02 0.23,-0.1 0.03,-0.01 0.23,-0.1 0.03,-0.01 0.23,-0.1 0.03,-0.01 0.23,-0.1 0.03,-0.01 0.23,-0.1 0.03,-0.01 0.23,-0.09 0.03,-0.01 0.23,-0.1 0.03,-0.01 0.24,-0.1 0.03,-0.01 0.24,-0.1 0.03,-0.02 0.23,-0.09 0.02,-0.01 0.24,-0.09 0.03,-0.01 0.23,-0.09 0.02,-0.01 0.24,-0.09 0.03,-0.01 0.24,-0.08 0.03,-0.01 0.24,-0.09 0.03,-0.01 0.24,-0.09 0.03,-0.01 0.24,-0.08 0.03,-0.01 0.24,-0.08 0.03,-0.01 0.23,-0.08 0.03,-0.01 0.24,-0.08 0.03,-0.01 0.23,-0.08 0.03,-0.01 0.24,-0.08 0.02,-0.01 0.24,-0.08 0.03,-0.01 0.24,-0.08 0.03,-0.01 0.24,-0.08 0.03,-0.01 0.24,-0.07 0.02,-0.01 0.24,-0.07 0.03,-0.01 0.24,-0.07 h 0.03 l 0.24,-0.07 0.03,-0.01 0.24,-0.07 0.02,-0.01 0.24,-0.07 0.02,-0.01 0.24,-0.07 0.03,-0.01 0.24,-0.07 0.03,-0.01 0.24,-0.07 0.03,-0.01 0.24,-0.06 0.03,-0.01 0.24,-0.06 0.02,-0.01 0.24,-0.07 0.024,-0.01 0.25,-0.06 h 0.02 l 0.24,-0.07 h 0.03 l 0.247,-0.06 0.03,-0.01 0.25,-0.06 0.03,-0.01 0.24,-0.06 h 0.03 l 0.25,-0.06 h 0.03 l 0.24,-0.06 0.03,-0.01 0.24,-0.05 0.03,-0.01 0.24,-0.06 0.03,-0.01 0.24,-0.05 h 0.03 l 0.24,-0.05 0.03,-0.01 0.24,-0.05 h 0.02 l 0.24,-0.05 0.03,-0.01 0.25,-0.05 h 0.02 l 0.25,-0.05 0.02,-0.01 0.25,-0.05 0.03,-0.01 0.25,-0.05 0.03,-0.01 0.25,-0.04 h 0.03 l 0.24,-0.04 0.03,-0.01 0.25,-0.05 0.03,-0.01 0.25,-0.04 h 0.03 l 0.24,-0.04 0.03,-0.01 0.25,-0.04 0.03,-0.01 0.24,-0.04 h 0.02 l 0.24,-0.04 h 0.03 l 0.25,-0.04 0.03,-0.01 0.25,-0.04 h 0.03 l 0.25,-0.04 h 0.03 l 0.25,-0.04 h 0.03 l 0.25,-0.03 h 0.03 l 0.24,-0.03 h 0.03 l 0.25,-0.03 0.03,-0.01 0.25,-0.03 0.02,-0.01 0.25,-0.02 h 0.03 l 0.24,-0.03 h 0.03 l 0.24,-0.03 h 0.03 l 0.25,-0.03 h 0.03 l 0.25,-0.03 h 0.03 l 0.24,-0.02 h 0.03 l 0.25,-0.03 0.03,-0.01 0.25,-0.02 0.03,-0.01 0.25,-0.02 h 0.03 l 0.246,-0.02 h 0.03 l 0.25,-0.02 h 0.03 l 0.25,-0.01 0.03,-0.01 0.25,-0.02 0.02,-0.01 0.25,-0.01 h 0.03 l 0.25,-0.02 h 0.02 l 0.25,-0.01 h 0.03 l 0.25,-0.01 h 0.03 l 0.25,-0.01 h 0.03 l 0.25,-0.01 0.03,-0.01 0.25,-0.01 h 0.03 l 0.25,-0.01 h 0.03 l 0.25,-0.01 h 0.03 l 0.25,-0.01 h 0.03 l 0.25,-0.01 h 0.02 l 0.25,-0.01 h 0.31 l 0.25,-0.01 h 0.58 z m -0.23,27 h -0.164 l -0.164,0.002 h -0.163 l -0.17,0.004 -0.17,0.004 -0.17,0.005 -0.17,0.01 -0.17,0.01 -0.17,0.01 -0.16,0.01 -0.17,0.01 -0.16,0.01 -0.16,0.01 -0.16,0.01 -0.17,0.01 -0.16,0.01 -0.17,0.02 -0.17,0.02 -0.16,0.02 -0.17,0.02 -0.17,0.02 -0.17,0.02 -0.16,0.02 -0.17,0.02 -0.16,0.02 -0.16,0.02 -0.17,0.02 -0.16,0.02 -0.16,0.02 -0.16,0.02 -0.16,0.02 -0.17,0.02 -0.16,0.03 -0.16,0.02 -0.17,0.03 -0.16,0.03 -0.16,0.03 -0.16,0.03 -0.16,0.03 -0.16,0.03 -0.16,0.03 -0.16,0.02 -0.17,0.03 -0.16,0.03 -0.17,0.03 -0.16,0.03 -0.16,0.03 -0.16,0.03 -0.16,0.04 -0.16,0.04 -0.16,0.04 -0.16,0.03 -0.16,0.03 -0.16,0.04 -0.16,0.04 -0.16,0.04 -0.16,0.04 -0.16,0.04 -0.16,0.04 -0.16,0.04 -0.16,0.04 -0.16,0.04 -0.16,0.04 -0.16,0.05 -0.16,0.04 -0.16,0.05 -0.15,0.05 -0.16,0.05 -0.16,0.05 -0.16,0.05 -0.16,0.05 -0.16,0.05 -0.15,0.05 -0.16,0.05 -0.16,0.06 -0.16,0.05 -0.16,0.05 -0.16,0.06 -0.16,0.05 -0.16,0.05 -0.15,0.05 -0.16,0.06 -0.16,0.06 -0.16,0.06 -0.15,0.06 -0.16,0.06 -0.15,0.06 -0.15,0.06 -0.16,0.07 -0.16,0.06 -0.16,0.06 -0.16,0.06 -0.15,0.07 -0.15,0.06 -0.16,0.07 -0.15,0.07 -0.15,0.07 -0.15,0.07 -0.16,0.07 -0.15,0.07 -0.16,0.07 -0.15,0.07 -0.15,0.07 -0.15,0.07 -0.16,0.07 -0.15,0.07 -0.15,0.07 -0.15,0.08 -0.15,0.08 -0.15,0.07 -0.15,0.08 -0.15,0.07 -0.15,0.08 -0.15,0.08 -0.15,0.08 -0.15,0.08 -0.15,0.08 -0.15,0.09 -0.14,0.08 -0.15,0.08 -0.14,0.08 -0.15,0.09 -0.15,0.09 -0.15,0.09 -0.14,0.08 -0.15,0.09 -0.14,0.09 -0.15,0.09 -0.15,0.09 -0.16,0.1 -100.4,61.88 -0.17,0.11 -0.16,0.1 -0.15,0.1 -0.15,0.1 -0.15,0.1 -0.15,0.1 -0.15,0.1 -0.15,0.1 -0.15,0.1 -0.15,0.1 -0.15,0.1 -0.15,0.1 -0.15,0.11 -0.14,0.1 -0.14,0.1 -0.15,0.1 -0.14,0.1 -0.14,0.1 -0.14,0.1 -0.14,0.1 -0.14,0.1 -0.14,0.1 -0.14,0.11 -0.14,0.1 -0.14,0.11 -0.14,0.11 -0.14,0.11 -0.14,0.11 -0.14,0.11 -0.14,0.11 -0.13,0.11 -0.14,0.11 -0.14,0.11 -0.13,0.11 -0.14,0.11 -0.14,0.11 -0.13,0.11 -0.14,0.11 -0.13,0.11 -0.13,0.11 -0.13,0.12 -0.13,0.12 -0.13,0.11 -0.13,0.11 -0.13,0.12 -0.13,0.12 -0.13,0.12 -0.13,0.12 -0.13,0.12 -0.13,0.12 -0.13,0.12 -0.13,0.12 -0.13,0.12 -0.13,0.12 -0.13,0.12 -0.12,0.12 -0.13,0.12 -0.12,0.13 -0.13,0.12 -0.12,0.13 -0.12,0.12 -0.12,0.13 -0.12,0.12 -0.12,0.13 -0.12,0.13 -0.13,0.13 -0.12,0.12 -0.12,0.13 -0.12,0.13 -0.12,0.13 -0.11,0.13 -0.12,0.13 -0.12,0.13 -0.12,0.13 -0.12,0.14 -0.12,0.13 -0.11,0.13 -0.11,0.13 -0.12,0.14 -0.11,0.13 -0.12,0.13 -0.11,0.14 -0.11,0.13 -0.11,0.14 -0.11,0.14 -0.11,0.14 -0.11,0.14 -0.11,0.14 -0.11,0.14 -0.1,0.14 -0.11,0.14 -0.11,0.14 -0.11,0.14 -0.11,0.14 -0.1,0.14 -0.1,0.14 -0.1,0.14 -0.1,0.15 -0.1,0.14 -0.1,0.14 -0.1,0.15 -0.1,0.14 -0.1,0.14 -0.1,0.14 -0.1,0.14 -0.09,0.15 -0.1,0.15 -0.1,0.14 -0.1,0.15 -0.09,0.15 -0.09,0.14 -0.09,0.15 -0.09,0.15 -0.09,0.15 -0.09,0.15 -0.1,0.15 -0.1,0.15 -0.09,0.15 -0.09,0.15 -0.09,0.15 -0.09,0.15 -0.09,0.15 -0.09,0.15 -0.09,0.15 -0.09,0.15 -0.09,0.15 -0.09,0.15 -0.09,0.16 -0.09,0.15 -0.09,0.15 -0.09,0.16 -0.08,0.15 -0.08,0.16 -0.08,0.16 -0.08,0.16 -0.08,0.15 -0.08,0.15 -0.08,0.16 -0.08,0.15 -0.08,0.16 -0.07,0.15 -0.08,0.16 -0.08,0.16 -0.08,0.16 -0.08,0.16 -0.08,0.16 -0.07,0.16 -0.07,0.16 -0.07,0.16 -0.07,0.16 -0.07,0.16 -0.07,0.16 -0.07,0.16 -0.07,0.16 -0.07,0.16 -0.06,0.16 -0.07,0.16 -0.07,0.17 -0.07,0.16 -0.07,0.16 -0.07,0.16 -0.06,0.16 -0.07,0.17 -0.07,0.16 -0.06,0.16 -0.06,0.17 -0.06,0.16 -0.06,0.17 -0.06,0.16 -0.06,0.17 -0.06,0.17 -0.06,0.17 -0.05,0.17 -0.06,0.16 -0.06,0.17 -0.05,0.17 -0.05,0.16 -0.05,0.17 -0.06,0.17 -0.05,0.16 -0.05,0.16 -0.05,0.17 -0.06,0.17 -0.05,0.17 -0.05,0.16 -0.05,0.17 -0.05,0.17 -0.05,0.17 -0.05,0.17 -0.05,0.17 -0.04,0.17 -0.04,0.17 -0.05,0.17 -0.04,0.17 -0.05,0.17 -0.04,0.17 -0.04,0.17 -0.04,0.18 -0.04,0.17 -0.04,0.17 -0.04,0.17 -0.04,0.17 -0.04,0.17 -0.04,0.17 -0.03,0.17 -0.04,0.17 -0.03,0.17 -0.03,0.18 -0.03,0.18 -0.03,0.18 -0.03,0.18 -0.03,0.17 -0.03,0.17 -0.03,0.18 -0.03,0.18 -0.03,0.17 -0.03,0.17 -0.03,0.17 -0.03,0.18 -0.02,0.18 -0.02,0.18 -0.02,0.17 -0.03,0.18 -0.03,0.17 -0.02,0.18 -0.02,0.18 -0.02,0.18 -0.02,0.18 -0.02,0.18 -0.02,0.18 -0.02,0.17 -0.02,0.18 -0.02,0.18 -0.01,0.18 -0.02,0.18 -0.02,0.18 -0.01,0.18 -0.01,0.18 -0.01,0.18 -0.01,0.18 -0.01,0.18 -0.01,0.18 -0.01,0.18 -0.01,0.18 -0.01,0.18 -0.01,0.18 v 0.18 l -0.01,0.18 -0.01,0.18 v 0.18 l -0.01,0.18 v 126.8 l 0.01,0.18 v 0.54 l 0.01,0.17 0.01,0.18 0.01,0.18 0.01,0.18 0.01,0.18 0.01,0.18 0.01,0.18 0.01,0.18 0.01,0.18 0.02,0.18 0.01,0.18 0.01,0.18 0.01,0.18 0.02,0.17 0.02,0.18 0.02,0.17 0.01,0.18 0.02,0.17 0.02,0.17 0.02,0.17 0.02,0.17 0.02,0.18 0.02,0.17 0.02,0.17 0.02,0.18 0.02,0.18 0.02,0.17 0.02,0.18 0.03,0.17 0.03,0.17 0.03,0.17 0.03,0.17 0.03,0.18 0.03,0.17 0.03,0.17 0.03,0.17 0.03,0.17 0.04,0.17 0.03,0.17 0.03,0.17 0.03,0.17 0.04,0.17 0.04,0.17 0.03,0.17 0.04,0.17 0.04,0.17 0.04,0.17 0.04,0.17 0.04,0.17 0.04,0.17 0.04,0.17 0.04,0.16 0.05,0.16 0.04,0.17 0.04,0.17 0.04,0.17 0.05,0.17 0.04,0.16 0.04,0.17 0.04,0.16 0.05,0.17 0.04,0.16 0.05,0.17 0.05,0.17 0.05,0.16 0.05,0.17 0.05,0.17 0.05,0.16 0.05,0.17 0.06,0.16 0.06,0.16 0.06,0.16 0.06,0.16 0.05,0.16 0.06,0.17 0.06,0.16 0.06,0.16 0.06,0.16 0.06,0.16 0.06,0.16 0.06,0.16 0.06,0.16 0.06,0.16 0.06,0.16 0.07,0.16 0.07,0.16 0.06,0.16 0.06,0.16 0.06,0.16 0.06,0.16 0.06,0.16 0.07,0.16 0.07,0.16 0.07,0.16 0.07,0.16 0.07,0.16 0.07,0.16 0.07,0.16 0.07,0.16 0.07,0.16 0.07,0.16 0.07,0.16 0.07,0.15 0.08,0.16 0.08,0.15 0.08,0.16 0.08,0.15 0.08,0.15 0.08,0.15 0.08,0.15 0.08,0.15 0.08,0.15 0.09,0.15 0.08,0.15 0.08,0.15 0.08,0.15 0.09,0.15 0.09,0.15 0.08,0.15 0.08,0.15 0.08,0.15 0.09,0.15 0.08,0.15 0.09,0.14 0.09,0.15 0.09,0.14 0.09,0.15 0.09,0.15 0.09,0.14 0.09,0.14 0.09,0.14 0.09,0.14 0.09,0.15 0.09,0.15 0.1,0.14 0.09,0.14 0.09,0.15 0.09,0.14 0.09,0.14 0.1,0.14 0.1,0.14 0.1,0.15 0.1,0.14 0.1,0.14 0.1,0.14 0.1,0.14 0.1,0.14 0.1,0.14 0.1,0.14 0.11,0.14 0.11,0.14 0.1,0.14 0.1,0.14 0.1,0.14 0.1,0.14 0.11,0.13 0.11,0.13 0.11,0.14 0.11,0.13 0.11,0.14 0.11,0.13 0.11,0.13 0.11,0.13 0.11,0.13 0.11,0.13 0.11,0.13 0.11,0.13 0.11,0.13 0.11,0.13 0.11,0.13 0.11,0.13 0.12,0.13 0.12,0.13 0.11,0.13 0.12,0.12 0.12,0.13 0.12,0.12 0.12,0.13 0.11,0.13 0.12,0.13 0.12,0.12 0.12,0.12 0.12,0.12 0.12,0.12 0.12,0.13 0.12,0.12 0.12,0.12 0.12,0.12 0.12,0.12 0.12,0.12 0.13,0.12 0.12,0.12 0.12,0.12 0.13,0.12 0.12,0.12 0.12,0.12 0.13,0.12 0.13,0.11 0.13,0.11 0.13,0.12 0.13,0.12 0.13,0.11 0.13,0.11 0.13,0.12 0.13,0.12 0.13,0.11 0.14,0.11 0.14,0.11 0.14,0.11 0.13,0.11 0.13,0.11 0.14,0.11 0.13,0.11 0.14,0.1 0.13,0.11 0.14,0.11 0.14,0.11 0.14,0.11 0.13,0.1 0.14,0.11 0.14,0.1 0.14,0.11 0.14,0.11 0.14,0.1 0.14,0.1 0.15,0.1 0.14,0.1 0.14,0.1 0.14,0.1 0.14,0.1 0.14,0.1 0.14,0.1 0.15,0.1 0.15,0.09 0.15,0.1 0.14,0.1 0.15,0.1 0.15,0.1 0.14,0.09 0.15,0.09 0.15,0.09 0.15,0.09 0.15,0.09 0.15,0.09 0.16,0.09 0.15,0.09 0.15,0.09 0.17,0.1 104.68,61.2 0.13,0.08 0.11,0.06 0.12,0.06 0.12,0.06 0.12,0.06 0.11,0.07 0.12,0.06 0.12,0.06 0.12,0.06 0.12,0.07 0.12,0.06 0.12,0.06 0.12,0.06 0.12,0.06 0.12,0.06 0.12,0.06 0.12,0.06 0.12,0.06 0.11,0.06 0.12,0.06 0.12,0.06 0.12,0.05 0.12,0.06 0.12,0.05 0.12,0.05 0.12,0.05 0.12,0.06 0.12,0.06 0.12,0.05 0.12,0.06 0.12,0.05 0.12,0.05 0.12,0.05 0.12,0.05 0.12,0.05 0.12,0.05 0.12,0.05 0.12,0.05 0.12,0.05 0.12,0.04 0.13,0.05 0.12,0.05 0.12,0.05 0.12,0.05 0.12,0.05 0.12,0.04 0.12,0.05 0.12,0.04 0.12,0.04 0.13,0.04 0.12,0.04 0.11,0.04 0.26,0.08 0.25,0.08 0.25,0.07 0.25,0.07 0.25,0.07 0.25,0.07 0.25,0.07 0.25,0.07 0.25,0.07 0.25,0.06 0.25,0.06 0.25,0.06 0.25,0.05 0.25,0.06 0.25,0.05 0.25,0.05 0.25,0.05 0.25,0.04 0.25,0.05 0.25,0.04 0.25,0.04 0.26,0.04 0.25,0.04 0.26,0.03 0.26,0.03 0.26,0.03 0.26,0.02 0.25,0.02 0.26,0.02 0.25,0.02 0.26,0.02 0.26,0.02 0.25,0.02 0.25,0.01 0.25,0.01 0.26,0.01 h 1.28 l 0.26,-0.01 h 0.26 l 0.26,-0.01 0.26,-0.01 0.26,-0.02 0.26,-0.02 0.26,-0.01 0.26,-0.02 0.26,-0.02 0.26,-0.02 0.25,-0.02 0.26,-0.03 0.26,-0.03 0.25,-0.03 0.26,-0.03 0.25,-0.04 0.26,-0.04 0.25,-0.04 0.26,-0.04 0.25,-0.04 0.25,-0.05 0.25,-0.04 0.26,-0.05 0.25,-0.05 0.25,-0.06 0.25,-0.05 0.25,-0.06 0.25,-0.06 0.25,-0.06 0.25,-0.06 0.25,-0.07 0.25,-0.07 0.25,-0.07 0.25,-0.07 0.26,-0.08 0.12,-0.04 0.12,-0.04 0.12,-0.04 0.13,-0.04 0.12,-0.04 0.13,-0.04 0.12,-0.04 0.12,-0.04 0.13,-0.04 0.12,-0.04 0.12,-0.04 0.13,-0.05 0.12,-0.04 0.13,-0.04 0.12,-0.05 0.12,-0.04 0.12,-0.04 0.12,-0.04 0.13,-0.05 0.12,-0.04 0.12,-0.05 0.12,-0.05 0.12,-0.05 0.12,-0.05 0.12,-0.05 0.12,-0.05 0.12,-0.05 0.12,-0.05 0.12,-0.05 0.12,-0.05 0.12,-0.06 0.12,-0.06 0.12,-0.05 0.12,-0.06 0.12,-0.06 0.12,-0.05 0.12,-0.06 0.12,-0.06 0.12,-0.06 0.11,-0.06 0.12,-0.06 0.12,-0.06 0.12,-0.06 0.12,-0.06 0.12,-0.06 0.12,-0.06 0.12,-0.06 0.12,-0.06 0.11,-0.06 0.12,-0.06 0.12,-0.06 0.13,-0.07 115.97,-64.63 0.14,-0.07 0.13,-0.07 0.12,-0.07 0.12,-0.07 0.12,-0.07 0.12,-0.08 0.13,-0.07 0.12,-0.07 0.12,-0.07 0.12,-0.07 0.12,-0.08 0.12,-0.08 0.12,-0.07 0.12,-0.07 0.12,-0.07 0.12,-0.08 0.12,-0.08 0.12,-0.07 0.12,-0.08 0.12,-0.07 0.11,-0.08 0.11,-0.08 0.11,-0.08 0.11,-0.08 0.11,-0.08 0.12,-0.08 0.11,-0.08 0.12,-0.08 0.11,-0.08 0.11,-0.08 0.11,-0.08 0.11,-0.08 0.11,-0.08 0.12,-0.08 0.11,-0.09 0.11,-0.08 0.11,-0.09 0.11,-0.08 0.11,-0.09 0.11,-0.09 0.11,-0.09 0.11,-0.08 0.11,-0.08 0.11,-0.09 0.1,-0.09 0.11,-0.09 0.11,-0.09 0.1,-0.08 0.11,-0.09 0.11,-0.1 0.1,-0.09 0.11,-0.09 0.1,-0.09 0.1,-0.09 0.1,-0.1 0.11,-0.09 0.1,-0.1 0.1,-0.09 0.1,-0.1 0.1,-0.1 0.1,-0.09 0.1,-0.1 0.1,-0.09 0.1,-0.1 0.1,-0.1 0.1,-0.1 0.1,-0.1 0.09,-0.1 0.1,-0.1 0.09,-0.1 0.1,-0.1 0.1,-0.1 0.1,-0.1 0.09,-0.1 0.09,-0.1 0.09,-0.1 0.09,-0.1 0.1,-0.1 0.09,-0.1 0.09,-0.1 0.09,-0.1 0.09,-0.1 0.09,-0.1 0.09,-0.1 0.09,-0.1 0.09,-0.11 0.09,-0.11 0.09,-0.11 0.09,-0.1 0.09,-0.1 0.09,-0.1 0.09,-0.11 0.09,-0.1 0.09,-0.11 0.08,-0.1 0.08,-0.11 0.08,-0.11 0.08,-0.1 0.09,-0.11 0.08,-0.11 0.08,-0.11 0.08,-0.11 0.08,-0.11 0.08,-0.11 0.08,-0.11 0.08,-0.11 0.08,-0.11 0.08,-0.11 0.08,-0.11 0.08,-0.11 0.08,-0.11 0.07,-0.11 0.07,-0.12 0.08,-0.12 0.08,-0.11 0.07,-0.11 0.07,-0.11 0.08,-0.12 0.08,-0.11 0.07,-0.11 0.07,-0.12 0.07,-0.12 0.07,-0.12 0.07,-0.12 0.07,-0.11 0.07,-0.12 0.07,-0.12 0.07,-0.11 0.07,-0.12 0.07,-0.12 0.07,-0.12 0.06,-0.12 0.06,-0.12 0.07,-0.12 0.07,-0.12 0.06,-0.12 0.07,-0.12 0.07,-0.12 0.06,-0.12 0.06,-0.12 0.06,-0.13 0.06,-0.12 0.07,-0.12 0.07,-0.12 0.06,-0.12 0.06,-0.12 0.06,-0.12 0.06,-0.13 0.06,-0.12 0.06,-0.12 0.06,-0.13 0.06,-0.12 0.06,-0.12 0.06,-0.13 0.06,-0.13 0.06,-0.13 0.06,-0.12 0.05,-0.12 0.05,-0.13 0.05,-0.13 0.05,-0.13 0.05,-0.12 0.05,-0.13 0.05,-0.13 0.05,-0.13 0.05,-0.12 0.05,-0.13 0.05,-0.13 0.05,-0.13 0.05,-0.13 0.05,-0.13 0.04,-0.13 0.04,-0.13 0.04,-0.13 0.04,-0.13 0.05,-0.13 0.05,-0.13 0.05,-0.13 0.05,-0.13 0.04,-0.13 0.05,-0.13 0.04,-0.13 0.04,-0.13 0.05,-0.13 0.04,-0.13 0.04,-0.13 0.04,-0.13 0.04,-0.13 0.03,-0.13 0.04,-0.13 0.04,-0.13 0.04,-0.13 0.04,-0.13 0.03,-0.13 0.03,-0.14 0.04,-0.13 0.03,-0.13 0.03,-0.14 0.04,-0.13 0.03,-0.13 0.03,-0.13 0.03,-0.13 0.03,-0.14 0.03,-0.13 0.03,-0.13 0.02,-0.14 0.03,-0.14 0.03,-0.13 0.02,-0.14 0.03,-0.13 0.03,-0.14 0.03,-0.14 0.03,-0.13 0.03,-0.14 0.02,-0.14 0.03,-0.14 0.02,-0.13 0.03,-0.13 0.02,-0.14 0.02,-0.14 0.02,-0.14 0.02,-0.14 0.02,-0.14 0.02,-0.14 0.02,-0.14 0.01,-0.14 0.02,-0.13 0.01,-0.14 0.02,-0.14 0.02,-0.13 0.02,-0.14 0.01,-0.14 0.01,-0.14 0.01,-0.14 0.01,-0.14 0.02,-0.14 0.01,-0.14 0.01,-0.14 0.01,-0.14 0.01,-0.14 0.01,-0.14 0.01,-0.14 0.01,-0.14 0.01,-0.14 0.01,-0.14 0.01,-0.14 0.01,-0.14 v -0.28 l 0.01,-0.14 V 125.124 l -0.01,-0.123 -0.01,-0.13 v -0.13 l -0.01,-0.13 v -0.13 l -0.01,-0.13 v -0.13 l -0.01,-0.13 -0.01,-0.12 -0.01,-0.13 -0.01,-0.13 -0.01,-0.13 -0.01,-0.12 -0.01,-0.13 -0.01,-0.12 -0.01,-0.13 -0.02,-0.13 -0.01,-0.12 -0.01,-0.12 -0.02,-0.12 -0.01,-0.12 -0.02,-0.13 -0.01,-0.12 -0.02,-0.12 -0.02,-0.13 -0.01,-0.13 -0.01,-0.12 -0.02,-0.11 -0.04,-0.263 -0.03,-0.255 -0.04,-0.26 -0.04,-0.25 -0.05,-0.25 -0.05,-0.25 -0.04,-0.25 -0.05,-0.25 -0.06,-0.25 -0.06,-0.25 -0.06,-0.25 -0.06,-0.25 -0.06,-0.25 -0.06,-0.25 -0.06,-0.25 -0.07,-0.25 -0.07,-0.25 -0.07,-0.25 -0.08,-0.25 -0.07,-0.24 -0.08,-0.24 -0.08,-0.24 -0.08,-0.24 -0.08,-0.24 -0.09,-0.24 -0.09,-0.24 -0.09,-0.23 -0.09,-0.24 -0.09,-0.24 -0.09,-0.24 -0.1,-0.23 -0.09,-0.24 -0.1,-0.23 -0.1,-0.23 -0.1,-0.23 -0.11,-0.23 -0.1,-0.23 -0.11,-0.23 -0.11,-0.23 -0.11,-0.22 -0.12,-0.23 -0.11,-0.23 -0.12,-0.23 -0.12,-0.22 -0.12,-0.22 -0.12,-0.22 -0.12,-0.22 -0.12,-0.22 -0.13,-0.22 -0.13,-0.22 -0.13,-0.22 -0.14,-0.22 -0.13,-0.21 -0.13,-0.21 -0.14,-0.21 -0.14,-0.21 -0.14,-0.21 -0.14,-0.21 -0.14,-0.21 -0.14,-0.21 -0.15,-0.2 -0.15,-0.2 -0.15,-0.2 -0.15,-0.2 -0.15,-0.2 -0.16,-0.2 -0.16,-0.2 -0.16,-0.2 -0.16,-0.2 -0.16,-0.19 -0.17,-0.19 -0.16,-0.19 -0.17,-0.19 -0.17,-0.19 -0.17,-0.19 -0.17,-0.19 -0.17,-0.19 -0.18,-0.18 -0.18,-0.18 -0.18,-0.18 -0.18,-0.18 -0.18,-0.18 -0.19,-0.18 -0.19,-0.18 -0.19,-0.17 -0.19,-0.17 -0.19,-0.17 -0.19,-0.17 -0.19,-0.17 -0.2,-0.17 -0.2,-0.16 -0.2,-0.16 -0.19,-0.16 -0.21,-0.17 -0.09,-0.07 -0.1,-0.08 -0.1,-0.08 -0.1,-0.08 -0.1,-0.08 -0.1,-0.07 -0.1,-0.08 -0.1,-0.08 -0.11,-0.08 -0.11,-0.08 -0.1,-0.08 -0.1,-0.08 -0.1,-0.08 -0.1,-0.07 -0.1,-0.08 -0.11,-0.08 -0.1,-0.07 -0.1,-0.07 -0.11,-0.08 -0.11,-0.07 -0.11,-0.07 -0.1,-0.07 -0.11,-0.07 -0.11,-0.07 -0.11,-0.07 -0.11,-0.07 -0.11,-0.07 -0.11,-0.07 -0.11,-0.07 -0.11,-0.07 -0.11,-0.07 -0.11,-0.06 -0.11,-0.06 -0.13,-0.07 -113.159,-66.389 -0.16,-0.098 -0.145,-0.08 -0.15,-0.09 -0.15,-0.09 -0.147,-0.083 -0.15,-0.08 -0.145,-0.08 -0.15,-0.08 -0.15,-0.08 -0.15,-0.08 -0.147,-0.08 -0.15,-0.08 -0.15,-0.08 -0.15,-0.08 -0.15,-0.08 -0.15,-0.08 -0.15,-0.08 -0.153,-0.07 -0.15,-0.08 -0.15,-0.07 -0.15,-0.07 -0.15,-0.08 -0.155,-0.07 -0.15,-0.07 -0.15,-0.07 -0.156,-0.07 -0.15,-0.07 -0.15,-0.06 -0.155,-0.07 -0.152,-0.07 -0.15,-0.07 -0.155,-0.06 -0.15,-0.06 -0.16,-0.06 -0.154,-0.07 -0.158,-0.06 -0.16,-0.07 -0.16,-0.06 -0.155,-0.06 -0.155,-0.06 -0.157,-0.06 -0.16,-0.06 -0.16,-0.06 -0.15,-0.06 -0.15,-0.05 -0.15,-0.05 -0.16,-0.06 -0.16,-0.05 -0.15,-0.05 -0.16,-0.05 -0.16,-0.05 -0.15,-0.05 -0.16,-0.05 -0.16,-0.05 -0.16,-0.05 -0.15,-0.05 -0.16,-0.05 -0.16,-0.05 -0.16,-0.05 -0.16,-0.04 -0.16,-0.05 -0.16,-0.04 -0.16,-0.05 -0.16,-0.04 -0.16,-0.04 -0.16,-0.04 -0.16,-0.05 -0.16,-0.04 -0.16,-0.04 -0.16,-0.03 -0.16,-0.04 -0.16,-0.04 -0.16,-0.04 -0.16,-0.03 -0.16,-0.04 -0.16,-0.03 -0.16,-0.03 -0.16,-0.04 -0.16,-0.03 -0.16,-0.03 -0.16,-0.03 -0.16,-0.03 -0.16,-0.03 -0.16,-0.03 -0.17,-0.03 -0.16,-0.02 -0.16,-0.02 -0.16,-0.02 -0.16,-0.02 -0.16,-0.03 -0.16,-0.03 -0.16,-0.02 -0.17,-0.03 -0.16,-0.02 -0.16,-0.03 -0.16,-0.02 -0.16,-0.02 -0.16,-0.02 -0.16,-0.02 -0.16,-0.02 -0.17,-0.02 -0.16,-0.01 -0.16,-0.02 -0.16,-0.02 -0.16,-0.01 -0.16,-0.01 -0.16,-0.01 -0.16,-0.01 -0.16,-0.01 -0.17,-0.01 -0.17,-0.01 -0.16,-0.01 -0.16,-0.01 h -0.16 l -0.16,-0.01 -0.16,-0.01 h -0.17 l -0.16,-0.01 -0.16,-0.01 -0.15,-0.01 -0.16,-0.01 h -0.33 l -0.16,-0.01 h -0.32 z"
     id="path4"
     inkscape:connector-curvature="0"
     style="fill:#c9177e" />
  <path
     d="M 93.11,296.24 V 89.02 h 43.354 V 164.5 H 208.38 V 89.02 h 43.48 v 207.22 h -43.48 v -90.606 h -71.916 v 90.606 z"
     id="path6"
     inkscape:connector-curvature="0"
     style="fill:#ffffff;fill-rule:nonzero" />
</svg>
