<svg width="300" height="300" version="1.1" xmlns="http://www.w3.org/2000/svg"><g transform="translate(-311.05 -470.4)"><g transform="matrix(5.6909 0 0 -5.6909 88.613 3706.6)"><g transform="translate(39.438 541.66)"><path d="m0 0 3.45 0.323c0.213-1.158 0.635-2.012 1.27-2.558 0.638-0.542 1.5-0.812 2.583-0.812 1.144 0 2.008 0.245 2.595 0.726 0.58 0.492 0.867 1.053 0.867 1.695 0 0.417-0.123 0.78-0.364 1.072-0.245 0.287-0.671 0.547-1.277 0.753-0.419 0.16-1.367 0.415-2.844 0.79-1.905 0.469-3.243 1.056-4.004 1.745-1.08 0.98-1.622 2.174-1.622 3.572 0 0.9 0.249 1.751 0.765 2.527 0.506 0.788 1.244 1.387 2.205 1.803 0.958 0.4 2.105 0.609 3.472 0.609 2.209 0 3.872-0.489 4.994-1.461 1.119-0.99 1.702-2.289 1.757-3.919l-3.572-0.12c-0.158 0.89-0.474 1.546-0.98 1.948-0.496 0.399-1.247 0.599-2.241 0.599-1.031 0-1.841-0.212-2.421-0.644-0.38-0.278-0.567-0.635-0.567-1.091 0-0.425 0.174-0.775 0.528-1.074 0.445-0.386 1.538-0.779 3.266-1.183 1.732-0.412 3.008-0.838 3.834-1.279 0.828-0.441 1.479-1.042 1.947-1.809 0.464-0.748 0.706-1.704 0.706-2.827 0-1.012-0.284-1.97-0.845-2.851s-1.357-1.547-2.382-1.98c-1.029-0.421-2.308-0.646-3.84-0.646-2.231 0-3.949 0.521-5.143 1.564-1.192 1.037-1.905 2.548-2.137 4.528" fill="#a7a5a6"/></g><g transform="translate(53.333 548.73)"><path d="m0 0h3.582l3.06-9.109 2.982 9.109h3.491l-4.487-12.336-0.822-2.251c-0.297-0.751-0.577-1.32-0.845-1.714-0.268-0.402-0.577-0.726-0.925-0.967-0.355-0.239-0.784-0.432-1.284-0.569-0.512-0.139-1.086-0.216-1.728-0.216-0.647 0-1.286 0.077-1.915 0.216l-0.28 2.665c0.525-0.111 1.002-0.166 1.425-0.166 0.78 0 1.361 0.23 1.734 0.689 0.377 0.472 0.665 1.068 0.864 1.782z" fill="#a7a5a6"/></g><g transform="translate(78.194 535.9)"><path d="m0 0h-3.373v6.532c0 1.376-0.07 2.263-0.219 2.673-0.148 0.405-0.377 0.721-0.709 0.947-0.326 0.223-0.726 0.336-1.183 0.336-0.593 0-1.119-0.164-1.593-0.487-0.474-0.319-0.793-0.742-0.967-1.264-0.171-0.536-0.261-1.509-0.261-2.946v-5.791h-3.366v12.832h3.118v-1.879c1.122 1.421 2.53 2.123 4.229 2.123 0.755 0 1.438-0.138 2.061-0.396 0.622-0.278 1.096-0.612 1.408-1.035 0.317-0.419 0.539-0.893 0.665-1.418 0.125-0.523 0.19-1.291 0.19-2.276z" fill="#a7a5a6"/></g><g transform="translate(81.666 542.28)"><path d="m0 0c0-1.281 0.3-2.26 0.909-2.924 0.607-0.685 1.351-1.026 2.241-1.026s1.635 0.341 2.241 1.026c0.596 0.664 0.896 1.654 0.896 2.94 0 1.268-0.3 2.237-0.896 2.908-0.606 0.671-1.351 1.019-2.241 1.019s-1.634-0.348-2.241-1.019c-0.609-0.671-0.909-1.651-0.909-2.924m-3.453 0.171c0 1.138 0.281 2.218 0.835 3.279 0.554 1.051 1.341 1.857 2.36 2.417 1.019 0.557 2.157 0.828 3.411 0.828 1.944 0 3.531-0.628 4.768-1.888 1.241-1.261 1.864-2.854 1.864-4.775 0-1.941-0.628-3.543-1.88-4.822-1.25-1.272-2.83-1.919-4.729-1.919-1.174 0-2.293 0.271-3.363 0.802-1.067 0.532-1.877 1.31-2.431 2.341-0.554 1.02-0.835 2.267-0.835 3.737" fill="#a7a5a6"/></g></g></g></svg>
