<svg version="1.1" viewBox="0 0 512 512" xmlns="http://www.w3.org/2000/svg" xmlns:xlink="http://www.w3.org/1999/xlink"><defs><radialGradient id="radialGradient1729" cx="256" cy="256" r="256" gradientTransform="matrix(1 0 0 .875 0 32)" gradientUnits="userSpaceOnUse"><stop stop-color="#260" offset="0"/><stop stop-color="#030" offset="1"/></radialGradient><filter id="filter1857" x="-.075" y="-.10001" width="1.15" color-interpolation-filters="sRGB"><feFlood flood-color="rgb(38,162,105)" flood-opacity=".5" result="flood"/><feComposite in="flood" in2="SourceGraphic" operator="in" result="composite1"/><feGaussianBlur in="composite1" result="blur" stdDeviation="10"/><feOffset dx="0" dy="0" result="offset"/><feComposite in="SourceGraphic" in2="offset" result="composite2"/></filter></defs><path d="m0 96c0-35.35 28.65-64 64-64h384c35.3 0 64 28.65 64 64v320c0 35.3-28.7 64-64 64h-384c-35.35 0-64-28.7-64-64v-320zm102.3 55.8c-8.95 9.8-8.29 24.9 1.5 33.9l76.7 70.3-76.7 70.3c-9.79 9-10.45 24.1-1.5 33.9 9 8.9 24.1 10.4 33.9 1.5l96-88c5-4.6 7.8-11 7.8-18.6 0-5.8-2.8-12.2-7.8-16.8l-96-88c-9.8-8.9-24.9-8.3-33.9 1.5zm145.7 184.2c-13.3 0-24 10.7-24 24s10.7 24 24 24h144c13.3 0 24-10.7 24-24s-10.7-24-24-24h-144z" fill="url(#radialGradient1729)"/><path d="m103.8 185.7c-9.79-9-10.45-24.1-1.5-33.9 9-9.8 24.1-10.4 33.9-1.5l96 88c5 4.6 7.8 11 7.8 17.7s-2.8 13.1-7.8 17.7l-96 88c-9.8 8.9-24.9 7.4-33.9-1.5-8.95-9.8-8.29-24.9 1.5-33.9l76.7-70.3-76.7-70.3zm288.2 150.3c13.3 0 24 10.7 24 24s-10.7 24-24 24h-144c-13.3 0-24-10.7-24-24s10.7-24 24-24h144z" fill="#6e4" filter="url(#filter1857)"/></svg>
