<svg width="120" height="120" version="1.1" viewBox="0 0 120 120" xmlns="http://www.w3.org/2000/svg"><style type="text/css">.st0{fill:#5555FF;}
	.st1{fill:#FFFFFF;}</style><path class="st0" d="m109.17 110h-98.333c-0.45833 0-0.83333-0.375-0.83333-0.83333v-98.333c0-0.45833 0.375-0.83333 0.83333-0.83333h98.333c0.45833 0 0.83333 0.375 0.83333 0.83333v98.333c0 0.45833-0.375 0.83333-0.83333 0.83333z" stroke-width=".83333"/><g transform="matrix(.83333 0 0 .83333 10 10)"><path class="st1" d="m103 45.84h-9.12c-0.57 0-0.85 0.25-0.85 0.76v16.06c0 2.22 0.01 4.12 0.05 5.7 0.03 1.58 0.06 2.93 0.09 4.04s0.06 2.06 0.1 2.85c0.03 0.79 0.05 1.51 0.05 2.14h-0.1c-0.57-1.2-1.41-2.88-2.52-5.04-1.11-2.15-2.39-4.61-3.85-7.37s-3.03-5.69-4.7-8.79c-1.68-3.1-3.34-6.18-4.99-9.22s-3.25-5.95-4.8-8.74-2.9-5.23-4.04-7.32c-0.13-0.25-0.25-0.43-0.38-0.52s-0.38-0.14-0.76-0.14h-13.41c-0.44 0-0.66 0.22-0.66 0.67l0.02 0.02c-0.01 0.06-0.02 0.1-0.02 0.17v37.16c0 2.92-0.33 5.34-1 7.27s-1.59 3.48-2.76 4.66c-1.17 1.17-2.55 2.01-4.13 2.52-1.59 0.51-3.33 0.76-5.23 0.76-4.56 0-7.95-1.36-10.17-4.09-2.22-2.72-3.33-6.37-3.33-10.93v-37.45c0-0.51-0.25-0.76-0.76-0.76h-9.98c-0.51 0-0.76 0.29-0.76 0.86v38.21c0 4.12 0.57 7.7 1.71 10.74s2.79 5.56 4.94 7.56 4.75 3.5 7.79 4.51 6.43 1.52 10.17 1.52c3.48 0 6.76-0.46 9.84-1.38 3.07-0.92 5.72-2.38 7.94-4.37 2.22-2 3.98-4.56 5.28-7.7s1.95-6.92 1.95-11.36v-24.07c0.52 1.11 1.13 2.38 1.85 3.83 1.3 2.6 2.77 5.46 4.42 8.6s3.39 6.42 5.23 9.84 3.63 6.72 5.37 9.88c1.74 3.17 3.33 6.08 4.75 8.74 1.43 2.66 2.55 4.78 3.37 6.37 0.25 0.44 0.67 0.67 1.24 0.67h12.07c0.63 0 0.95-0.28 0.95-0.85v-45.15c0-0.57-0.29-0.86-0.86-0.86z"/><circle class="st1" cx="98.44" cy="32.91" r="6.56"/></g></svg>
