<svg width="300" height="32" version="1.1" viewBox="0 0 300 32" xmlns="http://www.w3.org/2000/svg"><g stroke-width="1.0699" aria-label="somethingSTRANGE"><g aria-label="SsomethingSTRRANNGE"><path d="m2.537 26.601q-0.19616-0.29424-0.66695-0.68657-0.45117-0.39233-0.88273-0.66696-0.17655-0.1177-0.33347-0.23539-0.15693-0.1177-0.27463-0.21578-0.1177-0.098079-0.21578-0.17654-0.078445-0.098079-0.13731-0.17655-0.039241-0.078445-0.019647-0.1177 0.05887-0.19616 0.58849-0.39233 0.52964-0.19616 1.3143-0.31386 0.78465-0.13731 1.5497-0.13731 1.5301 0 3.3151 0.62772 3.884 1.3731 5.9829 1.6085 2.1185 0.2354 3.6486-0.54926 1.0397-0.52963 1.4908-1.432 0.45117-0.92196 0.17655-1.8047-0.255-0.90235-1.1966-1.3731-0.17654-0.09808-0.76503-0.27462-0.58849-0.19616-1.4124-0.41194-0.80426-0.21578-1.6281-0.41195-2.707-0.6081-3.7271-0.98081-1.02-0.39233-1.7066-1.0593-0.74541-0.70618-1.0397-1.3928-0.29424-0.70618-0.29424-1.7655 0-3.0405 3.0797-4.2175 1.9616-0.74542 5.3748-0.19616 0.80427 0.13731 1.3143 0.13731 0.52964-0.01962 0.92197-0.15693 0.25501-0.078463 0.39233-0.098081 0.13731-0.039232 0.25501-0.01962 0.1177 0 0.17655 0.078463 0.07845 0.058852 0.15693 0.19616 0.2354 0.39233 1.0004 1.5693 0.31386 0.4904 0.4904 0.88273 0.19616 0.37271 0.13731 0.43156-0.05885 0.05885-0.52964 0.1177-0.47079 0.03923-1.0593 0.03923-0.82388 0-1.3731-0.1177-0.54923-0.13732-1.1573-0.47079-1.8047-0.98081-2.452-1.2162-0.64733-0.2354-1.4908-0.2354-1.0397-0.01962-1.7066 0.35309-0.64734 0.35309-0.82389 1.02-0.17655 0.7258 0.31386 1.2751 0.51002 0.52964 1.8439 1.02 1.3535 0.49041 3.8448 1.0789 3.2955 0.76503 4.6294 1.9224 1.3339 1.1574 1.3535 3.2563 0.01965 1.687-0.92196 3.119-0.92196 1.4124-2.5501 2.2363-1.6085 0.82388-3.5113 0.82388-1.7066-0.01967-3.3544-0.25501-1.7655-0.27462-3.5702-0.25501-1.8047 0.03924-2.8247 0.35309-0.15693 0.03924-0.31386 0.07845-0.13731 0.05886-0.27462 0.09808-0.1177 0.03924-0.2354 0.05886-0.1177 0.03923-0.19616 0.05886-0.078436 0.01965-0.13731 0.03923-0.039241 0.01964-0.039241 0.01964-0.039213 0-0.52963-0.68658z" stroke-width=".53728"/><path d="m3.6866 27.371c0.19109-0.01489 0.35973 0.08072 0.64646-0.07757 0.12669-0.11862 0.41553-0.24988 0.81036-0.41659 0.31376-0.16039 0.6068-0.2376 0.87704-0.25866 0.29937 0.0039 0.81913 0.04491 1.5884 0.14809 0.46572 0.04527 1.7385 0.37238 2.6058 0.37238 0.86738 0.02711 5.1971-0.02711 5.7121-0.10842 1.1655-0.24395 2.2227-0.84027 3.1714-1.8161 0.9487-1.0029 1.4095-2.0871 1.3553-3.2798-0.08132-2.8461-2.0871-4.5537-5.6651-5.5567-3.605-1.0842-4.3369-1.3553-4.9874-2.0058-0.51501-0.51501-0.59632-1.0842-0.24395-1.7077 0.27106-0.59632 0.73185-0.86738 1.5179-1.0029 1.03-0.18974 2.2769 0.24395 3.7135 1.3011 0.9487 0.75896 1.5179 1.03 2.5479 1.0842 1.1113 0.10842 1.7619 0.05421 1.9787-0.13553 0.18974-0.10842 0.10842-0.24395-0.54211-1.1113-0.32527-0.40658-0.65054-0.92159-0.9487-1.5179s-0.51501-0.92159-0.59632-1.0029c-0.08132-0.08132-0.24395 0-0.4879 0.18974-1.1113 0.84027-2.1142 0.05421-3.5779 0.05421-1.4095-0.24395-3.2527 0-4.4182 0.62343-0.73185 0.43369-1.6263 1.4095-2.06 2.4666-0.4608 1.0029-0.4879 2.0329-0.081318 3.1443 0.21685 0.54211 0.73185 1.1655 1.545 1.8432 1.9516 1.6805 6.3156 1.9516 8.213 3.4153 0.73185 0.59632 0.9487 1.0571 1.0029 1.8974-0.29816 1.8703-7.6601 1.82-9.4194 1.223l-1.3747-0.54537c-0.75702-0.29445-1.3726-0.51836-1.7906-0.64891-0.86511-0.28602-2.5743-0.58784-3.8651-0.40568-0.20355 0.17899-0.17407 0.55732 0.67876 1.0346 0.76544 0.40254 1.5358 1.566 1.9026 2.4346 0.066682 0.15793 0.094192 0.37329 0.19163 0.3657z" display="none" stroke-width=".74241"/><path d="m31.54 23.072c0 3.3611-4.7164 3.5508-4.8248 0-0.10842-1.4908-0.08132-3.7406-0.05421-6.5325 0.02711-1.4095 0.05421-2.2498 0.05421-2.4937 0-1.5992 1.1926-2.5479 2.3582-2.5479 1.1926 0 2.3853 0.9487 2.4666 2.5479 0.05421 3.9845 0.05421 6.9933 0 9.0262zm-10.029-4.2556c0 1.7619 0.81317 3.8761 2.1142 5.5024 1.3011 1.6263 3.3611 2.7919 5.5024 2.7648 4.364 0 7.6438-4.0929 7.5083-8.2672 0-3.7135-2.304-8.6467-7.5083-8.6467-2.4937 0.05421-4.3911 0.86738-5.7193 2.4666-1.3011 1.5721-1.9245 3.6322-1.8974 6.1801z" stroke-width=".74241"/><path d="m46.719 25.946c-0.02711 0.08132-0.13553 0.21684-0.27106 0.35237-0.24395 0.27106-0.32527 0.40658-0.24395 0.40658h6.424c0.27106-0.02711 0.21684-0.18974-0.13553-0.54211-0.24395-0.24395-0.43369-0.54211-0.56922-0.92159-0.10842-0.27106-0.16263-0.65054-0.18974-1.1113-0.02711-0.4879-0.02711-1.9245-0.02711-4.2827v-0.4879c0-1.9245 0-3.1443 0.02711-3.7135s0.10842-0.9758 0.24395-1.2198c0.29816-0.56922 0.84027-0.9487 1.6263-1.1926 0.73185-0.18974 1.3824 0.13553 1.6805 0.78606 0.21684 0.51501 0.29816 1.1655 0.32527 2.6835 0.02711 0.75896 0.02711 1.9516 0.02711 3.5508 0 2.1956-0.02711 3.6322-0.08132 4.2827-0.02711 0.65054-0.13553 1.1655-0.32527 1.545-0.13553 0.29816-0.18974 0.51501-0.13553 0.62343h6.0446c0.29816 0 0.35237-0.24395-0.08132-0.67764l-0.10842-0.08132c-0.35237-0.32527-0.56922-0.73185-0.65054-1.2469-0.05421-0.51501-0.08132-2.1684-0.10842-4.9332v-1.8703c0.02711-0.67764 0.02711-1.5179 0-2.4937 0-1.0029-0.02711-1.789-0.05421-2.3582-0.05421-0.59632-0.59632-1.1926-1.03-1.5721-0.51501-0.4879-1.1926-0.78606-1.9787-0.92159-0.67764-0.10842-1.4366-0.08132-2.2769 0.08132-0.84027 0.13553-1.545 0.43369-2.1142 0.86738-0.4608 0.40658-0.75896 0.73185-0.86738 0.9487-0.18974 0.40658-0.21684 0.4608-0.51501-0.18974-0.4608-1.0029-1.7348-1.5721-3.4695-1.6805-1.2198-0.05421-2.2227 0.13553-3.0629 0.56922-0.56922 0.29816-1.03 0.70475-1.3824 1.2469h-0.08132c-0.02711 0-0.02711 0-0.02711-0.02711-0.02711-0.13553-0.02711-0.4879 0-1.03 0.02711-0.70475 0-1.0842-0.08132-1.1384-0.08132-0.05421-0.32527-0.02711-0.67764 0.10842-0.32527 0.10842-0.81317 0.24395-1.0842 0.29816-0.67764 0.10842-1.6805 0.37948-2.8732 0.4879-1.1926 0.10842-1.2198 0.10842-0.4608 0.78606 0.43369 0.35237 0.40658 0.35237 0.59632 0.67764 0.21684 0.29816 0.24395 0.65054 0.27106 1.3282 0.02711 0.4879 0.05421 1.8974 0.08132 4.2285 0.02711 3.3069 0 5.2856-0.05421 5.909-0.08132 1.3011-0.35237 1.8974-1.03 2.304-0.18974 0.08132-0.32527 0.16263-0.32527 0.24395 0 0.10842 0.08132 0.16263 0.27106 0.13553h5.909c0.05421-0.08132 0-0.24395-0.16263-0.4879-0.37948-0.78606-0.40658-1.1655-0.43369-5.2043 0.02711-2.5208 0.05421-4.1743 0.08132-4.9874 0.02711-0.81317 0.13553-1.3824 0.29816-1.7348 0.21685-0.29816 0.43369-0.56922 0.73185-0.86738 0.24395-0.18974 0.59632-0.29816 1.0571-0.35237 0.21685-0.0271 0.4608-0.0271 0.70475 0.05421 0.54211 0.13553 0.75896 0.37948 0.89449 1.0029 0.13553 0.54211 0.18974 1.7077 0.18974 3.9845 0.02711 3.5779 0 5.7735-0.08132 6.5596-0.02711 0.35237-0.21685 0.86738-0.43369 1.274z" stroke-width=".74241"/><path d="m70.436 17.055c-0.73185 0-1.6263 0.02711-2.6835 0.08132-1.0571 0.02711-1.5992 0.02711-1.6263-0.05421-0.05419-0.08132-0.08129-0.51501-0.08129-1.3011 0-0.78606 0.0271-1.3011 0.10842-1.5721 0.24395-1.2198 1.2469-2.0329 2.4395-2.0329 0.9758 0 1.7348 0.59632 2.2769 1.7619 0.27106 0.59632 0.4608 1.4637 0.59633 2.575l0.05419 0.51501zm-1.6263 10.11c0.59632 0.16263 1.5179 0.18974 2.7648 0.05421 0.56922-0.08132 1.1927-0.18974 1.7348-0.40658 1.4095-0.4608 2.0871-0.86738 3.0629-1.8161 0.56922-0.56922 0.73185-0.78606 0.70474-0.9758-0.05419-0.21684-0.24395-0.24395-0.56922-0.10842-0.0271 0-0.54211 0.27106-0.78606 0.35237-0.81317 0.24395-1.6263 0.32527-2.4395 0.18974-0.9487-0.13553-1.7348-0.35237-2.3853-0.70474-1.9787-1.0029-3.7406-2.9274-4.4182-5.2856 0-0.08132 0.9758-0.08132 2.9003-0.05421 4.5266 0.05421 6.8306 0.02711 6.9662-0.05421 0.13552-0.08132 0.13552-0.59632-0.0271-1.545-0.16264-0.9487-0.37948-1.7348-0.65054-2.304-0.54211-1.1926-1.3824-2.1956-2.4124-2.9545-0.73185-0.51501-1.5992-0.84027-2.6021-0.9758-1.274-0.24395-2.9003-0.18974-4.1743 0.4879-2.7648 1.4366-4.1472 4.0387-4.1472 7.8064 0.02711 2.0871 0.81317 4.3098 2.2498 5.909 0.9758 1.0571 2.6292 1.9516 4.2285 2.3853z" stroke-width=".74241"/><path d="m81.766 26.678c0.67764 0.16263 1.5179 0.05421 2.575-0.32527 1.274-0.4608 2.0058-1.1655 2.2227-2.0871 0.13553-0.62343-0.0271-0.81317-0.48791-0.35237-0.54211 0.62343-1.4908 0.59632-1.9245-0.0271-0.08129-0.13553-0.13553-0.37948-0.16264-0.73185-0.0271-0.37948-0.0271-1.3011-0.0271-2.7919v-8.6738h2.1956v-1.6263h-2.0871c-0.08129 0-0.10842-0.27106-0.13553-0.81317v-0.70475c0.0271-0.35237 0.0271-0.75896 0-1.1926v-0.73185c0.0271-0.10842 0.0271-0.21684 0-0.29816-0.05419-0.4608-0.35238-0.29816-0.89449 0.4879-1.0842 1.5179-2.819 3.1171-4.6351 4.2285-0.24395 0.13553-0.37948 0.29816-0.37948 0.4608 0 0.21684 0.0271 0.24395 0.65053 0.27106 0.4337 0.02711 0.67765 0.05421 0.70475 0.10842 0.05419 0.0271 0.08129 0.37948 0.08129 1.03 0.0271 0.65054 0.0271 2.6021 0.05419 5.8277-0.05419 3.0358-0.05419 4.9603 0 5.7735 0.08129 1.1655 1.03 1.9245 2.2498 2.1684z" stroke-width=".74241"/><path d="m92.473 26.705h2.1142c-0.0271-0.02711-0.10842-0.4608-0.24395-0.4879-0.4879-0.24395-0.81317-0.67764-0.9487-1.3282-0.0271-0.13553-0.0271-1.8432 0-5.0959v-4.7977c0.29817-1.3824 1.2469-2.2227 2.4124-2.1142 0.73185 0.08132 1.1113 0.35237 1.4366 0.92159 0.27105 0.43369 0.32526 1.5721 0.32526 2.6292 0 0.65054-0.05419 1.6805-0.05419 2.0871 0 1.1655-0.0271 2.6835-0.08129 4.4995-0.0271 1.8161-0.08129 2.7919-0.16264 2.8732-0.16264 0.21684-0.24395 0.81317-0.10842 0.81317h5.8006c0.10843-0.18974-0.0813-0.54211-0.43369-0.73185-0.24395-0.10842-0.40658-0.35237-0.56922-0.65054-0.13553-0.24395-0.18974-0.70475-0.21685-1.3282-0.0271-0.62343-0.0271-3.0087-0.0271-7.1559 0-1.545-0.0271-2.575-0.0813-3.1171-0.0271-0.56922-0.10842-0.9758-0.24395-1.2469-0.10842-0.29816-0.32527-0.59632-0.67764-0.92159-0.56922-0.51501-1.3824-0.81317-2.4124-0.9487-1.03-0.13553-1.9516-0.05421-2.7648 0.29816-0.62343 0.27106-1.0571 0.51501-1.4908 0.89449l-0.65054 0.62343c-0.08129 0.08132-0.08129-3.6864 0-6.3427 0.05419-1.3824 0.0271-2.3853 0.08129-2.4937 0-0.40658-0.46079-0.78606-1.03-0.4608-0.48791 0.35237-1.5179 0.70475-3.0629 1.0029-0.24394 0.054211-0.62343 0.13553-1.0842 0.27106-0.32527 0.081317-0.32527 0.24395 0 0.4879 0.18973 0.081317 0.35237 0.27106 0.54211 0.62343 0.13553 0.32527 0.21685 0.4608 0.24395 0.92159 0 0.21684 0 0.73185 0.0271 1.545 0 1.0571 0 3.0629 0.0271 6.0717 0.0271 2.9816 0.0271 5.2043 0.0271 6.668 0 1.4637-0.0271 2.4395-0.05419 2.9274-0.10842 1.3824-0.48791 2.0058-1.274 2.5208-0.13553 0.13553-0.24394 0.4608-0.24394 0.54211h1.4095z" stroke-width=".74241"/><path d="m106.87 8.3541c0.65054 0.32527 1.6263 0.29816 2.2769-0.10842 0.73185-0.51501 1.1926-1.5179 1.1655-2.4124-0.0813-0.78606-0.54211-1.4637-1.1655-1.9245-0.59633-0.40658-1.5992-0.75896-2.2769-0.37948-0.9487 0.40658-1.6806 1.5179-1.6806 2.5208 0.0542 0.9487 0.81317 1.8703 1.6806 2.304zm-2.2227 18.351h6.4511c0.75896-0.02711 0.29817-0.40658-0.21684-0.67764-0.35237-0.35237-0.78606-0.86738-0.89448-1.274v-12.55c0-1.274-0.0813-1.9787-0.24396-2.1142-0.0271-0.0271-0.21684 0.05421-0.54211 0.21685-1.0571 0.51501-2.4937 0.89449-4.3098 1.0842l-0.29817 0.05421c-0.40658 0.08132-0.40658 0.21685 0 0.40658 0.16264 0.05421 0.4608 0.24395 0.54212 0.37948 0.21684 0.24395 0.35237 0.51501 0.40658 0.81317 0.0813 0.4879 0.13553 2.4666 0.16264 5.9361 0.0271 2.6564 0.0542 4.3098 0.0271 4.9332-0.0271 0.62343-0.0813 1.03-0.16263 1.2198-0.18974 0.51501-0.59632 0.92159-1.2198 1.2198-0.10842 0.08132-0.13553 0.24395-0.0271 0.35237z" stroke-width=".74241"/><path d="m127.17 26.705h0.40658c0.29817-0.02711 0.29817-0.18974 0-0.4608-0.56921-0.4879-0.89448-0.89449-0.9758-1.2198-0.0813-0.27106-0.10843-2.8461-0.0813-7.7522v-4.4995c-0.0271-0.35237-0.27105-0.73185-0.73185-1.1113-0.46079-0.40658-0.89449-0.67764-1.3282-0.86738-1.0842-0.35237-2.6834-0.37948-3.9303 0.05421-0.59633 0.18974-1.2198 0.56922-1.8974 1.1113l-0.40658 0.32527v-1.0842l0.0271-1.0842-0.27105-0.02711c-0.84027 0.4608-1.4908 0.73185-1.9245 0.84028-0.40658 0.08132-1.2469 0.16263-2.5208 0.24395-0.84028 0.08132-1.2198 0.21684-1.03 0.4879 0.0271 0.10842 0.13552 0.18974 0.32526 0.27106 0.40659 0.13553 0.70475 0.56922 0.92159 1.2469 0.0813 0.27106 0.16264 0.51501 0.16264 1.3282 0.0271 0.43369 0.0271 0.78606 0.0271 1.6263 0 0.78606 0.0271 1.4908 0.0271 2.7919 0.0271 3.4153-0.0271 5.3669-0.13553 5.8548-0.24395 0.86738-0.21684 1.0842-0.92159 1.4366-0.18974 0.08132-0.29817 0.18974-0.29817 0.35237 0 0.10842 0.13553 0.13553 0.37949 0.13553h6.5867c0.0813-0.10842-0.18974-0.51501-0.43369-0.62343-0.27105-0.16263-0.54211-0.78606-0.75896-1.4637-0.0813-0.32527-0.10842-2.2227-0.10842-5.3398v-0.89449c0-2.1142 0.0271-3.3611 0.0813-3.7677 0.0813-0.40658 0.27106-0.73185 0.59633-0.9758l0.16263-0.10842c0.54212-0.43369 1.0842-0.59632 1.6534-0.51501 0.81317 0.18974 1.03 0.32527 1.3824 1.3824 0.0813 0.24395 0.10843 1.9516 0.0813 5.1772 0 1.4908 0 2.575-0.0271 3.2527 0 0.67764-0.0271 1.1655-0.0542 1.4908-0.0271 0.32527-0.0542 0.59632-0.10842 0.84027-0.13553 0.51501-0.24395 0.86738-0.35238 1.0842-0.13553 0.24395-0.16263 0.40658-0.0813 0.4608h2.5479z" stroke-width=".74241"/><path d="m137.39 23.289c-0.67764 0.40658-1.6534 0.32527-2.3311-0.13553-0.54212-0.37948-1.2469-1.7077-1.3553-2.6835 0-0.24395-0.10841-0.9758-0.16263-1.3824-0.0813-0.62343-0.10842-1.4366-0.0813-2.4124 0.0271-1.0029 0.13553-1.7077 0.27105-2.1684 0.4337-1.545 1.0029-2.2769 1.9787-2.5479 0.9758-0.29816 1.4366-0.21684 2.0871 0.40658 0.35237 0.29816 0.54211 0.75896 0.62343 1.3282 0.0813 0.56922 0.13553 1.8703 0.16263 3.9032 0 2.2769-0.0271 3.605-0.0813 3.9845-0.10843 0.67764-0.51501 1.3824-1.1113 1.7077zm-7.3456 7.6438c2.4937 1.1655 5.1501 1.274 8.2672 0.81317 1.7348-0.24395 3.0629-0.67764 3.9574-1.2469 0.86738-0.56922 1.5721-1.9245 1.789-3.1443 0.0813-1.1655-0.24395-2.2227-0.9758-3.1443l-0.24395-0.27106 0.0271-4.8519v-3.4966c0.0271-1.0029 0.0271-1.545 0.0271-1.6263-0.0271-0.78606 0.16264-1.5721 0.51501-2.3853 0.24395-0.4879 0.35237-0.78606 0.35237-0.86738v-0.08132c-0.0813-0.24395-0.29816-0.16263-0.67764 0.21684-0.27106 0.24395-0.59632 0.43369-0.9487 0.54211-0.48789 0.13553-0.67764 0.21685-1.545-0.08132-0.515-0.10842-1.3282-0.32527-1.7076-0.43369-0.40658-0.10842-0.75896-0.24395-0.84028-0.24395l-0.6234-0.13553c-1.0029-0.18974-1.9787-0.10842-2.9545 0.21685-0.51502 0.13553-1.1384 0.4608-1.8703 1.0029-0.73186 0.51501-1.3282 1.0842-1.789 1.6805-1.7076 2.2498-2.2769 5.0688-1.7348 8.4298 0.59632 2.2227 1.8432 3.7406 3.7135 4.5537 0.43368 0.18974 1.0029 0.29816 1.6806 0.32527 1.6263 0.08132 2.6021-0.29816 3.605-1.4095l0.54211-0.62343 0.0271 0.70475c0 0.65054 0.0271 0.70475 0.24396 0.81317 0.62343 0.24395 1.03 1.4366 0.81317 2.1956-0.35237 1.3282-1.9516 2.06-4.1472 1.9245-1.3824-0.08132-2.575-0.54211-3.5508-1.3824-0.70475-0.62343-1.3553-0.89448-1.9245-0.81317-0.515 0.08132-0.67764 0.21684-0.89448 0.56922-0.4608 0.89449-0.18975 1.7077 0.86738 2.2498z" stroke-width=".74241"/><path d="m153.73 3.5022c-1.5992 0-3.1442 0.51501-4.364 1.4095-0.92159 0.70475-1.5721 1.4366-1.9245 2.2227-0.67764 1.4095-0.84028 2.819-0.51501 4.2556 0.18974 0.67764 0.59633 1.4095 1.1926 2.1413 0.51501 0.59632 1.2469 1.1655 2.2226 1.6805 1.1656 0.62343 2.4124 1.03 4.1201 1.3824 3.0087 0.73185 4.9061 1.2469 5.7193 1.4908 0.9758 0.29816 1.6806 0.86738 2.1142 1.7077 0.46079 0.84028 0.56922 1.7077 0.32526 2.575-0.40658 1.274-1.545 2.3582-2.9816 2.9816-1.3824 0.40658-3.2798 0.4879-4.4724 0.08132-1.03-0.37948-2.06-0.84027-2.9545-1.4366-0.24396-0.18974-1.1113-0.78606-1.5179-1.0029-0.35238-0.24395-1.0029-0.62343-1.5179-0.84028-0.97581-0.40658-2.0329-0.54211-3.1985-0.40658-0.4337 0.05421-0.70475 0.18974-0.78607 0.43369-0.0542 0.16263 0.0542 0.40658 0.32526 0.70475 0.35238 0.35237 0.73186 0.54211 1.03 1.1384l0.4608 1.1113c0.13552 0.29816 0.40658 0.75896 0.73185 1.0029 0.4879 0.43369 0.9758 0.65054 1.4366 0.62343 0.0813 0 0.62343-0.02711 1.6263-0.05421 1.0029-0.05421 1.545-0.05421 1.5992 0 0.29816 0.02711 1.0571 0.18974 2.2227 0.4608 1.1655 0.27106 2.1142 0.37948 2.819 0.32527 1.8432-0.02711 3.4153-0.32527 4.7435-0.9487 3.5508-1.3553 5.2043-5.8819 3.9032-9.2701-0.48789-1.1655-1.0842-2.0329-1.7619-2.6292-0.84028-0.78606-1.8161-1.3824-2.9545-1.789-2.0329-0.67764-4.0387-1.1384-6.7493-1.6534-1.3011-0.29816-2.2227-0.75896-2.7919-1.3282-0.51501-0.4608-0.81317-0.9487-0.84027-1.5179-0.10843-0.84027 0.16262-1.4366 0.73185-2.06 0.515-0.51501 1.1113-0.86738 1.8432-1.03 1.8703-0.27106 3.6593 0.4608 5.0145 1.4637 0.62343 0.4608 1.1655 0.84027 1.789 1.1655 0.4879 0.37948 1.03 0.4608 1.4908 0.56922 0.67764 0.10842 1.5992 0.10842 2.2227-0.081317 0.27105-0.054211 0.43369-0.13553 0.4879-0.29816 0.10842-0.10842-0.54211-1.03-0.81317-1.4366-0.18974-0.24395-0.35237-0.51501-0.54211-0.81317l-0.9487-1.4908c-0.21684-0.29816-0.4608-0.4879-0.75895-0.40658-0.32527 0.054211-0.97581 0.32527-1.3282 0.32527-0.10842 0.054211-0.37948 0.054211-0.78607 0.027106-0.40658-0.027106-0.65053-0.054211-0.75895-0.054211l-0.78607-0.13553-0.75895-0.16263c-1.274-0.29816-2.4124-0.4608-3.3611-0.43369z" stroke-width=".74241"/><path d="m179.37 26.732h0.16264c0.35237 0 0.40658 0 0.37947-0.18974 0-0.10842-0.0271-0.18974-0.10841-0.24395l-0.10843-0.08132c-0.4608-0.4608-0.75895-0.9487-0.9758-1.545-0.10842-0.29816-0.16264-0.62343-0.18974-0.9487-0.0271-0.32527-0.0271-1.4908-0.0271-3.4695v-13.444c0-0.32527-0.0542-1.1113 0.27106-1.1113 0.35237 0.027106 0.92159 0.37948 1.8703 1.1113l0.56923 0.4608 0.65053 0.4879c0.0813 0.054211 0.29816 0.18974 0.59632 0.43369 0.32527 0.21684 0.56922 0.37948 0.73185 0.4608 0.56923 0.32527 1.5721 0.81317 2.304 1.0029 0.70474 0.081318 1.0571 0.081318 1.1655-0.18974 0.18974-0.29816-0.0271-0.24395-0.46079-1.1113-0.35238-0.70475-0.81317-2.1413-1.4366-4.2827-0.0271-0.24395-0.10842-0.40658-0.18974-0.4879-0.18974-0.21684-0.51501-0.21684-1.03 0.081317-0.62343 0.21684-1.7619 0.29816-2.7106 0.32527-0.9487 0-2.3582 0.027106-3.1171 0.054211h-3.578c-0.94869 0-2.4124-0.027106-3.0358-0.027106l-0.9758-0.054211c-0.67764-0.027106-1.0029-0.16263-1.2468-0.29816-0.27106-0.21684-0.70475-0.18974-0.86738-0.027106-0.0813 0.081317-0.27106 0.51501-0.40659 0.9758-0.56922 1.5992-1.1113 2.8732-1.5721 3.8219-0.40658 0.81317-0.24394 0.9487-0.10842 1.03 0.18974 0.10842 0.43369 0.16263 0.9487 0.13553 1.2198-0.29816 2.7377-1.2198 4.5808-2.7919 1.1655-1.03 1.4908-0.9487 2.1413-1.1113 0.4337-0.081317 0.32527 0.62343 0.32527 1.1113v10.49c0.0271 1.7619 0.0271 2.7648 0 2.9545-0.0271 2.3853-0.10842 3.849-0.24395 4.4182-0.10842 0.43369-0.29816 0.67764-0.81317 1.1113-0.24395 0.18974-0.40658 0.35237-0.4879 0.43369-0.10842 0.10842-0.10842 0.51501 0.10842 0.51501z" stroke-width=".74241"/><path d="m199.62 13.016c-0.4608 0.08132-1.545 0.13553-3.2527 0.18974-1.7077 0.05421-2.6292 0.05421-2.7377-0.02711v-7.0475l1.1384 0.054211c1.4637 0.081317 2.575 0.21684 3.3069 0.35237 1.1113 0.16263 2.2498 0.65054 2.8732 1.1655 1.0029 0.78606 1.4637 1.6263 1.4095 2.5208-0.13553 1.545-1.1113 2.5208-2.7377 2.7919zm6.9119 13.688h0.81317c0.89448 0.02711 1.0029 0.02711 1.0029-0.29816 0-0.24395-0.27106-0.51501-0.32527-0.59632-0.10843-0.10842-0.4879-0.43369-0.81317-0.75896-0.67764-0.89449-1.3011-1.7619-1.9787-2.7648-0.67764-1.0571-1.0571-1.5721-1.8432-2.8461l-0.86738-1.4095-0.97581-1.5992-0.94869-1.5992c0-0.02711 0.32527-0.05421 0.73185-0.05421 1.8974 0 4.2556-0.62343 5.6651-2.0871 0.62343-0.62343 1.0029-1.2469 1.1926-1.8432 0.16264-0.65054 0.18974-2.0329 0.0271-2.575-0.56922-1.9245-2.8461-3.09-4.3098-3.5779-0.73185-0.24395-1.3282-0.37948-1.8161-0.4608-0.4879-0.081317-1.1926-0.13553-2.1414-0.13553-0.92159-0.027106-2.8732-0.054211-5.8819-0.027106-3.0087 0.027106-5.0687 0.027106-6.2343 0.027106-0.16263 0.10842-0.13553 0.62343 0.21685 0.92159 0.18973 0.18974 0.37947 0.43369 0.515 0.75896 0.18974 0.35237 0.21685 0.62343 0.21685 2.1684 0.0271 1.0571 0 2.1956-0.0271 4.5809l-0.0542 6.9661c-0.0271 2.6564-0.0813 4.2827-0.16264 4.879-0.0542 0.59632-0.21684 1.0571-0.515 1.3553-0.21685 0.21684-0.32527 0.4608-0.32527 0.70475 0.0271 0.24395 0.0271 0.27106 0.24395 0.27106h6.7764c0.21684-0.13553 0.0271-0.62343-0.29816-0.73185-0.18975-0.08132-0.37949-0.29816-0.56922-0.65054-0.10842-0.24395-0.16264-0.4879-0.18974-0.70475-0.0271-0.21684-0.0271-0.78606-0.0271-1.6805v-7.8064l0.84028-0.02711c0.84027-0.02711 0.92159-0.02711 1.03 0.16263 0.0813 0.10842 0.29816 0.56922 0.54211 1.0029l0.51501 1.0029 1.4095 2.575c0.75896 1.3553 1.3553 2.4124 1.7619 3.1985 0.21685 0.43369 0.40659 1.1384 0.59633 2.1142 0.0542 0.35237-0.27106 0.75896-0.51501 0.9487-0.0813 0.08132-0.24394 0.21684-0.24394 0.29816 0 0.18974 0.0542 0.29816 0.18973 0.29816h5.2314z" display="none" stroke-width=".74241"/><path d="m200.65 12.583c0.32757-0.19877 0.58618-0.44272 0.77582-0.73185 0.20688-0.28913 0.36205-0.6415 0.46549-1.0571 0.1724-0.52404 0.24136-0.99387 0.20687-1.4095-0.0344-0.43369-0.1034-0.81317-0.20687-1.1384-0.10344-0.32527-0.29309-0.61439-0.56894-0.86738s-0.57755-0.4608-0.90512-0.62343c-0.32756-0.1807-0.73271-0.3343-1.2154-0.4608-0.48273-0.12649-0.97408-0.22588-1.4741-0.29816-0.49997-0.090352-1.0689-0.1536-1.7068-0.18974l-2.3533-0.18974-0.0258 3.1443v4.5808c0.0345 0.21684 1.1034 0.20781 3.2067-0.02711 2.1033-0.23492 3.3705-0.47887 3.8015-0.73185zm1.2541 18.066c0.36206-0.92159 0.47412-1.7438 0.33619-2.4666-0.12067-0.74089-2.6761-5.5611-3.4781-7.061-1.0172-2.0058-1.862-3.5057-2.5343-4.4995-0.41377-0.63246-0.74134-1.039-0.9827-1.2198-0.24137-0.1807-0.53445-0.24395-0.87927-0.18974l-0.72409 0.08132v5.0145c0 2.8913 0.0345 4.4905 0.10344 4.7977 0.069 0.3072 0.22412 0.56922 0.46548 0.78606 0.4655 0.39755 0.69825 0.63246 0.69825 0.70475 0 0.07228-0.0173 0.11746-0.0518 0.13553s-0.0862 0.02711-0.15516 0.02711h-6.853c-0.0344-0.01807-0.069-0.04518-0.10344-0.08132-0.0345-0.05421-0.0518-0.09939-0.0518-0.13553 0-0.09035 0.0345-0.21685 0.10345-0.37948 0.069-0.1807 0.16378-0.36141 0.28446-0.54211 0.15517-0.21684 0.26723-0.43369 0.33618-0.65054 0.0861-0.23492 0.15516-0.75896 0.20689-1.5721 0.0517-0.81317 0.0861-1.7619 0.10345-2.8461 0.0173-1.0842 0.0345-2.8461 0.0518-5.2856 0.0344-4.3188 0.0258-7.0113-0.0258-8.0775-0.0345-1.0662-0.18104-1.7438-0.43962-2.0329-0.37928-0.4879-0.56031-0.77703-0.54307-0.86738 0-0.018071 9e-3 -0.036141 0.0258-0.054211 0.0173-0.018071 0.0345-0.027106 0.0518-0.027106 0.0173-0.018071 0.0431-0.036141 0.0775-0.054211 0.0345-0.018071 0.069-0.027106 0.10343-0.027106 0.0517-0.018071 0.0948-0.027106 0.12931-0.027106 0.0517-0.018071 0.10341-0.027106 0.15516-0.027106 0.069-0.018071 0.14654-0.027106 0.23275-0.027106h6.8013c1.293 0 2.3188 0.00904 3.0774 0.027106 0.77583 0.018071 1.5344 0.036141 2.2757 0.054211 0.74133 0.018071 1.3102 0.063247 1.7068 0.13553 0.41376 0.054211 0.81029 0.11746 1.1896 0.18974 0.3793 0.072281 0.69823 0.18974 0.95684 0.35237 0.27585 0.14456 0.51721 0.29816 0.72409 0.4608 0.22413 0.16263 0.49998 0.37948 0.82754 0.65053 0.82754 0.72282 1.3361 1.5631 1.5258 2.5208 0.20688 0.93966 0.12931 1.8341-0.23274 2.6835-0.3448 0.83124-0.96546 1.5812-1.862 2.2498-0.87925 0.66861-1.9223 1.1113-3.1291 1.3282-0.13793 0.01807-0.27585 0.04518-0.41377 0.08132-0.12069 0.01807-0.23276 0.04518-0.3362 0.08132-0.10343 0.03614-0.19826 0.08132-0.28447 0.13553-0.0861 0.03614-0.15516 0.07228-0.20687 0.10842-0.0345 0.03614-0.0518 0.07228-0.0518 0.10842 0 0.19878 0.44825 0.99387 1.3448 2.3853 1.0806 1.657 3.9502 6.0916 4.6936 7.1694 0.32756 0.43369 0.75857 0.90352 1.293 1.4095 0.53445 0.4879 0.99993 0.86738 1.3965 1.1384 1.3965 0.93966 2.3922 1.5145 4.4437 1.9121 1.2798 0.27255 2.0622 0.09578 2.3924-0.01467 0.44824-0.21685 0.75857-0.53308 0.93097-0.9487 0.17241-0.41562 0.13793-0.77703-0.10344-1.0842-0.15517-0.21684-0.19827-0.40658-0.1293-0.56922 0.0861-0.1807 0.27584-0.32527 0.56893-0.43369 0.29309-0.10842 0.64651-0.16263 1.0603-0.16263 0.68962 0 1.1723 0.09035 1.4482 0.27106 0.27583 0.16263 0.50858 0.52404 0.69822 1.0842 0.12069 0.3072 0.18966 0.59632 0.20689 0.86738 0.0173 0.25299-0.0258 0.50597-0.12931 0.75896-0.0861 0.23492-0.23273 0.4608-0.43963 0.67764-0.20688 0.19877-0.46547 0.39755-0.77581 0.59632-0.79305 0.50597-2.3471 0.89788-4.5256 0.89449-1.3418-0.03465-2.4255-0.1858-3.8881-0.40658-1.0516-0.16263-1.9912-0.28009-2.8188-0.35237-0.82754-0.09035-1.5775-0.13553-2.2499-0.13553-0.67237 0-1.2758 0.03614-1.8102 0.10842-0.51721 0.07228-0.99132 0.18974-1.4223 0.35237-0.96545 0.36141-1.4654 0.4879-1.4999 0.37948-0.0345-0.05421-2e-5 -0.20781 0.10343-0.4608z" stroke-width=".72516"/><path d="m222.14 16.513c-0.0542 0.08132-2.0871 0.08132-6.0717 0l-1.1113-0.08132c0.27105-1.1655 0.70474-2.7648 1.274-4.8248l1.3011-4.7164c0.18973-1.0842 0.21684-1.1113 0.56922-0.92159 0.65053 0.32527 1.4908 1.4908 1.9245 2.6292 0.40658 1.1113 0.78606 2.3853 1.1655 3.8219 0.40659 1.4366 0.70474 2.7919 0.94869 4.093zm8.0504 10.219c0.0542-0.02711 0.10843-0.02711 0.13553-0.05421 0.24396-0.08132 0.13553-0.37948-0.37948-0.84028-0.62343-0.62343-0.84027-1.0571-1.2468-2.4395l-1.0029-4.0116-0.51501-2.1956c-0.0813-0.4608-0.21685-0.9487-0.35238-1.5179-0.35236-1.4095-0.67763-2.7919-0.92159-4.1743-0.24394-1.3824-0.35237-2.2769-0.32526-2.6835 0.0542-0.73185 0.32526-1.2469 0.78606-1.545 0.32527-0.18974 0.35237-0.40658 0.13553-0.54211-0.0542-0.10842-0.29816-0.10842-0.67765 0-0.515 0.10842-0.62342 0.10842-1.3011-0.10842s-1.5721-0.56922-2.6564-1.0842c-0.4608-0.21685-1.1384-0.51501-1.5179-0.62343-0.40658-0.13553-0.92159-0.32527-1.2198-0.40658-0.56922-0.18974-1.0571-0.32527-1.4366-0.37948-0.37948-0.054211-0.92159-0.054211-1.5992-0.027106-1.1926 0-1.9245 0.16263-2.7377 0.51501-0.81316 0.40658-1.7076 0.9487-2.1956 1.5179-0.35236 0.40658-0.56921 0.81317-0.59632 1.2198-0.0542 0.4879 0.10843 0.84027 0.51501 1.0842 0.73186 0.43369 1.5179 0.13553 2.0329-0.81317 0.18974-0.29816 0.46079-0.67764 0.81317-1.1384 0.46079-0.62343 0.56922-0.67764 1.1926-0.89449 0.84028-0.27106 1.0842-0.21684 1.0029 0.21684-0.40658 1.6534-1.4366 5.0416-1.8703 6.939-0.10842 0.29816-0.21685 0.78606-0.29816 1.1113-0.10843 0.29816-0.24396 0.84028-0.32527 1.1926-0.13553 0.43369-0.32527 1.03-0.51501 1.7619-0.35238 1.2469-0.75896 2.5479-1.2198 3.9032-0.46079 1.3282-0.84026 2.2498-1.1113 2.7648-0.24395 0.4608-1.1656 1.3282-1.6806 2.0871 0.28086 0.61201 0.60332 0.85891 1.1889 1.144l1.9554-0.0055h3.5237c0.0542-0.08132-0.0271-0.29816-0.24395-0.65054-0.62343-1.0029-1.03-2.1684-1.2198-3.5508-0.13553-1.545-0.0542-2.7106 0.27105-4.2556 1.5179 0.18974 3.1442 0.05421 4.6622 0.10842h3.4153c0.16263 0.67764 0.40659 2.0329 0.56922 2.7919l0.18973 0.9487c0.10843 0.43369 0.18975 0.78606 0.21685 1.03 0.10843 0.4608 0.24396 1.6263 0.10843 2.0871-0.10843 0.51501-0.21685 0.73185-0.78607 1.0571-0.21684 0.21684-0.24395 0.29816-0.0271 0.4608h5.0688z" stroke-width=".74241"/><path d="m248.27 27.843c0.10842 0.21684 0.13553 0.27106 0.43369 0.27106 0.18974 0 0.4879-0.18974 0.86738-0.56922 0.56922-0.56922 1.8432-1.274 3.1172-1.7348 0.89448-0.29816 1.03-0.35237 1.03-0.65054 0-0.16263-0.16263-0.35237-0.4608-0.56922l-1.1926-0.78606-0.40659-0.32527-0.89449-0.81317c0.0542-4.4724 0.13553-7.9691 0.27106-10.517 0.27106-3.2256 0.9487-5.7464 2.0329-7.5083 0.18974-0.24395 0.32527-0.59632 0.24395-0.62343h-6.5324c0 0.18974 0.10842 0.40658 0.29816 0.65054 1.1384 1.7077 1.8703 4.2014 2.2227 7.5083 0.13553 2.304 0.16264 4.7435 0.0813 7.2914-0.0271 0.37948-0.0271 0.62343-0.0542 0.73185s-0.0813 0.08132-0.21685-0.05421c-0.13552-0.13553-0.40658-0.56922-0.81317-1.2469-0.48789-0.84028-1.545-2.4937-3.1714-4.9874-1.5992-2.5208-2.819-4.4724-3.6593-5.8819-0.78606-1.3282-0.9758-2.4395-0.51501-3.3069 0.18974-0.32527 0.24395-0.51501 0.18974-0.59632-0.0542-0.027106-0.13553-0.054211-0.24395-0.054211h-9.0262c-0.10842 0-0.16263 0.081317-0.16263 0.21684 0 0.13553 0.21684 0.29816 0.65053 0.51501 0.46079 0.24395 1.0842 0.81317 1.8703 1.7077l-0.0271 4.4724c0 1.4366 0 2.5479-0.0271 3.3882l-0.16264 3.4153c-0.0813 1.4366-0.21684 2.7919-0.37948 4.0387-0.10842 0.70475-0.4879 1.6534-0.86738 2.4937-0.24394 0.51501-0.59632 1.2469-0.78606 1.5992-0.37948 0.4608-0.40658 0.78606-0.21684 0.84028h6.424c0.35237 0 0.29816-0.16263 0.0813-0.37948-0.13553-0.13553-0.32527-0.43369-0.59633-0.86738-0.27105-0.4608-0.4879-0.84027-0.65053-1.1655-0.56922-1.2198-0.97581-2.8732-1.1655-4.9061-0.0271-0.35237-0.0813-1.1926-0.10842-2.5479-0.10843-5.4482-0.10843-8.3214 0-8.6196 0.0813-0.18974 0.10842-0.18974 0.24394 0 0.0813 0.081317 0.27106 0.37948 0.59633 0.86738 0.35237 0.4608 0.56922 0.81317 0.67764 1.0029l3.4153 5.1772c1.8161 2.7648 3.3069 5.0959 4.4453 6.9661 1.1384 1.8703 2.1956 3.7135 3.1442 5.5567z" stroke-width=".74241"/><path d="m235.83 4.5593q1.0842-0.9487 1.2198-0.9758 0.13553-0.054211 3.1985 3.9303 3.0629 3.9845 4.9874 6.668 0.40659 0.54211 0.84028 1.1655 0.4608 0.59632 0.86738 1.1655 0.43369 0.54211 0.81317 1.03 0.37948 0.4608 0.62342 0.75896 0.0542 0.10842 1.03 1.3553 0 0 0-0.05421t0-0.08132q0.10842-3.849-0.0813-7.2914-0.21684-2.1956-0.75896-4.1743-0.54211-1.9787-1.4637-3.334-0.29817-0.40658-0.29817-0.65053h6.5596q0.0813 0.081317-0.27105 0.59632-0.9216 1.545-1.3824 3.4695-0.46079 1.8974-0.62342 4.0658-0.0813 1.6534-0.10843 3.0087 0 1.3553 0 1.9787 0.0271 0.62343 0.10843 2.3311 0.0813 1.7077 0.10842 2.4937l1.0571 1.274q0.13552 0.13553 1.5992 1.1384 0.46079 0.32527 0.46079 0.56922 0 0.08132-0.0271 0.13553-0.0271 0.05421-0.0813 0.13553-0.0271 0.05421-0.16264 0.10842-0.13552 0.05421-0.29816 0.13553-0.16263 0.05421-0.4608 0.13553-1.0029 0.35237-2.1413 0.9487-1.1113 0.56922-1.545 1.0029-0.54211 0.56922-0.86738 0.56922-0.29816 0-0.40659-0.27106-0.84027-1.5992-1.789-3.2256-0.92159-1.6263-2.0329-3.3882-0.37947-0.56922-0.84027-1.2198-1.8161-2.5208-3.0358-4.2285-1.2198-1.7077-2.5208-3.3069l-1.3011-1.5992-0.16263 2.304q-0.78607 10.219 2.0871 12.55 0.92159 0.73185 0.94869 0.84027 0.0271 0.10842-2.4666 0.75896-2.4937 0.67764-3.6322 1.3282-1.0571 0.62343-2.9274 1.1113-1.8432 0.51501-3.0358 0.4879-1.4095-0.02711-2.4666-0.62343-1.03-0.56922-1.2469-1.4366-0.24395-0.89448 0.0271-1.4095 0.27105-0.4879 1.1113-0.70475 0.86738-0.24395 1.3282 0.29816 0.48791 0.54211 0.21685 1.4095-0.21685 0.59632-0.16264 0.73185 0.0813 0.16263 0.59633 0.29816 0.78607 0.18974 2.0871-0.21684 1.3282-0.37948 2.0329-1.0029 1.7619-1.5721 2.6021-5.0688 0.32527-1.4637 0.78606-7.0746 0.48791-5.6109 0.32528-6.2885-0.0271-0.10842-0.21685-0.21684-0.16264-0.10842-0.43369-0.21684-0.27106-0.13553-0.67764-0.21684-0.37948-0.10842-0.84027-0.18974-0.84028-0.16263-1.4366-0.35237-0.59632-0.21684-0.59632-0.35237 0.0271-0.13553 0.62343-0.4879 0.59633-0.37948 1.4366-0.75896 0.84028-0.37948 1.7619-0.92159 0.92159-0.54211 1.3553-0.9487z" display="none" stroke-width=".74241"/><path d="m258.6 23.723c0.84027 0.89448 2.0058 1.7348 3.4424 2.4666 3.0087 1.4095 6.3156 1.6805 9.9478 0.84027 1.2469-0.27106 2.1684-0.40658 2.7377-0.43369 0.59632-0.02711 1.1384 0.05421 1.6263 0.27106 0.35237 0.16263 0.59632 0.24395 0.73185 0.24395 0.18974 0 0.35237-0.35237 0.24395-0.4879-0.13553-0.27106-0.65053-4.4182-0.65053-6.3427-0.0271-0.89449-0.0271-1.4908 0.0542-1.7619s0.32526-0.59632 0.73185-0.9758c0.24395-0.24395 0.43369-0.4879 0.43369-0.59632-0.0542-0.21684-0.54211-0.27106-1.3553-0.21684-0.62343 0.08132-2.0871 0.08132-4.364 0.05421-2.2498-0.05421-3.5508-0.10842-3.849-0.18974-0.54211-0.16263-0.84028-0.40658-1.0842-0.86738-0.32526-0.78606-0.0271-1.545 0.65053-1.6805 0.0542-0.05421 0.18974 0.08132 0.0813 0.37948-0.13553 0.29816 0 0.59632 0.37948 0.86738s0.75896 0.32527 1.1384 0.16263c0.73186-0.40658 0.9487-1.4095 0.40659-2.1684-0.35237-0.51501-0.86738-0.78606-1.5992-0.84028-0.73185-0.05421-1.3282 0.13553-1.789 0.56922-0.56922 0.51501-0.84028 1.2198-0.86738 2.06 0 0.51501 0.10842 0.9487 0.29816 1.3011 0.35237 0.56922 0.81317 1.03 1.4095 1.3824 0.62343 0.32527 1.1384 0.40658 2.7919 0.4879 0.92159 0.02711 1.4366 0.08132 1.545 0.16263 0.13553 0.05421 0.18974 0.24395 0.18974 0.54211-0.0271 0.43369 0.0542 1.6805 0.16262 2.8461 0.13553 1.3824 0.21685 2.3582 0.21685 2.9274v0.54211l-0.65053 0.18974c-2.7919 0.73185-5.5296-0.13553-7.698-2.2769-1.0842-1.1113-1.9245-2.3582-2.5479-3.7406-1.0842-2.2498-1.3824-3.7135-1.4366-6.2343 0-2.575 0.37949-4.2285 1.4366-5.6651 0.56922-0.84027 1.3282-1.4637 2.2769-1.8703 1.1926-0.4608 3.0087-0.43369 4.5537 0.081317 0.62343 0.27106 1.545 0.89449 2.6021 1.8974 1.9787 1.8432 3.4695 2.575 5.1772 2.5479 0.75895 0 1.1926-0.08132 1.3011-0.27106 0.13553-0.13553-0.0542-0.37948-0.48789-0.89449-0.86739-1.0029-1.9245-2.7648-2.2769-4.1743-0.18974-0.56922-0.35237-0.59632-0.70475-0.27106-0.73185 0.62343-2.0329 0.59632-3.849-0.027106-0.81317-0.27106-1.4637-0.4608-1.9245-0.54211-0.46079-0.081317-1.0842-0.13553-1.8432-0.13553-1.1384 0-2.06 0.081317-2.7377 0.27106-0.67764 0.16263-1.4366 0.4879-2.2227 0.9758-1.4637 0.89449-3.1443 2.3853-4.1472 4.0658-0.67765 1.0842-1.1656 2.3582-1.4637 3.8219-0.29816 1.4637-0.35237 2.9003-0.16263 4.2827 0.13552 1.0571 0.4879 2.1956 1.0571 3.3611 0.56923 1.1655 1.274 2.1684 2.0871 3.0629z" stroke-width=".74241"/><path d="m295.73 27.409c0.18974 0.08132 0.40658 0.10842 0.59632 0.08132 0.0542 0 0.10842 0 0.16263-0.02711 0.10843-0.0271 0.21685-0.21684 0.29817-0.59632 0.13553-0.56922 0.4879-1.274 0.67764-1.6805l0.48789-0.89448 0.4337-0.75896 0.0813-0.13553c0.65053-1.03 0.92159-1.6534 0.78606-1.8974-0.21684-0.32527-2.0871-0.18974-2.9816 0.08132-0.65054 0.21685-3.334 1.5992-4.1472 2.06-1.3011 0.65054-3.4153 1.3282-5.1501 1.4366-1.545 0.13553-2.3853 0.10842-2.4666-0.05421v-10.463l1.4095 0.05421c1.4908 0.08132 2.6835 0.18974 3.578 0.35237 0.92159 0.16263 1.8703 0.43369 2.8732 0.84028 0.89449 0.27106 1.6806 0.84028 2.4124 1.3282 0.16264 0.08132 0.59632 0.40658 1.274 0.92159 0.24394 0.16263 0.40658 0.24395 0.46079 0.24395 0.24395 0 0.70475-0.37948 0.70475-0.62343-0.10843-0.62343-1.03-1.6534-1.4366-2.3853-0.40659-0.65054-1.1656-2.5208-1.3282-3.9574 0-0.35237-0.24395-0.59632-0.59633-0.29816-0.92159 0.75896-2.7377 1.4095-4.7164 1.5721-0.9487 0.10842-2.3311 0.13553-3.4424 0.18974h-1.1926v-7.1288c0.10843-0.081317 0.70475-0.10842 1.789-0.054211 1.1113 0.054211 1.9516 0.13553 2.575 0.24395 1.03 0.21684 2.5208 0.84027 3.0629 1.3824 0.51501 0.4879 1.1655 0.9487 1.8974 1.3553 1.3282 0.89449 4.364 1.1926 4.608 0.4608 0.0271-0.13553-0.0813-0.40658-0.35237-0.78606-0.21685-0.27106-0.40658-0.62343-0.4879-0.70475-0.4608-0.78606-0.86738-1.5179-1.1926-2.2227-0.32526-0.67764-0.51501-1.1655-0.59632-1.4637-0.0813-0.24395-0.16264-0.43369-0.21685-0.4879-0.0542-0.027106-0.27105 0.027106-0.62343 0.18974-0.43369 0.24395-0.92159 0.29816-2.1684 0.37948-0.56923 0-0.97581 0-1.9245 0.027106h-1.3282c-0.84027 0-2.3853 0.027106-3.6593 0.054211h-6.3427c-0.29816 0-0.4879 0.027106-0.54212 0.081317-0.10841 0.10842 0 0.54211 0.29817 0.86738 0.27106 0.29816 0.43369 0.62343 0.48791 0.92159 0.0542 0.29816 0.0813 1.0571 0.0813 2.2769v0.35237c0.0542 10.49 0.0542 15.83 0 16.074-0.0542 0.27106-0.24395 0.65054-0.59632 1.1384-0.4879 0.62343-0.54211 0.86738-0.32527 0.9487h6.3698c3.6864 0 6.1259 0.02711 7.3185 0.08132 1.2198 0.08132 2.0329 0.18974 2.4395 0.37948z" stroke-width=".74241"/></g></g></svg>
