<svg width="128" height="96" version="1.1" viewBox="0 0 128 96" xmlns="http://www.w3.org/2000/svg"><path d="m36 32c0-16 12-28 28-28s28 12 28 28c0 8-2 12-2 12s-2 6.25-2 8.125 1 3.875 3 5.875 3 2.5 5 3h1e-4c2 0.5 3.9999 1 5.9999 0 1-0.5 2-1.375 3-2.25s2-1.75 3-2.25c2-1 3.5-1.5 6-1.5s7 2 7 5-1 5-4 7c-2 1.5-3.5 1-4 0.5s-1-1.5-1-1.5 2 0 3-0.5 2-2 2-4-1-2.5-3-2.5-4 1-7 4-4.5 4-6 4.5-4.5 0.5-7-0.5-7-3-7-3 2 3 3 7 7 5 9.5 5 7-0.5 8.5-2 1.5-3 1.5-3l0.5 1s0.5 1.5-0.5 3.5-5.5 3.5-10 4-9 0.5-11.5-1.5c-1.2978-1.0382-1.7871-2.3459-2.3773-3.9231-0.5467-1.461-1.18-3.1533-2.6227-5.0769-2.3858-3.1811-2.8743-3.8323-3.4772-3.9657-0.1553-0.0343-0.3181-0.0343-0.5228-0.0343-1 0-2 0-2 1.5 0 0.4035 0.0724 0.8432 0.1587 1.3678 0.2346 1.4253 0.5723 3.4772-0.1587 7.1322-0.1065 0.5324-0.213 1.0478-0.3158 1.5456l-5e-4 0.0023-8e-4 0.0039-2e-4 0.0011c-0.8624 4.1732-1.4687 7.1076 0.3173 8.4471 1.568 1.176 3.136 1.1227 5.4269 1.0448 0.6311-0.0215 1.3171-0.0448 2.0731-0.0448 3.5 0 7-2 7-2s3.5-2 7.5-2 7.5 2.5 7.5 2.5 2 1 5.5 1 7-4.5 7-4.5 1.5 0 1.5 1-0.5 3-2.5 5c-0.292 0.2918-0.562 0.5836-0.827 0.8692-1.55 1.6718-2.902 3.1308-7.173 3.1308-2.5 0-4-0.75-5.5-1.5s-3-1.5-5.5-1.5c-2.9912 0-4.5509 1.2526-6.0706 2.4732-1.0206 0.8198-2.0233 1.625-3.4294 2.0268-1.6076 0.4593-2.8987 0.2857-4.2126 0.1091-1.5466-0.208-3.1246-0.4201-5.2874 0.3909-4 1.5-6.5 1-9 0s-5-3.5-5-6c0-1.1931 0.2277-2.1584 0.4659-3.1677 0.2608-1.1056 0.5341-2.264 0.5341-3.8323 0-1.5684-0.2733-2.8634-0.5341-4.0994-0.2382-1.1284-0.4659-2.2076-0.4659-3.4006v-4.5c0-2-1-2-1-2h-2l-1 2s-1 4 0 10-0.5 10-0.5 10-2 4-7 5-6.5 0.5-10.5-1c-2.7335-1.0251-4.066-1.8166-5.2741-2.5343-0.5597-0.3325-1.0927-0.6491-1.7259-0.9657-2-1-5.5-2-8-2-2.1353 0-3.541 0.7295-5.1519 1.5654-0.2752 0.1428-0.5563 0.2887-0.8481 0.4346-2 1-6.5 2-9.5 1.5s-4-1.5-5.5-3-2-3-2-4 0.5-2 0.5-2 1 0 1.5 1c0.07602 0.152 0.14049 0.3041 0.20569 0.4579l3e-5 1e-4c0.36366 0.8577 0.75049 1.7701 3.2943 3.042 3 1.5 6.5 1 9.5-1.5s5.5-3 8-3 6 0.5 9.5 2.5 8 3.5 9.5 3.5 3.5-0.5 4.5-2 1.5-3.5 1-6-0.5-3-0.5-5 1-6.5 1-6.5-2 3.5-4 4.5c-0.3246 0.1623-0.6754 0.3246-1.0356 0.4911-1.8591 0.8598-3.9644 1.8335-3.9644 3.5089 0 2 2 3 4 2 1 1-0.5 3-2 3.5s-3.5 0-3.5 0c-2.7324-1.7992-3.631-4.2374-2.5-7.5l4.5-7c1.3743-1.9413 1.4258-2.4981-0.5-2-3.8706 3.1725-6.2716 4.6073-11 6.5-4.4646 1.72-7.5311 2.0505-14 1.5-4.279-0.5754-6.5-1.5-9-4s-2.5-5.5-2-8.5 4-5.5 6-5.5c1.959 0 3.2761 0.6922 3.958 2.3919 0.1879 1.5095-0.0451 1.9427-0.958 2.1081-0.8004-2.19-2-2.5-3.5-2s-2 1.5-2.5 3-0.5 5 2.5 7c6.5 3.5 13.5 0.5 20.5-5.5 1.5-1.2857 3-3 4-5s1-2.75 1-4.875-2-8.125-2-8.125-2-4-2-12zm-17.03 25.423-0.0124-0.0311-2e-4 -0.0015 0.0126 0.0326zm0 0 0.0151 0.0388 0.0145 0.0382-0.0296-0.077zm62.03-13.423c0 4.4183-2.2386 8-5 8s-5-3.5817-5-8 2.2386-8 5-8 5 3.5817 5 8zm-29 8c2.7614 0 5-2.2386 5-5s-2.2386-5-5-5-5 2.2386-5 5 2.2386 5 5 5zm8-14v-0.5c-0.2125 0-0.3347 0-0.4433 0.0384-0.147 0.0519-0.2692 0.1741-0.5567 0.4616-0.5 0.5-1 1-4.5-1-0.2188-0.1459-0.427-0.2917-0.6307-0.4345l-1e-4 -1e-4c-1.1929-0.8359-2.2339-1.5654-4.3692-1.5654-1.5 0-3.5 1-4.5 2s-2.5 1-2.5 1 0 1 1.5 1c0.6547 0 1.2142-0.3811 1.8448-0.8105 0.814-0.5544 1.7464-1.1895 3.1552-1.1895 2.1353 0 3.541 0.7295 5.1519 1.5654l2e-4 1e-4c0.2751 0.1428 0.5562 0.2886 0.8479 0.4345 1.1875 0.5937 1.6699 0.8349 2.1798 0.9329 0.349 0.0671 0.7108 0.0671 1.3202 0.0671 1.5 0 1.5-2 1.5-2zm12-7.5s1 0.5 4-1.5 4-2 5.5-2 2.5 1 3.5 2c0.7133 0.7133 0.9178 0.9178 1.1579 0.9764 0.0965 0.0236 0.1988 0.0236 0.3421 0.0236 0.5 0 0.5-1 0.5-1s-1-0.5-2.5-2-2.5-2-4.5-2-4 2-4 2l-2 1.5s-0.5 0.5-2 0.5-3-0.5-3-0.5v0.5s0 0.5 1 1 2 0.5 2 0.5z" clip-rule="evenodd" fill-rule="evenodd"/><path d="m100 12c-4 4-7 6-7 6s3 6 3 14-3 15-3 15l-1 4 1 2s2.5-7 5-7 6 7 6 7 3.5-15 10-15 12 4 12 4-5-10-9-22-4-17-5-17.5-1-0.5-2-0.5-6 6-10 10z"/><path d="m28 12c4 4 7 6 7 6s-3 6-3 14 3 15 3 15l1 4-1 2s-2.5-7-5-7-6 7-6 7-3.5-15-10-15-12 4-12 4 5-10 9-22 4-17 5-17.5 1-0.5 2-0.5 6 6 10 10z"/></svg>
