<svg width="250" height="32" version="1.1" viewBox="0 0 250 32" xmlns="http://www.w3.org/2000/svg"><g stroke-width="1.0699" aria-label="somethingSTRANGE"><path d="m149.29 22.441-1.5407 0.47076c-0.17118 0-0.47075 0.0428-0.85592 0.0428h-0.59914c-0.0856 0-0.17118-0.08559-0.25678-0.17118-0.0856-0.08559-0.12838-0.17118-0.12838-0.25678l-0.21398-3.3381-5.6063 0.08559 0.0856 7.1897 2.6962 3.1669 7.4893 0.42796c-0.0428-0.17118 0.0856-0.34237 0.38516-0.55635 0.25678-0.21398 0.47076-0.38516 0.64194-0.55635 0.12839-0.08559 0.29958-0.25678 0.55635-0.51355l0.64194-0.68474 0.55635-0.59914c0.17118-0.17118 0.25678-0.25678 0.25678-0.29957l-0.25678-9.7575-7.0185-4.0656-0.42796-3.8944h3.7232l-0.17119 3.1669 4.3224 0.17118v-7.3181c-0.0856 0-0.25678-0.12839-0.42796-0.38516l-0.68474-0.77033c-0.25677-0.25678-0.51355-0.55635-0.77032-0.81312-0.25678-0.25678-0.51356-0.42796-0.68474-0.51355-0.17118-0.21398-0.38516-0.42796-0.68474-0.59914-0.29957-0.17118-0.47075-0.29957-0.51355-0.34237l-5.5635-0.085592-4.2368 3.0813 0.21398 6.505 0.12839 3.4665 2.4822 1.2839 6.6762 3.2097z"/><path d="m158.27 9.7732 0.59915 0.17118c-0.17119 0.34237-0.25678 1.0271-0.34237 2.0542-0.0856 1.0271-0.17119 2.1826-0.17119 3.5521s0 2.8245 0.0428 4.3652c0.0428 1.5835 0.12839 3.0813 0.25678 4.5364 0.0856 1.4551 0.25677 2.7817 0.42796 3.9372 0.17118 1.1983 0.42796 2.0542 0.68473 2.6106l5.6919-1.5835 0.77033-22.939 2.8673-0.12839c0.25678 0.042796 0.38516 0 0.47076-0.17118 0.0428-0.12839 0.0856-0.25678 0.12838-0.42796v-1.883l-0.17118-1.4123c-0.0856-0.47076-0.25678-0.68474-0.51355-0.64194l-14.465 0.81312v6.4194c0.0856 0.17118 0.21398 0.25678 0.34237 0.29957 0.12839 0.085592 0.21398 0.12839 0.29957 0.12839 0.0856 0.042796 0.25678 0.085592 0.55635 0.12839 0.25677 0.042796 0.59914 0.085592 0.94151 0.085592l0.98431 0.085592c0.29957 0.042796 0.51355 0.042796 0.64194 0.042796z"/><path d="m171.28 20.472c0 0.68474-0.0428 1.4979-0.0856 2.3538-0.0856 0.89872-0.12839 1.7546-0.21398 2.5678-0.0856 0.85592-0.12839 1.6262-0.21398 2.311-0.0856 0.68474-0.12839 1.1983-0.12839 1.4979l7.1469 0.89872 0.81312-9.7147 3.3381 8.9016c-0.25677 0.08559-0.29957 0.17118-0.17118 0.25678 0.0856 0.08559 0.21398 0.12839 0.34237 0.12839h2.9101c0.0428 0 0.12839-0.0428 0.21398-0.12839 0.0856-0.08559 0.12839-0.17118 0.12839-0.25678l-4.7076-11.17c0.85592 0 1.7118-0.21398 2.525-0.59914 0.77032-0.34237 1.4551-0.72753 2.0542-1.1555l-0.47074-11.17c0.25677 0.042796 0.34237-0.042796 0.25677-0.21398s-0.17118-0.29957-0.21398-0.38516c-0.21398-0.25678-0.47075-0.55635-0.77032-0.89872l-0.85592-0.94151-0.68474-0.72753c-0.17118-0.17118-0.25678-0.29957-0.21398-0.29957l-11.17 0.29957zm8.0456-13.053-0.25678 4.6648-0.51355 0.55635c-0.17119 0.17118-0.47076 0.25678-0.94151 0.25678l-2.9957 0.12839 0.12838-5.8631z"/><path d="m186.73 26.763 2.4822-24.779c0.42796 0.17118 0.72753 0.29957 0.98431 0.29957 0.25677 0.042796 0.42796 0.042796 0.59914-0.042796 0.17119-0.042796 0.29957-0.12839 0.42796-0.21398 0.0856-0.085592 0.25678-0.21398 0.42796-0.29957l6.4194-0.34237c0.12839 0.17118 0.42796 0.29957 0.85592 0.42796s0.72753 0.21398 0.85592 0.25678l3.0385 27.347-0.25678-0.12839c-0.0856 0.08559-0.12838 0.17118-0.21398 0.25678-0.0856 0.08559-0.17118 0.12839-0.21398 0.12839l-6.8902-0.21398-0.59915-6.6334-3.5093-0.51355-1.3695 7.4465-3.5093-0.12839zm8.6876-19.001c-0.38516 0.17118-0.68474 0.55635-0.89872 1.1983-0.21398 0.64194-0.38516 1.4123-0.51355 2.2682-0.12839 0.89872-0.21398 1.8402-0.29957 2.8673-0.0856 1.0271-0.17118 1.9258-0.25678 2.7817l3.0385-0.38516v-1.0271z"/><path d="m204.19 1 5.2639 0.51355c0.0856 0.59914 0.17118 1.4123 0.34237 2.4394 0.17118 1.0271 0.34237 2.0542 0.59914 3.1669 0.25678 1.1127 0.55635 2.2254 0.89872 3.2953 0.34237 1.1127 0.77033 2.0114 1.2839 2.7817-0.0856-0.12839-0.12839-0.21398-0.12839-0.25678v0.0428c0 0.0428 0.0428 0.08559 0.0856 0.17118 0 0.08559 0.0428 0.12839 0.0856 0.12839l-0.17118-3.2953c0.0856-0.34237 0.17118-0.89872 0.21398-1.669 0.0428-0.77033 0.0856-1.6262 0.12839-2.4822 0-0.85592 0.0428-1.6262 0.0856-2.3966 0-0.72753 0.0856-1.1983 0.17118-1.4551h4.0228c-0.17118 0.17118-0.29957 0.72753-0.29957 1.5835-0.0428 0.85592-0.0428 1.9258-0.0428 3.2097v4.0656c0 0.72753-0.0428 1.4123-0.0856 2.097s-0.0856 1.3267-0.12839 1.9686l0.64194 4.4508 0.0856 1.9258c-0.0856 1.3695-0.12838 2.5678-0.0428 3.5521 0.0856 0.98431 0 1.8402-0.17119 2.525l0.17119 2.311-5.9058 0.0428-0.85592-0.42796c-0.0856-0.34237-0.21398-1.0699-0.47076-2.1398l-0.85592-3.4237c-0.29957-1.2411-0.55635-2.4394-0.81312-3.5949-0.25678-1.1555-0.34237-2.0542-0.34237-2.6534-0.0856 0-0.21398-0.08559-0.29957-0.21398l-0.29957-0.38516c-0.0856-0.12839-0.17119-0.25678-0.25678-0.38516-0.0856-0.08559-0.12839-0.17118-0.12839-0.21398l0.17119 13.524h-3.4237z"/><path d="m232.52 9.1741-8.388 0.21398 0.55635 4.0656 1.4979 0.08559-0.21398 6.7618-0.0856 0.42796-3.0813 0.0428-0.72753-14.337 1.7974 0.17118c0 0.042796 0.17119 0.042796 0.47076 0.042796h0.81312l1.3695 0.042796c0.42796 0.085592 0.89871 0.12839 1.4123 0.12839 0.51355 0 0.9843-0.042796 1.4979-0.085592 0.47075-0.042796 0.89871-0.085592 1.3267-0.17118s0.77033-0.12839 1.0699-0.17118l0.21398-4.622-10.699-0.21398c0.0856 0.085592 0.0856 0.21398-0.0856 0.47076-0.17119 0.25678-0.42796 0.51355-0.68474 0.81312l-0.94151 0.98431c-0.34237 0.34237-0.55635 0.64194-0.72753 0.89872 0-0.042796-0.0856 0.042796-0.17119 0.25678-0.0856 0.21398-0.12838 0.34237-0.0856 0.38516l0.21398 20.414c-0.12839-0.12839-0.12839-0.12839 0.0428 0 0.17118 0.17118 0.38516 0.38516 0.64194 0.64194l0.81312 0.94151c0.25678 0.34237 0.47076 0.59914 0.64194 0.81312 0.0856 0.08559 0.25678 0.25678 0.42796 0.42796l0.55635 0.51355 0.47076 0.47076c0.12838 0.12839 0.21398 0.17118 0.21398 0.08559l9.8859-0.12839z"/><path d="m234.05 10.03c0.0428-0.17118 0.0428-0.68474 0.0428-1.4979-0.0428-0.77033-0.0856-1.669-0.12838-2.6106-0.0428-0.94151-0.0856-1.883-0.12839-2.7389-0.0856-0.85592-0.0856-1.4551-0.0856-1.7974l12.796 1.2839 0.72753 2.8673-5.7775 0.12839-0.51355 4.9215 6.0342 0.17118 0.38516 3.5093-7.9173 0.55635-0.21398 7.1469 8.3452 0.51355-0.55635 7.4465-13.395-0.68474v-2.1398c0-0.98431-0.0428-2.097-0.0428-3.2953v-3.8944-3.8088-3.0813c0-0.85592 0.0428-1.4123 0.12839-1.7118z"/><g transform="matrix(1.2081 -.09946 .12076 .99504 -.61565 0)" stroke-width=".86953" aria-label="something"><path d="m7.5882 26.368-1.2678 0.3576c-0.13004 0-0.3576 0.03251-0.65018 0.03251h-0.45512c-0.065018 0-0.097526-0.06502-0.16254-0.13004-0.065018-0.06502-0.065018-0.13004-0.032509-0.19505l0.42261-2.5357-4.2912 0.06502-1.2028 5.4615 1.4954 2.4057 5.624 0.32509c0-0.13004 0.13004-0.26007 0.39011-0.42261s0.45512-0.29258 0.58516-0.42261c0.13004-0.06502 0.29258-0.19505 0.48763-0.39011l0.61767-0.52014c0.19505-0.16254 0.39011-0.32509 0.55265-0.45512l0.22756-0.22756 1.5279-7.412-4.6162-3.0883 0.3576-2.9583h2.8283l-0.68269 2.4057 3.2509 0.13004 1.2678-5.559c-0.06502 0-0.13004-0.09753-0.22756-0.29258-0.13004-0.16254-0.26007-0.3576-0.3901-0.58516-0.16254-0.19505-0.32509-0.42262-0.45512-0.61767-0.16254-0.19505-0.29258-0.32509-0.42262-0.39011-0.065017-0.16254-0.19505-0.32509-0.3901-0.45512-0.19505-0.13004-0.32509-0.22756-0.3576-0.26007l-4.2261-0.06502-3.7385 2.3406-0.97526 4.9413-0.52014 2.6332 1.6579 0.97526 4.5187 2.4382z"/><path d="m24.337 10.488 1.3654 2.4707-3.4784 17.977-3.9011 0.81272-4.4537 0.45512c0.06502-0.13004 0.03251-0.26007-0.16254-0.45512-0.19505-0.16254-0.32509-0.32509-0.3576-0.45512-0.13004-0.06502-0.29258-0.19505-0.45512-0.3901l-0.48763-0.61767-0.42261-0.55265c-0.13004-0.16254-0.22756-0.22756-0.29258-0.22756l3.8685-17.165c0 0.13004 0.06502 0.13004 0.22756 0.06502 0.13004-0.06502 0.32509-0.16254 0.55265-0.29258s0.45512-0.26007 0.68268-0.42262c0.22756-0.13004 0.42261-0.26007 0.61767-0.32509 0.13004-0.16254 0.32509-0.32509 0.58516-0.48763 0.26007-0.13004 0.39011-0.19505 0.45512-0.19505zm-6.3717 6.0141-2.3731 9.07 3.0883-0.3576 1.3654-8.4848c0.26007-0.03251 0.39011-0.09753 0.39011-0.16254-0.03251-0.06502-0.06502-0.09753-0.09753-0.09753h-0.16254-0.3901-0.39011l-0.29258-0.03251z"/><path d="m38.538 31.904 3.6735-22.106-4.3237 1.4954-5.689 10.24 0.16254-0.39011 0.97526-9.8827-1.1703-0.19505-3.771-0.03251-6.0791 21.456 4.0311-0.39011 2.2106-8.9724-0.16254 8.6798 2.5682 0.3576 4.1611-9.265-2.2106 8.8424z"/><path d="m43.271 17.186c0.06502-0.13004 0.16254-0.52014 0.29258-1.1378 0.13004-0.58516 0.26007-1.2678 0.3901-1.983l0.3576-2.0806 0.26007-1.3654 9.4926 0.97526 0.03251 2.1781-4.3887 0.09753-1.2678 3.7385 4.5512 0.13004-0.32509 2.6657-6.1117 0.42261-1.3979 5.429 6.2417 0.39011-1.723 5.6565-10.078-0.52014 0.39011-1.6254 0.55265-2.5357 0.65018-2.9258 0.65018-2.8933c0.19505-0.87774 0.39011-1.6579 0.58516-2.3081 0.16254-0.65018 0.29258-1.1053 0.3901-1.3329z"/><path d="m57.972 17.073 0.42262 0.13004c-0.16254 0.26007-0.3576 0.78021-0.58516 1.5604-0.22756 0.78021-0.45512 1.6579-0.71519 2.6982-0.26007 1.0403-0.48763 2.1781-0.7477 3.3484-0.26007 1.1703-0.45512 2.3081-0.61767 3.4134-0.16254 1.1053-0.29258 2.0806-0.3576 2.9908-0.06502 0.91025-0.06502 1.5604 0.03251 1.983l4.5837-1.2028 4.6162-17.425 2.2106-0.09753c0.19505 0.03251 0.32509 0 0.39011-0.13004 0.06502-0.09753 0.09753-0.19505 0.16254-0.32509l0.32509-1.4304c0-0.16254 0.03251-0.3576 0.06502-0.55265s0.06502-0.3576 0.06502-0.52014-0.03251-0.29258-0.06502-0.39011c-0.06502-0.06502-0.13004-0.09753-0.22756-0.09753l-11.118 0.61767-1.1378 4.8763c0.06502 0.13004 0.13004 0.19505 0.22756 0.22756l0.19505 0.09753c0.06502 0.03251 0.19505 0.06502 0.39011 0.06502 0.19505 0.03251 0.45512 0.06502 0.71519 0.09753 0.26007 0.03251 0.48763 0.06502 0.71519 0.06502 0.22756 0.03251 0.39011 0.03251 0.48763 0.03251z"/><path d="m72.445 10.848-0.87774 0.13004-1.6905 0.22756-5.494 19.603c0.29258 0.65018 0.48763 1.0403 0.61767 1.2028 0.13004 0.19505 0.19505 0.26007 0.26007 0.26007l0.3576 0.03251h0.55265 0.48763c0.19505 0 0.29258 0 0.32509-0.03251 0.06502 0 0.16254-0.03251 0.29258-0.09753 0.13004-0.06502 0.19505-0.13004 0.22756-0.19505l1.9505-9.5576 4.6162 0.22756-2.4382 9.2325 4.7138 0.3576c0.03251-0.29258 0.16254-0.7477 0.3901-1.3654l0.71519-1.9505 0.68268-1.9505c0.19505-0.58516 0.32509-1.0403 0.32509-1.3654l3.3159-15.409-6.5018 0.81272-1.3654 5.7866-2.9258-0.03251z"/><path d="m83.96 10.475 3.3484 0.3901-4.4212 22.919-4.4212-1.6579z"/><path d="m89.786 10.654 3.9011 0.3901c-0.06502 0.48763-0.09753 1.1053-0.16254 1.853-0.06502 0.78021-0.06502 1.5604-0.06502 2.4057s0.03251 1.6905 0.09753 2.5032c0.06502 0.84523 0.19505 1.5279 0.45512 2.1131-0.03251-0.09753-0.03251-0.16254-0.03251-0.19505 0 0 0.03251 0 0.06502 0.03251 0 0.03251 0.03251 0.06502 0.06502 0.09753 0.03251 0.06502 0.06502 0.09753 0.13004 0.09753l0.22756-2.4707c0.13004-0.26007 0.26007-0.68268 0.45512-1.3004l0.52014-1.8855 0.48763-1.788c0.13004-0.55265 0.26007-0.91025 0.3901-1.1053h3.0558c-0.19505 0.13004-0.3576 0.55265-0.52014 1.2028-0.19505 0.68268-0.39011 1.4954-0.58516 2.4382l-0.71519 3.0883c-0.26007 1.1053-0.52014 2.1131-0.84523 3.0883l-0.29258 3.3809-0.29258 1.4629c-0.32509 1.0403-0.52014 1.918-0.61767 2.6657-0.13004 0.7477-0.32509 1.3979-0.61767 1.9505l-0.26007 1.7555-4.4862 0.03251-0.58516-0.32509v-1.6254-2.6007-2.7632c0-0.84523 0.06502-1.5279 0.19505-1.983-0.06502 0-0.13004-0.06502-0.19505-0.16254-0.06502-0.09753-0.13004-0.19505-0.16254-0.29258-0.06502-0.09753-0.09753-0.19505-0.13004-0.29258-0.03251-0.06502-0.06502-0.13004-0.06502-0.16254l-2.2431 10.273h-2.6007z"/><path d="m110.7 16.945-6.4367 0.16254-0.29258 3.0883 1.1378 0.06502-1.3329 5.1364-0.16254 0.32509-2.3406 0.03251 1.9505-10.89 1.3329 0.13004c0 0.03251 0.13004 0.03251 0.3576 0.03251h0.61766l1.0403 0.03251c0.32508 0.06502 0.68268 0.09753 1.0728 0.09753 0.3901 0 0.7477-0.03251 1.1378-0.06502 0.3576-0.03251 0.7152-0.06502 1.0403-0.13004 0.32508-0.06502 0.61766-0.09753 0.84522-0.13004l0.97527-3.511-8.0947-0.16254c0.065 0.06502 0.0325 0.16254-0.16255 0.3576s-0.42261 0.39011-0.68268 0.65018l-0.87774 0.7477c-0.32509 0.26007-0.55265 0.45512-0.68268 0.65018 0-0.03251-0.065 0.03251-0.16255 0.19505-0.13003 0.16254-0.16254 0.26007-0.16254 0.29258l-3.4134 15.507c-0.06502-0.09753-0.06502-0.09753 0.03251 0.03251 0.09753 0.13004 0.22756 0.29258 0.3576 0.48763l0.45512 0.68268c0.16254 0.26007 0.29258 0.45512 0.3576 0.61767 0.06502 0.06502 0.13004 0.19505 0.26007 0.32509l0.29258 0.39011c0.09753 0.13004 0.19505 0.26007 0.29258 0.32509 0.06502 0.09753 0.13004 0.13004 0.16254 0.09753l7.542-0.09753z"/></g></g></svg>
