<svg width="240" height="32" version="1.1" viewBox="0 0 240 32" xmlns="http://www.w3.org/2000/svg"><g transform="matrix(1.1538 0 0 1.1538 -.46153 -2.4615)" stroke-width=".48619" aria-label="somethingSTRANGE"><path d="m14.653 19.501 0.63785 8.7749-10.822 1.2123q-0.00711-0.08525-0.10249-1.2281-0.086815-1.1435-0.095403-1.4519l6.7601-0.49542-0.36719-3.7823-7.0187 0.99795-0.64495-8.7572 10.822-1.2123q0.0029 0.03411 0.08924 1.1777 0.09465 1.1343 0.11242 1.5536l-6.7558 0.44357 0.36575 3.7652z" stroke-width=".43817"/><path d="m14.499 13.537 10.876-1.1825 1.2411 14.976-10.814 1.1086zm5.1568 11.987 2.6793-0.30944-0.82302-9.9703-2.7219 0.313z" stroke-width=".43817"/><path d="m38.952 11.728 2.6437-0.83894 4.2624 14.441-3.9478 1.0594-3.1347-10.602q7.49e-4 9e-3 -0.23581 1.1876-0.23723 1.1706-0.44961 2.2274-0.20384 1.0561-0.42258 2.3454-0.21945 1.2807-0.27694 1.9296l-2.405 0.20071q-0.16424-0.63037-0.60147-1.8563-0.4287-1.2266-0.81402-2.2422-0.3775-1.0248-0.80405-2.1228-0.41874-1.1072-0.4294-1.1321l-1.3256 10.974-4.0773-0.38968 1.8098-14.948 2.7547 0.38842 1.8662-0.58513q0.37326 1.1797 1.2186 3.488 0.84459 2.2997 1.1723 3.1397 0.18396-0.88271 0.63568-3.2906 0.451-2.4164 0.62356-3.6417z" stroke-width=".43817"/><path d="m56.68 12.276-7.3137 0.96245 0.2349 2.6082 3.5947-0.45457 0.53068 4.095-3.7475 0.47591 0.27185 2.9487 7.136-0.93045 0.3059 2.4306-11.321 1.4085-1.34-14.616 11.343-1.3588z" stroke-width=".43817"/><path d="m75.111 6.641-14.013 1.2554 2.0128 18.974-4.0694 0.42547-2.0178-19.034-8.055 0.72375-0.36579-4.0744 26.143-2.3449zm0.58656 1.9863 1.3308 14.608-4.1163 0.37783-0.56503-6.2562-4.4837 0.60606 0.54297 5.9918-4.1078 0.37712-1.3315-14.617 4.1085-0.36864 0.56647 6.1702 4.4837-0.60606-0.54512-5.9144z" stroke-width=".43817"/><path d="m82.051 22.808-4.1085 0.36862-1.3393-14.608 4.1163-0.37787z" stroke-width=".43817"/><path d="m93.469 4.9715 1.6322 15.339-4.0175 0.42974-0.05618 0.04761q-0.33761-0.34109-0.69584-0.7234-0.34971-0.38303-0.61413-0.67012-0.26512-0.29562-0.6646-0.76037-0.39165-0.47399-0.58143-0.69002-0.18126-0.21674-0.63048-0.76321-0.4407-0.54719-0.55514-0.68363-0.10591-0.13716-0.6049-0.76535t-0.55656-0.70068l0.70002 5.8156-4.0651 0.47666-1.5893-13.178 4.0651-0.47666 0.01894 0.11865 0.0083-0.00932q0.39377 0.39652 0.7712 0.80299 0.37743 0.40648 0.78685 0.88757 0.41724 0.47185 0.69374 0.80087 0.28503 0.32831 0.74492 0.89966 0.46771 0.56211 0.65963 0.80372 0.20045 0.2409 0.71862 0.89326 0.51746 0.64384 0.65181 0.81296l-0.88888-8.2731z" stroke-width=".43817"/><path d="m108.31 20.617-12.628 1.0881-1.34-14.616 11.343-1.3588 0.30594 2.4305-7.3137 0.96246 0.38476 4.193 8.4096-1.1054zm-8.7382-1.7011 4.3893-0.40061-0.32864-3.3218-4.3494 0.56909z" stroke-width=".43817"/><path d="m124.74 16.047-0.10446 9.9613-12.079 0.35135q0-0.11395 0-1.6903 0.01-1.5858 0.0285-1.9372l4.5771 0.18992q0 0.09496-9e-3 0.28488 0 0.18992-0.01 0.28488l2.9628-0.10446-0.057-4.3017-7.8532 0.4653 0.095-9.9518 12.079-0.35135q0 0.066472-9e-3 2.1366 0 2.0606-0.019 2.5354l-4.5771-0.18992q0.0285-0.82615 0.0285-1.6143l-2.9628 0.10446 0.057 4.2827z"/><path d="m143.15 7.6435-13.142 0.085464 0.2374 21.167-4.5391 0.10446-0.2374-21.243-8.9452 0.056976-0.0285-4.5391 26.627-0.17093z"/><path d="m146.4 14.243q0.038 1.6713-0.91162 3.0197-0.9496 1.3389-2.4785 1.8802 1.7758 3.1052 3.4281 6.4858l-4.1213 2.0132q-2.0986-4.3017-4.3777-8.0906l-1.8612 0.06647 0.20891 6.1154-4.5391 0.15194-0.54127-16.381 9.8948-0.37984q1.3959-0.056976 2.6114 0.59825 1.2155 0.64573 1.9372 1.8232 0.7217 1.168 0.75019 2.5639zm-10.579-2.1746 0.16143 4.843 3.5325-0.10446q0.99708-0.02849 1.6808-0.75018 0.69321-0.73119 0.66472-1.7283v-0.06647q-0.0285-1.0066-0.76918-1.6903-0.74068-0.69321-1.7473-0.64573z"/><path d="m152.99 8.5551 4.1498-0.20891 5.6216 17.843-4.6056 0.07597-1.187-3.7509-6.049 0.34186q-1.0351 2.8583-1.4339 4.1308l-2.6684-0.51278q0.20891-1.0066 1.6333-5.0044 1.4244-4.0073 2.8678-8.0146 1.4529-4.0073 1.6713-4.8999zm-0.98758 11.31 4.0643-0.2279-1.8612-5.8875q-1.111 3.1337-2.2031 6.1154z"/><path d="m177.05 7.4631 0.38934 17.112-4.4821 0.10446-0.0665 0.04748q-0.56976-0.68371-1.1015-1.3769-0.53177-0.69321-1.168-1.5858-0.62673-0.90212-0.9306-1.3389-0.30388-0.43682-1.073-1.5953-0.76918-1.1585-0.92111-1.3769v8.9357l-4.5391 0.15194v-16.703l4.5391-0.16143v0.14244l0.019-0.018992q0.45581 0.55077 0.9496 1.1965 0.49379 0.63623 0.82615 1.0825 0.33236 0.44631 0.89262 1.2535 0.56027 0.80716 0.75019 1.1015 0.19941 0.28488 0.84514 1.244t0.75018 1.1205l-0.20891-9.2396z"/><path d="m191.44 26.132-13.494 0.03798-0.13294-16.286 13.579-0.31337q0 0.13294-9e-3 1.9562 0 1.8137-0.019 2.2221l-4.5771-0.18992q0.0285-0.65522 0.0285-1.2535l-4.3966 0.21841 0.038 4.672 8.8313-0.43682zm-8.9357-2.6874 4.3207-0.03798-0.057-3.7034-4.2922 0.21841z"/><path d="m196.47 22.296 8.5559-0.37984 0.19941 4.5771-12.953 0.56976-0.36084-15.564-0.076-1.7093 12.962-0.56976 0.19942 4.5771-8.5084 0.37034v1.5858l3.9788-0.18042 0.21841 4.5771-4.2162 0.18992z"/></g></svg>
