<svg width="213" height="32" version="1.1" viewBox="0 0 213 32" xmlns="http://www.w3.org/2000/svg"><g stroke-width=".80825" aria-label="somethingSTRANGE"><path d="m10.404 24.984c2.0368 0 3.718-1.6812 3.718-3.7503v-3.621c0-2.0368-1.6812-3.718-3.718-3.718h-3.6533c-0.06466 0-0.12932-0.06466-0.12932-0.12932v-0.77592l-0.90524-0.77592h4.6879c0.06466 0 0.09699 0.06466 0.09699 0.12932v0.71126l3.621 0.80825v-1.5195c0-2.0691-1.6812-3.7503-3.718-3.7503h-3.6533c-2.0691 0-3.7503 1.6812-3.7503 3.7503v1.4225c0 2.0691 1.6812 3.7503 3.7503 3.7503h3.6533c0.06466 0 0.09699 0.03233 0.09699 0.09699v3.0067l0.90524 0.74359h-4.6555c-0.06466 0-0.12932-0.03233-0.12932-0.12932v-2.2308l-3.621-0.90524v3.136c0 2.0691 1.6812 3.7503 3.7503 3.7503z"/><path d="m22.98 24.984c2.0368 0 3.718-1.6812 3.718-3.7503v-8.8908c0-2.0691-1.6812-3.7503-3.718-3.7503h-3.6533c-2.0691 0-3.7503 1.6812-3.7503 3.7503v8.8908c0 2.0691 1.6812 3.7503 3.7503 3.7503zm0-3.621h-3.6533c-0.06466 0-0.12932-0.03233-0.12932-0.12932v-8.2442l-0.90524-0.77592h4.6878c0.06466 0 0.09699 0.06466 0.09699 0.12932v8.8908c0 0.09699-0.03233 0.12932-0.09699 0.12932z"/><path d="m43.93 24.984v-12.964c0-1.8751-1.5195-3.427-3.427-3.427h-11.833l-0.03233 16.391h3.621v-11.994l-0.90524-0.77592h3.136v12.77h3.5886v-11.994l-0.87291-0.77592h3.1037v12.77z"/><path d="m53.144 24.984c2.0691 0 3.7503-1.6812 3.7503-3.718v-2.6511h-3.621v2.6511c0 0.06466-0.06466 0.09699-0.12932 0.09699h-3.6533c-0.06466 0-0.09699-0.03233-0.09699-0.12932l-0.03233-3.8149h7.5006v-5.0758c0-2.0691-1.6812-3.7503-3.718-3.7503h-3.6533c-2.0691 0-3.7503 1.6812-3.7503 3.7503 0 6.1427 0 2.5864 0.03233 8.9231 0 2.0368 1.6812 3.718 3.718 3.718zm0.09699-11.186h-3.8796v-0.80825l-0.90524-0.77592h4.6878c0.06466 0 0.09699 0.06466 0.09699 0.12932z"/><path d="m64.168 24.984 1.0022-3.621h-3.1037c-0.06466 0-0.12932-0.03233-0.12932-0.12932v-11.122l-0.90524-0.77592h1.9398v-3.621h-1.0346v-2.2631h-3.621v2.2631h-1.3255l-0.71126 3.621h2.0368v11.897c0 2.0691 1.6812 3.7503 3.7503 3.7503z"/><path d="m76.518 24.984v-12.641c0-2.0691-1.6812-3.7503-3.718-3.7503h-3.7826v-5.1081h-3.621v21.499h3.621v-11.994l-0.90524-0.77592h4.6879c0.06466 0 0.09699 0.06466 0.09699 0.12932v12.641z"/><path d="m82.273 24.984v-15.939h-3.621v15.939zm0-17.782v-3.718h-3.621v3.718z"/><path d="m95.819 24.984v-12.641c0-2.0691-1.6812-3.7503-3.718-3.7503h-7.3712l-0.03233 16.391h3.621v-11.994l-0.90524-0.77592h4.6878c0.06466 0 0.09699 0.06466 0.09699 0.12932v12.641z"/><path d="m105.55 32c1.8105 0 3.2653-1.4872 3.2653-3.2977v-1.3579c0-1.8105-1.4548-3.2653-3.233-3.2653h-4.2676v-1.2932c0-0.09699 0.0647-0.12932 0.12932-0.12932h3.6533c2.0368 0 3.718-1.6812 3.718-3.7503v-7.1773c1.0022-0.58194 1.7782-1.7458 1.7782-3.7826l-3.621 0.22631c0 0.12932 0 0.3233-0.0647 0.42029h-5.4638c-2.0691 0-3.7503 1.6812-3.7503 3.7503v6.563c0 0.71126 0.19398 1.3579 0.54961 1.9398-0.35563 0.54961-0.54961 1.2285-0.54961 1.9398v1.7135c0 1.7782 1.4225 3.2007 3.2007 3.2007h4.2999v0.67893h-1.9398l-1.2609 3.621zm-0.45262-12.964h-3.6533c-0.0647 0-0.12932-0.06466-0.12932-0.12932v-5.9164l-0.90524-0.77592h4.7848v6.6923c0 0.06466-0.0323 0.12932-0.097 0.12932z"/><path d="m120.03 24.984c2.1338 0 3.8473-1.7458 3.8473-3.8796v-4.3969c0-3.3623-5.1728-4.9465-8.1472-6.854-0.67893-0.45262-0.90524-0.71126-1.0022-0.84058v-2.1661c0-0.12932 0.097-0.22631 0.25864-0.22631h6.175l-0.90524 0.74359v1.9398l3.621 1.8105v-4.2676c0-2.1338-1.7135-3.8473-3.8473-3.8473h-5.0435c-2.1338 0-3.8796 1.7135-3.8796 3.8473v2.3278c0 3.2977 5.1082 4.7848 8.1148 6.7893 0.71126 0.48495 0.9699 0.77592 1.0346 0.87291v4.2676c0 0.16165-0.097 0.25864-0.22631 0.25864h-6.2074l0.90524-0.77592v-3.9766l-3.621-1.7135v6.2074c0 2.1338 1.7458 3.8796 3.8796 3.8796z"/><path d="m132.84 24.984v-17.62l-0.90524-0.74359h5.8194l-0.93757-3.621h-13.158l1.0022 3.621h4.5585v18.363z"/><path d="m152.49 24.984-3.0714-12.835c1.1639-0.61427 1.9398-1.8428 1.9398-3.233v-2.2631c0-2.0045-1.6488-3.6533-3.6533-3.6533h-9.1171v21.984h3.621v-12.382h3.5563l2.9097 12.382zm-4.7848-16.003h-5.4961v-1.6165l-0.90524-0.74359h6.4013c0.0323 0 0.0323 0 0.0323 0.03233v2.2631z"/><path d="m167.79 24.984-6.0134-21.984h-2.748l-6.0457 21.984h3.7503l1.3902-5.0758h4.5262l1.3902 5.0758zm-6.1104-8.6968h-3.1683l0.77592-0.58194 1.0992-5.8841z"/><path d="m181.23 24.984v-21.984h-3.621v12.964l-6.466-12.964h-2.6834v21.952h3.621v-12.027l6.0134 12.059z"/><path d="m192.32 24.984c2.1338 0 3.8473-1.7458 3.8473-3.8796v-10.701h-5.7871v3.621h2.1661v7.0803c0 0.16165-0.097 0.25864-0.22631 0.25864h-5.0435c-0.16165 0-0.25864-0.09699-0.25864-0.25864v-13.74l-0.90524-0.74359h6.2074c0.12932 0 0.22631 0.09699 0.22631 0.22631v2.2631h3.621v-2.2631c0-2.1338-1.7135-3.8473-3.8473-3.8473h-5.0435c-2.1338 0-3.8796 1.7135-3.8796 3.8473v14.258c0 2.1338 1.7458 3.8796 3.8796 3.8796z"/><path d="m210.01 24.984-1.1962-3.621h-6.7893v-8.0178l-0.90524-0.74359h5.981l-0.74359-3.621h-4.3322v-1.6165l-0.90524-0.74359h8.5674l-1.0346-3.621h-10.249v21.984z"/></g></svg>
