<svg width="184" height="32" version="1.1" viewBox="0 0 184 32" xmlns="http://www.w3.org/2000/svg"><g stroke-width=".61002"><path transform="translate(0 -1)" d="m11.412 20.574 0.53615 0.8221 0.17872 0.96508-0.05957 0.97699-0.25021 0.92934-0.46467 0.85785-0.58381 0.66722-0.72679 0.51233-0.8221 0.34552-0.84593 0.23829-1.1438-0.011915-1.1081-0.23829-1.0247-0.4885-0.79827-0.66721-0.76253-0.75062-0.53615-0.92934 1.0127-0.53616 1.0604-0.42892 1.0366-0.44084 0.67913 0.79828 1.0723 0.33361 0.79827-0.42892 0.071487-0.27404-0.011915-0.11915v-0.07149l-0.035743-0.14297-0.10723-0.095317-0.64339-0.45275-0.77445-0.5719-0.79827-0.54807-0.59573-0.61956-0.69104-0.4885-0.52424-0.67913-0.60764-1.3463-0.1668-0.79828-0.13106-0.81019 0.33361-1.0842 0.51233-0.97699 0.66721-0.90551 0.97699-0.47658 1.0127-0.35744 1.0723-0.13106 1.0723 0.1668 0.95316 0.53615 0.85785 0.6553 0.5719 0.71487 0.44084 0.81019 0.34552 0.86976-1.1081 0.29786-1.0961 0.34552-1.0842 0.42892-0.5719-1.0485-0.5719-0.40509-0.63147 0.30978-0.34552 0.45275 0.4885 1.0127 0.90551 0.66721 0.8221 0.58381 0.79827 0.61956 0.91742 0.77445 0.15489 0.33361z"/><path transform="translate(0 -1)" d="m23.195 19.537v1.0127l0.01191 1.0247-0.15489 1.0008-0.23829 0.98891-0.33361 0.95316-0.60764 0.81019-0.7387 0.66722-0.6553 0.47658-0.35744 0.14298-0.39318 0.15489-1.394 0.17872-0.03574 0.01192-0.01191-0.09532-0.01191 0.04766-1.4059-0.11915-0.39318-0.1668-0.32169-0.2502-0.7387-0.29786-0.70296-0.7387-0.64339-0.79828-0.36935-0.94125-0.14298-1.0247-0.09532-1.0008-0.05957-1.0247-0.05957-1.0127 0.02383-1.0247 0.0834-1.0127 0.01192-1.0247 0.33361-0.97699 0.36935-0.92933 0.52424-0.85785 0.7387-0.70296 0.70296-0.39318 0.36935-0.11914 0.38127-0.19063 1.394-0.14298 0.01191 0.02383 0.01191-0.02383 0.04766-0.05957-0.01191 0.05957 1.3702 0.22638 0.41701 0.04766 0.35744 0.17872 0.66722 0.44084 0.75062 0.66721 0.5719 0.83402 0.42892 0.91742 0.11914 1.0247 0.19063 1.0008v1.0127zm-3.4433 1.5251 0.01191-3.0501-0.07149-0.7387-0.05957-0.75062-0.50041-0.71487-0.1668-0.04766-0.0834-0.07149-0.03574-0.11914-0.51233 0.07149-0.05957-0.07149-0.47658 0.14297h-0.05957l-0.11915-0.04766-0.17872 0.07149-0.45275 0.78636-0.0834 0.7387-0.10723 0.75062 0.03574 3.0501 0.04766 0.75062 0.10723 0.7387 0.50041 0.69104 0.14298 0.11915 0.07149 0.07149h0.5719l0.05957 0.04766 0.51233 0.01192 0.03574-0.10723 0.09532-0.03574 0.1668-0.05957 0.45275-0.75062 0.14298-0.72679z"/><path transform="translate(0 -1)" d="m40.555 19.919 0.11915 1.1795-0.13106 1.1795 0.01191 0.95316 0.03574 0.94125-0.09532 0.95316 0.0834 0.95316-0.14297 0.88168-1.0842 0.05957-1.1438-0.07149-1.1795 0.02383 0.0834-0.98891 0.05957-0.94125v-0.94125l-0.04766-0.94125 0.09532-0.94125-0.03574-1.1795-0.03574-1.1915 0.07149-1.0604-0.07149-1.0604-0.41701-1.2629-0.35744-0.17872-0.19063-0.13106-0.30978-0.13106-1.0247 0.42892-0.64338 1.0485 0.01191 1.2034-0.04766 1.2153-0.05957 1.1795-0.02383 1.1795 0.0834 0.95316-0.02383 0.94125-0.0834 0.95316 0.02383 0.95316-0.05957 0.91742-1.12-0.05957-1.1438 0.04766-1.1081-0.09532 0.03574-0.90551 0.03574-0.94125-0.05957-0.94125 0.03574-0.94125 0.0834-0.92934 0.01191-1.1915-0.05957-1.1915 0.07149-1.0604-0.1668-1.0485-0.38126-1.251-0.32169-0.22638-0.19063-0.11915-0.32169-0.01191-1.12 0.21446-0.60764 1.1557-0.07149 0.95316 0.02383 0.95316 0.03574 0.96508-0.10723 0.95316v0.95316l0.07149 0.95316-0.01191 0.95316-0.02383 0.95316 0.04766 0.95316-0.09532 0.94125h-1.1319l-1.1438-0.11914-1.1795 0.07149-0.01192-1.0247 0.0834-0.98891 0.04766-0.98891v-0.98891l-0.04766-0.98891 0.04766-0.98891 0.07149-0.97699-0.11914-0.98891 0.14298-1.9778-0.07149-0.98891-0.03574-0.97699 0.11914-1.9778-0.01191-0.98891 1.1438-0.02383 1.1438-0.01191 1.1081 0.09532 0.03574 0.71487 0.90551-0.13106 0.92934-0.07149 0.86976 0.01191 0.90551 0.32169 1.12 0.86976 0.20255-0.19063 0.71487-0.54807 0.88168-0.21446 0.85785-0.23829 0.89359 0.01192 0.84593 0.0834 0.91742 0.26212 0.88168 0.42892 0.64338 0.7387 0.6553 0.90551 0.35744 1.0723 0.14298 1.1081 0.20255 0.84593 0.03574 0.86976z"/><path transform="translate(0 -1)" d="m49.479 23.35 0.84593 0.77445 0.83402 0.79828-0.60764 0.64338-0.71487 0.44084-0.70296 0.47658-1.4059 0.41701-1.3225 0.03574-1.3821-0.38127-0.70296-0.26212-0.53616-0.52424-0.59573-0.6553-0.5719-0.67913-0.42892-0.79828-0.2502-0.86976-0.1668-0.89359-0.13106-0.89359v-0.90551l-0.04766-0.90551 0.19063-1.0723 0.22638-1.0723 0.35744-1.0961 0.51233-1.0247 0.47658-0.72679 0.53616-0.67913 0.64339-0.59573 0.69104-0.30978 0.66722-0.36935 0.85785-0.07149 0.84593-0.01191 0.98891 0.41701 0.92934 0.53615 0.71487 0.79828 0.36935 0.64339 0.28595 0.53616 0.28595 1.2868 0.04766 0.97699-0.07149 0.98891-0.45275 0.86976-0.52424 0.90551-0.81019 0.6553-0.88168 0.5719-1.3106 0.20255-1.1915 0.10723-0.83402-0.10723 0.34552 0.77445 0.47658 0.92934 0.35744 0.15489 0.41701 0.09532 0.89359-0.1668 0.96508-0.69104zm-3.9795-6.0168-0.23829 0.75062 0.79828 0.05957 0.67913 0.04766 0.53616-0.11915 0.46467-1.1915-0.03574-0.54807-0.21446-0.27404-0.04766-0.19063-0.41701-0.23829-0.4885 0.09532-0.70296 0.89359z"/><path transform="translate(0 -1)" d="m67.553 23.112-0.17872 0.97699-0.03574 0.97699v0.97699l0.05957 1.0127-1.1557-0.15489-1.1438-0.03574-1.1676 0.0834 0.11914-0.98891-0.11914-0.97699 0.04766-0.96508-0.03574-0.96508v-0.977l0.02383-1.2153 0.19063-1.2153 0.01192-1.12-0.10723-1.1081-0.13106-0.7387-0.33361-0.6553-0.26212-0.36935-0.14297 0.02383-0.0834-0.0834-0.30978-0.04766-1.1319 0.28595-0.54807 1.0604 0.02383 1.0247 0.01191 1.0127-0.20255 1.0127-0.02383 1.0127 0.07149 1.0247 0.03574 1.0127v1.0127l-0.02383 1.0127-0.10723 1.0127 0.03574 1.0485-1.1676-0.03574-1.1438-0.02383-1.1081-0.10723-0.04766-0.94125 0.10723-0.96508-0.04766-0.97699 0.04766-0.97699-0.10723-0.97699 0.13106-0.96508 0.05957-0.96508-0.10723-0.97699 0.0834-0.96508 0.05957-0.97699 0.02383-0.96508-0.11914-0.97699 0.09532-0.96508 0.01191-0.97699 0.0834-0.96508-0.0834-0.97699v-0.33361l-0.29786-0.02383-0.88168-0.01191 0.01192 0.88168 0.0834 0.97699-0.15489 0.97699 0.1668 0.97699-0.19063 0.97699 0.1668 0.97699-0.25021 0.96508 0.09532 0.97699-0.11915 0.97699 0.14298 0.97699v0.97699l0.02383 0.96508-0.22638 0.97699 0.21446 0.97699-0.02383 0.97699-0.14297 0.96508-0.07149 0.97699 0.1668 0.96508 0.02383 0.97699-0.04766 1.0604-1.2153-0.03574h-1.1438l-1.0604-0.2502 0.01192-0.88168-0.04766-0.97699-0.05957-0.97699 0.09532-0.96508 0.03574-0.97699-0.07149-0.97699 0.0834-0.96508 0.01192-0.97699-0.09532-0.96508 0.11915-0.97699-0.11915-0.97699 0.05957-0.96508 0.04766-0.97699-0.09532-0.96508 0.0834-0.97699 0.07149-0.96508-0.01191-0.97699-0.05957-0.96508 0.04766-0.97699 0.03574-0.75062-0.4885-0.03574-0.95316 0.01192-0.96508 0.01191-0.03574-0.96508 0.04766-0.94125 0.04766-0.89359 0.90551-0.071487 0.96508 0.083402 0.52424-0.047658 0.04766-0.27403 0.04766-0.97699 0.01191-0.96508 0.02383-0.96508-0.15489-0.97699 0.17872-0.86976 1.0723-0.21446 1.1438 0.23829 1.12-0.083402 0.11915 0.95316-0.13106 0.97699 0.03574 0.97699 0.02383 0.97699-0.03574 0.97699v0.27403l0.75062-0.023829h0.38127l0.0834-0.7387-0.01191-0.92933 1.1081-0.13106 1.1438 0.10723 1.1915-0.071487-0.04766 1.0247 0.01192 0.64339h0.91742l0.95316-0.011914 0.95316 0.11915 0.98891-0.083402-0.02383 0.97699 0.05957 0.94125-0.02383 0.98891-1.0008-0.09532-0.95316 0.01192-0.96508-0.01192-0.95316 0.09532h-0.03574l0.01191 0.30978-0.02383 0.96508 0.89359-0.2502 0.94125-0.04766 0.89359 0.20255 0.47658 0.20255 0.41701 0.25021 0.90551 0.42892 0.6553 0.76253 0.52424 0.98891 0.42892 1.0366 0.10723 1.12 0.11914 0.86976-0.10723 0.88168 0.03574 0.86976 0.03574 1.2153-0.10723 1.2272z"/><path transform="translate(0 -1)" d="m71.139 12.21 1.1438 0.04766v0.97699l-0.03574 0.98891-0.07149 0.97699 0.07149 0.97699-0.07149 0.97699-0.02383 0.97699-0.09532 0.97699 0.07149 0.97699-0.03574 0.97699-0.11914 0.97699 0.07149 0.97699-0.0834 0.97699v0.97699l-0.0834 0.97699 0.01192 0.95316-1.12 0.05957-1.1438-0.03574-1.1081-0.03574-0.07149-0.95316 0.09532-0.97699v-0.98891l0.02383-0.98891 0.04766-0.97699 0.05957-0.97699-0.07149-0.98891 0.04766-0.97699 0.05957-0.97699 0.02383-0.98891 0.01192-0.97699 0.03574-0.97699 0.09532-0.98891 0.01191-0.97699-0.0834-1.0366 1.1915 0.05957zm1.3583-3.2527 0.02383 0.89359-0.02383 0.89359-0.90551 0.02383-0.89359-0.01192h-1.7991l-0.01192-0.90551 0.02383-0.90551v-1.7872l0.88168-0.023829 0.90551 0.023829 0.90551-0.023829h0.90551l-0.01191 0.91742z"/><path transform="translate(0 -1)" d="m83.423 19.049 0.07149 0.86976-0.0834 1.1795-0.02383 1.1795-0.04766 0.94125v0.95316l-0.02383 0.95316 0.01191 0.95316-0.02383 0.94125-1.1438-0.04766-1.1438 0.03574-1.1676-0.04766 0.02383-0.97699-0.02383-0.94125 0.11915-0.94125-0.0834-0.94125 0.14297-0.94125-0.05957-1.1795 0.01191-1.1795v-1.0723l0.03574-1.0604-0.44084-1.2868-0.33361-0.27404-0.23829-0.01191-0.30978 0.01191-1.0723 0.23829-0.70296 1.0842 0.01191 0.96508-0.07149 0.95316 0.05957 0.96508-0.01192 0.95316-0.03574 0.95316 0.07149 0.95316-0.04766 0.95316-0.09532 0.95316 0.01192 0.95316 0.02383 0.92934-1.1438 0.02383-1.1438-0.01192-1.1081-0.10723-0.04766-0.96508 0.07149-0.98891 0.03574-0.98891 0.01191-0.98891 0.01192-0.98891-0.04766-0.98891 0.04766-0.98891 0.03574-0.97699-0.02383-0.98891-0.03574-0.98891 0.07149-0.97699-0.01191-0.98891-0.02383-0.98891 0.05957-0.98891 0.01191-0.97699 1.1319 0.02383 1.1438-0.09532 1.1081 0.10723-0.01192 0.75062 0.95316-0.21446 0.92933-0.10723 0.84593 0.21446 0.91742 0.23829 0.78636 0.55998 0.70296 0.6553 0.72679 0.85785 0.28595 1.0961 0.27404 1.0842 0.0834 0.85785z"/><path transform="translate(0 -1)" d="m89.428 27.008h-0.01191l0.01191-0.01191zm4.9684-3.4314-0.0834 1.0723 0.01192 1.0604-0.05957 1.0723-0.05957 0.92934-0.14298 0.92933-0.58381 1.0008-0.64339 0.91742-0.96508 0.88168-0.59573 0.28595-0.53616 0.1668-1.0604 0.05957-1.0485 0.04766-1.0604-0.14298-1.0008-0.39318-0.90551-0.5719-0.79828-0.79827 0.85785-0.78636 0.90551-0.71487 0.81019-0.78636 0.69104 0.54807 0.85785 0.33361 0.94125-0.07149 0.17872-0.0834 0.09532-0.07149 0.17872-0.09532 0.28595-0.71487 0.0834-0.88168-1.3225 0.22638-0.04766-0.0834-0.02383 0.02383v0.09532l-1.3702-0.35744-0.41701-0.04766-0.38127-0.09532-0.60764-0.54807-0.8221-0.59573-0.58381-0.83402-0.33361-0.95316-0.32169-0.97699 0.01192-1.0366-0.1668-1.0127 0.11914-1.0127-0.03574-1.0247 0.0834-1.0127 0.01191-1.0247 0.23829-1.0008 0.42892-0.92933 0.54807-0.84593 0.81019-0.60764 0.61956-0.51232 0.4051-0.0834 0.39318-0.11915 1.3702-0.23829-0.02383-0.05957 0.04766 0.01191 0.04766 0.01192-0.01191 0.01191 1.4297 0.27404-0.05957-0.69104 1.1319-0.01192 1.1319-0.1668 1.1438 0.05957-0.07149 0.91742 0.15489 0.91742-0.11915 0.91742 0.09532 0.91742 0.01191 0.91742-0.0834 0.91742 0.14298 1.2153-0.10723 1.2391 0.11915 0.98891-0.02383 0.98891 0.03574 1.0247zm-3.5982-2.1327 0.14298-1.0366-0.13106-1.0366-0.02383-1.0366 0.04766-1.0366-0.23829-0.71487-0.35744-0.81019-0.20255 0.03574-0.04766-0.13106-0.07149-0.01191-0.50041-0.11914-0.05957 0.11914-0.4885 0.05957-0.07149-0.02383-0.0834 0.05957h-0.19063l-0.38127 0.81019-0.23829 0.70296-0.07149 0.75062 0.07149 1.1795 0.07149-0.01191-0.02383 0.35744v0.35744h-0.02383l-0.13106 1.1795 0.10723 0.75062 0.14298 0.7387 0.55998 0.64339 0.10723 0.1668 0.03574 0.10723 0.11915-0.10723 0.41701 0.13106 0.11915-0.01191 0.52424 0.02383 0.03574-0.11914 0.0834-0.04766 0.14298-0.10723 0.39318-0.72679z"/><path transform="translate(0 -1)" d="m99.853 10.458-0.05957 1.0127-0.05957 1.0008 0.01191 1.0008-0.05957 1.0008 0.03574 1.0247 1.1081-0.0834 1.2868 0.01191 0.55998 0.14298h0.53616l0.50041-0.05957h1.0842l1.0485 0.10723-0.0119 0.96508 0.0357 1.0008-0.0953 1.0008 0.0596 1.0008-0.0477 1.0008 0.0119 1.0008 0.0953 1.0008-0.0238 1.0008 0.0119 1.0008-0.11915 0.98891-0.0238 0.96508-0.95316 0.11914-0.977-0.1668-0.97699-0.01191-0.98891 0.07149-0.97699 0.03574-0.97699-0.14298-0.97699 0.04766-0.97699-0.10723-0.97699 0.11915-0.97699-0.0834 0.03574-1.1438-0.04766-1.1438 0.05957-1.1915 1.12-0.01191 1.0723 0.01191 1.0723 0.04766 1.0723 0.02383h1.0604l1.0723 0.0834-0.0476-2.0731 0.0357-1.0366-0.0715-1.0127-1.108 0.03574-1.2749-0.04766-0.55998-0.0834-0.54807 0.13106-0.50041-0.03574-1.0842-0.07149-1.0961 0.0834 0.10723-1.0127-0.04766-0.95316-0.11914-0.94125 0.14297-0.95316-0.04766-0.94125 0.14298-0.94125 0.01191-0.94125-0.10723-0.95316 0.11915-1.0127-1.1795 0.03574 0.07149-1.12 0.01191-1.1438 0.04766-1.1557 1.0008-0.035744 0.98891 0.047658 0.98891 0.10723 0.98891-0.14297 0.9889 0.047658 0.977 0.13106 0.98891-0.13106 0.9889 0.071487 0.977 0.095316 0.9889-0.10723 1.0127 0.059573-0.0477 1.1676 0.11915 1.1438-0.11915 1.0842-0.85785-0.01191-0.91742 0.13106-0.92933-0.04766-0.91742-0.11915-0.92934-0.01191h-0.91742z"/><path transform="translate(0 -1)" d="m118.42 9.41 0.0119 1.1915-1.0127-0.03574-0.96508 0.04766-0.95316-0.04766-0.90551-0.01192-0.10723 0.91742 0.0357 0.96508-0.0238 0.97699 0.0358 0.96508-0.17872 0.97699 0.0119 0.96508 0.10723 0.96508v0.97699l-0.0596 0.96508-0.11914 0.96508 0.0238 0.96508-0.0596 0.96508 0.14298 0.97699-0.15489 0.96508-0.0834 0.96508v0.96508l0.0119 0.91742-1.0961-0.01191-1.1438 0.03574-1.0842-0.11915-0.11914-0.90551 0.13106-0.96508-0.0238-0.97699-0.0238-0.96508-0.0119-0.96508 0.10723-0.96508 0.0596-0.96508v-0.97699l-0.0596-0.96508 0.11915-0.95316-0.0357-0.97699-0.0715-0.96508 0.0715-0.96508 0.0238-0.96508 0.13106-0.96508-0.0357-0.96508-0.0238-0.94125-0.92933 0.01191-0.95317-0.15489-0.95316-0.01192-1.0127 0.13106 0.14298-1.1915 0.0953-1.1438 0.0477-1.0842 0.92934-0.023829 0.9889 0.023829 1.9778-0.071488 0.98891 0.17872 0.9889-0.083402 0.977 0.071487 0.98891-0.11915 0.9889 0.095316 0.98891 0.023829h0.97699l0.0357 1.1438z"/><path transform="translate(0 -1)" d="m135.84 26.519 0.42892 1.0723 0.32169 1.0842-0.91742 0.23829-0.96508 0.14298-0.96507-0.09532-0.95317-0.09532-0.94125-0.27404-0.85785-0.45275-0.84593-0.47658-0.78636-0.53615-0.7387-0.63147-0.63147-0.7387-0.64339-0.71487-0.58381-0.77444-0.44084-0.86976-0.53615-0.86976-0.42893-0.92934-0.27403-0.97699-0.15489-0.63147-0.54807-0.01192-0.59573 0.05957-0.14297 0.95316 0.0238 1.0008 0.0357 0.98891 0.0238 1.0008-0.0596 1.0008 0.0119 0.98891-0.13106 0.91742-1.0842 0.07149-1.1438-0.10723-1.2034 0.09532 0.0953-1.0366 0.0119-0.97699-0.0596-0.96508 0.11914-0.97699 0.0715-0.96508-0.11914-0.96508 0.0357-0.97699 0.0119-0.96508 0.0119-0.96508 0.14297-0.96508-0.0357-0.96508-0.0477-0.97699 0.15489-0.96508-0.15489-0.96508 0.0596-0.97699 0.0715-0.96508 0.0238-0.98891-1.1557-0.01191-0.0119-1.1319 0.0834-1.1438 0.14297-1.0723 0.89359-0.023829 0.96508-0.011915 0.96508-0.047658 0.95316 0.1668 0.96508-0.035744 0.95317 0.059573 0.96507 0.011915 0.96508-0.071487 0.95317-0.047658 0.95316 0.13106v0.071487l0.83402-0.13106 0.90551-0.011915-0.0238 1.0604-0.0119 1.0008v0.98891l-0.13106 0.98891v1.0008l0.0238 0.98891-0.0834 1.0008 0.0477 0.98891-0.13106 0.98891 0.0834 0.98891-0.0477 1.0008-0.0238 0.98891-0.0119 0.94125h-1.0246l-1.0485 0.05957 0.34552 0.79828 0.44084 0.78636 0.48849 0.86976 0.66722 0.72679 0.6553 0.72679 0.6553 0.5719 0.69104 0.53615 0.81019 0.35744 1.1438 0.17872 1.0842-0.15489zm-12.069-9.9606 1.1676 0.05957 1.1319-0.02383 1.0961-0.05957 0.13106-0.96508-0.13106-1.0127-0.0119-1.0127 0.0357-1.0127 0.0119-1.0008 0.0238-0.95316-1.0604-0.10723h-1.1319l-1.108 0.01191-0.0834 1.0008 0.0477 1.0008-0.13106 1.0127 0.0715 1.0127-0.0477 1.0008zm19.993 8.7453 0.11915 0.91742-0.84594 0.17872-0.86976 0.17872-0.85784 0.21446-0.88168 0.02383-0.17872-0.91742-0.21446-0.96508-0.28595-0.94125-0.13106-0.97699-0.23829-0.95316-0.22638-0.95316-0.13106-0.47658h-3.6339l-0.22637 0.92934-0.30978 0.98891-0.92934-0.0834-0.91742-0.15489-0.9055-0.21446-0.94125-0.09532 0.35743-0.97699 0.2383-0.91742 0.13106-0.96508 0.27403-0.91742 0.26212-0.92933 0.15489-0.95316 0.32169-0.90551 0.34552-0.90551 0.26212-0.91742 0.19064-0.94125 0.26212-0.92934 0.2502-0.91742 0.34552-0.89359 0.20255-0.94125 0.15489-0.95316 0.34552-0.86976 1.0246 0.011915 1.0366 0.035744h1.0366l1.0127-0.011915 0.17872 0.90551 0.35744 0.91742 0.20255 0.96508 0.28594 0.94125 0.26212 0.95316 0.0715 1.0008 0.34552 0.92934 0.19064 0.96508 0.14297 0.97699 0.34552 0.92934 0.11915 0.98891 0.26212 0.94125 0.27403 0.95316 0.0834 0.98891 0.28594 0.94125 0.15489 0.97699 0.28595 0.94125 0.33361 0.92934zm-7.3036-8.7929-0.2502 0.84593h2.0493v-0.05957l-0.27403-0.92934-0.2383-0.95316-0.14297-0.97699-0.27403-0.89359-0.20255 0.98891-0.27404 1.0008z"/><path transform="translate(0 -1)" d="m156.98 13.949 0.0715 1.0008-0.0834 1.0008 0.0477 1.0008-0.0596 1.0008 0.0119 1.0008-0.0477 1.0008 0.0357 1.0008-0.0477 1.0008-0.0715 1.0008 0.0119 1.0008 0.0715 1.0008-0.0834 1.0008-0.0834 0.96508-1.1081-0.07149-1.1438 0.01191-1.1796 0.04766 0.0953-1.0485-0.10723-1.0127 0.13106-1.0127-0.0596-1.0127 0.0357-1.0247 0.13106-1.0127-0.10723-1.0127 0.14298-1.0247-0.64339-0.78636-0.51233-0.8221-0.55998-0.78636-0.50041-0.83402-0.55999-0.79828-0.48849-0.83402-0.53616-0.81019-0.0715 0.98891-0.0358 0.98891 0.14298 0.98891-0.0238 0.98891-0.0119 0.98891-0.0953 0.97699v0.98891l0.0477 0.98891-0.13106 0.97699-0.0119 0.97699 0.0238 0.98891v0.98891l-0.0238 0.97699v1.0485l-1.2034-0.03574-1.1438-0.02383-1.1795-0.03574-0.0119-1.0366 0.19063-0.98891-0.0357-0.98891 0.0119-0.97699-0.0357-0.98891 0.0238-0.98891 0.10723-0.97699-0.14298-0.98891 0.17872-0.97699-0.0119-0.98891-0.0715-0.98891-0.0238-0.97699v-0.98891l0.0715-0.97699 0.0834-0.98891-0.0357-0.98891v-0.95316l-0.7387-0.07149-0.73871 0.01191-0.13106-1.12 0.0238-1.1438 0.0715-1.1438 0.81019 0.083402 0.81019-0.083402v-0.083402l1.1438 0.047658 2.2876 0.02383 0.0238-0.059573 0.0834 0.035744 0.0596 0.047658 0.4051 0.92933 0.58381 0.8221 0.44084 0.90551 0.59573 0.8221 0.50041 0.88168 0.42892 0.91742 0.53616 0.81019 0.0715-0.95316v-0.96508l0.0953-0.97699-0.0953-0.96508-0.0119-0.96508 0.0715-0.98891 1.1676-0.059573 1.1438 0.10723 1.0842 0.035744 0.0477 0.94125-0.11914 1.0127 0.15488 1.0008-0.13106 1.0008-0.0238 1.0127-0.0596 1.0008z"/><path transform="translate(0 -1)" d="m168.31 15.617 1.0127 0.05957-0.0238 1.0127-0.0119 1.0008-0.0953 0.97699-0.0119 0.98891-0.0119 0.98891-0.0834 0.98891 0.0477 0.98891-0.0477 0.97699h-0.0477v1.1438l0.0357 1.1438-0.0357 1.1081-0.92934-0.03574-0.96507 0.11914-0.977-0.03574-0.96508-0.1668-0.97699 0.11915-0.96508 0.01191-0.96508-0.04766v-0.05957l-1.1438 0.13106-1.1438-0.07149-1.108-0.11915-0.10723-0.92934 0.0834-0.97699 0.0953-0.96508-0.0953-0.97699 0.0477-0.96508 0.0834-0.96508-0.0834-0.97699 0.17871-0.96508-0.0238-0.96508-0.11915-0.96508 0.0477-0.97699 0.13106-0.96508 0.0119-0.96508 0.0119-0.96508-0.0238-0.97699 0.0596-0.96508 0.0238-1.0247-1.1676 0.01191 0.0953-1.1081 0.0119-1.1438-0.0119-1.1795 1.0246-0.011915 0.98891 0.11915 0.98891-0.023829 0.9889-0.083402 0.98891 0.023829 0.977 0.14297h0.9889l0.98891-0.035744 0.98891 0.10723 0.97699-0.059573 0.95317 0.035744 0.0357 1.12 0.11915 1.1438-0.0119 1.1915-0.98891 0.03574-0.92933-0.14298-0.92934-0.03574-0.91742 0.13106-0.92933-0.15489-0.91742-0.01192-0.90551 0.05957 0.0477 1.0127-0.15489 1.0247 0.0477 1.0247-0.10723 1.0247 0.0953 0.98891 0.82211 0.05957 0.86976 0.01192 1.0604-0.04766 1.0604 0.04766 0.97699-0.01192zm-2.6689 6.839 0.0358-1.0961-0.0477-1.1081 0.0357-1.0723-0.75061 0.07149-0.82211-0.01192-0.8221-0.0834-0.79828-0.05957 0.0119 1.0842-0.0834 1.1081v1.1081l-0.0238 1.0723 1.0604 0.05957 1.0842-0.05957 1.0485 0.03574z"/><path transform="translate(0 -1)" d="m181.22 23.636 0.0477 1.1081 0.11915 1.1438-0.0477 1.1676h-1.0008l-0.977-0.14297-0.97699 0.04766-0.96508 0.03574-0.96508 0.01191-0.97699-0.15489-0.96508-0.02383v0.22638l-1.1438-0.14297-1.1438-0.07149-1.0842-0.02383-0.0119-0.90551-0.0357-0.97699 0.0119-0.96508-0.0357-0.97699 0.0953-0.96508 0.11915-0.96508-0.0715-0.97699-0.0238-0.96508 0.0477-0.96508 0.0596-0.96508-0.0715-0.97699 0.0357-0.96508-0.0357-0.96508 0.0596-0.96508-0.0238-0.97699 0.0715-0.96508 0.10723-1.0127-1.2391 0.07149v-1.1914l0.10724-1.1438 0.10723-1.12 0.97699 0.011914 0.98891 0.035744 0.9889-0.095316 0.98891 0.11915 0.98891 0.059573 0.98891-0.035744 0.97699 0.011915 0.98891-0.071487 0.98891 0.059573 0.97699 0.047658 0.97699 0.011915 0.0715 1.1319 0.0715 1.1438-0.11915 1.1081-0.89359 0.0834h-0.92933l-0.91743-0.05957-0.92933 0.03574-0.92933-0.03574h-0.91743l-0.95316-0.10723 0.0238 1.0842-0.0119 1.0723 0.0238 1.0604-0.19063 1.0604 0.0358 1.0961 0.9055-0.05957 0.84593 0.01192 1.0366 0.07149 1.0485 0.0834 1.0366-0.05957-0.0238 1.1438 0.1668 1.1438-0.11914 1.1319-1.0604-0.07149-1.0961 0.02383-1.0961-0.01191-0.83402-0.01191-0.81018 0.02383-0.13106 1.0485 0.15488 1.0723-0.13106 1.0723 0.0119 1.0723 0.95316-0.03574 0.95317-0.02383 0.95316 0.11914 0.95316 0.05957 0.95317-0.01191 0.96508-0.07149z"/></g></svg>
