<svg width="302" height="32" version="1.1" viewBox="0 0 302 32" xmlns="http://www.w3.org/2000/svg"><g stroke-width=".64" aria-label="somethingSTRANGE"><path d="m20.2 24h-19.2v-3.2h19.2q0.675 0 1.125-0.45 0.475-0.475 0.475-1.15t-0.475-1.125q-0.45-0.475-1.125-0.475h-6.4q-2 0-3.4-1.4-1.4-1.4-1.4-3.4t1.4-3.4q1.4-1.4 3.4-1.4h9.6v3.2h-9.6q-0.675 0-1.15 0.475-0.45 0.45-0.45 1.125t0.45 1.15q0.475 0.45 1.15 0.45h6.4q2 0 3.4 1.4t1.4 3.4-1.4 3.4-3.4 1.4z"/><path d="m33.975 24q-3.325 0-5.675-2.325-2.325-2.35-2.325-5.675t2.325-5.65q2.35-2.35 5.675-2.35t5.65 2.35q2.35 2.325 2.35 5.65t-2.35 5.675q-2.325 2.325-5.65 2.325zm0-3.2q2 0 3.4-1.4t1.4-3.4-1.4-3.4-3.4-1.4-3.4 1.4-1.4 3.4 1.4 3.4 3.4 1.4z"/><path d="m47.025 14.4v16h-3.2v-22.4h3.2l6.4 12 6.4-12h3.2v16h-3.2v-9.6l-4.8 9.6h-3.2z"/><path d="m88.375 17.6h-14.6v-3.2h14.6zm-5.8-9.6v3.2h-12.8v9.6h12.8v3.2h-16v-16z"/><path d="m93.875 11.2v19.2h-3.2v-19.2h-6.4v-3.2h16v3.2z"/><path d="m105.25 17.6v6.4h-3.2v-16h3.2v6.4h9.6v-6.4h3.2v16h-3.2v-6.4z"/><path d="m124.8 24h-3.2v-16h3.2z"/><path d="m131.58 12.8v17.6h-3.2v-22.4h3.2l9.6 11.2v-19.2h3.2v24h-3.2z"/><path d="m154.23 8h12.8l-1.6 3.2h-11.2q-2 0-3.4 1.4t-1.4 3.4 1.4 3.4 3.4 1.4h8.175l-1.775-3.2h-6.4v-3.2h8l9.6 17.6h-3.2l-4.45-8h-9.95q-3.325 0-5.675-2.325-2.325-2.35-2.325-5.675t2.325-5.65q2.35-2.35 5.675-2.35z"/><path d="m188.2 24h-17.455l-1.7454-3.2h19.2c0.45 0 0.825-0.15 1.125-0.45 0.31667-0.31667 0.475-0.7 0.475-1.15s-0.15833-0.825-0.475-1.125c-0.3-0.31667-0.675-0.475-1.125-0.475h-6.4c-1.3333 0-2.4667-0.46667-3.4-1.4s-1.4-2.0667-1.4-3.4 0.46667-2.4667 1.4-3.4c0.93333-0.93333 2.0667-1.4 3.4-1.4h9.6v3.2h-9.6c-0.45 0-0.83333 0.15833-1.15 0.475-0.3 0.3-0.45 0.675-0.45 1.125s0.15 0.83333 0.45 1.15c0.31667 0.3 0.7 0.45 1.15 0.45h6.4c1.3333 0 2.4667 0.46667 3.4 1.4s1.4 2.0667 1.4 3.4-0.46667 2.4667-1.4 3.4-2.0667 1.4-3.4 1.4z"/><path d="m203.08 11.2v12.8h-3.2v-12.8h-6.4v-3.2h16v3.2z"/><path d="m222.12 24-5.275-9.6h5.6q0.675 0 1.125-0.45 0.475-0.475 0.475-1.15t-0.475-1.125q-0.45-0.475-1.125-0.475h-8v12.8h-3.2v-16h11.2q2 0 3.4 1.4 1.4 1.4 1.4 3.4t-1.4 3.4-3.4 1.4h-0.7l3.55 6.4z"/><path d="m225.88 24 8-16.8 8 16.8h-3.6l-4.4-9.2-4.4 9.2z"/><path d="m245.88 12.8v11.2h-3.2v-16h3.2l9.6 11.2v-11.2h3.2v16h-3.2z"/><path d="m280.25 27.2-1.775-3.2h-9.95q-3.325 0-5.675-2.325-2.325-2.35-2.325-5.675t2.325-5.65q2.35-2.35 5.675-2.35h12.8l-1.6 3.2h-11.2q-2 0-3.4 1.4t-1.4 3.4 1.4 3.4 3.4 1.4h8.175l-1.775-3.2h-6.4v-3.2h8l6.975 12.8z"/><path d="m298.98 17.6h-8.8v-3.2h8.8zm0-9.6v3.2h-12.8v9.6h12.8v3.2h-16v-16z"/></g></svg>
