<svg width="300" height="32" version="1.1" viewBox="0 0 300 32" xmlns="http://www.w3.org/2000/svg"><path d="m163 0v32h137v-32zm8.0371 3h4.4082c1.1754 0 2.0979 0.040899 2.7695 0.12305 0.67164 0.082148 1.1759 0.28859 1.5117 0.61719 0.33582 0.32859 0.54495 0.82133 0.62891 1.4785 0.084 0.65719 0.12695 1.5609 0.12695 2.7109v1.2324c0 0.41074-0.0327 0.73793-0.0957 0.98437-0.063 0.24644-0.14506 0.43146-0.25 0.55469-0.10495 0.12322-0.24225 0.20502-0.41016 0.24609-0.14692 0.04107-0.31501 0.0625-0.5039 0.0625-0.18891 0-0.36726-0.01071-0.53516-0.03125-0.14692-0.04107-0.27201-0.12287-0.37695-0.24609-0.10495-0.12322-0.18899-0.30824-0.25196-0.55469-0.063-0.24644-0.0957-0.57559-0.0957-0.98633v-1.2617c0-0.53396-0.0308-0.96633-0.0937-1.2949-0.042-0.32859-0.1568-0.57398-0.3457-0.73828-0.16792-0.18483-0.42005-0.29877-0.75586-0.33984-0.33582-0.06161-0.77656-0.091797-1.3223-0.091797h-4.4082c-0.5457 0-0.98645 0.030186-1.3223 0.091797-0.33581 0.041073-0.59821 0.15501-0.78711 0.33984-0.16791 0.1643-0.28273 0.40969-0.3457 0.73828-0.042 0.32859-0.0625 0.76096-0.0625 1.2949v4.3125c0 0.53396 0.0205 0.96438 0.0625 1.293 0.063 0.32859 0.17779 0.58665 0.3457 0.77148 0.18891 0.1643 0.4513 0.27628 0.78711 0.33789 0.33582 0.04107 0.77657 0.0625 1.3223 0.0625h4.4082c1.1754 0 2.0979 0.0409 2.7695 0.12305 0.67164 0.08215 1.1759 0.28664 1.5117 0.61523 0.33582 0.3286 0.54495 0.82133 0.62891 1.4785 0.084 0.65719 0.12695 1.5716 0.12695 2.7422v4.3125c0 1.1501-0.043 2.0538-0.12695 2.7109-0.063 0.65719-0.26184 1.1499-0.59766 1.4785-0.33581 0.30806-0.85034 0.50379-1.543 0.58594-0.67163 0.08215-1.5942 0.12305-2.7695 0.12305h-4.4082c-1.1754 0-2.0979-0.0409-2.7695-0.12305-0.67163-0.08215-1.1759-0.28859-1.5117-0.61719-0.33617-0.32859-0.54696-0.82133-0.63091-1.4785s-0.125-1.5609-0.125-2.7109v-0.61524c0-0.53396 0.0205-0.96633 0.0625-1.2949 0.063-0.32859 0.17974-0.57398 0.34766-0.73828 0.1889-0.18483 0.45129-0.29877 0.78711-0.33984 0.33581-0.06161 0.77656-0.0918 1.3223-0.0918s0.98645 0.03019 1.3223 0.0918c0.33581 0.04107 0.58599 0.15501 0.7539 0.33984 0.18891 0.1643 0.30568 0.40969 0.34766 0.73828 0.063 0.32859 0.0937 0.76096 0.0937 1.2949v0.61524c0 0.53396 0.0205 0.96633 0.0625 1.2949 0.063 0.32859 0.17974 0.5847 0.34766 0.76953 0.1889 0.1643 0.45127 0.27823 0.78711 0.33984 0.33581 0.04107 0.77656 0.06055 1.3223 0.06055h1.8887c0.54571 0 0.98645-0.01947 1.3223-0.06055 0.33581-0.06161 0.58795-0.17555 0.75586-0.33984 0.1889-0.18483 0.30372-0.43023 0.3457-0.73828 0.063-0.32859 0.0937-0.77167 0.0937-1.3262v-4.2812c0-0.5545-0.0308-0.99563-0.0937-1.3242-0.042-0.32859-0.1568-0.57594-0.3457-0.74024-0.16792-0.18483-0.42005-0.29682-0.75586-0.33789-0.33582-0.06161-0.77656-0.09375-1.3223-0.09375h-4.4082c-1.1754 0-2.0979-0.0409-2.7695-0.12305-0.67163-0.08215-1.1759-0.28664-1.5117-0.61523-0.33582-0.32859-0.54691-0.82133-0.63086-1.4785-0.08361-0.65719-0.12495-1.5609-0.12495-2.7109v-4.3125c0-1.1501 0.041-2.0538 0.125-2.7109 0.084-0.65719 0.29505-1.1499 0.63086-1.4785 0.33582-0.32859 0.84009-0.53504 1.5117-0.61719s1.5942-0.12305 2.7695-0.12305zm13.568 0h13.854c0.79757 0 1.3121 0.09251 1.543 0.27734 0.23088 0.18483 0.34571 0.51398 0.34571 0.98633 0 0.45182-0.11483 0.77024-0.34571 0.95508-0.23088 0.1643-0.74541 0.24609-1.543 0.24609h-1.2598c-0.5457 0-0.98645 0.030186-1.3223 0.091797-0.33581 0.041073-0.59821 0.15501-0.78711 0.33984-0.16791 0.1643-0.28273 0.40969-0.3457 0.73828-0.042 0.32859-0.0625 0.76096-0.0625 1.2949v18.482c0 0.53396-0.0327 0.96633-0.0957 1.2949-0.042 0.32859-0.1568 0.5847-0.34571 0.76953-0.1889 0.1643-0.47177 0.27628-0.84961 0.33789-0.35677 0.04107-0.85081 0.0625-1.4805 0.0625-0.65065 0-1.1652-0.02143-1.543-0.0625-0.37779-0.06161-0.67098-0.17359-0.88086-0.33789-0.1889-0.18483-0.31594-0.44094-0.37891-0.76953-0.063-0.32859-0.0937-0.76096-0.0937-1.2949v-18.482c0-0.53396-0.0308-0.96633-0.0937-1.2949-0.042-0.32859-0.15875-0.57398-0.34765-0.73828-0.16792-0.18483-0.4181-0.29877-0.75391-0.33984-0.33582-0.06161-0.77657-0.091797-1.3223-0.091797h-1.8906c-0.79757 0-1.3101-0.081797-1.541-0.24609-0.23088-0.18483-0.34765-0.50326-0.34765-0.95508 0-0.47235 0.11677-0.80149 0.34765-0.98633 0.23028-0.18483 0.74336-0.27734 1.5409-0.27734zm22.982 0h5.0371c1.1754 0 2.0998 0.040899 2.7715 0.12305 0.67164 0.082148 1.1759 0.28859 1.5117 0.61719 0.33582 0.32859 0.54496 0.82133 0.62891 1.4785 0.084 0.65719 0.12695 1.5609 0.12695 2.7109v4.3125c0 0.3902 0.041 0.70863 0.125 0.95508 0.084 0.24644 0.18852 0.45094 0.31446 0.61523 0.14692 0.14376 0.31501 0.2577 0.5039 0.33984 0.1889 0.08215 0.39999 0.16394 0.63086 0.24609 0.20989 0.08215 0.40877 0.17466 0.59766 0.27734 0.20989 0.08215 0.37798 0.20484 0.5039 0.36914 0.14693 0.14376 0.26175 0.33949 0.34571 0.58594 0.0839 0.22591 0.125 0.53362 0.125 0.92383v9.8574c0 0.53396-0.031 0.96633-0.0937 1.2949-0.042 0.32859-0.1568 0.5847-0.34571 0.76953-0.16791 0.1643-0.42004 0.27628-0.75586 0.33789-0.33581 0.04107-0.77656 0.0625-1.3223 0.0625h-0.62891c-0.5457 0-0.98645-0.02143-1.3223-0.0625-0.33582-0.06161-0.59822-0.17359-0.78711-0.33789-0.16792-0.18483-0.28469-0.44094-0.34766-0.76953-0.042-0.32859-0.0625-0.76096-0.0625-1.2949v-6.7148c0-0.5545-0.0309-0.99758-0.0937-1.3262-0.042-0.32859-0.15875-0.58469-0.34766-0.76953-0.16791-0.18483-0.42004-0.29682-0.75585-0.33789-0.33582-0.06161-0.77657-0.09375-1.3223-0.09375h-1.8887c-0.5457 0-0.98645 0.03214-1.3223 0.09375-0.33581 0.04107-0.59821 0.15306-0.78711 0.33789-0.16791 0.1643-0.28273 0.41164-0.3457 0.74024-0.042 0.32859-0.0625 0.759-0.0625 1.293v6.7773c0 0.53396-0.0327 0.96633-0.0957 1.2949-0.042 0.32859-0.1568 0.5847-0.34571 0.76953-0.16791 0.1643-0.42004 0.27628-0.75586 0.33789-0.33581 0.04107-0.77656 0.0625-1.3223 0.0625h-0.62891c-0.5457 0-0.98645-0.02143-1.3223-0.0625-0.33582-0.06161-0.59822-0.17359-0.78711-0.33789-0.16792-0.18483-0.28274-0.44094-0.34571-0.76953-0.042-0.32859-0.0644-0.76096-0.0644-1.2949v-18.482c0-1.1501 0.043-2.0538 0.12695-2.7109 0.084-0.65719 0.2931-1.1499 0.62891-1.4785 0.33582-0.32859 0.84009-0.53504 1.5117-0.61719 0.67088-0.082148 1.594-0.12305 2.7694-0.12305zm23.928 0h4.0938c1.1754 0 2.0979 0.040899 2.7695 0.12305 0.67163 0.082148 1.1759 0.28859 1.5117 0.61719 0.33583 0.32859 0.54496 0.82133 0.62891 1.4785 0.084 0.65719 0.12695 1.5609 0.12695 2.7109v19.1c0 0.78041-0.0943 1.2926-0.2832 1.5391-0.16791 0.22591-0.49383 0.33984-0.97656 0.33984-0.48274 0-0.81892-0.11394-1.0078-0.33984-0.16792-0.24644-0.25196-0.75865-0.25196-1.5391v-7.3945c0-0.53396-0.0308-0.96438-0.0937-1.293-0.042-0.32859-0.15875-0.57594-0.34765-0.74024-0.16792-0.18483-0.4181-0.29682-0.75391-0.33789-0.33582-0.06161-0.77657-0.09375-1.3223-0.09375h-4.0938c-0.5457 0-0.98644 0.03214-1.3223 0.09375-0.33582 0.04107-0.59821 0.15306-0.78711 0.33789-0.16791 0.18484-0.28274 0.44094-0.3457 0.76953-0.042 0.32859-0.0645 0.77167-0.0645 1.3262v6.7148c0 0.53396-0.0311 0.96633-0.0937 1.2949-0.042 0.32859-0.1568 0.5847-0.3457 0.76953-0.16791 0.1643-0.42005 0.27628-0.75586 0.33789-0.33582 0.04107-0.77656 0.0625-1.3223 0.0625h-0.62891c-0.5457 0-0.98645-0.02143-1.3223-0.0625-0.33582-0.06161-0.59821-0.17359-0.78711-0.33789-0.16791-0.18483-0.28468-0.44094-0.34765-0.76953-0.042-0.32859-0.0625-0.76096-0.0625-1.2949v-7.7012c0-0.39021 0.043-0.69792 0.12695-0.92383 0.084-0.24644 0.18852-0.44218 0.31445-0.58594 0.14693-0.1643 0.31502-0.28699 0.50391-0.36914 0.1889-0.10269 0.39804-0.1952 0.62891-0.27734 0.20989-0.08215 0.40876-0.16395 0.59765-0.24609 0.20989-0.08215 0.37798-0.19608 0.50391-0.33984 0.14692-0.1643 0.26175-0.36879 0.3457-0.61523 0.084-0.24644 0.12696-0.56487 0.12696-0.95508v-6.4688c0-1.1501 0.041-2.0538 0.125-2.7109 0.0839-0.65719 0.29503-1.1499 0.63086-1.4785 0.33581-0.32859 0.84008-0.53504 1.5117-0.61719 0.6714-0.082148 1.5941-0.12305 2.7695-0.12305zm14.168 0h0.62891c0.37779 0 0.68123 0.010712 0.91211 0.03125s0.44197 0.091622 0.63086 0.21484c0.20989 0.10269 0.42931 0.27699 0.66015 0.52344 0.25187 0.24644 0.56753 0.59701 0.94532 1.0488l7.2715 8.6855c0.35681 0.41074 0.6622 0.61719 0.91406 0.61719 0.41978 0 0.62891-0.42165 0.62891-1.2637v-8.0098c0-0.78041 0.084-1.2819 0.25195-1.5078 0.18891-0.22591 0.52509-0.33984 1.0078-0.33984s0.80865 0.11394 0.97656 0.33984c0.1889 0.22591 0.2832 0.7274 0.2832 1.5078v22.182c0 0.78041-0.0943 1.2819-0.2832 1.5078-0.16791 0.22591-0.49383 0.33984-0.97656 0.33984-0.48274 0-0.81892-0.11394-1.0078-0.33984-0.16791-0.22591-0.25195-0.7274-0.25195-1.5078v-5.5449c0-0.57504-0.0104-1.0269-0.0312-1.3555 0-0.32859-0.041-0.61684-0.125-0.86328s-0.21099-0.48308-0.37891-0.70898c-0.16791-0.24644-0.40783-0.55416-0.72265-0.92383l-9.4766-11.275c-0.23089-0.26698-0.43171-0.452-0.59961-0.55469-0.14693-0.10269-0.33554-0.1543-0.56641-0.1543-0.23088 0-0.40923 0.073038-0.53516 0.2168-0.10494 0.14376-0.15625 0.42129-0.15625 0.83203v20.332c0 0.78041-0.0943 1.2819-0.2832 1.5078-0.16791 0.22591-0.49383 0.33984-0.97656 0.33984-0.48274 0-0.81892-0.11394-1.0078-0.33984-0.16792-0.22591-0.25196-0.7274-0.25196-1.5078v-21.564c0-0.53396 0.0205-0.96633 0.0625-1.2949 0.063-0.32859 0.17975-0.57398 0.34766-0.73828 0.1889-0.18483 0.4513-0.29877 0.78711-0.33984 0.33582-0.061611 0.77656-0.091797 1.3223-0.091797zm22.666 0h6.9902c1.1544 0 2.0666 0.040899 2.7383 0.12305 0.67165 0.082148 1.1656 0.28859 1.4805 0.61719 0.33582 0.32859 0.54496 0.82133 0.62891 1.4785 0.084 0.65719 0.12695 1.5609 0.12695 2.7109v0.30664c0 0.47235-0.0327 0.85311-0.0957 1.1406-0.042 0.26698-0.1568 0.48219-0.3457 0.64648-0.16792 0.14376-0.42005 0.24698-0.75586 0.30859-0.33582 0.04107-0.77657 0.06055-1.3223 0.06055s-0.98645-0.01947-1.3223-0.06055c-0.33582-0.06161-0.59822-0.16483-0.78711-0.30859-0.16792-0.1643-0.28274-0.3795-0.34571-0.64648-0.042-0.28752-0.0625-0.66827-0.0625-1.1406v-0.55469c0-0.53396-0.0327-0.96438-0.0957-1.293-0.042-0.32859-0.1568-0.57594-0.3457-0.74023-0.16792-0.18483-0.42005-0.29682-0.75586-0.33789-0.33582-0.061611-0.77656-0.091797-1.3223-0.091797h-1.2598c-0.54571 0-0.98645 0.030186-1.3223 0.091797-0.33582 0.041073-0.59821 0.15306-0.78711 0.33789-0.16791 0.1643-0.28273 0.41164-0.3457 0.74023-0.042 0.32859-0.0625 0.759-0.0625 1.293v16.266c0 0.53396 0.0205 0.96633 0.0625 1.2949 0.063 0.32859 0.17779 0.5847 0.3457 0.76953 0.1889 0.1643 0.4513 0.27823 0.78711 0.33984 0.33582 0.04107 0.77656 0.06055 1.3223 0.06055h4.0938c0.5457 0 0.98645-0.01947 1.3223-0.06055 0.33582-0.06161 0.58795-0.17555 0.75586-0.33984 0.1889-0.18483 0.30374-0.44094 0.3457-0.76953 0.063-0.32859 0.0937-0.76096 0.0938-1.2949v-4.3125c0-0.53396-0.0308-0.96438-0.0938-1.293-0.042-0.32859-0.1568-0.57594-0.3457-0.74024-0.16791-0.18483-0.42004-0.29682-0.75586-0.33789-0.33581-0.06161-0.77656-0.09375-1.3223-0.09375h-0.94532c-0.62965 0-1.0479-0.0818-1.2578-0.24609-0.20989-0.18483-0.3164-0.51398-0.3164-0.98633s0.10651-0.78883 0.3164-0.95312c0.20989-0.18483 0.62816-0.27734 1.2578-0.27734h0.94532c1.1754 0 2.0979 0.0409 2.7695 0.12305 0.67163 0.08215 1.1759 0.28664 1.5117 0.61523 0.33581 0.3286 0.54495 0.82133 0.6289 1.4785 0.084 0.65719 0.12696 1.5609 0.12696 2.7109v4.3125c0 1.1501-0.043 2.0538-0.12696 2.7109-0.084 0.65719-0.29309 1.1499-0.6289 1.4785-0.31483 0.32859-0.80884 0.53504-1.4805 0.61719-0.67163 0.08215-1.5942 0.12305-2.7695 0.12305h-7.2734c-1.1754 0-2.0979-0.0409-2.7695-0.12305-0.67164-0.08215-1.1759-0.28859-1.5117-0.61719-0.33582-0.32859-0.54495-0.82133-0.62891-1.4785-0.084-0.65719-0.12695-1.5609-0.12695-2.7109v-16.018c0-1.1501 0.043-2.0538 0.12695-2.7109 0.084-0.65719 0.2931-1.1499 0.62891-1.4785 0.33582-0.32859 0.84008-0.53504 1.5117-0.61719 0.67163-0.082148 1.5942-0.12305 2.7695-0.12305zm19.836 0h6.9258c0.79756 0 1.3121 0.09251 1.543 0.27734 0.23088 0.1643 0.3457 0.48272 0.3457 0.95508s-0.11482 0.80149-0.3457 0.98633c-0.23088 0.1643-0.74541 0.24609-1.543 0.24609h-6.9258c-0.5457 0-0.98645 0.030186-1.3223 0.091797-0.33582 0.041073-0.59821 0.15501-0.78711 0.33984-0.16791 0.1643-0.28469 0.40969-0.34765 0.73828-0.042 0.32859-0.0625 0.76096-0.0625 1.2949v4.3125c0 0.53396 0.0205 0.96438 0.0625 1.293 0.063 0.32859 0.17974 0.58665 0.34765 0.77148 0.1889 0.1643 0.4513 0.27628 0.78711 0.33789 0.33582 0.04107 0.77657 0.0625 1.3223 0.0625h6.9258c0.79756 0 1.3121 0.09251 1.543 0.27734 0.23088 0.1643 0.3457 0.48077 0.3457 0.95312s-0.11482 0.80149-0.3457 0.98633c-0.23088 0.1643-0.74541 0.24609-1.543 0.24609h-3.7793c-0.5457 0-0.98645 0.03214-1.3223 0.09375-0.33582 0.04107-0.59822 0.15306-0.78711 0.33789-0.16792 0.1643-0.28274 0.41164-0.34571 0.74024-0.042 0.32859-0.0625 0.759-0.0625 1.293v4.3125c0 0.53396 0.0205 0.96633 0.0625 1.2949 0.063 0.32859 0.17779 0.5847 0.34571 0.76953 0.1889 0.1643 0.45129 0.27823 0.78711 0.33984 0.33581 0.04107 0.77656 0.06055 1.3223 0.06055h3.7793c0.79756 0 1.3121 0.09251 1.543 0.27734 0.23088 0.1643 0.3457 0.48272 0.3457 0.95508s-0.11482 0.8015-0.3457 0.98633c-0.23088 0.1643-0.74541 0.24609-1.543 0.24609h-6.9258c-1.1754 0-2.0998-0.0409-2.7715-0.12305-0.67164-0.08214-1.1759-0.28859-1.5117-0.61719-0.33581-0.32859-0.54495-0.82133-0.6289-1.4785-0.084-0.65719-0.12696-1.5609-0.12696-2.7109v-16.018c0-1.1501 0.043-2.0538 0.12696-2.7109 0.084-0.65719 0.29309-1.1499 0.6289-1.4785 0.33582-0.32859 0.84009-0.53504 1.5117-0.61719 0.67164-0.082148 1.5961-0.12305 2.7715-0.12305zm-80.598 2.4648c-0.5457 0-0.98643 0.030186-1.3223 0.091797-0.33581 0.041073-0.59821 0.15501-0.7871 0.33984-0.16792 0.1643-0.28274 0.40969-0.34571 0.73828-0.042 0.32859-0.0625 0.76096-0.0625 1.2949v4.3125c0 0.53396 0.0205 0.96438 0.0625 1.293 0.063 0.32859 0.17779 0.58665 0.34571 0.77148 0.1889 0.1643 0.45129 0.27628 0.7871 0.33789 0.33583 0.04107 0.77657 0.0625 1.3223 0.0625h5.0391c0.54571 0 0.98645-0.02143 1.3223-0.0625 0.33582-0.06161 0.58604-0.17359 0.7539-0.33789 0.18891-0.18484 0.30568-0.44289 0.34766-0.77148 0.063-0.32859 0.0937-0.75901 0.0937-1.293v-4.3125c0-0.53396-0.0309-0.96633-0.0937-1.2949-0.042-0.32859-0.15875-0.57398-0.34766-0.73828-0.16791-0.18483-0.41809-0.29877-0.7539-0.33984-0.33582-0.06161-0.77656-0.091797-1.3223-0.091797zm23.928 0c-0.5457 0-0.98644 0.030186-1.3223 0.091797-0.33582 0.041073-0.59821 0.15501-0.78711 0.33984-0.16791 0.1643-0.28274 0.40969-0.3457 0.73828-0.042 0.32859-0.0645 0.76096-0.0645 1.2949v4.3125c0 0.53396 0.0225 0.96438 0.0645 1.293 0.063 0.32859 0.17779 0.58665 0.3457 0.77148 0.1889 0.1643 0.4513 0.27628 0.78711 0.33789 0.33582 0.04107 0.77659 0.0625 1.3223 0.0625h4.0938c0.5457 0 0.98644-0.02143 1.3223-0.0625 0.33582-0.06161 0.586-0.17359 0.75391-0.33789 0.1889-0.18484 0.30567-0.44289 0.34765-0.77148 0.063-0.32859 0.0937-0.75901 0.0937-1.293v-4.3125c0-0.53396-0.0308-0.96633-0.0937-1.2949-0.042-0.32859-0.15875-0.57398-0.34765-0.73828-0.16792-0.18483-0.4181-0.29877-0.75391-0.33984-0.33582-0.06161-0.77658-0.091797-1.3223-0.091797zm20.148 15.834h0.63086c0.5457 0 0.98645 0.03019 1.3223 0.0918 0.33581 0.04107 0.58795 0.15501 0.75586 0.33984 0.1889 0.1643 0.30372 0.40969 0.3457 0.73828 0.063 0.32859 0.0937 0.76096 0.0937 1.2949v2.7715c0 0.53396-0.0308 0.96633-0.0937 1.2949-0.042 0.32859-0.1568 0.5847-0.3457 0.76953-0.16792 0.1643-0.42005 0.26752-0.75586 0.30859-0.33582 0.061602-0.77657 0.091794-1.3223 0.091794h-0.63086c-0.5457 0-0.98645-0.03019-1.3223-0.0918-0.33582-0.04107-0.59822-0.1443-0.78711-0.30859-0.16792-0.18483-0.28274-0.44094-0.34571-0.76953-0.042-0.32859-0.0625-0.76096-0.0625-1.2949v-2.7715c0-0.53396 0.0205-0.96633 0.0625-1.2949 0.063-0.32859 0.17779-0.57398 0.34571-0.73828 0.1889-0.18483 0.4513-0.29877 0.78711-0.33984 0.33581-0.06161 0.77656-0.0918 1.3223-0.0918z" stroke-width="1.221"/><g transform="scale(3.7795)" stroke-width=".20377" aria-label="something"><path d="m0.79375 2.0979q0-0.45644 0.032603-0.71726 0.032603-0.26082 0.16301-0.39123 0.13041-0.13041 0.39123-0.16301 0.26082-0.032603 0.71726-0.032603h1.1411q0.45644 0 0.71726 0.032603 0.26082 0.032603 0.39123 0.16301 0.13041 0.13041 0.16301 0.39123 0.032603 0.26082 0.032603 0.71726v0.32603q0 0.16301-0.024452 0.26082-0.024452 0.097808-0.065205 0.14671t-0.10596 0.065205q-0.057055 0.016301-0.13041 0.016301-0.073356 0-0.13856-0.00815-0.057055-0.016301-0.097809-0.065205-0.040753-0.048904-0.065205-0.14671-0.024452-0.097808-0.024452-0.26082v-0.33418q0-0.21192-0.024452-0.34233-0.016301-0.13041-0.089657-0.19562-0.065205-0.073356-0.19562-0.089657-0.13041-0.024452-0.34233-0.024452h-1.1411q-0.21192 0-0.34233 0.024452-0.13041 0.016301-0.20377 0.089657-0.065205 0.065205-0.089657 0.19562-0.016301 0.13041-0.016301 0.34233v1.1411q0 0.21192 0.016301 0.34233 0.024452 0.13041 0.089657 0.20377 0.073356 0.065205 0.20377 0.089657 0.13041 0.016301 0.34233 0.016301h1.1411q0.45644 0 0.71726 0.032603 0.26082 0.032603 0.39123 0.16301 0.13041 0.13041 0.16301 0.39123 0.032603 0.26082 0.032603 0.72541v1.1411q0 0.45644-0.032603 0.71726-0.024452 0.26082-0.15486 0.39123-0.13041 0.12226-0.39938 0.15486-0.26082 0.032603-0.71726 0.032603h-1.1411q-0.45644 0-0.71726-0.032603-0.26082-0.032602-0.39123-0.16301-0.13041-0.13041-0.16301-0.39123t-0.032603-0.71726v-0.16301q0-0.21192 0.016301-0.34233 0.024452-0.13041 0.089657-0.19562 0.073356-0.073356 0.20377-0.089657 0.13041-0.024452 0.34233-0.024452 0.21192 0 0.34233 0.024452 0.13041 0.016301 0.19562 0.089657 0.073356 0.065205 0.089657 0.19562 0.024452 0.13041 0.024452 0.34233v0.16301q0 0.21192 0.016301 0.34233 0.024452 0.13041 0.089657 0.20377 0.073356 0.065205 0.20377 0.089657 0.13041 0.016301 0.34233 0.016301h0.48904q0.21192 0 0.34233-0.016301 0.13041-0.024452 0.19562-0.089657 0.073356-0.073356 0.089657-0.19562 0.024452-0.13041 0.024452-0.35048v-1.1329q0-0.22007-0.024452-0.35048-0.0163-0.13041-0.089656-0.19562-0.065205-0.073356-0.19562-0.089657-0.13041-0.024452-0.34233-0.024452h-1.1411q-0.45644 0-0.71726-0.032603-0.26082-0.032602-0.39123-0.16301-0.13041-0.13041-0.16301-0.39123-0.032603-0.26082-0.032603-0.71726z"/><path d="m5.2033 2.0979q0-0.45644 0.032603-0.71726 0.032602-0.26082 0.16301-0.39123 0.13041-0.13041 0.39123-0.16301t0.71726-0.032603h1.7931q0.45644 0 0.71726 0.032603 0.26082 0.032603 0.39123 0.16301 0.13041 0.13041 0.16301 0.39123 0.032603 0.26082 0.032603 0.71726v4.2383q0 0.45644-0.032603 0.71726-0.032603 0.26082-0.16301 0.39123-0.13041 0.13041-0.39123 0.16301-0.26082 0.032603-0.71726 0.032603h-1.7931q-0.45644 0-0.71726-0.032603-0.26082-0.032602-0.39123-0.16301-0.13041-0.13041-0.16301-0.39123-0.032603-0.26082-0.032603-0.71726zm2.9342 2.2007q0-0.15486 0.032603-0.24452 0.032603-0.097808 0.081507-0.15486 0.057055-0.065205 0.13041-0.097808 0.073356-0.040753 0.16301-0.073356 0.081507-0.032603 0.15486-0.065205 0.081507-0.032603 0.13041-0.089657 0.057055-0.065205 0.089657-0.16301 0.032603-0.097808 0.032603-0.25267v-1.0596q0-0.21192-0.024452-0.34233-0.016302-0.13041-0.089658-0.19562-0.065205-0.073356-0.19562-0.089657-0.13041-0.024452-0.34233-0.024452h-1.7931q-0.21192 0-0.34233 0.024452-0.13041 0.016301-0.20377 0.089657-0.065205 0.065205-0.089657 0.19562-0.016301 0.13041-0.016301 0.34233v4.2383q0 0.21192 0.016301 0.34233 0.024452 0.13041 0.097808 0.20377 0.073356 0.065205 0.20377 0.089657 0.13856 0.016301 0.35863 0.016301h0.95363q0.21192 0 0.34233-0.016301 0.13041-0.024452 0.19562-0.089657 0.073356-0.073356 0.089657-0.20377 0.024452-0.13041 0.024452-0.34233z"/><path d="m12.221 2.4483q0.08966 0.18747 0.21192 0.18747 0.13041 0 0.22822-0.17931l0.6765-1.1818q0.09781-0.17116 0.16301-0.26082 0.06521-0.097808 0.14671-0.14671 0.08151-0.048904 0.19562-0.057055 0.12226-0.016301 0.32603-0.016301h0.81507q0.21192 0 0.34233 0.024452 0.13041 0.016301 0.19562 0.089657 0.07336 0.065205 0.08966 0.19562 0.02445 0.13041 0.02445 0.34233v5.5425q0 0.21192-0.02445 0.34233-0.0163 0.13041-0.08966 0.20377-0.06521 0.065205-0.19562 0.089657-0.13041 0.016301-0.34233 0.016301h-0.16301q-0.21192 0-0.34233-0.016301-0.13041-0.024452-0.20377-0.089657-0.0652-0.073356-0.08966-0.20377-0.0163-0.13041-0.0163-0.34233v-5.2164q0-0.13041-0.04075-0.18747-0.0326-0.065205-0.08151-0.065205-0.0489-0.00815-0.10596 0.032603-0.0489 0.040753-0.08151 0.097808l-1.1981 2.0784q-0.12226 0.21192-0.28527 0.22007-0.16301 0.00815-0.26897-0.22007l-0.94547-2.0458q-0.0489-0.11411-0.15486-0.10596-0.09781 0.00815-0.09781 0.19562v5.3794q0 0.30973-0.07336 0.39938-0.06521 0.089657-0.25267 0.089657-0.18747 0-0.26082-0.089657-0.0652-0.089657-0.0652-0.39938v-5.7055q0-0.21192 0.0163-0.34233 0.02445-0.13041 0.08966-0.19562 0.07336-0.073356 0.20377-0.089657 0.13041-0.024452 0.34233-0.024452h0.11411q0.16301 0 0.26082 0.016301 0.09781 0.008151 0.15486 0.057055 0.06521 0.048904 0.11411 0.14671 0.05705 0.089657 0.13041 0.26082z"/><path d="m16.288 2.0979q0-0.45644 0.0326-0.71726 0.0326-0.26082 0.16301-0.39123 0.13041-0.13041 0.39123-0.16301 0.26082-0.032603 0.71726-0.032603h1.7931q0.30972 0 0.39938 0.073356 0.08966 0.065205 0.08966 0.25267 0 0.18747-0.08966 0.26082-0.08966 0.065205-0.39938 0.065205h-1.7931q-0.21192 0-0.34233 0.024452-0.13041 0.016301-0.20377 0.089657-0.06521 0.065205-0.08966 0.19562-0.0163 0.13041-0.0163 0.34233v1.1411q0 0.21192 0.0163 0.34233 0.02445 0.13041 0.08966 0.20377 0.07336 0.065205 0.20377 0.089657 0.13041 0.016301 0.34233 0.016301h1.7931q0.30972 0 0.39938 0.073356 0.08966 0.065205 0.08966 0.25267 0 0.18747-0.08966 0.26082-0.08966 0.065205-0.39938 0.065205h-0.97808q-0.21192 0-0.34233 0.024452-0.13041 0.016301-0.20377 0.089657-0.06521 0.065205-0.08966 0.19562-0.0163 0.13041-0.0163 0.34233v1.1411q0 0.21192 0.0163 0.34233 0.02445 0.13041 0.08966 0.20377 0.07336 0.065205 0.20377 0.089657 0.13041 0.016301 0.34233 0.016301h0.97808q0.30972 0 0.39938 0.073356 0.08966 0.065205 0.08966 0.25267 0 0.18747-0.08966 0.26082-0.08966 0.065205-0.39938 0.065205h-1.7931q-0.45644 0-0.71726-0.032603-0.26082-0.032603-0.39123-0.16301-0.13041-0.13041-0.16301-0.39123-0.0326-0.26082-0.0326-0.71726z"/><path d="m20.445 1.1279q0-0.18747 0.08966-0.26082 0.08966-0.073356 0.39938-0.073356h3.5863q0.30973 0 0.39938 0.073356 0.08966 0.073356 0.08966 0.26082 0 0.17931-0.08966 0.25267-0.08966 0.065205-0.39938 0.065205h-0.32603q-0.21192 0-0.34233 0.024452-0.13041 0.016301-0.20377 0.089657-0.06521 0.065205-0.08966 0.19562-0.0163 0.13041-0.0163 0.34233v4.8904q0 0.21192-0.02445 0.34233-0.0163 0.13041-0.08966 0.20377-0.07336 0.065205-0.22007 0.089657-0.13856 0.016301-0.38308 0.016301-0.25267 0-0.39938-0.016301-0.14671-0.024452-0.22822-0.089657-0.07336-0.073356-0.09781-0.20377t-0.02445-0.34233v-4.8904q0-0.21192-0.02445-0.34233-0.0163-0.13041-0.08966-0.19562-0.06521-0.073356-0.19562-0.089657-0.13041-0.024452-0.34233-0.024452h-0.48904q-0.30972 0-0.39938-0.065205-0.08966-0.073356-0.08966-0.25267z"/><path d="m29.166 5.1951q0-0.21192-0.02445-0.34233-0.0163-0.13041-0.08966-0.19562-0.0652-0.073356-0.19562-0.089657-0.13041-0.024452-0.34233-0.024452h-0.81507q-0.21192 0-0.34233 0.024452-0.13041 0.016301-0.20377 0.089657-0.06521 0.065205-0.08966 0.19562-0.0163 0.13041-0.0163 0.34233v1.7931q0 0.21192-0.02445 0.34233-0.0163 0.13041-0.08966 0.20377-0.06521 0.065205-0.19562 0.089657-0.13041 0.016301-0.34233 0.016301h-0.16301q-0.21192 0-0.34233-0.016301-0.13041-0.024452-0.20377-0.089657-0.06521-0.073356-0.08966-0.20377-0.0163-0.13041-0.0163-0.34233v-5.787q0-0.24452 0.06521-0.32603 0.07336-0.081507 0.26082-0.081507 0.18747 0 0.25267 0.081507 0.07336 0.081507 0.07336 0.32603v2.0377q0 0.21192 0.0163 0.34233 0.02445 0.13041 0.08966 0.20377 0.07336 0.065205 0.20377 0.089657 0.13041 0.016301 0.35048 0.016301h1.622q0.21192 0 0.34233-0.016301 0.13041-0.024452 0.19562-0.089657 0.07336-0.073356 0.08966-0.20377 0.02445-0.13041 0.02445-0.34233v-2.0377q0-0.24452 0.06521-0.32603 0.07336-0.081507 0.26082-0.081507 0.18747 0 0.25267 0.081507 0.07336 0.081507 0.07336 0.32603v5.95q0 0.30973-0.07336 0.39938-0.0652 0.089657-0.25267 0.089657-0.18746 0-0.26082-0.089657-0.06521-0.089657-0.06521-0.39938z"/><path d="m30.47 5.0321q0-0.15486 0.0326-0.24452 0.0326-0.097808 0.08151-0.15486 0.05705-0.065205 0.13041-0.097808 0.07336-0.040753 0.16301-0.073356 0.08151-0.032603 0.15486-0.065205 0.08151-0.032603 0.13041-0.089657 0.05705-0.065205 0.08966-0.16301 0.0326-0.097808 0.0326-0.25267v-2.6082q0-0.30973 0.0652-0.39938 0.07336-0.089657 0.26082-0.089657 0.18746 0 0.25267 0.089657 0.07336 0.089657 0.07336 0.39938v5.7055q0 0.21192-0.02445 0.34233-0.0163 0.13041-0.08966 0.20377-0.06521 0.065205-0.19562 0.089657-0.13041 0.016301-0.34233 0.016301h-0.16301q-0.21192 0-0.34233-0.016301-0.13041-0.024452-0.20377-0.089657-0.06521-0.073356-0.08966-0.20377-0.0163-0.13041-0.0163-0.34233z"/><path d="m36.502 5.6842q0-0.22822-0.0082-0.35863 0-0.13041-0.0326-0.22822t-0.09781-0.18747q-0.06521-0.097808-0.18747-0.24452l-2.4533-2.9831q-0.08966-0.10596-0.15486-0.14671-0.05706-0.040753-0.14671-0.040753-0.08966 0-0.13856 0.057055-0.04075 0.057055-0.04075 0.22007v5.3794q0 0.30973-0.07336 0.39938-0.06521 0.089657-0.25267 0.089657-0.18746 0-0.26082-0.089657-0.0652-0.089657-0.0652-0.39938v-5.7055q0-0.21192 0.0163-0.34233 0.02445-0.13041 0.08966-0.19562 0.07336-0.073356 0.20377-0.089657 0.13041-0.024452 0.34233-0.024452h0.16301q0.14671 0 0.23637 0.008151 0.08966 0.008151 0.16301 0.057055 0.08151 0.040753 0.17116 0.13856 0.09781 0.097808 0.24452 0.27712l1.8828 2.2985q0.13856 0.16301 0.23637 0.16301 0.16301 0 0.16301-0.33418v-2.1192q0-0.30973 0.06521-0.39938 0.07336-0.089657 0.26082-0.089657 0.18746 0 0.25267 0.089657 0.07336 0.089657 0.07336 0.39938v5.8685q0 0.30973-0.07336 0.39938-0.06521 0.089657-0.25267 0.089657-0.18746 0-0.26082-0.089657-0.06521-0.089657-0.06521-0.39938z"/><path d="m40.74 4.5431q-0.24452 0-0.32603-0.065205-0.08151-0.073356-0.08151-0.26082 0-0.18747 0.08151-0.25267 0.08151-0.073356 0.32603-0.073356h0.24452q0.45644 0 0.71726 0.032603 0.26082 0.032603 0.39123 0.16301 0.13041 0.13041 0.16301 0.39123 0.0326 0.26082 0.0326 0.71726v1.1411q0 0.45644-0.0326 0.71726t-0.16301 0.39123q-0.12226 0.13041-0.38308 0.16301-0.26082 0.032603-0.71726 0.032603h-1.8828q-0.45644 0-0.71726-0.032603-0.26082-0.032603-0.39123-0.16301-0.13041-0.13041-0.16301-0.39123-0.032602-0.26082-0.032602-0.71726v-4.2383q0-0.45644 0.0326-0.71726 0.0326-0.26082 0.16301-0.39123 0.13041-0.13041 0.39123-0.16301 0.26082-0.032603 0.71726-0.032603h1.8094q0.44829 0 0.70911 0.032603 0.26082 0.032603 0.38308 0.16301 0.13041 0.13041 0.16301 0.39123 0.0326 0.26082 0.0326 0.71726v0.081507q0 0.18747-0.02445 0.30157-0.0163 0.10596-0.08966 0.17116-0.0652 0.057055-0.19562 0.081507-0.13041 0.016301-0.34233 0.016301-0.21192 0-0.34233-0.016301-0.13041-0.024452-0.20377-0.081507-0.06521-0.065205-0.08966-0.17116-0.0163-0.11411-0.0163-0.30157v-0.14671q0-0.21192-0.02445-0.34233-0.0163-0.13041-0.08966-0.19562-0.06521-0.073356-0.19562-0.089657-0.13041-0.024452-0.34233-0.024452h-0.32603q-0.21192 0-0.34233 0.024452-0.13041 0.016301-0.20377 0.089657-0.06521 0.065205-0.08966 0.19562-0.0163 0.13041-0.0163 0.34233v4.3036q0 0.21192 0.0163 0.34233 0.02445 0.13041 0.08966 0.20377 0.07336 0.065205 0.20377 0.089657 0.13041 0.016301 0.34233 0.016301h1.0596q0.21192 0 0.34233-0.016301 0.13041-0.024452 0.19562-0.089657 0.07336-0.073356 0.08966-0.20377 0.02445-0.13041 0.02445-0.34233v-1.1411q0-0.21192-0.02445-0.34233-0.0163-0.13041-0.08966-0.19562-0.06521-0.073356-0.19562-0.089657-0.13041-0.024452-0.34233-0.024452z"/></g></svg>
