<svg width="300" height="32" version="1.1" viewBox="0 0 300 32" xmlns="http://www.w3.org/2000/svg"><g stroke-width=".84979" aria-label="somethingSTRANGE"><path d="m2 19.685h6.3568q0.48133 0 0.71369-0.14938 0.24896-0.16598 0.24896-0.49792 0-0.19917-0.13278-0.38174-0.13278-0.18257-0.33195-0.28216l-2.4564-1.029q-2.0913-0.87967-3.1037-2.1245-1.0124-1.2448-1.0124-2.9378 0-2.1743 1.5768-3.4191 1.5768-1.2448 4.3651-1.2448h5.7427v4.5311h-5.6763q-0.34855 0-0.58091 0.18257-0.23237 0.18257-0.23237 0.46473 0 0.18257 0.13278 0.38174 0.13278 0.18257 0.31535 0.24896l2.3402 0.99585q2.4232 1.0124 3.5021 2.2573 1.0954 1.2282 1.0954 2.971 0 1.2116-0.54772 2.2075-0.53112 0.99585-1.527 1.6763-0.76348 0.48133-1.7759 0.6971-0.99585 0.21577-3.4357 0.21577h-5.5768z"/><path d="m22.1 15.983q0 1.4274 0.89626 2.4398 0.89627 0.99585 2.1577 0.99585 1.278 0 2.1909-0.99585 0.91286-1.0124 0.91286-2.4398t-0.91286-2.4232q-0.91286-1.0124-2.1909-1.0124-1.2614 0-2.1577 1.0124-0.89626 0.99585-0.89626 2.4232zm-5.444 0.0332q0-1.7593 0.6307-3.3195 0.6473-1.5768 1.8921-2.8714 1.2116-1.2282 2.7386-1.8755 1.5436-0.6639 3.2365-0.6639 1.7261 0 3.2697 0.6639 1.5602 0.6473 2.7552 1.8755 1.2116 1.2448 1.8423 2.8382 0.6307 1.5768 0.6307 3.3527 0 1.7759-0.6307 3.3693-0.63071 1.5768-1.8423 2.8216-1.195 1.2282-2.7552 1.8921-1.5436 0.6473-3.2697 0.6473-1.6929 0-3.2365-0.6473-1.527-0.6639-2.7386-1.8921-1.2448-1.2946-1.8921-2.8548-0.6307-1.5768-0.6307-3.3361z"/><path d="m35.925 24.448v-8.8797q0-3.7344 1.9917-6.0083 2.0083-2.2739 5.2116-2.2739 1.444 0 2.7054 0.56432 1.278 0.56432 2.2573 1.6432 1.0124-1.0622 2.2739-1.6266 1.2614-0.58091 2.556-0.58091 3.3527 0 5.3776 2.2573 2.0249 2.2407 2.0249 6.0249v8.8797h-5.2282v-9.6929q0-1.029-0.61411-1.6929-0.61411-0.6805-1.5602-0.6805t-1.5768 0.6805q-0.6307 0.6639-0.6307 1.6929v9.6929h-5.195v-9.6929q0-1.029-0.6307-1.6929-0.6307-0.6805-1.5934-0.6805-0.94606 0-1.5602 0.6805-0.61411 0.6639-0.61411 1.6929v9.6929z"/><path d="m80.207 18.191q-1.3278 3.1369-3.7178 4.8465-2.39 1.7095-5.4274 1.7095-1.6763 0-3.2365-0.6473-1.5436-0.6639-2.7386-1.8921-1.2448-1.2614-1.8921-2.8382-0.6307-1.5768-0.6307-3.3527 0-1.7759 0.6307-3.3527 0.6473-1.5768 1.8921-2.8382 1.195-1.2116 2.722-1.8589 1.5436-0.6473 3.2531-0.6473 2.556 0 4.5975 1.361 2.0415 1.3444 3.3527 3.9336l-8.1494 5.5436-2.0415-3.0871 4.4149-3.0705q-0.43154-0.28216-0.89627-0.41494-0.46473-0.14938-0.96266-0.14938-1.5602 0-2.6556 1.195-1.0954 1.1784-1.0954 2.9046 0 1.7593 1.0788 2.9544 1.0788 1.195 2.639 1.195 1.4606 0 2.7054-0.87967 1.2614-0.87967 2.1411-2.556z"/><path d="m81.983 3.5021h5.278v4.1162h4.166v4.9295h-4.166v5.3112q0 0.89627 0.38174 1.2614 0.39834 0.36514 1.3776 0.36514h2.4066v4.9627h-1.9585q-3.8506 0-5.6763-1.6763-1.8091-1.6929-1.8091-5.2946z"/><path d="m94.05 24.448v-23.768h5.278v8.0332q0.79668-0.71369 1.7759-1.0622 0.97925-0.36515 2.0581-0.36515 2.888 0 4.5975 2.2241 1.7261 2.2241 1.7261 6.0581v8.8797h-5.2614v-9.3776q0-1.1784-0.6971-1.9087-0.68049-0.74689-1.7593-0.74689-1.0622 0-1.7593 0.74689-0.6805 0.73029-0.6805 1.9087v9.3776z"/><path d="m112.04 3.0705q0-1.278 0.89627-2.1743 0.91286-0.89627 2.1909-0.89627t2.1743 0.89627q0.91286 0.89627 0.91286 2.1743t-0.91286 2.1909q-0.89626 0.89627-2.1743 0.89627t-2.1909-0.89627q-0.89627-0.91286-0.89627-2.1909zm0.39834 21.378v-16.83h5.3776v16.83z"/><path d="m130.9 24.448v-9.3776q0-1.1784-0.6805-1.9087-0.68049-0.74689-1.7593-0.74689t-1.7759 0.74689q-0.68049 0.73029-0.68049 1.9087v9.3776h-5.2614v-8.5311q0-3.9502 2.1079-6.2905 2.1245-2.3402 5.61-2.3402 1.8921 0 3.5353 0.84647 1.6598 0.82988 2.7884 2.3734 0.73029 1.029 1.0622 2.2739 0.33195 1.2448 0.33195 3.1369v8.5311z"/><path d="m155.28 23.502q0 4.0664-2.2573 6.2739-2.2573 2.2241-6.4398 2.2241-1.4772 0-2.971-0.19917-1.4938-0.18257-2.9544-0.54772v-5.112q1.444 0.46473 2.7386 0.6971 1.2946 0.23236 2.473 0.23236 2.3568 0 3.2531-0.91286 0.89626-0.91286 0.89626-3.5519v-6.2075q0-1.8755-0.81327-2.805-0.79668-0.94606-2.39-0.94606-1.3278 0-2.1577 0.92946-0.82988 0.91286-0.82988 2.4066 0 1.5436 0.86307 2.4564 0.87967 0.91286 2.39 0.91286 0.36514 0 0.84647-0.09959t1.2614-0.34855v5.3444q-0.71369 0.13278-1.2946 0.19917-0.56431 0.06639-1.0456 0.06639-3.668 0-6.0581-2.4232-2.3734-2.4398-2.3734-6.1743 0-3.7344 2.4066-6.1743 2.4066-2.4564 6.0581-2.4564 2.5394 0 4.5809 1.2946 2.0415 1.2946 3.0705 3.5685 0.39834 0.86307 0.56431 1.9253 0.18257 1.0456 0.18257 3.3361z"/><path d="m157.73 24.448v-5.6763h8.1826q0.71369 0 1.0954-0.29876 0.39834-0.29876 0.39834-0.86307 0-0.49793-0.39834-0.97925-0.39834-0.49793-1.2282-1.0124l-4.5643-2.7552q-1.5602-0.96266-2.4896-2.473-0.92946-1.527-0.92946-3.1369 0-1.5602 0.53112-2.8216 0.53112-1.278 1.5768-2.1743 0.97925-0.86307 2.4066-1.2116 1.4274-0.36515 4.6307-0.36515h5.4274v5.444h-6.2241q-1.2946 0-1.7925 0.21577-0.48133 0.19917-0.48133 0.6971 0 0.48133 0.38175 0.96266 0.38174 0.46473 1.1784 0.94606l4.4647 2.6556q1.9087 1.1618 2.9046 2.7552t0.99585 3.4689q0 1.61-0.68049 2.9876-0.6805 1.3776-1.8921 2.2407-1.0622 0.74689-2.39 1.0788-1.3278 0.31535-4.2158 0.31535h-0.36514z"/><path d="m186.32 6.2241v18.224h-5.9087v-18.224h-5.0954v-5.5436h16.1v5.5436z"/><path d="m193.39 24.415v-15.535q0-3.8672 2.3402-6.2407 2.3568-2.39 6.1577-2.39 3.4689 0 5.8921 2.0415 2.4398 2.0249 2.4398 4.8631 0 1.8091-1.029 3.1867-1.029 1.3776-2.8548 1.9751 2.2739 0.24896 3.2531 1.3942 0.99585 1.1286 0.99585 3.5353v7.2033h-5.9087v-5.7427q0-1.8755-0.79668-2.5726-0.79668-0.6971-3.0705-0.6971h-0.54772v-5.3278h0.87967q1.4274 0 2.1577-0.56431 0.73029-0.56432 0.73029-1.6763 0-0.96266-0.63071-1.5934-0.6141-0.63071-1.5436-0.63071-1.2116 0-1.8755 0.86307t-0.6639 2.4398v15.469z"/><path d="m213.2 24.448v-14.041q0-4.6307 2.473-7.3693 2.473-2.7552 6.5726-2.7552 4.0996 0 6.5892 2.7552 2.4896 2.7552 2.4896 7.3693v14.041h-5.8921v-8.7967h-5.2946v-5.5768h5.2946v-0.28216q0-1.7095-0.86307-2.722-0.86307-1.0124-2.3236-1.0124-1.5436 0-2.3568 1.0456-0.79668 1.029-0.79668 3.0041v14.34z"/><path d="m234.61 24.448v-20.116q0-1.9087 0.97925-3.0207 0.99586-1.1286 2.639-1.1286 1.361 0 2.3402 0.78008 0.97925 0.76349 2.1743 2.9544l3.1203 5.6432q0.97926 1.7759 1.527 2.9876 0.56432 1.2116 0.89627 2.2407-0.19917-2.1909-0.31535-3.9668-0.0996-1.7759-0.0996-2.722v-7.4191h5.7095v20.913q0 1.444-0.82987 2.3402-0.81328 0.89626-2.1577 0.89626-1.1452 0-1.9585-0.59751-0.79668-0.59751-1.7427-2.3071l-4.6307-8.3485q-0.14937-0.28216-0.44813-0.82988-1.5436-2.7718-2.1245-4.4813 0.33195 2.3734 0.48133 4.332 0.16597 1.9419 0.16597 3.6515v8.1992z"/><path d="m277.97 3.9502-3.9834 4.2158q-1.2946-1.1452-2.5726-1.6929-1.2614-0.54772-2.5892-0.54772-2.722 0-4.5809 1.8921-1.8423 1.8921-1.8423 4.6971 0 2.7386 1.7925 4.5809 1.7925 1.8423 4.4315 1.8423 1.8589 0 3.2863-1.0456 1.4274-1.0456 2.1079-2.9212h-5.8423v-5.278h12.415v0.99585q0 2.3568-0.34854 4.1992-0.34855 1.8257-1.0788 3.3029-1.5104 3.1203-4.3154 4.8963-2.7884 1.7759-6.1909 1.7759-2.556 0-4.7967-0.92946-2.2407-0.92946-3.9834-2.6888-1.7261-1.7593-2.6556-3.9834-0.91286-2.2407-0.91286-4.7137t0.91286-4.6805q0.92946-2.2241 2.6888-3.9834 1.7427-1.7759 4.0332-2.7054 2.2905-0.92946 4.8797-0.92946 2.5228 0 4.7967 0.92946 2.2905 0.91286 4.3486 2.7718z"/><path d="m297.95 24.448h-0.61411q-3.1037 0-5.4274-0.49793-2.3236-0.49792-3.917-1.5104-2.6058-1.6763-4.0332-4.249-1.4108-2.5726-1.4108-5.6432 0-3.0705 1.4108-5.6266 1.4108-2.556 4.0332-4.2324 1.5934-1.0124 3.917-1.5104 2.3236-0.49793 5.4274-0.49793h0.61411v5.4108q-0.23236-0.016597-0.49792-0.016597-0.24897-0.016598-0.73029-0.016598-3.1203 0-4.9627 0.91286t-2.639 2.8216h8.8299v5.3112h-8.9461q0.59751 1.9585 2.556 2.9544 1.9585 0.97925 5.278 0.97925 0.44813 0 0.6805 0 0.24896-0.0166 0.43153-0.0166z"/></g></svg>